<svg id="Layer_1" data-name="Layer 1" xmlns="http://www.w3.org/2000/svg" width="116.46" height="97.93" viewBox="0 0 116.46 97.93"><defs><style>.cls-1{fill:none;stroke:#fff;stroke-miterlimit:10;stroke-width:2px;}</style></defs><polyline class="cls-1" points="12.81 36.83 115.47 36.83 115.47 96.92 1 96.92 1 36.83"/><line class="cls-1" x1="23.56" y1="49.93" x2="115.46" y2="49.93"/><polygon class="cls-1" points="1 31.25 1 49.92 25.45 49.92 1 25.78 1 31.25"/><polyline class="cls-1" points="3.95 28.69 115.47 1.28 115.47 12.81 16.72 36.83"/><circle class="cls-1" cx="7.61" cy="40.84" r="2.11"/><line class="cls-1" x1="15.79" y1="25.78" x2="22.68" y2="35.38"/><line class="cls-1" x1="28.37" y1="22.69" x2="35.4" y2="32.28"/><line class="cls-1" x1="42.07" y1="19.32" x2="48.16" y2="29.18"/><line class="cls-1" x1="56.3" y1="15.82" x2="62.15" y2="25.78"/><line class="cls-1" x1="69.51" y1="12.57" x2="74.86" y2="22.69"/><line class="cls-1" x1="82.19" y1="9.46" x2="87.24" y2="19.32"/><line class="cls-1" x1="96.32" y1="5.98" x2="101.11" y2="16.3"/><line class="cls-1" x1="31.88" y1="37.85" x2="31.88" y2="49.19"/><line class="cls-1" x1="45.76" y1="36.83" x2="45.76" y2="49.93"/><line class="cls-1" x1="59.71" y1="36.83" x2="59.71" y2="49.19"/><line class="cls-1" x1="72.94" y1="37.85" x2="72.94" y2="49.19"/><line class="cls-1" x1="86.23" y1="37.85" x2="86.23" y2="49.19"/><line class="cls-1" x1="100.12" y1="36.83" x2="100.12" y2="49.19"/></svg>
