<svg id="Layer_1" data-name="Layer 1" xmlns="http://www.w3.org/2000/svg" width="121.89" height="83.62" viewBox="0 0 121.89 83.62"><defs><style>.cls-1{fill:none;stroke:#fff;stroke-miterlimit:10;stroke-width:2px;}</style></defs><rect class="cls-1" x="1" y="1" width="83.89" height="21.9"/><rect class="cls-1" x="1" y="28.7" width="41.94" height="47.9"/><rect class="cls-1" x="48.84" y="28.7" width="36.05" height="9.4"/><rect class="cls-1" x="48.84" y="48.05" width="36.05" height="9.4"/><path class="cls-1" d="M73.1,73.18c.87-1,1.76-1.88,2.66-2.81l.14-.14.3-.33c.78-.87,1.56-1.7,2.36-2.5H48.84v9.4H70Q71.5,74.94,73.1,73.18Z"/><path class="cls-1" d="M86,61.86a5.84,5.84,0,0,0-3.47,3.77c-.88,2.92.44,6,.19,9.08A9,9,0,0,1,76,82.53a10.65,10.65,0,0,0,10.24-4.71c.81-1.28,1.41-2.81,2.73-3.55s2.65-.52,3.93-1a4.57,4.57,0,0,0,2.34-1.76,5.47,5.47,0,0,0,.09-5.62C93.79,63.16,89.14,60.72,86,61.86Z"/><path class="cls-1" d="M91.83,53a6.87,6.87,0,1,0,11.72,6.71C99.53,57.69,95.71,55.27,91.83,53Z"/><polyline class="cls-1" points="91.83 52.99 111.96 19.6 114.54 18.35 120.89 21.64 120.89 24.94 103.55 59.7"/></svg>
