<svg id="Layer_1" data-name="Layer 1" xmlns="http://www.w3.org/2000/svg" width="400" height="300" viewBox="0 0 400 300"><defs><style>.cls-1{fill:#3e3739;}.cls-1,.cls-3,.cls-4,.cls-5{stroke:#000;stroke-miterlimit:10;}.cls-2{opacity:0.3;}.cls-3{fill:#9d9d9c;}.cls-4{fill:#1d1d1b;}.cls-5{fill:#fff;}</style></defs><rect class="cls-1" x="-11.26" y="-10.87" width="418.95" height="315.37"/><g class="cls-2"><rect class="cls-3" x="182.48" y="37.61" width="78.47" height="44.26" transform="translate(-0.48 1.79) rotate(-0.46)"/><rect class="cls-3" x="182.33" y="37.61" width="78.47" height="7" transform="translate(-0.33 1.79) rotate(-0.46)"/><path class="cls-3" d="M254.47,14.57,185.93,31.84c-1.82.46-2.85,2-2.3,3.54l.74,2a3.58,3.58,0,0,0,4.28,1.88L257.19,22c1.82-.46,2.84-2,2.29-3.54l-.73-2A3.6,3.6,0,0,0,254.47,14.57Z"/><polygon class="cls-3" points="182.24 31.03 182.36 44.92 199.24 44.78 190.68 30.96 182.24 31.03"/><polygon class="cls-4" points="203.47 35.15 199.48 36.53 196.04 29.75 200.03 28.36 203.47 35.15"/><polygon class="cls-4" points="219.13 44.14 214.81 44.3 214.47 37.77 218.8 37.61 219.13 44.14"/><polygon class="cls-4" points="209.79 44.22 205.47 44.38 205.13 37.85 209.46 37.69 209.79 44.22"/><polygon class="cls-4" points="229.07 44.25 224.74 44.41 224.41 37.88 228.74 37.72 229.07 44.25"/><polygon class="cls-4" points="239.16 44.17 234.83 44.33 234.5 37.8 238.83 37.64 239.16 44.17"/><polygon class="cls-4" points="248.71 43.9 244.39 44.06 244.06 37.53 248.38 37.37 248.71 43.9"/><polygon class="cls-4" points="257.66 44.02 253.34 44.18 253 37.65 257.33 37.49 257.66 44.02"/><polygon class="cls-4" points="211.94 32.98 207.95 34.37 204.51 27.58 208.5 26.19 211.94 32.98"/><polygon class="cls-4" points="220.42 30.84 216.42 32.23 212.98 25.45 216.98 24.06 220.42 30.84"/><polygon class="cls-4" points="228.13 28.9 224.13 30.29 220.69 23.5 224.69 22.11 228.13 28.9"/><polygon class="cls-4" points="236.42 26.81 232.42 28.2 228.98 21.41 232.98 20.03 236.42 26.81"/><polygon class="cls-4" points="243.94 24.92 239.94 26.31 236.51 19.52 240.5 18.13 243.94 24.92"/><polygon class="cls-4" points="252.24 22.83 248.24 24.21 244.81 17.43 248.8 16.04 252.24 22.83"/><ellipse class="cls-5" cx="190.6" cy="38.74" rx="1.82" ry="1.5" transform="translate(-0.31 1.54) rotate(-0.46)"/><rect class="cls-3" x="25.15" y="117.66" width="59.64" height="33.64" transform="translate(-1.09 0.45) rotate(-0.46)"/><rect class="cls-3" x="25.04" y="117.66" width="59.64" height="5.32" transform="translate(-0.97 0.45) rotate(-0.46)"/><path class="cls-3" d="M79.87,100.15l-52.1,13.12A2.12,2.12,0,0,0,26,116l.56,1.53a2.72,2.72,0,0,0,3.25,1.43l52.1-13.12a2.13,2.13,0,0,0,1.74-2.7l-.56-1.52A2.72,2.72,0,0,0,79.87,100.15Z"/><polygon class="cls-3" points="24.98 112.65 25.06 123.22 37.89 123.11 31.39 112.6 24.98 112.65"/><polygon class="cls-4" points="41.11 115.78 38.07 116.84 35.46 111.68 38.5 110.63 41.11 115.78"/><polygon class="cls-4" points="53.01 122.62 49.72 122.74 49.47 117.78 52.76 117.66 53.01 122.62"/><polygon class="cls-4" points="45.91 122.68 42.63 122.8 42.37 117.84 45.66 117.72 45.91 122.68"/><polygon class="cls-4" points="60.56 122.7 57.27 122.83 57.02 117.86 60.31 117.74 60.56 122.7"/><polygon class="cls-4" points="68.23 122.64 64.95 122.76 64.69 117.8 67.98 117.68 68.23 122.64"/><polygon class="cls-4" points="75.5 122.44 72.21 122.56 71.95 117.6 75.24 117.48 75.5 122.44"/><polygon class="cls-4" points="82.3 122.53 79.01 122.65 78.76 117.69 82.05 117.57 82.3 122.53"/><polygon class="cls-4" points="47.55 114.14 44.51 115.19 41.9 110.04 44.93 108.98 47.55 114.14"/><polygon class="cls-4" points="53.99 112.52 50.95 113.57 48.34 108.41 51.38 107.36 53.99 112.52"/><polygon class="cls-4" points="59.85 111.04 56.81 112.09 54.2 106.94 57.24 105.88 59.85 111.04"/><polygon class="cls-4" points="66.15 109.45 63.11 110.51 60.5 105.35 63.53 104.29 66.15 109.45"/><polygon class="cls-4" points="71.87 108.01 68.83 109.07 66.22 103.91 69.25 102.85 71.87 108.01"/><polygon class="cls-4" points="78.17 106.42 75.14 107.48 72.52 102.32 75.56 101.26 78.17 106.42"/><ellipse class="cls-5" cx="31.33" cy="118.52" rx="1.38" ry="1.14" transform="translate(-0.96 0.26) rotate(-0.46)"/><rect class="cls-3" x="292.55" y="129.71" width="79.45" height="44.81" transform="translate(76.96 -109.35) rotate(21.08)"/><rect class="cls-3" x="299.34" y="130.97" width="79.45" height="7.08" transform="translate(71.09 -112.97) rotate(21.08)"/><path class="cls-3" d="M379.92,121.76l-71-9.22c-1.88-.25-3.44.86-3.48,2.48l-.05,2.16a3.65,3.65,0,0,0,3.33,3.37l71,9.22c1.88.24,3.44-.87,3.48-2.48l.05-2.17A3.63,3.63,0,0,0,379.92,121.76Z"/><polygon class="cls-3" points="305.79 110.4 300.73 123.53 316.67 129.67 313.76 113.47 305.79 110.4"/><polygon class="cls-4" points="324.25 122.17 319.97 121.99 319.25 114.32 323.53 114.5 324.25 122.17"/><polygon class="cls-4" points="335.65 136.46 331.51 135.01 333.63 128.74 337.76 130.19 335.65 136.46"/><polygon class="cls-4" points="326.82 133.06 322.69 131.6 324.81 125.33 328.94 126.79 326.82 133.06"/><polygon class="cls-4" points="344.96 140.26 340.83 138.8 342.94 132.53 347.08 133.99 344.96 140.26"/><polygon class="cls-4" points="354.5 143.94 350.37 142.48 352.48 136.21 356.61 137.67 354.5 143.94"/><polygon class="cls-4" points="363.6 147.24 359.46 145.78 361.57 139.51 365.71 140.97 363.6 147.24"/><polygon class="cls-4" points="371.98 150.68 367.84 149.22 369.96 142.95 374.09 144.41 371.98 150.68"/><polygon class="cls-4" points="333.03 123.28 328.75 123.1 328.03 115.43 332.31 115.61 333.03 123.28"/><polygon class="cls-4" points="341.8 124.42 337.52 124.24 336.81 116.57 341.09 116.75 341.8 124.42"/><polygon class="cls-4" points="349.79 125.46 345.51 125.28 344.79 117.61 349.07 117.79 349.79 125.46"/><polygon class="cls-4" points="358.37 126.57 354.09 126.4 353.37 118.73 357.65 118.91 358.37 126.57"/><polygon class="cls-4" points="366.16 127.59 361.88 127.41 361.16 119.74 365.44 119.92 366.16 127.59"/><polygon class="cls-4" points="374.75 128.7 370.47 128.53 369.76 120.86 374.04 121.03 374.75 128.7"/><ellipse class="cls-5" cx="310.78" cy="120.77" rx="1.52" ry="1.84" transform="translate(86.3 367.31) rotate(-68.92)"/><rect class="cls-3" x="21.25" y="180.46" width="79.45" height="44.81" transform="translate(164.64 18.13) rotate(46.03)"/><rect class="cls-3" x="34.83" y="186.22" width="79.45" height="7.08" transform="translate(159.36 4.36) rotate(46.03)"/><path class="cls-3" d="M117,195.43,56.52,157.14c-1.61-1-3.49-.67-4.2.78l-1,1.94a3.63,3.63,0,0,0,1.6,4.46l60.45,38.29c1.61,1,3.49.66,4.2-.78l1-1.94A3.65,3.65,0,0,0,117,195.43Z"/><polygon class="cls-3" points="54.55 153.87 44.42 163.63 56.29 175.93 60.48 160.02 54.55 153.87"/><polygon class="cls-4" points="66.32 172.33 62.52 170.36 65.1 163.1 68.91 165.07 66.32 172.33"/><polygon class="cls-4" points="70.63 190.09 67.5 187.03 72.06 182.24 75.19 185.3 70.63 190.09"/><polygon class="cls-4" points="64.06 183.29 60.93 180.22 65.49 175.43 68.63 178.49 64.06 183.29"/><polygon class="cls-4" points="77.48 197.47 74.34 194.4 78.91 189.61 82.04 192.67 77.48 197.47"/><polygon class="cls-4" points="84.57 204.82 81.44 201.75 86 196.96 89.13 200.03 84.57 204.82"/><polygon class="cls-4" points="91.43 211.65 88.29 208.59 92.86 203.79 95.99 206.85 91.43 211.65"/><polygon class="cls-4" points="97.58 218.3 94.44 215.24 99.01 210.44 102.14 213.51 97.58 218.3"/><polygon class="cls-4" points="73.81 177.04 70.01 175.07 72.6 167.81 76.4 169.78 73.81 177.04"/><polygon class="cls-4" points="81.29 181.77 77.48 179.8 80.07 172.55 83.88 174.51 81.29 181.77"/><polygon class="cls-4" points="88.09 186.08 84.29 184.11 86.87 176.86 90.68 178.82 88.09 186.08"/><polygon class="cls-4" points="95.4 190.71 91.6 188.74 94.18 181.49 97.99 183.45 95.4 190.71"/><polygon class="cls-4" points="102.04 194.91 98.23 192.95 100.82 185.69 104.63 187.66 102.04 194.91"/><polygon class="cls-4" points="109.36 199.55 105.55 197.58 108.14 190.33 111.94 192.29 109.36 199.55"/><ellipse class="cls-5" cx="54.7" cy="165.38" rx="1.52" ry="1.84" transform="translate(-99.49 84.34) rotate(-43.97)"/><rect class="cls-3" x="91.8" y="150.77" width="35.27" height="19.89" transform="translate(65.14 -28.61) rotate(21.08)"/><rect class="cls-3" x="94.81" y="151.33" width="35.27" height="3.14" transform="translate(62.53 -30.22) rotate(21.08)"/><path class="cls-3" d="M130.59,147.24l-31.51-4.09a1.25,1.25,0,0,0-1.54,1.1l0,1a1.62,1.62,0,0,0,1.48,1.5l31.51,4.09a1.25,1.25,0,0,0,1.54-1.1l0-1A1.61,1.61,0,0,0,130.59,147.24Z"/><polygon class="cls-3" points="97.68 142.2 95.43 148.03 102.51 150.76 101.22 143.57 97.68 142.2"/><polygon class="cls-4" points="105.87 147.43 103.97 147.35 103.65 143.94 105.55 144.02 105.87 147.43"/><polygon class="cls-4" points="110.93 153.77 109.1 153.13 110.04 150.34 111.87 150.99 110.93 153.77"/><polygon class="cls-4" points="107.02 152.26 105.18 151.62 106.12 148.83 107.95 149.48 107.02 152.26"/><polygon class="cls-4" points="115.07 155.46 113.23 154.81 114.17 152.03 116.01 152.67 115.07 155.46"/><polygon class="cls-4" points="119.3 157.09 117.47 156.44 118.4 153.66 120.24 154.31 119.3 157.09"/><polygon class="cls-4" points="123.34 158.56 121.5 157.91 122.44 155.12 124.28 155.77 123.34 158.56"/><polygon class="cls-4" points="127.06 160.08 125.22 159.44 126.16 156.65 128 157.3 127.06 160.08"/><polygon class="cls-4" points="109.77 147.92 107.87 147.84 107.55 144.44 109.45 144.51 109.77 147.92"/><polygon class="cls-4" points="113.66 148.43 111.76 148.35 111.45 144.94 113.35 145.02 113.66 148.43"/><polygon class="cls-4" points="117.21 148.89 115.31 148.81 114.99 145.4 116.89 145.48 117.21 148.89"/><polygon class="cls-4" points="121.02 149.38 119.12 149.3 118.8 145.9 120.7 145.98 121.02 149.38"/><polygon class="cls-4" points="124.48 149.83 122.58 149.75 122.26 146.35 124.16 146.43 124.48 149.83"/><polygon class="cls-4" points="128.29 150.33 126.39 150.25 126.07 146.84 127.97 146.92 128.29 150.33"/><ellipse class="cls-5" cx="99.89" cy="146.81" rx="0.67" ry="0.82" transform="matrix(0.36, -0.93, 0.93, 0.36, -73.02, 187.2)"/><rect class="cls-3" x="25.8" y="261.8" width="35.27" height="19.89" transform="translate(100.66 2.57) rotate(21.08)"/><rect class="cls-3" x="28.81" y="262.36" width="35.27" height="3.14" transform="translate(98.05 0.96) rotate(21.08)"/><path class="cls-3" d="M64.58,258.27l-31.51-4.1a1.26,1.26,0,0,0-1.54,1.1l0,1a1.61,1.61,0,0,0,1.48,1.5l31.5,4.09a1.24,1.24,0,0,0,1.54-1.1l0-1A1.61,1.61,0,0,0,64.58,258.27Z"/><polygon class="cls-3" points="31.67 253.22 29.42 259.05 36.5 261.78 35.21 254.59 31.67 253.22"/><polygon class="cls-4" points="39.86 258.45 37.97 258.37 37.65 254.97 39.55 255.05 39.86 258.45"/><polygon class="cls-4" points="44.93 264.8 43.09 264.15 44.03 261.36 45.87 262.01 44.93 264.8"/><polygon class="cls-4" points="41.01 263.29 39.17 262.64 40.11 259.85 41.95 260.5 41.01 263.29"/><polygon class="cls-4" points="49.06 266.48 47.23 265.83 48.16 263.05 50 263.7 49.06 266.48"/><polygon class="cls-4" points="53.29 268.11 51.46 267.47 52.4 264.68 54.23 265.33 53.29 268.11"/><polygon class="cls-4" points="57.33 269.58 55.5 268.93 56.44 266.15 58.27 266.79 57.33 269.58"/><polygon class="cls-4" points="61.05 271.11 59.22 270.46 60.16 267.67 61.99 268.32 61.05 271.11"/><polygon class="cls-4" points="43.76 258.94 41.86 258.86 41.55 255.46 43.45 255.54 43.76 258.94"/><polygon class="cls-4" points="47.66 259.45 45.76 259.37 45.44 255.97 47.34 256.04 47.66 259.45"/><polygon class="cls-4" points="51.2 259.91 49.3 259.83 48.98 256.43 50.88 256.5 51.2 259.91"/><polygon class="cls-4" points="55.01 260.4 53.11 260.33 52.8 256.92 54.69 257 55.01 260.4"/><polygon class="cls-4" points="58.47 260.85 56.57 260.77 56.25 257.37 58.15 257.45 58.47 260.85"/><polygon class="cls-4" points="62.28 261.35 60.38 261.27 60.07 257.87 61.97 257.94 62.28 261.35"/><ellipse class="cls-5" cx="33.89" cy="257.83" rx="0.67" ry="0.82" transform="translate(-218.87 196.7) rotate(-68.92)"/><rect class="cls-3" x="264.57" y="240.16" width="35.27" height="19.89" transform="translate(108.86 -84.77) rotate(21.08)"/><rect class="cls-3" x="267.58" y="240.72" width="35.27" height="3.14" transform="translate(106.26 -86.38) rotate(21.08)"/><path class="cls-3" d="M303.35,236.63l-31.5-4.09a1.26,1.26,0,0,0-1.55,1.1l0,1a1.6,1.6,0,0,0,1.48,1.49l31.5,4.1a1.26,1.26,0,0,0,1.55-1.1l0-1A1.61,1.61,0,0,0,303.35,236.63Z"/><polygon class="cls-3" points="270.44 231.59 268.2 237.42 275.28 240.15 273.98 232.95 270.44 231.59"/><polygon class="cls-4" points="278.64 236.81 276.74 236.74 276.42 233.33 278.32 233.41 278.64 236.81"/><polygon class="cls-4" points="283.7 243.16 281.87 242.51 282.8 239.73 284.64 240.38 283.7 243.16"/><polygon class="cls-4" points="279.78 241.65 277.95 241 278.89 238.22 280.72 238.87 279.78 241.65"/><polygon class="cls-4" points="287.83 244.85 286 244.2 286.94 241.41 288.77 242.06 287.83 244.85"/><polygon class="cls-4" points="292.07 246.48 290.23 245.83 291.17 243.05 293.01 243.69 292.07 246.48"/><polygon class="cls-4" points="296.11 247.94 294.27 247.3 295.21 244.51 297.05 245.16 296.11 247.94"/><polygon class="cls-4" points="299.83 249.47 297.99 248.82 298.93 246.04 300.77 246.69 299.83 249.47"/><polygon class="cls-4" points="282.54 237.31 280.64 237.23 280.32 233.82 282.22 233.9 282.54 237.31"/><polygon class="cls-4" points="286.43 237.81 284.53 237.74 284.21 234.33 286.11 234.41 286.43 237.81"/><polygon class="cls-4" points="289.98 238.28 288.08 238.2 287.76 234.79 289.66 234.87 289.98 238.28"/><polygon class="cls-4" points="293.79 238.77 291.89 238.69 291.57 235.29 293.47 235.37 293.79 238.77"/><polygon class="cls-4" points="297.24 239.22 295.34 239.14 295.03 235.74 296.93 235.81 297.24 239.22"/><polygon class="cls-4" points="301.06 239.72 299.16 239.64 298.84 236.23 300.74 236.31 301.06 239.72"/><ellipse class="cls-5" cx="272.66" cy="236.19" rx="0.67" ry="0.82" transform="translate(-45.81 405.64) rotate(-68.92)"/><rect class="cls-3" x="114.25" y="26.33" width="35.27" height="19.89" transform="translate(-4.83 40.63) rotate(-17.21)"/><rect class="cls-3" x="111.77" y="26.7" width="35.27" height="3.14" transform="translate(-2.57 39.54) rotate(-17.21)"/><path class="cls-3" d="M140.14,12.59,112.87,28.9a1.26,1.26,0,0,0-.53,1.82l.58.77a1.63,1.63,0,0,0,2.09.26l27.26-16.31a1.26,1.26,0,0,0,.53-1.82l-.58-.77A1.61,1.61,0,0,0,140.14,12.59Z"/><polygon class="cls-3" points="111.18 29.03 113.03 34.99 120.28 32.75 114.81 27.91 111.18 29.03"/><polygon class="cls-4" points="120.85 28.05 119.31 29.17 116.95 26.69 118.49 25.57 120.85 28.05"/><polygon class="cls-4" points="128.76 29.89 126.92 30.52 125.93 27.76 127.77 27.13 128.76 29.89"/><polygon class="cls-4" points="124.75 31.14 122.9 31.77 121.92 29 123.76 28.37 124.75 31.14"/><polygon class="cls-4" points="133.05 28.66 131.21 29.29 130.22 26.52 132.06 25.89 133.05 28.66"/><polygon class="cls-4" points="137.38 27.31 135.54 27.94 134.55 25.18 136.39 24.55 137.38 27.31"/><polygon class="cls-4" points="141.46 25.96 139.62 26.59 138.63 23.82 140.47 23.2 141.46 25.96"/><polygon class="cls-4" points="145.32 24.85 143.48 25.48 142.5 22.72 144.34 22.09 145.32 24.85"/><polygon class="cls-4" points="124.22 26.02 122.68 27.14 120.32 24.66 121.86 23.55 124.22 26.02"/><polygon class="cls-4" points="127.59 24.01 126.05 25.12 123.69 22.64 125.23 21.53 127.59 24.01"/><polygon class="cls-4" points="130.66 22.17 129.12 23.29 126.76 20.81 128.3 19.7 130.66 22.17"/><polygon class="cls-4" points="133.95 20.2 132.41 21.32 130.05 18.84 131.59 17.72 133.95 20.2"/><polygon class="cls-4" points="136.94 18.41 135.41 19.52 133.05 17.05 134.59 15.93 136.94 18.41"/><polygon class="cls-4" points="140.25 16.43 138.71 17.55 136.35 15.07 137.89 13.96 140.25 16.43"/><ellipse class="cls-5" cx="115.78" cy="31.27" rx="0.82" ry="0.67" transform="translate(-4.07 35.65) rotate(-17.21)"/><rect class="cls-3" x="278.68" y="64.2" width="35.27" height="19.89" transform="translate(-8.67 90.97) rotate(-17.21)"/><rect class="cls-3" x="276.2" y="64.57" width="35.27" height="3.14" transform="translate(-6.42 89.87) rotate(-17.21)"/><path class="cls-3" d="M304.56,50.46,277.3,66.77a1.26,1.26,0,0,0-.53,1.82l.58.77a1.6,1.6,0,0,0,2.08.26L306.7,53.31a1.26,1.26,0,0,0,.53-1.82l-.58-.77A1.63,1.63,0,0,0,304.56,50.46Z"/><polygon class="cls-3" points="275.61 66.9 277.46 72.86 284.7 70.62 279.23 65.78 275.61 66.9"/><polygon class="cls-4" points="285.28 65.92 283.74 67.04 281.38 64.56 282.92 63.45 285.28 65.92"/><polygon class="cls-4" points="293.18 67.77 291.34 68.4 290.35 65.63 292.2 65 293.18 67.77"/><polygon class="cls-4" points="289.17 69.01 287.33 69.64 286.34 66.87 288.19 66.24 289.17 69.01"/><polygon class="cls-4" points="297.47 66.53 295.63 67.16 294.64 64.39 296.49 63.76 297.47 66.53"/><polygon class="cls-4" points="301.81 65.19 299.97 65.81 298.98 63.05 300.82 62.42 301.81 65.19"/><polygon class="cls-4" points="305.88 63.83 304.04 64.46 303.06 61.7 304.9 61.07 305.88 63.83"/><polygon class="cls-4" points="309.75 62.73 307.91 63.35 306.92 60.59 308.76 59.96 309.75 62.73"/><polygon class="cls-4" points="288.64 63.89 287.1 65.01 284.75 62.53 286.29 61.42 288.64 63.89"/><polygon class="cls-4" points="292.01 61.88 290.48 62.99 288.12 60.52 289.66 59.4 292.01 61.88"/><polygon class="cls-4" points="295.08 60.04 293.54 61.16 291.18 58.68 292.72 57.57 295.08 60.04"/><polygon class="cls-4" points="298.38 58.07 296.84 59.19 294.48 56.71 296.02 55.59 298.38 58.07"/><polygon class="cls-4" points="301.37 56.28 299.83 57.4 297.47 54.92 299.01 53.8 301.37 56.28"/><polygon class="cls-4" points="304.67 54.31 303.13 55.42 300.77 52.95 302.31 51.83 304.67 54.31"/><ellipse class="cls-5" cx="280.2" cy="69.14" rx="0.82" ry="0.67" transform="translate(-7.91 85.98) rotate(-17.21)"/><rect class="cls-3" x="301.44" y="197.74" width="35.27" height="19.89" transform="translate(-47.15 103.67) rotate(-17.21)"/><rect class="cls-3" x="298.97" y="198.11" width="35.27" height="3.14" transform="translate(-44.9 102.58) rotate(-17.21)"/><path class="cls-3" d="M327.33,184l-27.27,16.31a1.26,1.26,0,0,0-.53,1.82l.58.77a1.63,1.63,0,0,0,2.09.26l27.26-16.31A1.26,1.26,0,0,0,330,185l-.58-.77A1.6,1.6,0,0,0,327.33,184Z"/><polygon class="cls-3" points="298.37 200.44 300.22 206.4 307.47 204.16 302 199.31 298.37 200.44"/><polygon class="cls-4" points="308.04 199.46 306.5 200.57 304.14 198.1 305.68 196.98 308.04 199.46"/><polygon class="cls-4" points="315.95 201.3 314.11 201.93 313.12 199.16 314.96 198.54 315.95 201.3"/><polygon class="cls-4" points="311.94 202.54 310.1 203.17 309.11 200.41 310.95 199.78 311.94 202.54"/><polygon class="cls-4" points="320.24 200.06 318.4 200.69 317.41 197.93 319.25 197.3 320.24 200.06"/><polygon class="cls-4" points="324.57 198.72 322.73 199.35 321.74 196.58 323.58 195.95 324.57 198.72"/><polygon class="cls-4" points="328.65 197.37 326.81 198 325.82 195.23 327.66 194.6 328.65 197.37"/><polygon class="cls-4" points="332.52 196.26 330.67 196.89 329.69 194.12 331.53 193.49 332.52 196.26"/><polygon class="cls-4" points="311.41 197.43 309.87 198.55 307.51 196.07 309.05 194.96 311.41 197.43"/><polygon class="cls-4" points="314.78 195.41 313.24 196.53 310.88 194.05 312.42 192.94 314.78 195.41"/><polygon class="cls-4" points="317.85 193.58 316.31 194.69 313.95 192.22 315.49 191.1 317.85 193.58"/><polygon class="cls-4" points="321.14 191.61 319.6 192.72 317.24 190.25 318.78 189.13 321.14 191.61"/><polygon class="cls-4" points="324.14 189.82 322.6 190.93 320.24 188.46 321.78 187.34 324.14 189.82"/><polygon class="cls-4" points="327.44 187.84 325.9 188.96 323.54 186.48 325.08 185.37 327.44 187.84"/><ellipse class="cls-5" cx="302.97" cy="202.68" rx="0.82" ry="0.67" transform="translate(-46.39 98.69) rotate(-17.21)"/><rect class="cls-3" x="215.3" y="259.15" width="38.88" height="21.93" transform="translate(-69.39 81.52) rotate(-17.21)"/><rect class="cls-3" x="212.57" y="259.56" width="38.88" height="3.47" transform="translate(-66.91 80.32) rotate(-17.21)"/><path class="cls-3" d="M243.83,244l-30.05,18a1.39,1.39,0,0,0-.58,2l.63.85a1.78,1.78,0,0,0,2.3.28l30.06-18a1.38,1.38,0,0,0,.58-2l-.64-.85A1.78,1.78,0,0,0,243.83,244Z"/><polygon class="cls-3" points="211.92 262.12 213.96 268.7 221.94 266.22 215.91 260.88 211.92 262.12"/><polygon class="cls-4" points="222.58 261.05 220.88 262.28 218.28 259.55 219.98 258.32 222.58 261.05"/><polygon class="cls-4" points="231.29 263.08 229.26 263.77 228.17 260.72 230.2 260.03 231.29 263.08"/><polygon class="cls-4" points="226.87 264.45 224.84 265.14 223.75 262.09 225.78 261.4 226.87 264.45"/><polygon class="cls-4" points="236.02 261.71 233.99 262.41 232.9 259.36 234.93 258.66 236.02 261.71"/><polygon class="cls-4" points="240.8 260.23 238.77 260.93 237.68 257.88 239.71 257.18 240.8 260.23"/><polygon class="cls-4" points="245.29 258.74 243.26 259.44 242.17 256.39 244.2 255.69 245.29 258.74"/><polygon class="cls-4" points="249.55 257.52 247.52 258.22 246.43 255.17 248.46 254.47 249.55 257.52"/><polygon class="cls-4" points="226.29 258.81 224.59 260.04 221.99 257.31 223.69 256.08 226.29 258.81"/><polygon class="cls-4" points="230 256.59 228.31 257.82 225.71 255.09 227.4 253.86 230 256.59"/><polygon class="cls-4" points="233.38 254.57 231.69 255.79 229.09 253.07 230.78 251.84 233.38 254.57"/><polygon class="cls-4" points="237.02 252.39 235.32 253.62 232.72 250.89 234.42 249.66 237.02 252.39"/><polygon class="cls-4" points="240.32 250.42 238.62 251.65 236.02 248.92 237.72 247.69 240.32 250.42"/><polygon class="cls-4" points="243.96 248.24 242.26 249.47 239.66 246.74 241.35 245.51 243.96 248.24"/><ellipse class="cls-5" cx="216.98" cy="264.59" rx="0.9" ry="0.74" transform="translate(-68.55 76.02) rotate(-17.21)"/><rect class="cls-3" x="7.31" y="69.89" width="35.27" height="19.89" transform="translate(86.48 23.19) rotate(64.72)"/><rect class="cls-3" x="14.88" y="74.69" width="35.27" height="3.14" transform="translate(87.58 14.29) rotate(64.72)"/><path class="cls-3" d="M49.55,84.68,29.57,60a1.26,1.26,0,0,0-1.88-.26l-.68.67a1.62,1.62,0,0,0,0,2.11l20,24.7a1.27,1.27,0,0,0,1.88.27l.68-.68A1.62,1.62,0,0,0,49.55,84.68Z"/><polygon class="cls-3" points="29.21 58.32 23.56 60.99 26.8 67.85 30.83 61.75 29.21 58.32"/><polygon class="cls-4" points="31.53 67.76 30.21 66.39 32.33 63.7 33.65 65.07 31.53 67.76"/><polygon class="cls-4" points="30.82 75.84 29.93 74.11 32.54 72.74 33.42 74.47 30.82 75.84"/><polygon class="cls-4" points="29.02 72.05 28.14 70.31 30.74 68.94 31.63 70.68 29.02 72.05"/><polygon class="cls-4" points="32.65 79.91 31.77 78.18 34.37 76.81 35.25 78.55 32.65 79.91"/><polygon class="cls-4" points="34.59 84.02 33.7 82.28 36.3 80.92 37.19 82.65 34.59 84.02"/><polygon class="cls-4" points="36.5 87.86 35.61 86.13 38.22 84.76 39.1 86.5 36.5 87.86"/><polygon class="cls-4" points="38.14 91.54 37.26 89.8 39.85 88.44 40.74 90.17 38.14 91.54"/><polygon class="cls-4" points="34.01 70.8 32.69 69.43 34.81 66.75 36.13 68.12 34.01 70.8"/><polygon class="cls-4" points="36.48 73.86 35.16 72.49 37.28 69.81 38.6 71.17 36.48 73.86"/><polygon class="cls-4" points="38.73 76.64 37.41 75.27 39.53 72.58 40.85 73.95 38.73 76.64"/><polygon class="cls-4" points="41.15 79.62 39.83 78.25 41.95 75.57 43.27 76.94 41.15 79.62"/><polygon class="cls-4" points="43.34 82.33 42.02 80.97 44.14 78.28 45.46 79.65 43.34 82.33"/><polygon class="cls-4" points="45.76 85.33 44.44 83.96 46.56 81.27 47.88 82.64 45.76 85.33"/><ellipse class="cls-5" cx="27.63" cy="63.18" rx="0.67" ry="0.82" transform="translate(-24.34 17.85) rotate(-25.28)"/><rect class="cls-3" x="156.38" y="135.21" width="35.27" height="19.89" transform="translate(230.95 -74.18) rotate(64.72)"/><rect class="cls-3" x="163.95" y="140.01" width="35.27" height="3.14" transform="translate(232.05 -83.08) rotate(64.72)"/><path class="cls-3" d="M198.62,150l-20-24.71a1.26,1.26,0,0,0-1.88-.26l-.68.67a1.63,1.63,0,0,0,0,2.11l20,24.7a1.27,1.27,0,0,0,1.88.27l.68-.68A1.61,1.61,0,0,0,198.62,150Z"/><polygon class="cls-3" points="178.28 123.64 172.63 126.31 175.87 133.17 179.9 127.07 178.28 123.64"/><polygon class="cls-4" points="180.6 133.08 179.28 131.71 181.4 129.03 182.72 130.39 180.6 133.08"/><polygon class="cls-4" points="179.89 141.16 179.01 139.43 181.61 138.06 182.49 139.79 179.89 141.16"/><polygon class="cls-4" points="178.1 137.37 177.21 135.63 179.81 134.26 180.7 136 178.1 137.37"/><polygon class="cls-4" points="181.72 145.23 180.84 143.5 183.44 142.13 184.32 143.87 181.72 145.23"/><polygon class="cls-4" points="183.66 149.34 182.77 147.6 185.38 146.24 186.26 147.97 183.66 149.34"/><polygon class="cls-4" points="185.57 153.18 184.69 151.45 187.29 150.08 188.17 151.82 185.57 153.18"/><polygon class="cls-4" points="187.21 156.86 186.33 155.12 188.93 153.75 189.81 155.49 187.21 156.86"/><polygon class="cls-4" points="183.09 136.12 181.76 134.75 183.88 132.07 185.21 133.44 183.09 136.12"/><polygon class="cls-4" points="185.56 139.18 184.23 137.81 186.35 135.13 187.68 136.49 185.56 139.18"/><polygon class="cls-4" points="187.8 141.96 186.48 140.59 188.6 137.9 189.92 139.27 187.8 141.96"/><polygon class="cls-4" points="190.22 144.94 188.9 143.57 191.02 140.89 192.34 142.26 190.22 144.94"/><polygon class="cls-4" points="192.41 147.66 191.09 146.29 193.21 143.6 194.53 144.97 192.41 147.66"/><polygon class="cls-4" points="194.83 150.65 193.51 149.28 195.63 146.59 196.95 147.96 194.83 150.65"/><ellipse class="cls-5" cx="176.71" cy="128.5" rx="0.67" ry="0.82" transform="translate(-37.95 87.78) rotate(-25.28)"/><rect class="cls-3" x="323.2" y="75.14" width="39.78" height="22.44" transform="translate(274.65 -260.75) rotate(64.72)"/><rect class="cls-3" x="331.74" y="80.55" width="39.78" height="3.55" transform="translate(275.9 -270.79) rotate(64.72)"/><path class="cls-3" d="M370.85,91.82,348.32,64a1.42,1.42,0,0,0-2.12-.31l-.77.77a1.82,1.82,0,0,0,.05,2.37L368,94.66a1.43,1.43,0,0,0,2.12.3l.76-.77A1.81,1.81,0,0,0,370.85,91.82Z"/><polygon class="cls-3" points="347.91 62.09 341.54 65.1 345.19 72.84 349.74 65.96 347.91 62.09"/><polygon class="cls-4" points="350.53 72.73 349.04 71.19 351.43 68.17 352.92 69.71 350.53 72.73"/><polygon class="cls-4" points="349.72 81.85 348.73 79.9 351.66 78.36 352.66 80.31 349.72 81.85"/><polygon class="cls-4" points="347.7 77.57 346.71 75.61 349.64 74.07 350.63 76.03 347.7 77.57"/><polygon class="cls-4" points="351.79 86.45 350.79 84.49 353.73 82.95 354.72 84.91 351.79 86.45"/><polygon class="cls-4" points="353.97 91.08 352.98 89.12 355.91 87.58 356.91 89.53 353.97 91.08"/><polygon class="cls-4" points="356.13 95.42 355.13 93.46 358.07 91.92 359.06 93.87 356.13 95.42"/><polygon class="cls-4" points="357.98 99.56 356.99 97.6 359.92 96.06 360.91 98.02 357.98 99.56"/><polygon class="cls-4" points="353.33 76.17 351.84 74.63 354.23 71.6 355.72 73.14 353.33 76.17"/><polygon class="cls-4" points="356.11 79.62 354.63 78.07 357.02 75.05 358.51 76.59 356.11 79.62"/><polygon class="cls-4" points="358.65 82.75 357.16 81.21 359.55 78.18 361.04 79.72 358.65 82.75"/><polygon class="cls-4" points="361.37 86.12 359.88 84.58 362.28 81.55 363.76 83.09 361.37 86.12"/><polygon class="cls-4" points="363.85 89.18 362.36 87.64 364.75 84.61 366.24 86.15 363.85 89.18"/><polygon class="cls-4" points="366.58 92.55 365.09 91.01 367.48 87.98 368.97 89.53 366.58 92.55"/><ellipse class="cls-5" cx="346.13" cy="67.58" rx="0.76" ry="0.92" transform="translate(4.29 154.3) rotate(-25.28)"/><rect class="cls-3" x="161.6" y="248.65" width="35.27" height="19.89" transform="translate(336.52 -13.92) rotate(64.72)"/><rect class="cls-3" x="169.18" y="253.45" width="35.27" height="3.14" transform="translate(337.62 -22.81) rotate(64.72)"/><path class="cls-3" d="M203.85,263.44l-20-24.71a1.26,1.26,0,0,0-1.88-.26l-.68.67a1.62,1.62,0,0,0,0,2.11l20,24.7a1.26,1.26,0,0,0,1.87.27l.68-.68A1.62,1.62,0,0,0,203.85,263.44Z"/><polygon class="cls-3" points="183.51 237.08 177.86 239.75 181.1 246.61 185.13 240.51 183.51 237.08"/><polygon class="cls-4" points="185.83 246.51 184.51 245.15 186.63 242.46 187.95 243.83 185.83 246.51"/><polygon class="cls-4" points="185.12 254.6 184.23 252.87 186.83 251.5 187.72 253.23 185.12 254.6"/><polygon class="cls-4" points="183.32 250.8 182.44 249.07 185.04 247.7 185.92 249.44 183.32 250.8"/><polygon class="cls-4" points="186.94 258.67 186.06 256.94 188.66 255.57 189.55 257.31 186.94 258.67"/><polygon class="cls-4" points="188.88 262.78 188 261.04 190.6 259.67 191.48 261.41 188.88 262.78"/><polygon class="cls-4" points="190.79 266.62 189.91 264.89 192.51 263.52 193.4 265.26 190.79 266.62"/><polygon class="cls-4" points="192.44 270.3 191.55 268.56 194.15 267.19 195.04 268.93 192.44 270.3"/><polygon class="cls-4" points="188.31 249.56 186.99 248.19 189.11 245.51 190.43 246.88 188.31 249.56"/><polygon class="cls-4" points="190.78 252.62 189.46 251.25 191.58 248.56 192.9 249.93 190.78 252.62"/><polygon class="cls-4" points="193.03 255.4 191.71 254.03 193.83 251.34 195.15 252.71 193.03 255.4"/><polygon class="cls-4" points="195.44 258.38 194.12 257.01 196.24 254.33 197.56 255.7 195.44 258.38"/><polygon class="cls-4" points="197.64 261.09 196.32 259.73 198.44 257.04 199.76 258.41 197.64 261.09"/><polygon class="cls-4" points="200.06 264.08 198.74 262.72 200.86 260.03 202.18 261.4 200.06 264.08"/><ellipse class="cls-5" cx="181.93" cy="241.94" rx="0.67" ry="0.82" transform="translate(-85.9 100.87) rotate(-25.28)"/><rect class="cls-3" x="2.08" y="223.24" width="35.27" height="19.89" transform="translate(222.14 115.77) rotate(64.72)"/><rect class="cls-3" x="9.65" y="228.04" width="35.27" height="3.14" transform="translate(223.25 106.87) rotate(64.72)"/><path class="cls-3" d="M44.32,238l-20-24.71a1.27,1.27,0,0,0-1.88-.27l-.68.68a1.62,1.62,0,0,0,0,2.1l20,24.71a1.27,1.27,0,0,0,1.88.27l.68-.68A1.61,1.61,0,0,0,44.32,238Z"/><polygon class="cls-3" points="23.98 211.67 18.33 214.33 21.57 221.19 25.6 215.1 23.98 211.67"/><polygon class="cls-4" points="26.3 221.1 24.98 219.74 27.1 217.05 28.42 218.42 26.3 221.1"/><polygon class="cls-4" points="25.59 229.19 24.71 227.45 27.31 226.09 28.19 227.82 25.59 229.19"/><polygon class="cls-4" points="23.8 225.39 22.91 223.66 25.52 222.29 26.4 224.03 23.8 225.39"/><polygon class="cls-4" points="27.42 233.26 26.54 231.53 29.14 230.16 30.02 231.9 27.42 233.26"/><polygon class="cls-4" points="29.36 237.36 28.48 235.63 31.08 234.26 31.96 236 29.36 237.36"/><polygon class="cls-4" points="31.27 241.21 30.39 239.48 32.99 238.11 33.87 239.84 31.27 241.21"/><polygon class="cls-4" points="32.91 244.88 32.03 243.15 34.63 241.78 35.51 243.52 32.91 244.88"/><polygon class="cls-4" points="28.79 224.15 27.46 222.78 29.59 220.1 30.91 221.47 28.79 224.15"/><polygon class="cls-4" points="31.26 227.2 29.93 225.84 32.05 223.15 33.38 224.52 31.26 227.2"/><polygon class="cls-4" points="33.5 229.98 32.18 228.62 34.3 225.93 35.62 227.3 33.5 229.98"/><polygon class="cls-4" points="35.92 232.97 34.6 231.6 36.72 228.92 38.04 230.29 35.92 232.97"/><polygon class="cls-4" points="38.11 235.68 36.79 234.31 38.91 231.63 40.23 233 38.11 235.68"/><polygon class="cls-4" points="40.53 238.67 39.21 237.31 41.33 234.62 42.65 235.99 40.53 238.67"/><ellipse class="cls-5" cx="22.41" cy="216.53" rx="0.67" ry="0.82" transform="translate(-90.33 30.31) rotate(-25.28)"/><rect class="cls-3" x="264.17" y="12.93" width="35.27" height="19.89" transform="translate(182.14 -241.7) rotate(64.72)"/><rect class="cls-3" x="271.74" y="17.73" width="35.27" height="3.14" transform="translate(183.24 -250.6) rotate(64.72)"/><path class="cls-3" d="M306.41,27.72,286.43,3a1.25,1.25,0,0,0-1.88-.27l-.68.68a1.61,1.61,0,0,0,0,2.1l20,24.7a1.25,1.25,0,0,0,1.88.27l.68-.68A1.62,1.62,0,0,0,306.41,27.72Z"/><polygon class="cls-3" points="286.07 1.36 280.42 4.03 283.66 10.89 287.69 4.79 286.07 1.36"/><polygon class="cls-4" points="288.39 10.8 287.07 9.43 289.19 6.75 290.51 8.12 288.39 10.8"/><polygon class="cls-4" points="287.68 18.88 286.8 17.15 289.4 15.78 290.28 17.52 287.68 18.88"/><polygon class="cls-4" points="285.88 15.09 285 13.35 287.6 11.99 288.49 13.72 285.88 15.09"/><polygon class="cls-4" points="289.51 22.96 288.63 21.22 291.23 19.86 292.11 21.59 289.51 22.96"/><polygon class="cls-4" points="291.44 27.06 290.56 25.32 293.16 23.96 294.05 25.69 291.44 27.06"/><polygon class="cls-4" points="293.36 30.91 292.47 29.17 295.07 27.8 295.96 29.54 293.36 30.91"/><polygon class="cls-4" points="295 34.58 294.11 32.84 296.71 31.48 297.6 33.21 295 34.58"/><polygon class="cls-4" points="290.87 13.85 289.55 12.48 291.67 9.79 292.99 11.16 290.87 13.85"/><polygon class="cls-4" points="293.34 16.9 292.02 15.53 294.14 12.85 295.46 14.22 293.34 16.9"/><polygon class="cls-4" points="295.59 19.68 294.27 18.31 296.39 15.63 297.71 17 295.59 19.68"/><polygon class="cls-4" points="298.01 22.67 296.69 21.3 298.81 18.61 300.13 19.98 298.01 22.67"/><polygon class="cls-4" points="300.2 25.38 298.88 24.01 301 21.33 302.32 22.7 300.2 25.38"/><polygon class="cls-4" points="302.62 28.37 301.3 27 303.42 24.32 304.74 25.69 302.62 28.37"/><ellipse class="cls-5" cx="284.49" cy="6.23" rx="0.67" ry="0.82" transform="translate(24.59 122.1) rotate(-25.28)"/><rect class="cls-3" x="128.09" y="189.89" width="61.3" height="34.58" transform="matrix(0.93, 0.36, -0.36, 0.93, 85.16, -43.24)"/><rect class="cls-3" x="133.33" y="190.87" width="61.3" height="5.47" transform="translate(80.62 -46.03) rotate(21.08)"/><path class="cls-3" d="M195.5,183.76l-54.76-7.12a2.18,2.18,0,0,0-2.68,1.92l0,1.67a2.81,2.81,0,0,0,2.57,2.59l54.76,7.12A2.18,2.18,0,0,0,198,188l0-1.66A2.81,2.81,0,0,0,195.5,183.76Z"/><polygon class="cls-3" points="138.3 174.99 134.4 185.12 146.7 189.87 144.45 177.37 138.3 174.99"/><polygon class="cls-4" points="152.55 184.08 149.24 183.94 148.69 178.02 151.99 178.16 152.55 184.08"/><polygon class="cls-4" points="161.34 195.11 158.15 193.98 159.78 189.14 162.97 190.27 161.34 195.11"/><polygon class="cls-4" points="154.53 192.48 151.34 191.36 152.98 186.52 156.17 187.64 154.53 192.48"/><polygon class="cls-4" points="168.53 198.03 165.34 196.91 166.97 192.07 170.16 193.2 168.53 198.03"/><polygon class="cls-4" points="175.89 200.87 172.7 199.75 174.33 194.91 177.52 196.03 175.89 200.87"/><polygon class="cls-4" points="182.91 203.42 179.72 202.29 181.35 197.46 184.54 198.58 182.91 203.42"/><polygon class="cls-4" points="189.38 206.07 186.19 204.95 187.82 200.11 191.01 201.23 189.38 206.07"/><polygon class="cls-4" points="159.32 184.93 156.02 184.8 155.47 178.88 158.77 179.02 159.32 184.93"/><polygon class="cls-4" points="166.09 185.81 162.79 185.68 162.24 179.76 165.54 179.9 166.09 185.81"/><polygon class="cls-4" points="172.25 186.62 168.95 186.48 168.4 180.56 171.7 180.7 172.25 186.62"/><polygon class="cls-4" points="178.87 187.47 175.57 187.34 175.02 181.42 178.32 181.56 178.87 187.47"/><polygon class="cls-4" points="184.88 188.26 181.58 188.12 181.03 182.2 184.33 182.34 184.88 188.26"/><polygon class="cls-4" points="191.51 189.12 188.21 188.98 187.66 183.06 190.96 183.2 191.51 189.12"/><ellipse class="cls-5" cx="142.16" cy="183" rx="1.17" ry="1.42" transform="translate(-79.73 249.81) rotate(-68.92)"/><rect class="cls-3" x="84.56" y="245.75" width="61.3" height="34.58" transform="matrix(0.93, 0.36, -0.36, 0.93, 102.34, -23.84)"/><rect class="cls-3" x="89.79" y="246.72" width="61.3" height="5.47" transform="translate(97.8 -26.63) rotate(21.08)"/><path class="cls-3" d="M152,239.61,97.21,232.5a2.18,2.18,0,0,0-2.68,1.91l0,1.67a2.81,2.81,0,0,0,2.57,2.6l54.76,7.11a2.19,2.19,0,0,0,2.69-1.91l0-1.67A2.81,2.81,0,0,0,152,239.61Z"/><polygon class="cls-3" points="94.77 230.85 90.86 240.98 103.17 245.72 100.92 233.22 94.77 230.85"/><polygon class="cls-4" points="109.01 239.93 105.71 239.79 105.16 233.88 108.46 234.01 109.01 239.93"/><polygon class="cls-4" points="117.81 250.96 114.62 249.84 116.25 245 119.44 246.12 117.81 250.96"/><polygon class="cls-4" points="111 248.34 107.81 247.21 109.44 242.37 112.63 243.5 111 248.34"/><polygon class="cls-4" points="125 253.89 121.81 252.76 123.44 247.93 126.63 249.05 125 253.89"/><polygon class="cls-4" points="132.35 256.73 129.16 255.6 130.8 250.76 133.99 251.89 132.35 256.73"/><polygon class="cls-4" points="139.37 259.27 136.18 258.15 137.81 253.31 141 254.44 139.37 259.27"/><polygon class="cls-4" points="145.84 261.93 142.65 260.8 144.28 255.96 147.47 257.09 145.84 261.93"/><polygon class="cls-4" points="115.79 240.79 112.48 240.65 111.93 234.73 115.23 234.87 115.79 240.79"/><polygon class="cls-4" points="122.56 241.67 119.25 241.53 118.7 235.61 122.01 235.75 122.56 241.67"/><polygon class="cls-4" points="128.72 242.47 125.42 242.33 124.86 236.41 128.17 236.55 128.72 242.47"/><polygon class="cls-4" points="135.34 243.33 132.04 243.19 131.49 237.27 134.79 237.41 135.34 243.33"/><polygon class="cls-4" points="141.35 244.11 138.05 243.97 137.5 238.06 140.8 238.19 141.35 244.11"/><polygon class="cls-4" points="147.98 244.97 144.68 244.84 144.13 238.92 147.43 239.05 147.98 244.97"/><ellipse class="cls-5" cx="98.62" cy="238.85" rx="1.17" ry="1.42" transform="translate(-159.72 244.95) rotate(-68.92)"/><rect class="cls-3" x="100.08" y="76.99" width="61.3" height="34.58" transform="matrix(0.93, 0.36, -0.36, 0.93, 42.67, -40.71)"/><rect class="cls-3" x="105.31" y="77.97" width="61.3" height="5.47" transform="translate(38.13 -43.51) rotate(21.08)"/><path class="cls-3" d="M167.49,70.86l-54.76-7.11A2.19,2.19,0,0,0,110,65.66l0,1.67a2.81,2.81,0,0,0,2.57,2.6L167.33,77A2.18,2.18,0,0,0,170,75.13l.05-1.67A2.81,2.81,0,0,0,167.49,70.86Z"/><polygon class="cls-3" points="110.29 62.1 106.38 72.23 118.69 76.97 116.44 64.47 110.29 62.1"/><polygon class="cls-4" points="124.53 71.18 121.23 71.04 120.68 65.13 123.98 65.26 124.53 71.18"/><polygon class="cls-4" points="133.33 82.21 130.14 81.08 131.77 76.25 134.96 77.37 133.33 82.21"/><polygon class="cls-4" points="126.52 79.58 123.33 78.46 124.96 73.62 128.15 74.75 126.52 79.58"/><polygon class="cls-4" points="140.51 85.14 137.32 84.01 138.96 79.17 142.15 80.3 140.51 85.14"/><polygon class="cls-4" points="147.87 87.97 144.68 86.85 146.31 82.01 149.5 83.14 147.87 87.97"/><polygon class="cls-4" points="154.89 90.52 151.7 89.4 153.33 84.56 156.52 85.68 154.89 90.52"/><polygon class="cls-4" points="161.36 93.17 158.17 92.05 159.8 87.21 162.99 88.34 161.36 93.17"/><polygon class="cls-4" points="131.3 72.04 128 71.9 127.45 65.98 130.75 66.12 131.3 72.04"/><polygon class="cls-4" points="138.07 72.92 134.77 72.78 134.22 66.86 137.52 67 138.07 72.92"/><polygon class="cls-4" points="144.24 73.72 140.93 73.58 140.38 67.66 143.68 67.8 144.24 73.72"/><polygon class="cls-4" points="150.86 74.58 147.55 74.44 147 68.52 150.3 68.66 150.86 74.58"/><polygon class="cls-4" points="156.87 75.36 153.56 75.22 153.01 69.3 156.32 69.44 156.87 75.36"/><polygon class="cls-4" points="163.5 76.22 160.19 76.08 159.64 70.17 162.95 70.3 163.5 76.22"/><ellipse class="cls-5" cx="114.14" cy="70.1" rx="1.17" ry="1.42" transform="translate(7.67 151.38) rotate(-68.92)"/><rect class="cls-3" x="25.36" y="21.19" width="61.3" height="34.58" transform="matrix(0.93, 0.36, -0.36, 0.93, 17.59, -17.57)"/><rect class="cls-3" x="30.6" y="22.17" width="61.3" height="5.47" transform="translate(13.06 -20.37) rotate(21.08)"/><path class="cls-3" d="M92.77,15.06,38,7.94a2.19,2.19,0,0,0-2.69,1.92l0,1.67a2.81,2.81,0,0,0,2.57,2.59l54.76,7.12a2.18,2.18,0,0,0,2.68-1.92l0-1.67A2.79,2.79,0,0,0,92.77,15.06Z"/><polygon class="cls-3" points="35.57 6.29 31.67 16.42 43.97 21.17 41.73 8.66 35.57 6.29"/><polygon class="cls-4" points="49.82 15.38 46.52 15.24 45.97 9.32 49.27 9.46 49.82 15.38"/><polygon class="cls-4" points="58.62 26.41 55.42 25.28 57.06 20.44 60.25 21.57 58.62 26.41"/><polygon class="cls-4" points="51.81 23.78 48.62 22.66 50.25 17.82 53.44 18.94 51.81 23.78"/><polygon class="cls-4" points="65.8 29.33 62.61 28.21 64.24 23.37 67.43 24.5 65.8 29.33"/><polygon class="cls-4" points="73.16 32.17 69.97 31.05 71.6 26.21 74.79 27.33 73.16 32.17"/><polygon class="cls-4" points="80.18 34.72 76.99 33.59 78.62 28.75 81.81 29.88 80.18 34.72"/><polygon class="cls-4" points="86.65 37.37 83.46 36.25 85.09 31.41 88.28 32.53 86.65 37.37"/><polygon class="cls-4" points="56.59 16.23 53.29 16.1 52.74 10.18 56.04 10.32 56.59 16.23"/><polygon class="cls-4" points="63.36 17.11 60.06 16.98 59.51 11.06 62.81 11.2 63.36 17.11"/><polygon class="cls-4" points="69.52 17.91 66.22 17.78 65.67 11.86 68.97 12 69.52 17.91"/><polygon class="cls-4" points="76.14 18.77 72.84 18.64 72.29 12.72 75.59 12.86 76.14 18.77"/><polygon class="cls-4" points="82.16 19.55 78.85 19.42 78.3 13.5 81.6 13.64 82.16 19.55"/><polygon class="cls-4" points="88.79 20.42 85.48 20.28 84.93 14.36 88.23 14.5 88.79 20.42"/><ellipse class="cls-5" cx="39.43" cy="14.3" rx="1.17" ry="1.42" transform="translate(11.9 45.94) rotate(-68.92)"/><rect class="cls-3" x="314.17" y="18.68" width="61.3" height="34.58" transform="matrix(0.93, 0.36, -0.36, 0.93, 36.02, -121.64)"/><rect class="cls-3" x="319.41" y="19.65" width="61.3" height="5.47" transform="translate(31.49 -124.43) rotate(21.08)"/><path class="cls-3" d="M381.58,12.54,326.82,5.43a2.18,2.18,0,0,0-2.68,1.91l0,1.67a2.81,2.81,0,0,0,2.57,2.6l54.76,7.11a2.18,2.18,0,0,0,2.68-1.91l0-1.67A2.81,2.81,0,0,0,381.58,12.54Z"/><polygon class="cls-3" points="324.38 3.78 320.48 13.91 332.78 18.65 330.53 6.15 324.38 3.78"/><polygon class="cls-4" points="338.63 12.86 335.32 12.72 334.77 6.81 338.07 6.95 338.63 12.86"/><polygon class="cls-4" points="347.42 23.89 344.23 22.77 345.87 17.93 349.06 19.05 347.42 23.89"/><polygon class="cls-4" points="340.61 21.27 337.42 20.14 339.06 15.3 342.25 16.43 340.61 21.27"/><polygon class="cls-4" points="354.61 26.82 351.42 25.7 353.05 20.86 356.24 21.98 354.61 26.82"/><polygon class="cls-4" points="361.97 29.66 358.78 28.53 360.41 23.69 363.6 24.82 361.97 29.66"/><polygon class="cls-4" points="368.99 32.2 365.8 31.08 367.43 26.24 370.62 27.36 368.99 32.2"/><polygon class="cls-4" points="375.45 34.86 372.26 33.73 373.9 28.89 377.09 30.02 375.45 34.86"/><polygon class="cls-4" points="345.4 13.72 342.1 13.58 341.55 7.66 344.85 7.8 345.4 13.72"/><polygon class="cls-4" points="352.17 14.6 348.87 14.46 348.32 8.54 351.62 8.68 352.17 14.6"/><polygon class="cls-4" points="358.33 15.4 355.03 15.26 354.48 9.34 357.78 9.48 358.33 15.4"/><polygon class="cls-4" points="364.95 16.26 361.65 16.12 361.1 10.2 364.4 10.34 364.95 16.26"/><polygon class="cls-4" points="370.96 17.04 367.66 16.9 367.11 10.98 370.41 11.12 370.96 17.04"/><polygon class="cls-4" points="377.59 17.9 374.29 17.77 373.74 11.85 377.04 11.98 377.59 17.9"/><ellipse class="cls-5" cx="328.24" cy="11.78" rx="1.17" ry="1.42" transform="translate(199.16 313.81) rotate(-68.92)"/><rect class="cls-3" x="210.92" y="193.81" width="61.3" height="34.58" transform="translate(-60.65 103.47) rotate(-21.55)"/><rect class="cls-3" x="205.58" y="194.82" width="61.3" height="5.47" transform="translate(-56.05 100.56) rotate(-21.55)"/><path class="cls-3" d="M252.76,169l-45.11,31.85A2.18,2.18,0,0,0,207,204l1.1,1.26a2.81,2.81,0,0,0,3.65.17l45.11-31.85a2.19,2.19,0,0,0,.68-3.23l-1.1-1.25A2.8,2.8,0,0,0,252.76,169Z"/><polygon class="cls-3" points="204.74 201.26 208.72 211.36 220.99 206.51 210.87 198.84 204.74 201.26"/><polygon class="cls-4" points="221.37 198.3 218.84 200.43 214.43 196.45 216.95 194.31 221.37 198.3"/><polygon class="cls-4" points="235.31 200.45 232.2 201.78 230.12 197.12 233.23 195.78 235.31 200.45"/><polygon class="cls-4" points="228.52 203.13 225.41 204.46 223.34 199.8 226.44 198.47 228.52 203.13"/><polygon class="cls-4" points="242.58 197.74 239.47 199.07 237.4 194.41 240.5 193.07 242.58 197.74"/><polygon class="cls-4" points="249.91 194.84 246.81 196.18 244.73 191.51 247.84 190.18 249.91 194.84"/><polygon class="cls-4" points="256.8 191.96 253.69 193.3 251.62 188.63 254.73 187.3 256.8 191.96"/><polygon class="cls-4" points="263.36 189.53 260.25 190.87 258.18 186.2 261.28 184.87 263.36 189.53"/><polygon class="cls-4" points="226.93 194.34 224.41 196.47 220 192.49 222.52 190.36 226.93 194.34"/><polygon class="cls-4" points="232.51 190.4 229.99 192.53 225.57 188.55 228.09 186.42 232.51 190.4"/><polygon class="cls-4" points="237.58 186.82 235.06 188.95 230.65 184.97 233.17 182.84 237.58 186.82"/><polygon class="cls-4" points="243.04 182.97 240.51 185.1 236.1 181.12 238.62 178.98 243.04 182.97"/><polygon class="cls-4" points="247.99 179.47 245.47 181.6 241.05 177.62 243.58 175.49 247.99 179.47"/><polygon class="cls-4" points="253.45 175.61 250.93 177.75 246.51 173.77 249.04 171.63 253.45 175.61"/><ellipse class="cls-5" cx="212.99" cy="204.54" rx="1.42" ry="1.17" transform="translate(-60.23 92.52) rotate(-21.55)"/><rect class="cls-3" x="204.18" y="113.11" width="61.3" height="34.58" transform="translate(126.8 -115.53) rotate(37.24)"/><rect class="cls-3" x="212.99" y="116.08" width="61.3" height="5.47" transform="translate(121.59 -123.22) rotate(37.24)"/><path class="cls-3" d="M276.66,118.13,226.05,96.06a2.18,2.18,0,0,0-3.11,1.09l-.51,1.59a2.8,2.8,0,0,0,1.75,3.21L274.79,124a2.19,2.19,0,0,0,3.11-1.1l.51-1.59A2.83,2.83,0,0,0,276.66,118.13Z"/><polygon class="cls-3" points="224.16 93.8 217.59 102.44 228.09 110.42 229.41 97.79 224.16 93.8"/><polygon class="cls-4" points="235.31 106.49 232.18 105.44 233.3 99.6 236.43 100.65 235.31 106.49"/><polygon class="cls-4" points="240.69 119.53 237.94 117.56 240.86 113.36 243.61 115.33 240.69 119.53"/><polygon class="cls-4" points="234.88 115.11 232.13 113.14 235.05 108.95 237.8 110.92 234.88 115.11"/><polygon class="cls-4" points="246.78 124.34 244.03 122.37 246.94 118.18 249.69 120.15 246.78 124.34"/><polygon class="cls-4" points="253.06 129.11 250.31 127.14 253.22 122.95 255.97 124.92 253.06 129.11"/><polygon class="cls-4" points="259.09 133.51 256.34 131.54 259.25 127.35 262 129.32 259.09 133.51"/><polygon class="cls-4" points="264.57 137.86 261.81 135.89 264.73 131.7 267.48 133.67 264.57 137.86"/><polygon class="cls-4" points="241.58 109.19 238.45 108.14 239.56 102.31 242.7 103.36 241.58 109.19"/><polygon class="cls-4" points="247.84 111.92 244.71 110.87 245.82 105.03 248.96 106.09 247.84 111.92"/><polygon class="cls-4" points="253.53 114.41 250.4 113.36 251.52 107.52 254.65 108.57 253.53 114.41"/><polygon class="cls-4" points="259.65 117.08 256.52 116.02 257.64 110.19 260.77 111.24 259.65 117.08"/><polygon class="cls-4" points="265.21 119.5 262.08 118.45 263.19 112.61 266.33 113.66 265.21 119.5"/><polygon class="cls-4" points="271.34 122.17 268.2 121.12 269.32 115.28 272.45 116.33 271.34 122.17"/><ellipse class="cls-5" cx="225.63" cy="102.56" rx="1.17" ry="1.42" transform="translate(7.44 220.12) rotate(-52.76)"/><rect class="cls-3" x="315.31" y="241.93" width="61.3" height="34.58" transform="translate(227.42 -156.51) rotate(37.24)"/><rect class="cls-3" x="324.12" y="244.9" width="61.3" height="5.47" transform="translate(222.21 -164.21) rotate(37.24)"/><path class="cls-3" d="M387.79,247l-50.62-22.07a2.19,2.19,0,0,0-3.11,1.09l-.5,1.6a2.81,2.81,0,0,0,1.74,3.21l50.62,22.07a2.19,2.19,0,0,0,3.11-1.09l.5-1.6A2.81,2.81,0,0,0,387.79,247Z"/><polygon class="cls-3" points="335.29 222.62 328.72 231.26 339.22 239.24 340.54 226.61 335.29 222.62"/><polygon class="cls-4" points="346.44 235.31 343.31 234.26 344.42 228.42 347.56 229.47 346.44 235.31"/><polygon class="cls-4" points="351.82 248.35 349.07 246.38 351.98 242.19 354.74 244.15 351.82 248.35"/><polygon class="cls-4" points="346.01 243.93 343.26 241.96 346.18 237.77 348.93 239.74 346.01 243.93"/><polygon class="cls-4" points="357.91 253.16 355.16 251.19 358.07 247 360.82 248.97 357.91 253.16"/><polygon class="cls-4" points="364.19 257.93 361.44 255.97 364.35 251.77 367.1 253.74 364.19 257.93"/><polygon class="cls-4" points="370.22 262.33 367.47 260.37 370.38 256.17 373.13 258.14 370.22 262.33"/><polygon class="cls-4" points="375.69 266.68 372.94 264.71 375.86 260.52 378.61 262.49 375.69 266.68"/><polygon class="cls-4" points="352.71 238.02 349.57 236.97 350.69 231.13 353.83 232.18 352.71 238.02"/><polygon class="cls-4" points="358.97 240.75 355.83 239.69 356.95 233.86 360.08 234.91 358.97 240.75"/><polygon class="cls-4" points="364.66 243.23 361.53 242.18 362.64 236.34 365.78 237.39 364.66 243.23"/><polygon class="cls-4" points="370.78 245.9 367.65 244.85 368.76 239.01 371.9 240.06 370.78 245.9"/><polygon class="cls-4" points="376.34 248.32 373.2 247.27 374.32 241.43 377.45 242.48 376.34 248.32"/><polygon class="cls-4" points="382.47 250.99 379.33 249.94 380.45 244.1 383.58 245.16 382.47 250.99"/><ellipse class="cls-5" cx="336.76" cy="231.38" rx="1.17" ry="1.42" transform="translate(-51.24 359.45) rotate(-52.76)"/></g></svg>
