<svg id="Layer_1" data-name="Layer 1" xmlns="http://www.w3.org/2000/svg" width="162" height="113.1" viewBox="0 0 162 113.1"><defs><style>.cls-1,.cls-10,.cls-2,.cls-4,.cls-5,.cls-6,.cls-7,.cls-8,.cls-9{fill:none;stroke-miterlimit:10;}.cls-1{stroke:#f5f1ab;}.cls-2{stroke:#bce1e1;}.cls-3{opacity:0.4;}.cls-4{stroke:#f8f3b5;}.cls-5{stroke:#ded2e9;}.cls-6{stroke:#fee1bf;}.cls-7{stroke:#f4a8ca;}.cls-8{stroke:#b6c0e3;}.cls-9{stroke:#f7b6aa;}.cls-10{stroke:#9ea4d3;}</style></defs><path class="cls-1" d="M154.92-53.26a25,25,0,0,1,5.91,29.17c-1.62,3.27-4,6.17-5.23,9.59a29,29,0,0,0-1.36,9.36c-.09,3.84.15,8.06,2.76,10.87C159.33,8.25,163,9,166.32,9.61c7,1.27,14.12,2.56,21.26,2.24a95.31,95.31,0,0,0,12.68-1.69,15.4,15.4,0,0,0,4.58-1.34,11.18,11.18,0,0,0,3.55-3.3,20.57,20.57,0,0,0,3-18.73A18.55,18.55,0,0,0,197-25.27a3,3,0,0,1-1.65-.55,2.81,2.81,0,0,1-.68-1.74,110.41,110.41,0,0,1-1-16.15c0-3,.33-6.44,2.59-8.49C194.08-47,190.68-42,190.91-36.46A16.5,16.5,0,0,0,195.74-26a38.93,38.93,0,0,0,9.5,6.85c-3.7-4-8.35-7.15-11.13-11.81a18.92,18.92,0,0,1,.74-20.13c-.8,4.08-1.6,8.22-1.26,12.36a23,23,0,0,0,6.87,14.52c2.1,2,4.6,3.66,6.48,5.9,3.27,3.86,4.35,9.15,4.3,14.2-.05,4.4-1.06,9.1-4.3,12.06-3.5,3.2-8.69,3.57-13.43,3.46a98.78,98.78,0,0,1-32-6.05c-2.27-.85-4.65-1.89-6-3.93-1.1-1.73-1.26-3.87-1.38-5.91-.34-5.49-.57-11.38,2.36-16,1.69-2.69,4.35-4.77,5.56-7.71A14.25,14.25,0,0,0,163-33.8a33.66,33.66,0,0,0-8.14-21.48c4.83,5.26,10,11.34,9.66,18.48C164.08-27.91,155.41-21.56,153-13c-1,3.69-.81,7.59-.4,11.39a7.12,7.12,0,0,0,.89,3.22A7.11,7.11,0,0,0,156.92,4a63.48,63.48,0,0,0,10.15,3.17,20.11,20.11,0,0,1-10.7-11.38,20.09,20.09,0,0,1,.84-15.6c1.92-3.89,5.12-7.18,6.19-11.39,1-4-.09-8.26-1.7-12.06s-3.75-7.41-4.95-11.37c7.85,4.12,16,8.33,24.87,8.73,6.44.29,13.58-2,16.67-7.68-5,6.16-12.18,11.89-20.08,10.93-3.78-.46-7.18-2.41-10.47-4.31l-10.46-6.06a59.26,59.26,0,0,0,10.45,6.19,30.52,30.52,0,0,0,32.64-6.41,17.15,17.15,0,0,0-7.4,8.74A12.32,12.32,0,0,0,192.7-36c1.18,3.06,3.82,5.26,6.21,7.51,4.87,4.59,9.22,10.43,9.43,17.12a9.66,9.66,0,0,0-.15-7c.22,4.58,4.5,8.43,4,13a13.21,13.21,0,0,1-2.14,5.2c-1.64,2.74-3.31,5.54-5.72,7.63s-5.72,3.42-8.82,2.67"/><path class="cls-2" d="M154-7.17c2.51,1.06,4.58,2.92,6.87,4.39,7.51,4.82,17,5.23,25.88,5.23A56.66,56.66,0,0,0,199.64,1.4a20.79,20.79,0,0,0,11.11-6.2A66.71,66.71,0,0,1,154.5-6.51c9,4.86,18.53,9.28,28.73,10.11s21.24-2.53,27.36-10.72c-1.32,3.12-4.51,5-7.65,6.29-13,5.28-27.88,3.48-41.25-.8-2.86-.92-5.87-2.09-7.54-4.59,8,5,17.82,6.15,27.26,6.7,7.6.45,18,1,24.55-3.63-2.73-1.3-8.28,1.52-11.23,2.05a64.87,64.87,0,0,1-13.91,1A63.41,63.41,0,0,1,154-7.17Z"/><g class="cls-3"><path class="cls-4" d="M68.45,49.84A22.08,22.08,0,0,0,55.94,32.61c-7.2-3.3-15.83-2.49-22.86-6.14-3.82-2-6.87-5.13-9.85-8.23a21,21,0,0,0,17.56,11.3c3.48.14,7.06-.59,10.39.41,3,.89,5.36,3.05,7.61,5.19,4.43,4.22,9,9.13,9.45,15.23-2-4.34-4.14-8.73-7.13-12.49S54.07,31,49.36,30c-4.31-.89-8.88.06-13.13-1.09-6.78-1.83-11.08-8.49-13.51-15.08L25.2,20l-.09-3.42A7.4,7.4,0,0,0,25.83,21a4.43,4.43,0,0,0,.35-2.71,16.45,16.45,0,0,0,.25,4.54l1.1-3.47a9.65,9.65,0,0,0,.8,5.4l.85-3.75a5.58,5.58,0,0,0,.72,4.14,22.32,22.32,0,0,1-7.63-.72,13.59,13.59,0,0,1,6.52-1.6,7.83,7.83,0,0,1-6-.64l3.52-.3a3.16,3.16,0,0,1-3.65-1.46h2.13a14,14,0,0,1-4.48-3.26,9.88,9.88,0,0,1,4.14.56,6.41,6.41,0,0,1-2.25-2.17l1.44,1.07-4.17-2.19a6.67,6.67,0,0,1,3.76,2.37,8.87,8.87,0,0,0-3-3.77,9.11,9.11,0,0,0,1.57,5.38,6.6,6.6,0,0,0-3.41-4.56A15.42,15.42,0,0,1,24,19.55a3.5,3.5,0,0,1-3.29-1.06A20.49,20.49,0,0,1,25.33,21a4.5,4.5,0,0,0-1.56,1.71L27,23.6a3.81,3.81,0,0,1-1.93,1.47c1.48.52,3.13-.6,3.76-2a9.39,9.39,0,0,0,.39-4.63,18.19,18.19,0,0,1-2,6.51l.06-5.57a7.67,7.67,0,0,1-1.67,3.27,28.15,28.15,0,0,1-1.3-5.42,2.9,2.9,0,0,1-.53,2L22.38,16a6,6,0,0,1-5.06-3.86l4.19,3.89-1.59-2a26.59,26.59,0,0,1,1.72,4.55,3.64,3.64,0,0,1-2.72-3.21l2.27.12a2.44,2.44,0,0,0,1.52,3.44l-1.86.35,4.86,2.17A2.78,2.78,0,0,1,24,22.76c.51,1.56,3.06,1.57,3.93.18a3.47,3.47,0,0,0-1.11-4.35l-1,3.49-1.14-5.25-.57,1.66a8,8,0,0,1-2.53-4,1.76,1.76,0,0,0,0,2.52,8.65,8.65,0,0,0,2.41,1.5,8,8,0,0,1,4,7.14c1.61-.62,3.18.81,4.62,1.75,2.67,1.75,6,2,9.22,2.12"/><path class="cls-4" d="M71.63,55.17c3.38-3.7,4.24-9.85,2.18-15.63C71.61,33.36,66.5,28,64.59,21.77a33.54,33.54,0,0,1-1.07-10c-1.6,5-.15,11.5,3.66,16.46,1.82,2.36,4.14,4.41,5.43,7.05A17.91,17.91,0,0,1,74,42.51c.21,4.73.12,9.84-2.8,12.75a40.6,40.6,0,0,0,2.63-10,18.79,18.79,0,0,0-2.29-11.13c-1.88-3.24-4.86-5.86-6.57-9.16-2.73-5.27-1.6-11,.51-15.38l-1.85,4.27,1.73-1.53a4.09,4.09,0,0,0-1.92,2.38,2.43,2.43,0,0,0,1.6-.92,8.73,8.73,0,0,0-2.23,2.1l2.41-.75a5.22,5.22,0,0,0-2.38,2.83l2.41-1a3.1,3.1,0,0,0-1.76,2.24,23.64,23.64,0,0,1-3.77-5.35,14,14,0,0,1,4.37,3.63,8.39,8.39,0,0,1-2.9-4.22l2.06,2.2a3.09,3.09,0,0,1-1.22-3l1.16,1.42a12.51,12.51,0,0,1-.74-4.37,10.66,10.66,0,0,1,2,3A5.25,5.25,0,0,1,64.36,10l.23,1.41-1.13-3.7a6.11,6.11,0,0,1,.81,3.51,6.57,6.57,0,0,0,.35-3.58,5.26,5.26,0,0,0-2,3.34,4.75,4.75,0,0,0,.52-4.21,12.11,12.11,0,0,1,.08,6.09A3.53,3.53,0,0,1,62,10.18a20.25,20.25,0,0,1,1.19,4.14,3.49,3.49,0,0,0-1.74-.3l1.3,2.49A3.3,3.3,0,0,1,61,15.87a3,3,0,0,0,3.1,1.62,5.15,5.15,0,0,0,2.63-1.72,10.5,10.5,0,0,1-4.48,1.46l2.93-2.35a4.65,4.65,0,0,1-2.61.29A16.39,16.39,0,0,1,64.65,12a1.65,1.65,0,0,1-1.31.49l.87-2.25a5.13,5.13,0,0,1-.74-5l.25,4.43.19-1.92a15.54,15.54,0,0,1-1.43,3.09,2.71,2.71,0,0,1,.2-3.17l1.17,1.55a1.58,1.58,0,0,0-1,2.47l-1.19-1.07,1.5,4.13a2.34,2.34,0,0,1-1.59-.56c-.53,1,.84,2.7,2,2.68s1.85-1.3,1.66-2.59L63,15.14l2.11-3-1.17.33a5.3,5.3,0,0,1,.71-3.38c-.71-.28-1.28.37-1.3,1.09a8.09,8.09,0,0,0,.53,2.24,5.31,5.31,0,0,1-1.52,5.72c1.19.8,1.3,2.45,1.6,3.8.54,2.52,2.25,4.84,3.9,7"/><path class="cls-5" d="M78.92,54.26A22,22,0,0,1,91.42,37c7.2-3.3,15.84-2.49,22.87-6.15,3.81-2,6.86-5.13,9.84-8.22A21,21,0,0,1,106.57,34c-3.48.13-7.06-.6-10.39.4-3,.9-5.36,3.06-7.61,5.2-4.43,4.22-9,9.13-9.45,15.23,2-4.35,4.14-8.74,7.14-12.49s7-6.89,11.74-7.86c4.32-.89,8.88.07,13.14-1.08,6.77-1.83,11.08-8.5,13.51-15.08l-2.49,6.16.1-3.42a7.49,7.49,0,0,1-.73,4.44,4.44,4.44,0,0,1-.35-2.71,16.09,16.09,0,0,1-.25,4.54l-1.1-3.48a9.64,9.64,0,0,1-.8,5.4l-.85-3.75a5.64,5.64,0,0,1-.71,4.15,22.29,22.29,0,0,0,7.62-.72,13.48,13.48,0,0,0-6.52-1.6,7.83,7.83,0,0,0,6-.64l-3.51-.3a3.17,3.17,0,0,0,3.64-1.47h-2.13A14.15,14.15,0,0,0,127,21.64a9.72,9.72,0,0,0-4.14.56A6.41,6.41,0,0,0,125.12,20l-1.44,1.06,4.17-2.18a6.67,6.67,0,0,0-3.76,2.37,9,9,0,0,1,3-3.78,9.15,9.15,0,0,1-1.57,5.39,6.58,6.58,0,0,1,3.41-4.56A15.27,15.27,0,0,0,123.35,24a3.53,3.53,0,0,0,3.29-1.07A21.55,21.55,0,0,0,122,25.44a4.6,4.6,0,0,1,1.56,1.72l-3.21.86a3.86,3.86,0,0,0,1.92,1.48c-1.48.51-3.13-.6-3.76-2a9.51,9.51,0,0,1-.39-4.63,18.19,18.19,0,0,0,2,6.51l-.05-5.58A7.43,7.43,0,0,0,121.76,27a28.65,28.65,0,0,0,1.31-5.41,2.8,2.8,0,0,0,.52,2L125,20.46A6,6,0,0,0,130,16.6l-4.18,3.88,1.59-2A25.52,25.52,0,0,0,125.72,23a3.64,3.64,0,0,0,2.72-3.21l-2.27.11a2.45,2.45,0,0,1-1.52,3.45l1.86.35-4.85,2.17a2.68,2.68,0,0,0,1.68,1.3c-.51,1.56-3.06,1.58-3.93.18A3.48,3.48,0,0,1,120.52,23l1,3.49,1.14-5.24.57,1.65a7.94,7.94,0,0,0,2.53-4,1.76,1.76,0,0,1,0,2.52,9.14,9.14,0,0,1-2.41,1.5,8,8,0,0,0-4,7.13c-1.6-.62-3.18.81-4.62,1.75-2.67,1.75-6,2-9.22,2.13"/><path class="cls-6" d="M74.2,54.44a22.07,22.07,0,0,1,2.16-21.18C80.93,26.79,88.8,23.15,93,16.46c2.31-3.63,3.36-7.88,4.38-12.06A21,21,0,0,1,87.91,23c-2.93,1.86-6.39,3-8.77,5.57-2.12,2.26-3.1,5.33-4,8.31C73.45,42.76,72,49.29,74.65,54.8c-.41-4.79-.81-9.63-.11-14.39s2.63-9.49,6.21-12.69c3.28-2.94,7.71-4.41,10.81-7.54,4.94-5,5.32-12.91,4.11-19.82l.94,6.57L95,3.93a7.41,7.41,0,0,1,1.6,4.21A4.5,4.5,0,0,1,94.92,6,16.84,16.84,0,0,1,97,10L94.28,7.56a9.66,9.66,0,0,1,2,5.08L93.69,9.82a5.61,5.61,0,0,1,1.46,3.94,22.31,22.31,0,0,0,6.23-4.45A13.39,13.39,0,0,0,95,11.2a7.87,7.87,0,0,0,4.83-3.55l-3.2,1.51A3.17,3.17,0,0,0,99,6.06L97.16,7.14A14.13,14.13,0,0,0,99.4,2.06a9.86,9.86,0,0,0-3.3,2.57,6.63,6.63,0,0,0,.86-3l-.72,1.65,2.52-4a6.64,6.64,0,0,0-2.07,3.94,8.84,8.84,0,0,1,.68-4.76,9.16,9.16,0,0,1,1.34,5.45,6.61,6.61,0,0,1,.66-5.66,15.42,15.42,0,0,0-2,7.68,3.51,3.51,0,0,0,2.32-2.58A20.86,20.86,0,0,0,97,7.86a4.57,4.57,0,0,1,2.2.7l-2.34,2.36a3.83,3.83,0,0,0,2.4.31c-1,1.19-3,1-4.27.13a9.65,9.65,0,0,1-2.67-3.81,18.5,18.5,0,0,0,5,4.62L94.48,7.38a7.7,7.7,0,0,0,3.09,2A28.31,28.31,0,0,0,96,4a2.92,2.92,0,0,0,1.44,1.44l-.36-3.4a6,6,0,0,0,2.44-5.88L97.82,1.65l.35-2.56A26.84,26.84,0,0,0,99,3.9a3.65,3.65,0,0,0,.74-4.14L97.8,1a2.45,2.45,0,0,1,.42,3.74L100,4.11,96.9,8.42A2.69,2.69,0,0,0,99,8.7c.34,1.61-1.86,2.9-3.31,2.13a3.47,3.47,0,0,1-1.22-4.32l2.58,2.54L95.41,3.94l1.32,1.15A8,8,0,0,0,96.91.36c1,.08,1.44,1.26,1.24,2.19a8.86,8.86,0,0,1-1.33,2.5,8.06,8.06,0,0,0,.09,8.2c-1.7.28-2.34,2.3-3.11,3.84-1.44,2.85-4.23,4.72-6.91,6.47"/><path class="cls-4" d="M87.44,52.19c-2.37-5.68-1.14-12.9,3.15-18.34,4.57-5.82,12-9.38,16.31-15.37,2.33-3.25,3.53-7,4.7-10.62,0,6.25-3.89,12.82-9.79,16.52-2.81,1.77-6.07,3-8.4,5.28-2.08,2.06-3.16,4.76-4.12,7.37-1.9,5.15-3.61,10.85-1.46,15.45a50.59,50.59,0,0,1,.69-12.38A20.42,20.42,0,0,1,95,28.84c3.18-2.71,7.35-4.21,10.38-7.08,4.83-4.56,5.61-11.4,4.88-17.28l.51,5.61-1.35-2.5a5.39,5.39,0,0,1,1.25,3.53,3.27,3.27,0,0,1-1.41-1.78,12.14,12.14,0,0,1,1.68,3.38l-2.36-2A7,7,0,0,1,110.12,15l-2.26-2.28A4.14,4.14,0,0,1,109,16a24.46,24.46,0,0,0,6-4.17,14.51,14.51,0,0,0-6,2,8.53,8.53,0,0,0,4.65-3.32l-3,1.47A3.24,3.24,0,0,0,113,9.2l-1.76,1a13.24,13.24,0,0,0,2.34-4.49,10.69,10.69,0,0,0-3.18,2.39,6,6,0,0,0,1-2.63L110.57,7l2.54-3.56A6.57,6.57,0,0,0,111,6.89a7.61,7.61,0,0,1,.89-4.13,6.91,6.91,0,0,1,.94,4.61,5.66,5.66,0,0,1,.91-4.91,14,14,0,0,0-2.23,6.72,3.65,3.65,0,0,0,2.28-2.35,21.13,21.13,0,0,0-2.75,4,4.08,4.08,0,0,1,2,.48l-2.3,2.16a3.68,3.68,0,0,0,2.21.14,3.24,3.24,0,0,1-4,.34,7,7,0,0,1-2.25-3.13,13.91,13.91,0,0,0,4.37,3.71l-2.37-4a6,6,0,0,0,2.74,1.55,21.53,21.53,0,0,0-1.18-4.51,2.14,2.14,0,0,0,1.25,1.16l-.16-2.91A5.66,5.66,0,0,0,114,.68l-1.84,4.79.47-2.22a20,20,0,0,0,.47,4.1,3.17,3.17,0,0,0,.9-3.61l-1.82,1.17a2,2,0,0,1,.18,3.2L114,7.47l-3.1,3.88a2.56,2.56,0,0,0,1.93.13c.23,1.36-1.87,2.6-3.16,2s-1.56-2.31-.9-3.65L111,11.89l-1.24-4.31,1.16.91a6.51,6.51,0,0,0,.42-4.08c.87,0,1.26,1,1,1.82A9,9,0,0,1,111,8.46a6.54,6.54,0,0,0-.36,7c-1.58.33-2.29,2.1-3.09,3.47-1.47,2.53-4.16,4.3-6.72,5.94"/><path class="cls-7" d="M59.76,50.86c-1.18-6-6.22-11.36-12.8-13.51-7-2.3-15.22-1.12-22.11-3.73-3.73-1.41-6.8-3.83-9.8-6.21,3.47,5.19,10.35,8.49,17.32,8.3,3.31-.09,6.68-.91,9.91-.28,2.88.56,5.27,2.21,7.52,3.84,4.44,3.23,9,7,9.79,12a50.38,50.38,0,0,0-7.44-9.91,20.49,20.49,0,0,0-11.6-5.8c-4.15-.48-8.46.58-12.57-.11-6.55-1.12-11-6.37-13.65-11.67L17,28.76l-.27-2.82a5.43,5.43,0,0,0,.92,3.63,3.34,3.34,0,0,0,.2-2.26,11.85,11.85,0,0,0,.46,3.74l.88-2.94a7,7,0,0,0,1,4.42l.61-3.16a4.17,4.17,0,0,0,.9,3.39,24.46,24.46,0,0,1-7.3-.14,14.34,14.34,0,0,1,6.12-1.71,8.54,8.54,0,0,1-5.71-.18l3.34-.46a3.24,3.24,0,0,1-3.55-1l2-.12a13.51,13.51,0,0,1-4.44-2.44,10.8,10.8,0,0,1,4,.22A5.8,5.8,0,0,1,14,25.28l1.43.8-4.09-1.56A6.55,6.55,0,0,1,15,26.25a7.66,7.66,0,0,0-3-2.94,6.88,6.88,0,0,0,1.77,4.36,5.6,5.6,0,0,0-3.48-3.57,13.82,13.82,0,0,1,5.58,4.34,3.66,3.66,0,0,1-3.19-.68,20.76,20.76,0,0,1,4.52,1.82,4,4,0,0,0-1.4,1.51l3.11.52A3.69,3.69,0,0,1,17.15,33,3.24,3.24,0,0,0,20.62,31a6.93,6.93,0,0,0,.14-3.86,14,14,0,0,1-1.57,5.51L19,28.07a6,6,0,0,1-1.42,2.81A21.31,21.31,0,0,1,16,26.47a2.13,2.13,0,0,1-.4,1.66l-1.48-2.5a5.69,5.69,0,0,1-5-2.89l4.19,3-1.62-1.58a19.49,19.49,0,0,1,1.88,3.66,3.17,3.17,0,0,1-2.75-2.49l2.16,0A2,2,0,0,0,14.58,28l-1.74.4,4.73,1.51A2.57,2.57,0,0,1,16,31.09c.57,1.26,3,1.12,3.76-.08s0-2.78-1.29-3.53l-.73,2.94-1.35-4.27L16,27.55a6.52,6.52,0,0,1-2.62-3.16,1.32,1.32,0,0,0,.16,2.08,8.57,8.57,0,0,0,2.37,1.1,6.55,6.55,0,0,1,4.22,5.66c1.5-.6,3.07.48,4.49,1.18,2.64,1.28,5.85,1.26,8.89,1.21"/></g><g class="cls-3"><path class="cls-4" d="M69.39,57.53a22.05,22.05,0,0,1-12.5,17.23C49.68,78.05,41.05,77.25,34,80.9c-3.81,2-6.86,5.13-9.84,8.23a21,21,0,0,1,17.56-11.3c3.48-.14,7,.59,10.39-.41,3-.89,5.36-3.06,7.61-5.19,4.43-4.22,9-9.13,9.45-15.23-2.06,4.34-4.14,8.73-7.14,12.49s-7,6.88-11.74,7.85c-4.32.89-8.89-.06-13.14,1.09C30.4,80.26,26.09,86.92,23.66,93.5l2.49-6.15-.1,3.42a7.52,7.52,0,0,1,.73-4.45A4.55,4.55,0,0,1,27.13,89a16.44,16.44,0,0,1,.24-4.54L28.48,88a9.65,9.65,0,0,1,.8-5.4l.85,3.75a5.62,5.62,0,0,1,.71-4.14,22.27,22.27,0,0,0-7.62.72,13.47,13.47,0,0,0,6.52,1.59,7.88,7.88,0,0,0-6,.65l3.51.3a3.17,3.17,0,0,0-3.65,1.46h2.14a14.07,14.07,0,0,0-4.48,3.27,9.9,9.9,0,0,0,4.14-.56,6.35,6.35,0,0,0-2.26,2.17l1.45-1.07-4.18,2.18a6.63,6.63,0,0,0,3.77-2.36,8.81,8.81,0,0,1-3,3.77,9.19,9.19,0,0,1,1.58-5.38,6.63,6.63,0,0,1-3.41,4.56A15.5,15.5,0,0,0,25,87.82a3.52,3.52,0,0,0-3.3,1.06,20.28,20.28,0,0,0,4.61-2.53,4.63,4.63,0,0,1-1.55-1.71l3.21-.87A3.79,3.79,0,0,0,26,82.3c1.48-.52,3.13.6,3.76,2A9.56,9.56,0,0,1,30.16,89a18.31,18.31,0,0,0-2-6.52L28.21,88a7.45,7.45,0,0,0-1.67-3.27,29.71,29.71,0,0,0-1.3,5.42,2.82,2.82,0,0,0-.52-2l-1.39,3.13a6,6,0,0,0-5.07,3.86l4.19-3.89-1.59,2a26.63,26.63,0,0,0,1.73-4.55A3.64,3.64,0,0,0,19.87,92l2.27-.12a2.44,2.44,0,0,1,1.51-3.44l-1.85-.36,4.85-2.16A2.73,2.73,0,0,0,25,84.61c.51-1.56,3.06-1.57,3.93-.18a3.47,3.47,0,0,1-1.12,4.35l-1-3.49-1.14,5.25-.57-1.66a7.94,7.94,0,0,0-2.53,4,1.77,1.77,0,0,1,0-2.53A8.86,8.86,0,0,1,25,88.87a8.06,8.06,0,0,0,4-7.14c1.6.62,3.18-.81,4.62-1.75,2.67-1.75,6-2,9.22-2.12"/><path class="cls-4" d="M72.58,52.2c3.38,3.7,4.23,9.85,2.18,15.63C72.56,74,67.45,79.38,65.54,85.6a33.54,33.54,0,0,0-1.07,10c-1.61-5-.15-11.5,3.66-16.46,1.81-2.36,4.14-4.42,5.42-7A17.74,17.74,0,0,0,75,64.86c.22-4.73.13-9.84-2.79-12.76a40.8,40.8,0,0,1,2.63,10.06,18.8,18.8,0,0,1-2.3,11.13c-1.87,3.24-4.85,5.86-6.56,9.16-2.73,5.27-1.6,11,.51,15.38l-1.86-4.27,1.73,1.52a4.06,4.06,0,0,1-1.92-2.38,2.46,2.46,0,0,1,1.6.93,8.69,8.69,0,0,1-2.22-2.1l2.4.75a5.2,5.2,0,0,1-2.37-2.83l2.41,1a3.13,3.13,0,0,1-1.77-2.24,23.91,23.91,0,0,0-3.76,5.35A14.26,14.26,0,0,0,65.08,90a8.27,8.27,0,0,0-2.9,4.22L64.24,92A3.09,3.09,0,0,0,63,95l1.16-1.42A12.27,12.27,0,0,0,63.44,98a10.47,10.47,0,0,0,2-3,5.26,5.26,0,0,0-.1,2.42L65.54,96,64.4,99.69a6.07,6.07,0,0,0,.82-3.5,6.48,6.48,0,0,1,.34,3.58,5.21,5.21,0,0,1-1.94-3.34,4.75,4.75,0,0,1,.52,4.21,12.1,12.1,0,0,0,.07-6.09A3.54,3.54,0,0,0,63,97.18a19.52,19.52,0,0,0,1.18-4.13,3.46,3.46,0,0,1-1.73.3l1.29-2.5a3.39,3.39,0,0,0-1.81.65A3,3,0,0,1,65,89.88a5.09,5.09,0,0,1,2.63,1.72,10.5,10.5,0,0,0-4.48-1.46l2.93,2.35a4.75,4.75,0,0,0-2.61-.3,16.16,16.16,0,0,0,2.12,3.18,1.63,1.63,0,0,0-1.31-.5l.87,2.26a5.11,5.11,0,0,0-.74,5l.25-4.43.19,1.92a15.54,15.54,0,0,0-1.43-3.09,2.73,2.73,0,0,0,.19,3.17l1.17-1.55a1.57,1.57,0,0,1-1-2.47l-1.19,1.07,1.5-4.13a2.34,2.34,0,0,0-1.59.56c-.53-1,.84-2.7,2-2.68s1.85,1.3,1.66,2.59l-2.34-.86,2.11,3-1.17-.32a5.43,5.43,0,0,0,.71,3.38c-.7.28-1.28-.37-1.29-1.09A8.09,8.09,0,0,1,64.8,95a5.34,5.34,0,0,0-1.52-5.72c1.19-.8,1.3-2.45,1.59-3.81.54-2.51,2.26-4.83,3.9-7"/><path class="cls-5" d="M79.86,53.1A22.06,22.06,0,0,0,92.37,70.33c7.2,3.3,15.83,2.49,22.86,6.15,3.82,2,6.87,5.13,9.85,8.22a21,21,0,0,0-17.57-11.3c-3.47-.14-7.05.6-10.38-.41-3-.89-5.37-3-7.61-5.19-4.44-4.22-9-9.13-9.45-15.23,2.05,4.35,4.14,8.73,7.13,12.49s7,6.88,11.75,7.86c4.31.89,8.88-.07,13.13,1.08,6.78,1.83,11.08,8.49,13.51,15.08l-2.48-6.16.09,3.42a7.34,7.34,0,0,0-.73-4.44,4.51,4.51,0,0,0-.34,2.71,16.45,16.45,0,0,0-.25-4.54l-1.1,3.48a9.6,9.6,0,0,0-.81-5.41l-.84,3.76a5.65,5.65,0,0,0-.72-4.15,22.32,22.32,0,0,1,7.63.72,13.48,13.48,0,0,1-6.52,1.6,7.83,7.83,0,0,1,6,.64L122,81a3.19,3.19,0,0,1,3.65,1.46h-2.13A14,14,0,0,1,128,85.73a9.88,9.88,0,0,1-4.14-.56,6.58,6.58,0,0,1,2.25,2.17l-1.45-1.06,4.18,2.18A6.64,6.64,0,0,1,125,86.09a8.87,8.87,0,0,0,3,3.77,9.11,9.11,0,0,0-1.57-5.38A6.6,6.6,0,0,0,129.85,89a15.37,15.37,0,0,1-5.56-5.65,3.51,3.51,0,0,1,3.3,1.06A20.49,20.49,0,0,1,123,81.92a4.58,4.58,0,0,0,1.56-1.71l-3.22-.86a3.83,3.83,0,0,1,1.93-1.48c-1.49-.52-3.13.6-3.76,2a9.51,9.51,0,0,0-.4,4.63,18.6,18.6,0,0,1,2-6.51l0,5.58a7.54,7.54,0,0,1,1.67-3.28,28.91,28.91,0,0,1,1.3,5.42,2.94,2.94,0,0,1,.52-2l1.39,3.13A6,6,0,0,1,131,90.77l-4.19-3.89,1.59,2a27.15,27.15,0,0,1-1.73-4.55,3.62,3.62,0,0,1,2.72,3.21l-2.26-.12A2.46,2.46,0,0,0,125.6,84l1.85-.35-4.85-2.17a2.78,2.78,0,0,1,1.69-1.31c-.52-1.55-3.06-1.57-3.93-.18a3.46,3.46,0,0,0,1.11,4.35l1-3.49,1.14,5.25.58-1.65a7.85,7.85,0,0,1,2.52,4,1.76,1.76,0,0,0,0-2.52,8.56,8.56,0,0,0-2.42-1.5,8,8,0,0,1-4-7.13c-1.61.61-3.18-.81-4.62-1.76-2.67-1.74-6-2-9.22-2.12"/><path class="cls-6" d="M75.15,52.93a22,22,0,0,0,2.16,21.18C81.88,80.58,89.75,84.22,94,90.91c2.3,3.63,3.36,7.88,4.38,12.06a21,21,0,0,0-9.51-18.6c-2.94-1.86-6.4-3-8.77-5.57-2.12-2.26-3.11-5.34-4-8.31-1.71-5.88-3.17-12.41-.52-17.92-.4,4.79-.8,9.63-.1,14.39s2.63,9.48,6.21,12.69c3.28,2.94,7.71,4.41,10.81,7.53,4.94,5,5.31,12.92,4.11,19.83l.94-6.58-1.64,3a7.36,7.36,0,0,0,1.61-4.21,4.6,4.6,0,0,0-1.67,2.17,15.82,15.82,0,0,0,2.07-4.05l-2.7,2.46a9.56,9.56,0,0,0,2-5.08l-2.61,2.82a5.61,5.61,0,0,0,1.46-3.94,22.31,22.31,0,0,1,6.23,4.45,13.43,13.43,0,0,1-6.44-1.89,7.81,7.81,0,0,1,4.83,3.55l-3.19-1.51a3.18,3.18,0,0,1,2.42,3.1l-1.84-1.08a13.94,13.94,0,0,1,2.23,5.08,9.92,9.92,0,0,1-3.29-2.57,6.49,6.49,0,0,1,.85,3l-.71-1.65,2.51,4a6.72,6.72,0,0,1-2.07-3.93,9,9,0,0,0,.68,4.75,9.14,9.14,0,0,0,1.35-5.44,6.65,6.65,0,0,0,.65,5.66,15.51,15.51,0,0,1-2-7.68,3.52,3.52,0,0,1,2.32,2.58A20.9,20.9,0,0,1,98,99.51a4.57,4.57,0,0,0,2.21-.7l-2.35-2.36a3.85,3.85,0,0,1,2.41-.31c-1-1.19-3-1-4.28-.13a9.56,9.56,0,0,0-2.66,3.81,18.55,18.55,0,0,1,5-4.63L95.43,100a7.53,7.53,0,0,1,3.09-2,29.06,29.06,0,0,1-1.6,5.34,2.89,2.89,0,0,1,1.44-1.44L98,105.3a6,6,0,0,1,2.44,5.88l-1.66-5.46.35,2.55a26.86,26.86,0,0,1,.79-4.8,3.62,3.62,0,0,1,.74,4.14l-1.9-1.24a2.45,2.45,0,0,0,.42-3.74l1.78.63L97.84,99a2.76,2.76,0,0,1,2.12-.29c.34-1.6-1.86-2.9-3.31-2.12a3.45,3.45,0,0,0-1.22,4.31L98,98.32l-1.65,5.1,1.33-1.14a8,8,0,0,1,.18,4.73c.94-.08,1.44-1.26,1.24-2.19a8.83,8.83,0,0,0-1.34-2.51,8,8,0,0,1,.1-8.2c-1.7-.27-2.34-2.29-3.12-3.83-1.43-2.85-4.22-4.73-6.9-6.47"/><path class="cls-4" d="M88.39,55.18C86,60.86,87.25,68.07,91.53,73.52c4.58,5.82,12,9.38,16.32,15.37,2.32,3.25,3.53,7,4.7,10.61,0-6.24-3.89-12.81-9.79-16.52-2.81-1.76-6.07-3-8.4-5.27-2.08-2.06-3.16-4.76-4.12-7.37-1.9-5.15-3.61-10.85-1.46-15.45a50.59,50.59,0,0,0,.69,12.38,20.4,20.4,0,0,0,6.42,11.26c3.19,2.71,7.36,4.21,10.39,7.07,4.83,4.56,5.61,11.4,4.87,17.29l.52-5.61-1.35,2.5a5.46,5.46,0,0,0,1.25-3.53A3.3,3.3,0,0,0,110.15,98a11.72,11.72,0,0,0,1.69-3.37l-2.36,2a7,7,0,0,0,1.59-4.25l-2.26,2.28a4.15,4.15,0,0,0,1.13-3.31,24.33,24.33,0,0,1,6,4.17,14.6,14.6,0,0,1-6-2,8.46,8.46,0,0,1,4.65,3.32l-3-1.47a3.24,3.24,0,0,1,2.4,2.79l-1.76-1a13.5,13.5,0,0,1,2.34,4.49,10.69,10.69,0,0,1-3.18-2.39,6,6,0,0,1,1,2.63l-.75-1.45,2.54,3.56a6.51,6.51,0,0,1-2.12-3.5,7.71,7.71,0,0,0,.88,4.13,6.91,6.91,0,0,0,1-4.61,5.63,5.63,0,0,0,.91,4.91,14,14,0,0,1-2.23-6.72,3.7,3.7,0,0,1,2.28,2.34,20.76,20.76,0,0,1-2.75-4,4.11,4.11,0,0,0,2-.48l-2.3-2.16a3.65,3.65,0,0,1,2.2-.14,3.23,3.23,0,0,0-3.95-.34,6.91,6.91,0,0,0-2.25,3.13A13.87,13.87,0,0,1,112,92.81l-2.36,4a5.84,5.84,0,0,1,2.74-1.55,21.72,21.72,0,0,1-1.19,4.51,2.17,2.17,0,0,1,1.25-1.16l-.15,2.9a5.66,5.66,0,0,1,2.57,5.2l-1.83-4.79.46,2.21A20.59,20.59,0,0,1,114,100a3.17,3.17,0,0,1,.91,3.61l-1.82-1.17a2,2,0,0,0,.18-3.2l1.68.64L111.85,96a2.56,2.56,0,0,1,1.93-.13c.23-1.36-1.87-2.6-3.17-2s-1.55,2.31-.89,3.65l2.24-2-1.24,4.31,1.16-.91a6.51,6.51,0,0,1,.42,4.08c.87,0,1.26-1,1-1.82A8.67,8.67,0,0,0,112,98.91a6.54,6.54,0,0,1-.37-7c-1.58-.33-2.28-2.11-3.08-3.47-1.48-2.53-4.16-4.3-6.72-5.94"/><path class="cls-7" d="M60.7,56.51C59.52,62.56,54.49,67.87,47.9,70c-7,2.3-15.21,1.12-22.1,3.72C22.07,75.16,19,77.58,16,80c3.47-5.19,10.35-8.49,17.31-8.3,3.32.09,6.69.91,9.92.28,2.87-.56,5.27-2.21,7.52-3.85,4.44-3.22,9-7,9.79-12A50.82,50.82,0,0,1,53.09,66a20.46,20.46,0,0,1-11.59,5.8c-4.16.48-8.46-.58-12.57.11-6.55,1.11-11,6.37-13.65,11.67L18,78.61l-.27,2.82a5.43,5.43,0,0,1,.92-3.63,3.28,3.28,0,0,1,.19,2.26,12.16,12.16,0,0,1,.47-3.74l.87,2.94a7.1,7.1,0,0,1,1.05-4.42L21.81,78a4.19,4.19,0,0,1,.89-3.39,24.47,24.47,0,0,0-7.3.14,14.43,14.43,0,0,0,6.13,1.71,8.54,8.54,0,0,0-5.71.18l3.33.46a3.25,3.25,0,0,0-3.55,1l2,.12a13.41,13.41,0,0,0-4.44,2.44,10.81,10.81,0,0,0,4-.22,5.84,5.84,0,0,0-2.26,1.66l1.44-.8-4.1,1.56A6.56,6.56,0,0,0,16,81.12a7.66,7.66,0,0,1-3,2.94,6.92,6.92,0,0,1,1.78-4.36,5.6,5.6,0,0,1-3.48,3.57,13.82,13.82,0,0,0,5.58-4.34,3.66,3.66,0,0,0-3.2.68,21.35,21.35,0,0,0,4.53-1.82,4.12,4.12,0,0,1-1.4-1.51l3.11-.52a3.67,3.67,0,0,0-1.76-1.34,3.25,3.25,0,0,1,3.48,1.91,6.84,6.84,0,0,1,.13,3.86,13.56,13.56,0,0,0-1.57-5.51L19.9,79.3a6,6,0,0,0-1.42-2.81A21.31,21.31,0,0,0,17,80.9a2.17,2.17,0,0,0-.4-1.66l-1.49,2.5a5.67,5.67,0,0,0-5,2.89l4.19-3-1.62,1.58a21.1,21.1,0,0,0,1.88-3.66,3.18,3.18,0,0,0-2.76,2.49l2.17,0a2,2,0,0,1,1.62-2.76L13.79,79l4.73-1.51A2.65,2.65,0,0,0,17,76.27c.57-1.25,3-1.12,3.75.09s0,2.78-1.28,3.53L18.72,77l-1.36,4.27-.45-1.4A6.52,6.52,0,0,0,14.29,83a1.33,1.33,0,0,1,.16-2.09,8.71,8.71,0,0,1,2.37-1.09A6.55,6.55,0,0,0,21,74.14c1.49.6,3.07-.49,4.49-1.18,2.63-1.29,5.84-1.26,8.89-1.21"/><path class="cls-8" d="M71,56.47c-.89,5-1.79,10-3.92,14.6C64.3,77,59.68,81.76,55.14,86.42c-.12.27.5.08.33-.16s-.53-.16-.82-.09c-1.66.39-3.27-.67-4.89-1.23a8.66,8.66,0,0,0-8.48,1.74l-1.16-.55a.74.74,0,0,0-.28.14c-.41.35.57.94.69.42l-.92,1.08a.49.49,0,1,1,.74-.13l.22-1.26.69,1.12A1.93,1.93,0,0,0,41,86.23l-2.69-.18a2.78,2.78,0,0,0,2.66.57,1,1,0,0,0-1.51-.68"/><path class="cls-4" d="M54.8,87a37.56,37.56,0,0,0-1.26,6.21c-.16-.11.14-.39.24-.22a.42.42,0,0,1-.08.55.41.41,0,0,1-.55-.09.52.52,0,0,1,.67,0l-1.39.18a.54.54,0,0,1,.6-.4,1.14,1.14,0,0,1-.09.85.59.59,0,0,1,.35-.34l0,.73a2.88,2.88,0,0,1,.23-1.12,1.36,1.36,0,0,0,.81.75,1,1,0,0,0-.56-.84,1.76,1.76,0,0,0,.78.88l-1.23-.64-.06.82a1.1,1.1,0,0,0,.1-.59.4.4,0,0,0-.41-.36.53.53,0,0,0-.24.11l-.94.64a1.59,1.59,0,0,0,1.4-.62l-1.33,0A1.62,1.62,0,0,0,53.18,93"/><path class="cls-9" d="M60.7,79.68H54.48a4.24,4.24,0,0,0-2.34.44,2.12,2.12,0,0,0,.9.1v.39a.73.73,0,0,1-.73-1c-.18.2,0,.49.08.74s-.16.64-.34.45a2.6,2.6,0,0,1-.1-1.46c.2-.27.69,0,.67.34a.73.73,0,0,1-.72.58c-.38,0-.83-.35-.65-.68a1.16,1.16,0,0,1,.84,0c.24.15.3.58,0,.7"/><path class="cls-4" d="M65.41,75.53,65.26,80c0,.76-.22,1.73-1,1.88a.8.8,0,0,1,0-.78.44.44,0,1,1-.56.21.53.53,0,0,1,.33,0l.14.49a.38.38,0,0,1-.37-.13"/><path class="cls-4" d="M57.87,83.18c-.31,1.63.75,3.3.44,4.93a.94.94,0,0,1-.46-1.35,1.56,1.56,0,0,1,.32.69.51.51,0,0,1-.42.56.8.8,0,0,1,1.13-.17,1.17,1.17,0,0,1-1.41.26,1.8,1.8,0,0,1,1.68-.91.93.93,0,0,1-1.27,1"/><path class="cls-4" d="M54.21,87.3a6.64,6.64,0,0,0-6.9,4c0,.12-.11.27-.23.3s-.27-.16-.15-.23a.45.45,0,0,1,.41.58.48.48,0,0,1-.38-.79.44.44,0,0,1,.11.51H46v-.89a1.38,1.38,0,0,1,1.49,1.68c-.49.07-.8-.51-1-1l.74.36"/><path class="cls-4" d="M65.89,73.31c-1.8.32-3,2.15-4.81,2.52a.39.39,0,1,1-.34.68,1.41,1.41,0,0,1-.19-.84c.06-.29.4-.53.65-.38a.71.71,0,1,1-1.41.09.64.64,0,0,1,.88.09"/><path class="cls-4" d="M65.5,74.36v2.21"/><path class="cls-4" d="M68.47,67.11a5.57,5.57,0,0,1,0,1.47A1.32,1.32,0,0,0,69,69.85a5.18,5.18,0,0,0,.82.16A1.16,1.16,0,0,1,70,72.19a1.54,1.54,0,0,1,.16-.79h.35V72c-.19,0-.43,0-.51-.2s.21-.4.31-.23a.68.68,0,0,1-.1.93.55.55,0,0,1-.88-.26c-.07-.36.55-.62.7-.28A1.36,1.36,0,0,1,69,73.58"/><path class="cls-4" d="M60.37,79.75a4.2,4.2,0,0,1,1-.5"/><path class="cls-4" d="M54.13,86.84a2,2,0,0,0,1.42-.77"/><path class="cls-10" d="M78,54.53a25.16,25.16,0,0,0,1.15,11c.58,1.72,1.84,3.34,2.33,5S80.91,74,80.09,75.4A3.57,3.57,0,0,1,82,76.71a.57.57,0,0,1-.86-.48.94.94,0,0,1,.27,1.16.71.71,0,0,1-.45-1,.58.58,0,0,1,.64.42"/><path class="cls-4" d="M82.06,71.62a2,2,0,0,0,.52,1.18c1.16,1.52,2.67,2.76,3.62,4.42.59,1,1,2.23,2,2.91a.6.6,0,0,0,.14-.5.68.68,0,0,1,.59.57,2.21,2.21,0,0,1-.1.88c-.39,0-.9,0-1-.32s.18-.67.52-.73a1.67,1.67,0,0,1,1,.26c.26.13.57.39.44.66l-.41,0"/><path class="cls-4" d="M82.66,70.5a17.4,17.4,0,0,1,3.84.75,2.86,2.86,0,0,1,1.46.86,1.06,1.06,0,0,1-.17,1.51.58.58,0,0,1-.09-.51,1,1,0,0,1,.24,1.06c-.31.21-.81-.21-.63-.56a1.5,1.5,0,0,1,1.25.87l-.43-.56"/><path class="cls-4" d="M79.79,65.44l1.68.38a3.34,3.34,0,0,1,1.3.51,1.11,1.11,0,0,1,.41,1.24.56.56,0,0,1-.66-.43c.22-.27.76,0,.66.34-.19,0-.3-.29-.12-.37"/><path class="cls-4" d="M79.12,67.05a11.42,11.42,0,0,0-1.2,2.33,1.3,1.3,0,0,0-.11.61,1.34,1.34,0,0,0,.21.53L78.85,72a2.25,2.25,0,0,1-.38-1.15,1.49,1.49,0,0,1,.48.89c0,.34-.33.7-.64.57"/><path class="cls-4" d="M83.52,70.44h-2.4"/><path class="cls-4" d="M79.25,66.14a2,2,0,0,1-.72,1.37"/></g><g class="cls-3"><path class="cls-4" d="M100.44,50.35A16.46,16.46,0,0,0,113.26,41c2.43-5.38,1.81-11.81,4.52-17.06a29.63,29.63,0,0,1,6.11-7.35,15.66,15.66,0,0,0-8.38,13.11c-.1,2.6.46,5.26-.28,7.75a14.93,14.93,0,0,1-3.86,5.68c-3.13,3.32-6.78,6.72-11.33,7.08a46.12,46.12,0,0,0,9.3-5.35,15.69,15.69,0,0,0,5.83-8.77c.65-3.22-.07-6.62.77-9.79,1.35-5.06,6.31-8.28,11.21-10.11l-4.58,1.87,2.55-.08a5.61,5.61,0,0,0-3.32.55,3.46,3.46,0,0,0,2,.26,12.07,12.07,0,0,0-3.39.19l2.6.82a7.08,7.08,0,0,0-4,.61l2.8.62a4.16,4.16,0,0,0-3.08.54,16.46,16.46,0,0,1,.51-5.68,10.14,10.14,0,0,1,1.21,4.85,5.87,5.87,0,0,1,.46-4.44l.24,2.62a2.37,2.37,0,0,1,1.08-2.73v1.59a10.37,10.37,0,0,1,2.42-3.34,7.17,7.17,0,0,1-.41,3.08,4.89,4.89,0,0,1,1.61-1.68l-.79,1.08,1.62-3.12a5,5,0,0,1-1.75,2.81,6.61,6.61,0,0,0,2.8-2.22,6.81,6.81,0,0,0-4,1.18A4.91,4.91,0,0,0,127.11,13a11.37,11.37,0,0,1-4.2,4.15,2.64,2.64,0,0,1,.79-2.46,15.82,15.82,0,0,1-1.88,3.45A3.4,3.4,0,0,0,120.54,17l-.63,2.4A2.86,2.86,0,0,1,118.8,18a2.45,2.45,0,0,0,1.53,2.8,7.29,7.29,0,0,0,3.45.28,13.85,13.85,0,0,1-4.86-1.48l4.16,0a5.51,5.51,0,0,1-2.44-1.24,21.45,21.45,0,0,1,4-1,2.08,2.08,0,0,1-1.47-.39l2.32-1a4.48,4.48,0,0,1,2.87-3.78l-2.89,3.13L127,14.1a19.56,19.56,0,0,1-3.39,1.29,2.71,2.71,0,0,1,2.39-2l-.08,1.69a1.83,1.83,0,0,0-2.57,1.14l-.26-1.38-1.61,3.62a2,2,0,0,1-1-1.26c-1.16.39-1.16,2.29-.12,2.93a2.58,2.58,0,0,0,3.24-.83L121,18.56l3.91-.86-1.23-.42a5.89,5.89,0,0,1,3-1.9,1.32,1.32,0,0,0-1.88,0,6.38,6.38,0,0,0-1.11,1.8,6,6,0,0,1-5.31,3c.46,1.19-.6,2.37-1.3,3.45-1.29,2-1.45,4.5-1.56,6.87"/><path class="cls-4" d="M96.47,52.74c2.77,2.51,7.35,3.13,11.66,1.59,4.6-1.66,8.59-5.47,13.22-6.92a25.3,25.3,0,0,1,7.48-.82c-3.71-1.18-8.58-.08-12.26,2.77-1.76,1.36-3.28,3.09-5.24,4.06a13.27,13.27,0,0,1-5.41,1.08c-3.53.17-7.34.12-9.52-2a30,30,0,0,0,7.51,1.93,14,14,0,0,0,8.29-1.73c2.41-1.41,4.35-3.63,6.81-4.92,3.92-2,8.17-1.21,11.47.35l-3.19-1.37L128.43,48a3.06,3.06,0,0,0-1.78-1.42,1.84,1.84,0,0,0,.69,1.19,6.52,6.52,0,0,0-1.57-1.66l.57,1.8a3.91,3.91,0,0,0-2.12-1.77l.78,1.8a2.36,2.36,0,0,0-1.67-1.32,18.18,18.18,0,0,1,4-2.82,10.55,10.55,0,0,1-2.7,3.27,6.17,6.17,0,0,1,3.14-2.17l-1.64,1.54a2.29,2.29,0,0,1,2.27-.91l-1.06.86a9.16,9.16,0,0,1,3.25-.56,7.9,7.9,0,0,1-2.21,1.47,3.82,3.82,0,0,1,1.8-.08l-1,.18,2.75-.85a4.55,4.55,0,0,1-2.61.61,4.76,4.76,0,0,0,2.67.25,3.91,3.91,0,0,0-2.5-1.44,3.56,3.56,0,0,0,3.14.38,9.09,9.09,0,0,1-4.54.07,2.65,2.65,0,0,1,2-.93,15.08,15.08,0,0,1-3.07.89,2.71,2.71,0,0,0,.22-1.29l-1.86,1a2.42,2.42,0,0,1,.47-1.35,2.25,2.25,0,0,0-1.2,2.31,3.85,3.85,0,0,0,1.29,2,7.82,7.82,0,0,1-1.1-3.33l1.76,2.18a3.5,3.5,0,0,1-.22-1.94,12.3,12.3,0,0,1,2.37,1.56,1.21,1.21,0,0,1-.38-1l1.69.65a3.79,3.79,0,0,1,3.72-.57l-3.3.2,1.43.14a12,12,0,0,1-2.3-1.06,2,2,0,0,1,2.36.13l-1.15.88a1.19,1.19,0,0,0-1.85-.72l.8-.88-3.08,1.13a1.76,1.76,0,0,1,.42-1.19c-.76-.4-2,.63-2,1.52s1,1.38,1.94,1.24l-.65-1.74,2.24,1.56-.25-.87a4.09,4.09,0,0,1,2.53.52c.2-.52-.28-.95-.82-1a6.14,6.14,0,0,0-1.67.4,4,4,0,0,1-4.26-1.12c-.6.89-1.83,1-2.84,1.2A14.35,14.35,0,0,0,116,49.84"/><path class="cls-5" d="M97.17,58.17A16.47,16.47,0,0,1,110,67.45c2.47,5.36,1.89,11.8,4.63,17,1.48,2.83,3.84,5.1,6.15,7.32a15.68,15.68,0,0,1-8.46-13.07c-.11-2.59.43-5.26-.33-7.74a14.86,14.86,0,0,0-3.89-5.66c-3.15-3.3-6.82-6.67-11.37-7a46.86,46.86,0,0,1,9.33,5.29A15.71,15.71,0,0,1,112,72.35c.67,3.21,0,6.62.84,9.79,1.38,5,6.35,8.23,11.27,10l-4.6-1.84,2.55.06a5.42,5.42,0,0,1-3.31-.53,3.34,3.34,0,0,1,2-.26,12.06,12.06,0,0,1-3.39-.18l2.59-.83a7.16,7.16,0,0,1-4-.58l2.8-.64a4.19,4.19,0,0,1-3.09-.53,16.56,16.56,0,0,0,.55,5.69,10.19,10.19,0,0,0,1.18-4.87,5.85,5.85,0,0,0,.49,4.45l.22-2.63a2.36,2.36,0,0,0,1.09,2.72V90.61a10.46,10.46,0,0,0,2.45,3.33,7.34,7.34,0,0,0-.43-3.08,4.8,4.8,0,0,0,1.62,1.67L122,91.46l1.63,3.1a5,5,0,0,0-1.77-2.8A6.66,6.66,0,0,1,124.68,94a6.82,6.82,0,0,1-4-1.16,4.91,4.91,0,0,1,3.41,2.53,11.55,11.55,0,0,0-4.23-4.13,2.63,2.63,0,0,0,.81,2.46,16,16,0,0,0-1.9-3.43,3.45,3.45,0,0,1-1.27,1.16L116.82,89a2.85,2.85,0,0,0-1.09,1.44,2.43,2.43,0,0,1,1.51-2.81,7,7,0,0,1,3.45-.3,13.57,13.57,0,0,0-4.85,1.5l4.16,0A5.63,5.63,0,0,0,117.56,90a21.69,21.69,0,0,0,4,1,2.19,2.19,0,0,0-1.47.39l2.33,1a4.46,4.46,0,0,0,2.89,3.77l-2.91-3.11L124,94.26a19.62,19.62,0,0,0-3.4-1.28,2.71,2.71,0,0,0,2.4,2l-.09-1.69a1.82,1.82,0,0,1-2.57-1.12l-.26,1.38L118.42,90a2.09,2.09,0,0,0-1,1.26c-1.16-.38-1.18-2.28-.14-2.93a2.59,2.59,0,0,1,3.25.82l-2.6.72,3.91.84-1.23.43a5.86,5.86,0,0,0,3,1.87,1.32,1.32,0,0,1-1.88,0,6.41,6.41,0,0,1-1.12-1.8,6,6,0,0,0-5.33-3c.46-1.2-.61-2.37-1.32-3.44-1.31-2-1.47-4.49-1.6-6.87"/><path class="cls-6" d="M97,54.66a16.43,16.43,0,0,1,15.79,1.55c4.83,3.4,7.56,9.25,12.56,12.4,2.71,1.71,5.88,2.49,9,3.24a15.71,15.71,0,0,1-13.89-7c-1.39-2.18-2.27-4.76-4.17-6.52a14.78,14.78,0,0,0-6.21-3c-4.38-1.26-9.25-2.34-13.35-.34a45.78,45.78,0,0,1,10.72-.11,15.59,15.59,0,0,1,9.48,4.6c2.19,2.43,3.3,5.73,5.64,8,3.73,3.67,9.63,3.93,14.78,3l-4.89.72L134.73,70a5.55,5.55,0,0,1-3.14,1.21A3.4,3.4,0,0,1,133.21,70a12,12,0,0,1-3,1.55l1.82-2A7,7,0,0,1,128.24,71l2.09-2a4.23,4.23,0,0,1-2.93,1.1,16.54,16.54,0,0,0,3.33,4.63A10,10,0,0,0,129.3,70,5.9,5.9,0,0,0,132,73.61l-1.13-2.38a2.37,2.37,0,0,0,2.31,1.8l-.8-1.37a10.48,10.48,0,0,0,3.78,1.65,7.26,7.26,0,0,0-1.92-2.45,4.82,4.82,0,0,0,2.25.63L135.22,71l3,1.87a4.91,4.91,0,0,0-2.93-1.53,6.52,6.52,0,0,1,3.54.49,6.88,6.88,0,0,1-4.05,1,4.91,4.91,0,0,1,4.22.47,11.48,11.48,0,0,0-5.73-1.44,2.65,2.65,0,0,0,1.92,1.72,15.7,15.7,0,0,0-3.36-2,3.45,3.45,0,0,1-.52,1.65l-1.76-1.74a2.83,2.83,0,0,0-.23,1.79,2.44,2.44,0,0,1-.1-3.19,7.07,7.07,0,0,1,2.83-2,13.79,13.79,0,0,0-3.44,3.74l3.57-2.14A5.58,5.58,0,0,0,130.68,72a21.9,21.9,0,0,0,4-1.2,2.14,2.14,0,0,0-1.07,1.07l2.54-.28a4.47,4.47,0,0,0,4.39,1.81l-4.08-1.23,1.9.25a20.94,20.94,0,0,0-3.58.61,2.72,2.72,0,0,0,3.09.54l-.92-1.42a1.82,1.82,0,0,1-2.79.32l.47,1.33-3.22-2.31a2,2,0,0,0-.21,1.58c-1.19.26-2.16-1.38-1.59-2.46a2.57,2.57,0,0,1,3.21-.92l-1.88,1.92,3.8-1.24-.85,1a5.91,5.91,0,0,0,3.53.12c-.06.71-.94,1.08-1.63.93a6.32,6.32,0,0,1-1.87-1,6,6,0,0,0-6.11.09c-.21-1.27-1.72-1.74-2.87-2.32-2.13-1.06-3.53-3.14-4.84-5.13"/><path class="cls-4" d="M98.73,64.52c4.23-1.79,9.61-.88,13.68,2.3,4.35,3.4,7,9,11.49,12.13a28.1,28.1,0,0,0,7.93,3.48c-4.66,0-9.56-2.88-12.34-7.27-1.32-2.09-2.22-4.51-3.95-6.24a14.39,14.39,0,0,0-5.5-3.06c-3.85-1.41-8.1-2.66-11.52-1a38.24,38.24,0,0,1,9.23.48,15.21,15.21,0,0,1,8.4,4.77c2,2.37,3.16,5.47,5.3,7.72,3.41,3.59,8.51,4.16,12.9,3.6l-4.18.39,1.86-1a4.07,4.07,0,0,1-2.63.94,2.43,2.43,0,0,1,1.32-1.06,9,9,0,0,1-2.51,1.27l1.46-1.77a5.26,5.26,0,0,1-3.17,1.2l1.69-1.69a3.09,3.09,0,0,1-2.46.85A18.26,18.26,0,0,0,128.85,85a10.66,10.66,0,0,0-1.49-4.5,6.33,6.33,0,0,0,2.49,3.46l-1.11-2.26a2.43,2.43,0,0,0,2.09,1.79l-.77-1.31a9.92,9.92,0,0,0,3.35,1.73,7.94,7.94,0,0,0-1.78-2.36,4.42,4.42,0,0,0,2,.7l-1.08-.55,2.66,1.88A4.93,4.93,0,0,0,132.56,82a5.76,5.76,0,0,1,3.08.66,5.18,5.18,0,0,1-3.44.71,4.19,4.19,0,0,1,3.66.67,10.42,10.42,0,0,0-5-1.65,2.76,2.76,0,0,0,1.75,1.7,15.33,15.33,0,0,0-3-2,3.07,3.07,0,0,1-.36,1.49l-1.62-1.7a2.76,2.76,0,0,0-.09,1.64,2.42,2.42,0,0,1-.27-2.94,5.2,5.2,0,0,1,2.33-1.69,10.23,10.23,0,0,0-2.75,3.26l2.95-1.77a4.42,4.42,0,0,0-1.14,2,15.41,15.41,0,0,0,3.36-.89,1.62,1.62,0,0,0-.87.94l2.17-.12a4.22,4.22,0,0,0,3.88,1.9l-3.58-1.36,1.66.35a15.41,15.41,0,0,0-3.05.36,2.36,2.36,0,0,0,2.69.66L134,82.82a1.46,1.46,0,0,1-2.38.14l.48,1.25-2.9-2.3a1.88,1.88,0,0,0-.09,1.44c-1,.17-1.94-1.39-1.51-2.36a2,2,0,0,1,2.72-.67L128.83,82l3.21-.93-.68.86a4.88,4.88,0,0,0,3,.31c0,.65-.75.94-1.35.77a6.63,6.63,0,0,1-1.67-1,4.87,4.87,0,0,0-5.25-.25c-.25-1.18-1.58-1.7-2.6-2.29-1.89-1.1-3.21-3.09-4.44-5"/><path class="cls-7" d="M99.66,43.88c4.51-.9,8.45-4.66,10-9.57,1.7-5.25.8-11.35,2.73-16.49A27.56,27.56,0,0,1,117,10.5c-3.87,2.6-6.31,7.73-6.15,12.93.08,2.47.69,5,.23,7.39a14.36,14.36,0,0,1-2.85,5.61c-2.39,3.32-5.21,6.74-9,7.33a37.44,37.44,0,0,0,7.37-5.58,15.19,15.19,0,0,0,4.3-8.65c.35-3.1-.45-6.31.06-9.37.81-4.89,4.72-8.21,8.66-10.2L116,12l2.11-.21a4.13,4.13,0,0,0-2.71.7,2.47,2.47,0,0,0,1.69.14,8.81,8.81,0,0,0-2.79.36l2.2.64a5.24,5.24,0,0,0-3.3.79l2.36.45a3.06,3.06,0,0,0-2.52.67,18,18,0,0,1,.08-5.44,10.72,10.72,0,0,1,1.29,4.56,6.35,6.35,0,0,1,.12-4.26l.35,2.49a2.42,2.42,0,0,1,.73-2.65l.1,1.52a10,10,0,0,1,1.8-3.32,8.17,8.17,0,0,1-.15,3,4.37,4.37,0,0,1,1.23-1.68L118,10.76l1.15-3.06a4.86,4.86,0,0,1-1.28,2.77,5.74,5.74,0,0,0,2.19-2.26,5.11,5.11,0,0,0-3.25,1.33,4.19,4.19,0,0,0,2.65-2.6,10.4,10.4,0,0,1-3.22,4.17,2.73,2.73,0,0,1,.5-2.39,15.11,15.11,0,0,1-1.35,3.38,3,3,0,0,0-1.12-1l-.39,2.32a2.73,2.73,0,0,1-1-1.3,2.41,2.41,0,0,0,1.43,2.58,5.13,5.13,0,0,0,2.88.09,10.27,10.27,0,0,1-4.11-1.15l3.44-.19a4.46,4.46,0,0,1-2.09-1.05,15.4,15.4,0,0,1,3.28-1.15,1.59,1.59,0,0,1-1.24-.29l1.86-1.11a4.22,4.22,0,0,1,2.14-3.75l-2.2,3.13L119.48,8a15.4,15.4,0,0,1-2.73,1.42,2.37,2.37,0,0,1,1.86-2.06l0,1.61a1.46,1.46,0,0,0-2,1.21l-.31-1.3-1.11,3.54a2,2,0,0,1-.88-1.15c-.94.43-.83,2.24.07,2.8a2,2,0,0,0,2.63-1l-2.19-.53,3.18-1-1-.34a4.85,4.85,0,0,1,2.35-2,1,1,0,0,0-1.55.12,7,7,0,0,0-.81,1.77,4.9,4.9,0,0,1-4.21,3.16c.45,1.11-.35,2.29-.87,3.35-1,2-.93,4.36-.88,6.63"/><path class="cls-8" d="M99.65,51.53a43.6,43.6,0,0,0,10.88-3c4.39-2.06,8-5.51,11.41-8.91.2-.09.06.37-.12.25s-.12-.4-.07-.61c.29-1.24-.5-2.44-.93-3.64a6.46,6.46,0,0,1,1.29-6.33l-.42-.87a.63.63,0,0,1,.1-.2c.26-.31.71.42.32.51l.81-.69a.36.36,0,1,0-.1.55l-.94.17.83.51a1.41,1.41,0,0,1-.94-.19l-.14-2a2.1,2.1,0,0,1,.43,2,.75.75,0,0,1-.51-1.12"/><path class="cls-4" d="M122.34,39.41a28.09,28.09,0,0,1,4.62-1c-.08-.12-.29.11-.16.18a.31.31,0,0,0,.41-.06.3.3,0,0,0-.07-.41.41.41,0,0,0,0,.51l.13-1.05a.41.41,0,0,0-.29.45.77.77,0,0,0,.63-.07.47.47,0,0,0-.25.27h.55a2.17,2.17,0,0,0-.84.17,1,1,0,0,1,.56.61.8.8,0,0,1-.63-.42,1.33,1.33,0,0,1,.66.58l-.48-.92.61,0a.84.84,0,0,1-.44.07.29.29,0,0,1-.27-.3.38.38,0,0,1,.09-.18l.47-.7a1.18,1.18,0,0,1-.46,1l0-1a1.23,1.23,0,0,1-.28,1"/><path class="cls-9" d="M116.93,43.82l0-4.63a3.16,3.16,0,0,1,.32-1.75,1.53,1.53,0,0,1,.08.67h.29a.54.54,0,0,0-.74-.54c.15-.14.37,0,.55.06s.48-.13.34-.26a2,2,0,0,0-1.09-.08c-.2.16,0,.52.25.51a.54.54,0,0,0,.43-.54c0-.29-.26-.62-.51-.48a.88.88,0,0,0,0,.62c.11.18.43.23.52,0"/><path class="cls-4" d="M113.85,47.34l3.29-.12c.57,0,1.29-.17,1.41-.73a.62.62,0,0,0-.59,0,.35.35,0,0,0,.62,0,.35.35,0,0,0-.47-.4.43.43,0,0,0,0,.25l.36.1a.27.27,0,0,0-.09-.27"/><path class="cls-4" d="M119.53,41.7c1.22-.23,2.46.56,3.68.32a.71.71,0,0,0-1-.34,1,1,0,0,0,.51.23.36.36,0,0,0,.41-.3.6.6,0,0,0-.12.84.9.9,0,0,0,.19-1.06,1.36,1.36,0,0,0-.67,1.26.69.69,0,0,0,.72-.95"/><path class="cls-4" d="M122.6,39a4.92,4.92,0,0,1,3-5.14c.09,0,.2-.09.22-.18s-.12-.2-.17-.11a.33.33,0,0,0,.43.3.35.35,0,0,0-.58-.27.34.34,0,0,0,.37.08V32.8h-.66a1,1,0,0,0,1.26,1.11c0-.37-.39-.6-.75-.71l.27.54"/><path class="cls-4" d="M112.19,47.7c.24-1.34,1.6-2.25,1.87-3.58a.29.29,0,0,0,.4.16.3.3,0,0,0,.11-.42,1,1,0,0,0-.63-.14c-.22,0-.4.3-.28.49a.53.53,0,1,0,.07-1.06.47.47,0,0,0,.07.66"/><path class="cls-4" d="M113,47.41h1.64"/><path class="cls-4" d="M107.58,49.64a3.69,3.69,0,0,0,1.1,0,1,1,0,0,1,.94.44,3.14,3.14,0,0,1,.12.61.9.9,0,0,0,.77.64.88.88,0,0,0,.86-.52,1.11,1.11,0,0,0-.59.13v.26h.46a.35.35,0,0,0-.15-.39c-.13,0-.3.16-.17.24a.52.52,0,0,0,.7-.08.42.42,0,0,0-.2-.66c-.27,0-.46.41-.21.53a1,1,0,0,0,1.19-.8"/><path class="cls-4" d="M117,43.57a3.21,3.21,0,0,0-.37.77"/><path class="cls-4" d="M122.25,38.91a1.53,1.53,0,0,1-.56,1.06"/><path class="cls-10" d="M98.22,56.76a18.76,18.76,0,0,1,8.18.83c1.28.43,2.49,1.36,3.75,1.73s2.6-.42,3.64-1a2.62,2.62,0,0,0,1,1.44.42.42,0,0,0-.35-.63.7.7,0,0,0,.86.2.52.52,0,0,0-.75-.33.42.42,0,0,0,.31.47"/><path class="cls-4" d="M111,59.76a1.53,1.53,0,0,1,.89.39,32.56,32.56,0,0,0,3.3,2.69,6,6,0,0,1,2.17,1.44.42.42,0,0,1-.37.1.49.49,0,0,0,.42.44,1.36,1.36,0,0,0,.66-.07c0-.29,0-.67-.24-.77s-.5.14-.54.39a1.22,1.22,0,0,0,.19.73c.1.19.29.42.49.33l0-.31"/><path class="cls-4" d="M110.14,60.21a12.72,12.72,0,0,0,.57,2.86,2.12,2.12,0,0,0,.64,1.09.8.8,0,0,0,1.13-.13.44.44,0,0,0-.38-.07.78.78,0,0,0,.78.18c.17-.23-.15-.6-.41-.47a1.1,1.1,0,0,0,.65.93l-.42-.32"/><path class="cls-4" d="M106.36,58.08l.29,1.25a2.5,2.5,0,0,0,.38,1,.84.84,0,0,0,.93.31.42.42,0,0,0-.32-.49c-.21.16,0,.56.25.49,0-.14-.22-.22-.27-.09"/><path class="cls-4" d="M107.56,57.58a8.13,8.13,0,0,1,1.73-.9,1,1,0,0,1,.46-.08.93.93,0,0,1,.39.15l1.09.62a1.62,1.62,0,0,0-.85-.28,1.1,1.1,0,0,0,.66.35c.25,0,.52-.24.42-.48"/><path class="cls-4" d="M110.09,60.86v-1.8"/><path class="cls-4" d="M106.88,57.68a1.5,1.5,0,0,0,1-.54"/></g><g class="cls-3"><path class="cls-4" d="M51,49.22a16.44,16.44,0,0,1-12.82-9.36c-2.44-5.37-1.82-11.81-4.52-17-1.47-2.85-3.81-5.13-6.11-7.36a15.68,15.68,0,0,1,8.38,13.12c.09,2.59-.46,5.25.28,7.74.66,2.21,2.27,4,3.85,5.69,3.14,3.31,6.79,6.71,11.33,7.07a46.48,46.48,0,0,1-9.29-5.34A15.74,15.74,0,0,1,36.28,35c-.65-3.22.07-6.62-.77-9.79-1.35-5.05-6.31-8.28-11.21-10.11l4.58,1.87-2.55-.08a5.5,5.5,0,0,1,3.31.56,3.34,3.34,0,0,1-2,.25,12.36,12.36,0,0,1,3.38.19l-2.59.82a7.13,7.13,0,0,1,4,.61l-2.79.62a4.17,4.17,0,0,1,3.08.54,16.73,16.73,0,0,0-.51-5.68A9.92,9.92,0,0,0,31,19.6a5.82,5.82,0,0,0-.47-4.44l-.23,2.62a2.36,2.36,0,0,0-1.08-2.72v1.59A10.31,10.31,0,0,0,26.8,13.3a7.24,7.24,0,0,0,.41,3.09,4.77,4.77,0,0,0-1.62-1.69l.79,1.08-1.61-3.12a5,5,0,0,0,1.75,2.82,6.65,6.65,0,0,1-2.8-2.23,6.77,6.77,0,0,1,4,1.19,4.94,4.94,0,0,1-3.4-2.56A11.55,11.55,0,0,0,28.53,16a2.6,2.6,0,0,0-.78-2.46A15.49,15.49,0,0,0,29.62,17a3.48,3.48,0,0,1,1.28-1.16l.64,2.4a2.86,2.86,0,0,0,1.11-1.43,2.45,2.45,0,0,1-1.53,2.8,7.08,7.08,0,0,1-3.46.28,13.53,13.53,0,0,0,4.86-1.48l-4.15,0a5.56,5.56,0,0,0,2.44-1.24,22.45,22.45,0,0,0-4-1,2.13,2.13,0,0,0,1.47-.38l-2.33-1A4.46,4.46,0,0,0,23.05,11l2.89,3.13L24.43,13a20.11,20.11,0,0,0,3.39,1.3,2.73,2.73,0,0,0-2.39-2l.08,1.69a1.82,1.82,0,0,1,2.56,1.14l.27-1.38L30,17.3a2,2,0,0,0,1-1.25c1.16.38,1.17,2.28.13,2.93a2.59,2.59,0,0,1-3.24-.84l2.6-.71-3.91-.86,1.24-.42a5.87,5.87,0,0,0-3-1.89,1.31,1.31,0,0,1,1.88,0,6.62,6.62,0,0,1,1.11,1.8,6,6,0,0,0,5.31,3c-.46,1.2.6,2.37,1.3,3.45,1.29,2,1.44,4.5,1.56,6.87"/><path class="cls-4" d="M55,51.61c-2.76,2.51-7.35,3.14-11.65,1.59-4.6-1.65-8.6-5.47-13.22-6.92a25,25,0,0,0-7.48-.81c3.7-1.19,8.57-.09,12.26,2.76,1.75,1.36,3.28,3.1,5.24,4.06a13.45,13.45,0,0,0,5.41,1.09c3.53.16,7.33.11,9.51-2.06a30.4,30.4,0,0,1-7.5,1.94,14.06,14.06,0,0,1-8.29-1.74c-2.41-1.41-4.35-3.63-6.81-4.91-3.92-2-8.17-1.22-11.47.34l3.19-1.37L23,46.86a3,3,0,0,1,1.78-1.42,1.83,1.83,0,0,1-.7,1.19A6.74,6.74,0,0,1,25.68,45l-.57,1.8A3.88,3.88,0,0,1,27.23,45l-.78,1.8a2.3,2.3,0,0,1,1.67-1.31,17.75,17.75,0,0,0-4-2.82,10.63,10.63,0,0,0,2.7,3.26,6.3,6.3,0,0,0-3.14-2.17l1.63,1.55a2.28,2.28,0,0,0-2.26-.92l1.05.86a9.33,9.33,0,0,0-3.25-.55,8.05,8.05,0,0,0,2.22,1.46,4,4,0,0,0-1.8-.08l1.05.18-2.75-.85A4.55,4.55,0,0,0,22.2,46a4.77,4.77,0,0,1-2.67.25A3.88,3.88,0,0,1,22,44.83a3.51,3.51,0,0,1-3.13.38,9.09,9.09,0,0,0,4.54.07,2.65,2.65,0,0,0-2-.93,14,14,0,0,0,3.08.89A2.71,2.71,0,0,1,24.32,44l1.86,1a2.53,2.53,0,0,0-.47-1.35,2.25,2.25,0,0,1,1.2,2.31,3.87,3.87,0,0,1-1.29,2,7.89,7.89,0,0,0,1.09-3.34L25,46.68a3.5,3.5,0,0,0,.22-1.94,11.89,11.89,0,0,0-2.37,1.57,1.22,1.22,0,0,0,.37-1L21.5,46a3.81,3.81,0,0,0-3.73-.57l3.31.2-1.43.14A12,12,0,0,0,22,44.69a2,2,0,0,0-2.36.14l1.15.87A1.17,1.17,0,0,1,22.58,45l-.79-.89,3.08,1.13A1.76,1.76,0,0,0,24.45,44c.75-.39,2,.64,2,1.53s-1,1.37-1.93,1.23l.64-1.74-2.23,1.57.24-.88a4,4,0,0,0-2.52.53c-.21-.53.28-1,.82-1a6,6,0,0,1,1.66.4,4,4,0,0,0,4.27-1.12c.59.89,1.83,1,2.83,1.2a14.19,14.19,0,0,1,5.22,2.93"/><path class="cls-5" d="M54.28,57a16.45,16.45,0,0,0-12.87,9.28c-2.47,5.36-1.89,11.8-4.63,17-1.49,2.84-3.84,5.1-6.15,7.32A15.7,15.7,0,0,0,39.09,77.6c.11-2.59-.43-5.26.33-7.74a14.86,14.86,0,0,1,3.89-5.66c3.15-3.29,6.82-6.67,11.37-7a46.58,46.58,0,0,0-9.33,5.29,15.61,15.61,0,0,0-5.88,8.74c-.67,3.21,0,6.62-.84,9.79-1.38,5-6.36,8.24-11.27,10L32,89.2l-2.55.07a5.5,5.5,0,0,0,3.31-.54,3.41,3.41,0,0,0-2-.26,12.44,12.44,0,0,0,3.39-.17l-2.59-.84a7.12,7.12,0,0,0,4-.58l-2.79-.64a4.23,4.23,0,0,0,3.09-.52,16.53,16.53,0,0,1-.55,5.68,10,10,0,0,1-1.18-4.86A5.88,5.88,0,0,1,33.6,91l-.22-2.62a2.36,2.36,0,0,1-1.1,2.71V89.48a10.43,10.43,0,0,1-2.44,3.33,7.34,7.34,0,0,1,.43-3.08,4.83,4.83,0,0,1-1.63,1.67l.8-1.07-1.63,3.11a5,5,0,0,1,1.77-2.81,6.66,6.66,0,0,0-2.82,2.21,6.77,6.77,0,0,0,4-1.16,4.9,4.9,0,0,0-3.41,2.54,11.37,11.37,0,0,1,4.22-4.13,2.59,2.59,0,0,1-.8,2.45,15.76,15.76,0,0,1,1.9-3.43A3.48,3.48,0,0,0,34,90.28l.65-2.4a2.91,2.91,0,0,1,1.1,1.44,2.44,2.44,0,0,0-1.51-2.81,7.17,7.17,0,0,0-3.45-.3,13.64,13.64,0,0,1,4.85,1.51l-4.16-.06a5.6,5.6,0,0,1,2.44,1.26,22.48,22.48,0,0,1-4.05,1,2.14,2.14,0,0,1,1.47.4l-2.33,1a4.49,4.49,0,0,1-2.89,3.77L29,92l-1.51,1.18a19.62,19.62,0,0,1,3.4-1.28,2.72,2.72,0,0,1-2.4,2l.09-1.69a1.82,1.82,0,0,0,2.57-1.12l.26,1.38L33,88.83a2,2,0,0,1,1,1.26c1.17-.38,1.18-2.28.15-2.93a2.59,2.59,0,0,0-3.25.82l2.6.72-3.91.84,1.23.43a5.86,5.86,0,0,1-3,1.87,1.32,1.32,0,0,0,1.88,0A6.9,6.9,0,0,0,30.82,90a6,6,0,0,1,5.33-3c-.46-1.2.61-2.37,1.31-3.44,1.31-2,1.48-4.49,1.61-6.87"/><path class="cls-6" d="M54.42,53.53a16.46,16.46,0,0,0-15.79,1.55c-4.83,3.4-7.56,9.25-12.56,12.4-2.71,1.71-5.88,2.49-9,3.24a15.65,15.65,0,0,0,13.88-7c1.4-2.18,2.28-4.76,4.18-6.52,1.69-1.58,4-2.3,6.2-2.95,4.39-1.26,9.26-2.33,13.36-.34A46.33,46.33,0,0,0,44,53.75a15.59,15.59,0,0,0-9.48,4.6c-2.2,2.44-3.3,5.74-5.64,8-3.73,3.67-9.64,3.93-14.79,3l4.9.72-2.24-1.23a5.48,5.48,0,0,0,3.14,1.21,3.45,3.45,0,0,0-1.62-1.25,12.36,12.36,0,0,0,3,1.56l-1.82-2a7.11,7.11,0,0,0,3.77,1.51l-2.09-2a4.17,4.17,0,0,0,2.93,1.1,16.54,16.54,0,0,1-3.33,4.63,10,10,0,0,1,1.43-4.79,5.9,5.9,0,0,1-2.66,3.59l1.13-2.38a2.37,2.37,0,0,1-2.32,1.8l.81-1.37a10.29,10.29,0,0,1-3.79,1.65,7.52,7.52,0,0,1,1.92-2.45,4.78,4.78,0,0,1-2.24.63l1.23-.53-3,1.87a5,5,0,0,1,2.94-1.53,6.6,6.6,0,0,0-3.54.49,6.88,6.88,0,0,0,4,1,4.94,4.94,0,0,0-4.22.47,11.48,11.48,0,0,1,5.73-1.44,2.61,2.61,0,0,1-1.93,1.72,15.33,15.33,0,0,1,3.37-2,3.51,3.51,0,0,0,.51,1.64l1.77-1.74a2.83,2.83,0,0,1,.23,1.79,2.42,2.42,0,0,0,.1-3.18,7.09,7.09,0,0,0-2.83-2,13.79,13.79,0,0,1,3.44,3.74L19.3,68.54a5.61,5.61,0,0,1,1.47,2.3,21.9,21.9,0,0,1-4-1.2,2.14,2.14,0,0,1,1.07,1.07l-2.54-.28a4.45,4.45,0,0,1-4.39,1.81L15,71l-1.91.26a19.69,19.69,0,0,1,3.58.6,2.7,2.7,0,0,1-3.08.54L14.53,71a1.84,1.84,0,0,0,2.79.32l-.47,1.32,3.22-2.3a2,2,0,0,1,.2,1.57c1.2.26,2.17-1.38,1.6-2.46a2.59,2.59,0,0,0-3.22-.92l1.89,1.93-3.81-1.25.85,1a6,6,0,0,1-3.52.12c.06.7.94,1.07,1.63.93a6.73,6.73,0,0,0,1.87-1,6,6,0,0,1,6.11.09c.21-1.27,1.72-1.74,2.87-2.31,2.13-1.07,3.53-3.15,4.83-5.14"/><path class="cls-4" d="M52.72,63.39c-4.24-1.78-9.61-.88-13.68,2.3-4.35,3.4-7,9-11.5,12.13a27.92,27.92,0,0,1-7.92,3.48c4.66,0,9.56-2.87,12.34-7.26,1.32-2.09,2.21-4.52,3.95-6.25a14.45,14.45,0,0,1,5.5-3.06c3.84-1.4,8.1-2.66,11.52-1.05a37.72,37.72,0,0,0-9.23.49,15.16,15.16,0,0,0-8.41,4.76c-2,2.37-3.15,5.47-5.29,7.73-3.41,3.59-8.52,4.15-12.9,3.59l4.18.39-1.86-1a4,4,0,0,0,2.63.94,2.5,2.5,0,0,0-1.32-1.06,8.73,8.73,0,0,0,2.51,1.27L21.78,79A5.25,5.25,0,0,0,25,80.21l-1.7-1.69a3.09,3.09,0,0,0,2.47.85,18.07,18.07,0,0,1-3.12,4.46,10.66,10.66,0,0,1,1.49-4.5,6.34,6.34,0,0,1-2.49,3.46l1.1-2.25a2.42,2.42,0,0,1-2.09,1.78L21.39,81A10.17,10.17,0,0,1,18,82.75a8.06,8.06,0,0,1,1.79-2.37,4.42,4.42,0,0,1-2,.7l1.09-.55-2.66,1.88a4.85,4.85,0,0,1,2.61-1.57,5.66,5.66,0,0,0-3.08.65,5.17,5.17,0,0,0,3.44.71,4.19,4.19,0,0,0-3.66.67,10.42,10.42,0,0,1,5-1.65,2.76,2.76,0,0,1-1.75,1.7,15.28,15.28,0,0,1,3-2,3.13,3.13,0,0,0,.36,1.49l1.61-1.71a2.69,2.69,0,0,1,.1,1.64,2.4,2.4,0,0,0,.26-2.94,5.09,5.09,0,0,0-2.33-1.69,10.5,10.5,0,0,1,2.76,3.26l-3-1.77a4.44,4.44,0,0,1,1.15,2,16.63,16.63,0,0,1-3.36-.89,1.53,1.53,0,0,1,.86.93l-2.16-.12A4.22,4.22,0,0,1,14.26,83l3.57-1.35L16.18,82a15.41,15.41,0,0,1,3.05.36,2.38,2.38,0,0,1-2.69.67l.88-1.36a1.46,1.46,0,0,0,2.38.14l-.48,1.25,2.9-2.3a1.93,1.93,0,0,1,.09,1.44c1,.17,1.94-1.39,1.51-2.35a2,2,0,0,0-2.72-.68l1.52,1.68-3.21-.94.68.87a5,5,0,0,1-3.05.3c0,.65.75.94,1.36.77a6.58,6.58,0,0,0,1.66-1,4.91,4.91,0,0,1,5.26-.25c.25-1.18,1.57-1.7,2.59-2.29,1.9-1.09,3.22-3.09,4.45-5"/><path class="cls-7" d="M51.79,42.75c-4.51-.89-8.46-4.66-10-9.57C40.05,27.93,41,21.83,39,16.69a27.72,27.72,0,0,0-4.61-7.32c3.86,2.6,6.31,7.74,6.15,12.93-.08,2.47-.7,5-.23,7.39a14.36,14.36,0,0,0,2.85,5.61c2.39,3.32,5.21,6.75,8.94,7.33a38,38,0,0,1-7.37-5.57,15.27,15.27,0,0,1-4.29-8.66c-.35-3.1.45-6.31-.06-9.37-.81-4.88-4.72-8.21-8.66-10.2l3.68,2-2.11-.2a4.06,4.06,0,0,1,2.71.69,2.42,2.42,0,0,1-1.69.14,8.81,8.81,0,0,1,2.79.36l-2.2.64a5.26,5.26,0,0,1,3.29.79l-2.35.45a3.09,3.09,0,0,1,2.52.67,18,18,0,0,0-.08-5.44A10.58,10.58,0,0,0,37,13.5a6.32,6.32,0,0,0-.12-4.25l-.35,2.48a2.42,2.42,0,0,0-.73-2.65l-.1,1.52a10.25,10.25,0,0,0-1.8-3.32,8,8,0,0,0,.15,3,4.41,4.41,0,0,0-1.23-1.69l.59,1.07L32.27,6.58a4.83,4.83,0,0,0,1.28,2.76,5.68,5.68,0,0,1-2.19-2.26,5.16,5.16,0,0,1,3.25,1.33A4.21,4.21,0,0,1,32,5.81,10.36,10.36,0,0,0,35.18,10a2.77,2.77,0,0,0-.5-2.38A15.69,15.69,0,0,0,36,11a3.08,3.08,0,0,1,1.13-1l.39,2.31a2.79,2.79,0,0,0,1-1.3,2.42,2.42,0,0,1-1.44,2.58,5.09,5.09,0,0,1-2.87.1,10.45,10.45,0,0,0,4.11-1.16l-3.44-.19a4.42,4.42,0,0,0,2.09-1,16.39,16.39,0,0,0-3.28-1.15A1.56,1.56,0,0,0,35,9.79L33.09,8.68a4.21,4.21,0,0,0-2.15-3.75l2.2,3.13L32,6.85a16,16,0,0,0,2.72,1.41A2.36,2.36,0,0,0,32.84,6.2l0,1.61a1.47,1.47,0,0,1,2,1.22l.3-1.3,1.11,3.53a2,2,0,0,0,.89-1.15c.93.43.82,2.24-.08,2.8a2,2,0,0,1-2.62-1l2.19-.54-3.18-1,1.05-.34a4.89,4.89,0,0,0-2.35-2,1,1,0,0,1,1.55.12A6.88,6.88,0,0,1,34.53,10a4.87,4.87,0,0,0,4.21,3.15c-.46,1.12.35,2.29.87,3.35,1,2,.93,4.36.88,6.63"/><path class="cls-8" d="M51.8,50.4a43.58,43.58,0,0,1-10.88-2.95c-4.39-2.07-8-5.52-11.41-8.91-.2-.1-.06.37.12.24s.12-.4.07-.61c-.3-1.24.5-2.44.92-3.64a6.44,6.44,0,0,0-1.28-6.33l.42-.86a.53.53,0,0,0-.11-.21c-.26-.31-.7.42-.31.51L28.53,27a.36.36,0,1,1,.1.55l.94.16-.83.52a1.48,1.48,0,0,0,.94-.2l.14-2a2,2,0,0,0-.43,2,.75.75,0,0,0,.51-1.12"/><path class="cls-4" d="M29.11,38.28a27.06,27.06,0,0,0-4.62-1c.08-.13.29.1.16.17a.29.29,0,0,1-.41-.06.3.3,0,0,1,.07-.41.42.42,0,0,1,0,.51l-.13-1a.41.41,0,0,1,.29.46.84.84,0,0,1-.64-.08.46.46,0,0,1,.26.27h-.55a2,2,0,0,1,.84.18,1,1,0,0,0-.56.6.78.78,0,0,0,.63-.42,1.29,1.29,0,0,0-.66.58l.48-.92-.61,0a1,1,0,0,0,.44.08.31.31,0,0,0,.26-.31.3.3,0,0,0-.08-.18l-.47-.7a1.17,1.17,0,0,0,.46,1l0-1a1.25,1.25,0,0,0,.29,1"/><path class="cls-9" d="M34.51,42.7l0-4.64a3.25,3.25,0,0,0-.32-1.75,1.57,1.57,0,0,0-.08.68h-.29a.54.54,0,0,1,.74-.54c-.15-.13-.37,0-.55.06s-.48-.13-.34-.26a1.93,1.93,0,0,1,1.09-.07c.2.15,0,.52-.25.5a.54.54,0,0,1-.43-.54c0-.28.26-.62.51-.48a.88.88,0,0,1,0,.62c-.11.18-.43.23-.52,0"/><path class="cls-4" d="M37.6,46.22l-3.29-.13c-.57,0-1.3-.16-1.41-.72a.57.57,0,0,1,.58,0,.34.34,0,0,1-.61,0,.35.35,0,0,1,.46-.41.43.43,0,0,1,0,.25l-.36.1a.25.25,0,0,1,.09-.27"/><path class="cls-4" d="M31.91,40.58c-1.21-.24-2.46.55-3.67.31a.71.71,0,0,1,1-.34,1.09,1.09,0,0,1-.51.24c-.19,0-.41-.12-.41-.31a.6.6,0,0,1,.12.84.87.87,0,0,1-.19-1,1.33,1.33,0,0,1,.67,1.25.69.69,0,0,1-.73-.94"/><path class="cls-4" d="M28.85,37.84a5,5,0,0,0-3-5.15c-.09,0-.2-.08-.23-.18s.13-.2.17-.11a.32.32,0,0,1-.43.3.36.36,0,0,1,.59-.27.34.34,0,0,1-.38.08v-.84h.66A1,1,0,0,1,25,32.78c-.05-.37.39-.6.75-.71l-.27.55"/><path class="cls-4" d="M39.26,46.57C39,45.24,37.65,44.32,37.39,43a.31.31,0,0,1-.4.17.3.3,0,0,1-.11-.43,1,1,0,0,1,.63-.14c.21,0,.39.3.27.49a.55.55,0,0,1-.58-.49.54.54,0,0,1,.52-.56.46.46,0,0,1-.07.65"/><path class="cls-4" d="M38.47,46.28H36.83"/><path class="cls-4" d="M43.87,48.52a4.51,4.51,0,0,1-1.1,0,.94.94,0,0,0-.94.43,3.14,3.14,0,0,0-.12.61.87.87,0,0,1-.77.64.88.88,0,0,1-.86-.51,1.1,1.1,0,0,1,.59.12v.26H40.2c0-.15,0-.32.15-.38s.3.15.18.23a.51.51,0,0,1-.7-.08.42.42,0,0,1,.19-.66c.28,0,.47.42.22.53a1,1,0,0,1-1.2-.8"/><path class="cls-4" d="M34.46,42.45a3,3,0,0,1,.38.76"/><path class="cls-4" d="M29.19,37.78a1.58,1.58,0,0,0,.57,1.06"/><path class="cls-10" d="M53.23,55.63a18.6,18.6,0,0,0-8.18.84c-1.29.42-2.49,1.35-3.75,1.72s-2.6-.42-3.64-1a2.62,2.62,0,0,1-1,1.44A.43.43,0,0,1,37,58a.7.7,0,0,1-.86.2.52.52,0,0,1,.75-.33.42.42,0,0,1-.32.47"/><path class="cls-4" d="M40.47,58.63a1.53,1.53,0,0,0-.88.39,32.56,32.56,0,0,1-3.3,2.69,6,6,0,0,0-2.17,1.45.49.49,0,0,0,.37.1.51.51,0,0,1-.43.44,1.46,1.46,0,0,1-.65-.08c0-.29,0-.67.24-.77s.5.14.54.39A1.27,1.27,0,0,1,34,64c-.1.2-.3.43-.49.33l0-.31"/><path class="cls-4" d="M41.31,59.08a12.61,12.61,0,0,1-.57,2.86A2.12,2.12,0,0,1,40.1,63,.8.8,0,0,1,39,62.9a.43.43,0,0,1,.38-.07.77.77,0,0,1-.79.18c-.16-.23.16-.6.42-.47a1.13,1.13,0,0,1-.65.93l.42-.32"/><path class="cls-4" d="M45.09,57l-.29,1.26a2.45,2.45,0,0,1-.38,1,.82.82,0,0,1-.93.31.43.43,0,0,1,.32-.49c.21.16,0,.57-.25.49,0-.14.21-.22.27-.09"/><path class="cls-4" d="M43.89,56.45a8.16,8.16,0,0,0-1.74-.89.89.89,0,0,0-.45-.09.93.93,0,0,0-.39.15l-1.09.62a1.62,1.62,0,0,1,.85-.28,1.12,1.12,0,0,1-.66.36c-.26,0-.53-.25-.42-.48"/><path class="cls-4" d="M41.35,59.73V57.94"/><path class="cls-4" d="M44.56,56.55a1.48,1.48,0,0,1-1-.53"/></g></svg>
