<svg id="Layer_1" data-name="Layer 1" xmlns="http://www.w3.org/2000/svg" width="964.98" height="540.34" viewBox="0 0 964.98 540.34"><defs><style>.cls-1{fill:#f39200;}</style></defs><path class="cls-1" d="M2.77,540A166.17,166.17,0,0,0,34,515.13c7.77-8,14.1-17,20.44-26.15,3.12-4.5,6.42-9,11.06-12.08,6.71-4.41,14.61-5.28,22.38-3.91,6.19,1.08,12.17,3.11,18.3,4.46a100.13,100.13,0,0,0,21.69,2.34c22.76,0,45.69-7.14,65.38-18.39,18.32-10.46,29.75-25.88,37.43-45.24,3.23-8.16,5.94-16.66,10.61-24.16a38.77,38.77,0,0,1,24.22-17.28c21.38-5.18,40.3,8.07,60.75,11.27,9,1.41,18,.12,25.46-5.28,7.68-5.53,10.9-13.74,12.58-22.74,2.33-12.51,3.87-24.68,10.89-35.68,5.28-8.28,12.51-15.3,21.47-19.45,7.71-3.58,16.23-5.08,24.51-6.72A235.19,235.19,0,0,0,451,288.63c20.51-6.93,39.23-17.77,56.3-31,20.13-15.56,39.12-32.84,57.88-50,7.61-7,15-14.22,22.71-21.06,4.7-4.16,9.67-8.25,15.55-10.63,9.08-3.68,19.51-3.88,29-2s18.42,5.82,28,7.13c21.12,2.88,34.66-11,48.17-24.91,15.46-15.89,34.15-31.56,32.57-55.84-.45-7-5.31-19.89,4.7-22.5,4.55-1.2,9.75.4,14.28,1.07a50.8,50.8,0,0,0,16.46.22c10.64-1.88,18.28-8,24.14-16.76,2.67-4,5.28-8,9.64-10.34,5.45-2.92,11.81-3,17.68-1.43,8.9,2.41,16.32,8.11,24.86,11.39,6.18,2.38,12.85,2.38,17.28-3.17,4.85-6.07,5.14-15.07,5.59-22.48.2-3.33-.62-19.64,5.22-19.2,1.49.11,3.18,1.86,4.34,2.66a32.92,32.92,0,0,0,5.42,3.08,32,32,0,0,0,18.06,1.83c9.54-1.62,16.21-6.62,22.79-13.43,8.55-8.83,19.93-8.67,31.08-5.35,2.32.69,3.31-2.93,1-3.61-9.45-2.82-20.08-3.85-28.88,1.47-3.88,2.35-6.58,5.88-9.78,9a31,31,0,0,1-14.58,7.77C904,22.11,897,21.89,891,18.89c-3.14-1.58-6.07-5-9.67-5.47-6.07-.78-7.81,6.28-8.43,10.85-1.15,8.37-.46,17-2.57,25.24-.94,3.7-2.58,7.82-6.24,9.59-4.06,1.95-8.81,0-12.57-1.75-8.19-3.81-15.83-9.13-24.82-10.91s-18.5.46-24.61,7.56c-2.86,3.32-4.88,7.27-7.62,10.68a30.25,30.25,0,0,1-17.37,10.53c-5.74,1.23-11.53.78-17.28-.11-4.3-.67-8.78-1.77-13.16-1.2-7.57,1-11.3,7.23-10.77,14.44.81,11,2.94,20.68-1.7,31.34s-14,19-21.86,27.18S696.77,164,687.59,170.7a37,37,0,0,1-29,6.31c-9.87-1.84-19.14-5.93-29.11-7.34-15.75-2.22-29.51,1.8-41.5,11.88-7.17,6-13.83,12.68-20.7,19-11,10.16-22.18,20-33.41,29.9-15.68,13.76-31.53,27.66-49.47,38.45-20.37,12.25-42.14,19.18-65.31,23.77-16.51,3.27-31.33,7.73-42.42,21.21-8.19,10-12.34,21.52-14.49,34.1-1.71,9.94-2.55,21-10.65,28.08-17.12,15-40.45.81-58.75-3.92-18.53-4.79-39.39-2.17-51.82,13.75-11.58,14.84-13.91,34.81-24.73,50.26-12.67,18.11-34.28,28.63-55,34.73a115.43,115.43,0,0,1-40.37,4.88,119.16,119.16,0,0,1-22.31-4.14c-6.41-1.69-13-3.48-19.7-3-10.3.68-18.47,6.11-24.57,14.12-7.36,9.66-13.61,19.89-22,28.75A161.53,161.53,0,0,1,.88,536.8c-2,1.29-.16,4.53,1.89,3.24Z"/></svg>
