<svg id="Layer_1" data-name="Layer 1" xmlns="http://www.w3.org/2000/svg" width="675.72" height="943.19" viewBox="0 0 675.72 943.19"><defs><style>.cls-1{opacity:0.7;}.cls-2{fill:#f28b32;}</style></defs><g class="cls-1"><path class="cls-2" d="M233.59,629.31c59.5,17.13,98.69-21.86,131.59,4,14.5,11.4,18.93,28.43,20.17,34.82,5.29,27.28-11.18,54.52-30.15,79.91-45,60.25,13.42,218,104.11,192.36,109-30.8-59.35-182.31,47.52-236.15,31.74-16,50.3,86.7,107,95.62,15.77,2.49,34.36-1.35,46.43-12.62,4.93-4.6,19.24-20.16,14.59-63.12-9.42-87-77.14-105.84-101.38-186.76-29.34-98,38.05-177.08-4.41-211.53-14.47-11.73-37-14.51-53.6-9.25-32.61,10.36-25.88,55.28-83.93,97.69-26.1,19.07-46.39,37.34-74.17,10.12-15.38-15.06-26.77-42-18.64-61.42,12.58-30.07,59.55-14,79.41-47,15.37-25.51,4.37-63.48-8.59-85.28-6.36-10.7-11.7-19.22-21.79-25.35C346.3,180.16,277.76,223,240.64,242.55c-52.95,27.95-110.36,29.3-117.11-44.08C118,138.21,188.8,113.13,158.8,45.85c-23.66-53-96.92-61.57-136-17.68A89.07,89.07,0,0,0,2.92,66.05C-9.16,114.38,18,167.07,52,194.15c13.55,10.8,17.37,8.9,31.67,21.9,9.54,8.67,38.82,35.28,39.66,64.45,1.12,39.44-50.84,45.17-56,85.13-5.1,39.6,44.26,47,70.09,120.24,15.89,45.07,3.94,61.42,26,93C189.44,616,230.44,628.4,233.59,629.31Z"/></g></svg>
