<svg id="Layer_1" data-name="Layer 1" xmlns="http://www.w3.org/2000/svg" width="553" height="394.78" viewBox="0 0 553 394.78"><defs><style>.cls-1{fill:#e3e3e3;opacity:0.8;}.cls-2{fill:#f8f8f8;}.cls-3{opacity:0.09;}.cls-4{fill:#1d1d1b;}.cls-5{opacity:0.05;}.cls-6{opacity:0.82;}.cls-7{opacity:0.46;}.cls-8{opacity:0.78;}.cls-9{opacity:0.92;}.cls-10{fill:#4a4a49;}</style></defs><path class="cls-1" d="M537.27,230.31c1.14-.68,11.33-3.28,11.33-3.26,0-.48-3.46-2-4-2.49a8,8,0,0,1-2.49-3.9,6.38,6.38,0,0,1,.47-5.06c.42-.76,2-2.43,2-2.5-.17-.91-4.14-2.85-5-3.58a10.7,10.7,0,0,1-3.09-4.63,3.53,3.53,0,0,1,2.37-4.34,9.58,9.58,0,0,0,1.71-.7c-1-1.11-2-2.26-3-3.42a3.53,3.53,0,0,1-5.17-3c.06-4.53,1.79-8.24,4.05-11.88a20.22,20.22,0,0,1-.11-4c.2-2.42,1.38-4.6,1.63-7a8.35,8.35,0,0,0,0-1.5,30.71,30.71,0,0,1-4.59-2.86c-1.89-1.44-1.07-4.41.62-5.52l.74-.48c-.82-2-1.52-4.11-2.14-6.23-1.16-.51-2.37-.93-3.53-1.33-2.09-.72-3.49-2.94-2.28-5.09.71-1.26,1.49-2.49,2.27-3.71a48.34,48.34,0,0,0-3.9-5.78c-.35-.44-.73-.9-1.12-1.34-5.44-1.41-10.61-3.38-14.3-7.72-5.41-6.37-5.66-14.62-5-22.54a27.74,27.74,0,0,1-6.1-16.58,3.55,3.55,0,0,1,3.4-3.6c1.63,0,3.27.09,4.9.2a88.67,88.67,0,0,0-2-18.86c-4.06-1.8-6-5.2-6.69-9.14-.44-.41-.87-.83-1.28-1.25a6.79,6.79,0,0,1-6.15-4.9,8.52,8.52,0,0,1,3.38-9A11.46,11.46,0,0,1,496.59,42a22.65,22.65,0,0,1-6-5.87,10.55,10.55,0,0,1-2.11-6.37c0-1.66.51-2.95.28-4.05A36,36,0,0,0,486,23a3.1,3.1,0,0,1-.52-4.23l-.7-1.19c-.85-1.53-.55-4,1.19-4.81.25.42.41.44.47.07-.1-.39-.19-.79-.26-1.2-7.12,1.31-15.32.24-22.06-.67C459,10.28,450.8,9.2,446.28,5.17c-5.74,1.29-11.5,2.56-17.12,4.26-9.69,2.93-17.8,8-28.12,4.27a3.58,3.58,0,0,1-1.94-1.63l-11.43,2.61a13.39,13.39,0,0,1-4.34,4.74c-3.59,2.16-6.88.8-9.57-1.57l-2.62.6a4,4,0,0,1,.18,1.78c-.33,2.51-1.69,4.88-2.86,7.07A3.61,3.61,0,0,1,364.59,29a113.31,113.31,0,0,0-14.72-1.14,3.7,3.7,0,0,1-1.09-.2c-1,.28-2.14.5-3.24.68,0,.28.08.56.11.85a19.69,19.69,0,0,1,.15,7.51c-.66,3.94-7,3.23-6.91-.69q0-1.41,0-2.82c-.06-.07-.12-.12-.18-.2l-.33-.41a2.65,2.65,0,0,1-1.31.69c-.86.15-1.73.28-2.6.4a3,3,0,0,1-3,1.95l-8.54-.24c.4.69.81,1.37,1.22,2a3.54,3.54,0,0,1-3.79,5.22c-3.69-.92-8.32-1.7-11.56-4.09-5.33,1.94-13.07.54-18.79-1.6l-5.6,1.28a3.16,3.16,0,0,1-2.13,1.67c-4.59,1.24-7.55,5.08-12.07,6.49-5.77,1.81-11.31-1.3-17.07-.26a3.64,3.64,0,0,1-1.23,0,14.78,14.78,0,0,1-1,1.21,3,3,0,0,1-.05.42c-.71,3.45-3.79,4.58-6.94,4.66-.58.3-1.16.58-1.76.85a3.93,3.93,0,0,1-1.64,3,47.81,47.81,0,0,1-4.5,3.4c-2.48,1.51-5-.45-5.23-2.93-.73.15-1.47.3-2.21.43,0,.3,0,.61,0,.91a3.55,3.55,0,0,1-4.3,3.51,49.59,49.59,0,0,1-5.82-1.93,4.61,4.61,0,0,1-1.21-.62c-.88.15-1.77.3-2.65.47-.28,1.26-.56,2.51-.92,3.76A3.56,3.56,0,0,1,207.77,65c-.69-.56-1.43-1.07-2.15-1.6a8.1,8.1,0,0,0-.27,1.05,5.78,5.78,0,0,1-.1,3.89,3.52,3.52,0,0,1-6.91-.7c0-.18,0-.36-.05-.54a7.67,7.67,0,0,1-.92-.79,6.43,6.43,0,0,1-5.92,1.28,23.47,23.47,0,0,1-3.72-1.31l-.46-.2c-2.73,2.84-6.33,4.41-10.46,1.64a13.92,13.92,0,0,1-1.89-1.64,31.72,31.72,0,0,0-6.37.45c-.56,1.85.32,4.62-.17,6.65-.81,3.33-5.86,3.62-6.77.19-.72-2.7-2-3.57-3.94-3.84l-.39.11a25.65,25.65,0,0,1-1.59,4.66,3.53,3.53,0,0,1-5.5.84c-1-1-1.88-2-2.81-3-.4.09-.79.2-1.19.28C140,73.78,134,76.25,127.77,77.49c-2.51.49-5,.79-7.54,1.05-7.74,7.52-18.71,9.08-29.84,9.18-.17.54-.35,1.08-.56,1.61-.84,2-4.1,2.4-5.51.84-.33-.36-.64-.73-.94-1.11a3.66,3.66,0,0,1-4.55,1.15c-.45-.18-.88-.36-1.31-.56.45,3.76-4.5,5.73-6.26,2.91a7.71,7.71,0,0,1-5.93.78c-.73.16-1.47.31-2.21.44a9.25,9.25,0,0,1-2.62,2.29,7.12,7.12,0,0,1-6.71-.17,9.93,9.93,0,0,1-4.39,5.56,5.35,5.35,0,0,1-3.83.65,12.06,12.06,0,0,1-1.82-.76c0,.05-.1.1-.17.17-2,1.75-4.79,4-7.62,2.8a5.78,5.78,0,0,1-1.88-1.44l-2,.82c-.59.51-1.18,1-1.79,1.48a3.43,3.43,0,0,1-.49,1.26c-2.74,4.29-5.71,4.65-9.71,5.39A8,8,0,0,1,17.47,117c-1.17,1.08-2.61,1.83-3.8,2.89a8.53,8.53,0,0,0-1.94,2l-.13.32a.39.39,0,0,1,.39-.11A3.54,3.54,0,0,1,13.71,128a14.89,14.89,0,0,1-8.06,4.84c-.13.38-.25.76-.39,1.14a25.82,25.82,0,0,1-4,7.62l.47.11c2.48.64,3.71,3.95,1.72,5.84a21.74,21.74,0,0,0-2.7,2.8c1.41,2.39,1.06,5.32.1,8.35A3.69,3.69,0,0,1,0,160.1l0,.06a3.6,3.6,0,0,1,3-.56c1.66.65,1.9,3,2,3.9a7.24,7.24,0,0,1-.63,3.66,11.57,11.57,0,0,1,3.07,5.22c.29,1.09,1.79,3.56.09,5a7.76,7.76,0,0,0-2.17,3.34A4.73,4.73,0,0,1,8,183c1,2.31.39,6.19-.4,9.22a5.55,5.55,0,0,1,2.5,1.38c1.11,1.31,1.63,3.65.08,4.95a43.46,43.46,0,0,1-4,3,38.3,38.3,0,0,0,4.33.69c2.42.2,4.74,2.7,3.18,5.17-1.19,1.89-2,3.75-3.07,5.52,1.36,1.73,2.67,3.49,4.13,5.14,1.12,1.28,1.63,3.69.08,4.95-.87.71-1.86,1.37-2.71,2.15,4.11,9.32,2.7,21.26,11.16,28.05,1.51,1.21,1.27,3.65.08,5-4,4.32,0,13,1.28,17.87,1.5,5.62,1.81,11.43,3.55,17,.25.79.54,1.62.84,2.45a30.11,30.11,0,0,1,6.16,6.38,3.44,3.44,0,0,1,.08,3.48,27.07,27.07,0,0,0-1.77,3.53A18.57,18.57,0,0,1,33.15,319c4.28,2.65,7.28,7.32,9.89,11.47,3.37,5.35,6.23,11,9.38,16.48,3,5.24,6.94,10,10.5,14.85a42.2,42.2,0,0,0,6.77,7.45c3.27-1,6.55-1.21,9.23,0,0-.28.09-.57.12-.85.31-2.83,4.07-3.31,5.84-1.72,2.77,2.48,4.35,5.74,6.12,8.91a60.38,60.38,0,0,1,8.86-1.35c.06-.66.11-1.33.15-2,.1-1.76,1.4-3.7,3.4-3.6a14.66,14.66,0,0,1,8.49,2.71c.5-3.18-.26-6.73-.63-9.76-.52-4.33,5.44-4.37,6.86-1.09,1.07,2.49,1.59,5.11,2.48,7.66,1,3,2.18,3.77,5.42,3.46a3.16,3.16,0,0,1,.82,0,17.29,17.29,0,0,1,9.54-10.94c2.2-1,5.39,0,5.31,2.89l0,1c.25.05.5.08.76.12a56.76,56.76,0,0,1,9.93-.82c4.72-.11,17,1.52,18.55-4.71a3.71,3.71,0,0,1,3.18-2.68c-.34-3.44,4.54-5.39,6.47-2.15.42.7.82,1.42,1.21,2.14,2.28,2.18,8.17,2.62,10.53,2.91a70.34,70.34,0,0,0,11.15.47c.73-.27,1.48-.56,2.24-.86,5.36-2.1,10.52-3.08,16.06-2.11l.36-12.92c0-1.73,1.44-3.75,3.4-3.6a20.53,20.53,0,0,1,13,5.68c2.11-.45,4.29-.77,6.42-1.27a47.93,47.93,0,0,1,6.72-2.66l.66-.45a3.4,3.4,0,0,1,2.51-.45q2.49-.61,5-1a9.27,9.27,0,0,1-.05-1.89c.28-3.64,3.36-4.76,6.54-5a11.06,11.06,0,0,1,.79-2.26,3.56,3.56,0,0,1,4.75-1.4,8.66,8.66,0,0,1,3.55,3.2,12.92,12.92,0,0,1,5.64-.2,27.11,27.11,0,0,1,5.31,2.19,3.13,3.13,0,0,1,3.7,1.53,11.15,11.15,0,0,0,1.54.37,3.13,3.13,0,0,1,2,1.06,20.87,20.87,0,0,1,9.37-7.47,1.54,1.54,0,0,1-.05-.17c-.63-2.66,2.35-5.92,5-4.06a16.64,16.64,0,0,1,2.75,2.63c1.64-1.9,4.15-2.08,7.95-1.54a3.59,3.59,0,0,1,4.41,1.6l.17-.09a2.86,2.86,0,0,1,3.36-.12,16.43,16.43,0,0,1,6.58-.56,4.76,4.76,0,0,1,3-1.54,6.56,6.56,0,0,1,1.66,0c-.13-1-.25-2.05-.41-3.08-.45-3,3.05-4,5.17-3.18a20.33,20.33,0,0,0,3.57,1.36,20.23,20.23,0,0,0,2.72,0c1.81.13,3.43.74,5.18,1a2.55,2.55,0,0,1,.39,0c.84-2.63,4.9-2.86,6.28-.51a0,0,0,0,1,0,0,3.41,3.41,0,0,1,2.9-.61l2.77.18a3.57,3.57,0,0,1,4,2l.1,0c2.64-2,5.46-3.71,7.94-5.89a3.66,3.66,0,0,1,4.19-.64c2.82,1.38,7.52-.89,10.15-1.88,1.41-.54,2.79-1.13,4.16-1.73a3.08,3.08,0,0,1,3.25-3,34,34,0,0,0,3.67-.12l.62-.28a49.38,49.38,0,0,1,6.7-2.38,10.44,10.44,0,0,0,3.23-5,3.49,3.49,0,0,1,2.42-2.55A11.38,11.38,0,0,1,428,304.09l.45.52,5.84-.73c2.48-.32,5-.59,7.55-.85,1-2.3,2.45-5.41,3.91-7,1.79-1.91,4.45-1.73,6.95-1.63.58,0,1.16.07,1.74.13a4.7,4.7,0,0,0,.13-.78c.38-4.45,7.38-4.68,7-.2a17.63,17.63,0,0,1-.35,2.21,62.87,62.87,0,0,0,9.88,1.81c3.46-1.27,6.85-2.72,10.33-3.9,3.53-4.23,6.56-8.91,6.44-14.64a3.53,3.53,0,0,1,6.5-1.91c2.31,3.74,9.44,7.33,14.2,5.89a19,19,0,0,0,3.07-4.69c2.16-4.47,4.19-9,8.42-11.94a20.45,20.45,0,0,1,4.84-2.41,13.26,13.26,0,0,1,4.75-4.87,25.37,25.37,0,0,1,6.46-2.39,31.08,31.08,0,0,1-2.64-6.06c-.88-2.69,1.68-4.75,4.16-4.39,2.88.41,6.68,1,8.73-1.59a10.35,10.35,0,0,0,1.79-4.79,11.61,11.61,0,0,1-1.74-2.5,10.19,10.19,0,0,1-9-1A3.55,3.55,0,0,1,537.27,230.31Z"/><path class="cls-2" d="M541.68,225.15c1.13-.68,11.32-3.29,11.32-3.27,0-.48-3.45-2-4-2.48a8.05,8.05,0,0,1-2.5-3.9,6.45,6.45,0,0,1,.47-5.07c.42-.76,2-2.43,2-2.5-.16-.9-4.14-2.84-5-3.58a10.64,10.64,0,0,1-3.1-4.62,3.55,3.55,0,0,1,2.37-4.35,9,9,0,0,0,1.71-.7c-1-1.11-2-2.26-3-3.42a3.52,3.52,0,0,1-5.16-3c0-4.52,1.79-8.24,4-11.88a20.12,20.12,0,0,1-.11-4c.21-2.43,1.39-4.6,1.63-7a7.62,7.62,0,0,0,0-1.51,30.4,30.4,0,0,1-4.59-2.86c-1.88-1.44-1.07-4.4.63-5.51l.74-.49c-.82-2-1.52-4.11-2.14-6.23-1.17-.5-2.38-.93-3.54-1.33-2.09-.72-3.48-2.94-2.27-5.08.71-1.26,1.48-2.49,2.26-3.72a48,48,0,0,0-3.9-5.78c-.35-.44-.72-.89-1.12-1.34-5.44-1.4-10.61-3.37-14.29-7.72-5.41-6.37-5.66-14.62-5-22.54a27.67,27.67,0,0,1-6.09-16.58,3.55,3.55,0,0,1,3.39-3.6c1.63.05,3.27.1,4.91.2a89.31,89.31,0,0,0-2-18.85c-4.05-1.81-6-5.21-6.68-9.14-.44-.42-.88-.83-1.29-1.25a6.81,6.81,0,0,1-6.14-4.91,8.49,8.49,0,0,1,3.37-9A12.07,12.07,0,0,1,501,36.78a22.42,22.42,0,0,1-6-5.86,10.51,10.51,0,0,1-2.11-6.38c0-1.66.5-2.95.27-4.05a34.14,34.14,0,0,0-2.71-2.66,3.11,3.11,0,0,1-.51-4.24c-.24-.39-.48-.79-.7-1.19-.86-1.52-.56-4,1.19-4.81.25.42.4.44.46.08s-.18-.79-.26-1.2c-7.11,1.3-15.32.23-22.06-.67C463.44,5.11,455.2,4,450.69,0c-5.75,1.3-11.51,2.57-17.13,4.26-9.68,2.93-17.8,8-28.11,4.27A3.6,3.6,0,0,1,403.5,6.9L392.08,9.51a13.16,13.16,0,0,1-4.35,4.74c-3.59,2.17-6.88.8-9.56-1.56l-2.62.59a4.21,4.21,0,0,1,.17,1.79c-.33,2.5-1.68,4.87-2.85,7.07A3.62,3.62,0,0,1,369,23.87a111.43,111.43,0,0,0-14.72-1.13,3.64,3.64,0,0,1-1.08-.2c-1.06.27-2.15.49-3.25.67,0,.28.08.57.11.85a19.74,19.74,0,0,1,.15,7.52c-.65,3.93-7,3.22-6.9-.7,0-.94,0-1.88,0-2.81-.06-.07-.13-.13-.18-.2l-.34-.42a2.54,2.54,0,0,1-1.3.69c-.87.15-1.74.28-2.61.4a2.94,2.94,0,0,1-3,1.95l-8.55-.24q.62,1,1.23,2a3.54,3.54,0,0,1-3.8,5.21c-3.69-.91-8.32-1.7-11.56-4.09-5.33,2-13.07.54-18.79-1.6l-5.6,1.28a3.15,3.15,0,0,1-2.12,1.68c-4.59,1.24-7.55,5.07-12.07,6.49-5.78,1.8-11.32-1.31-17.08-.27a3.86,3.86,0,0,1-1.22,0c-.33.41-.68.81-1,1.2,0,.14,0,.28-.05.43-.71,3.44-3.8,4.57-6.94,4.66-.58.29-1.17.58-1.76.84a4,4,0,0,1-1.64,3,51,51,0,0,1-4.5,3.4c-2.48,1.5-5-.46-5.23-2.94L233,52c0,.3,0,.6,0,.9a3.56,3.56,0,0,1-4.3,3.51,50.31,50.31,0,0,1-5.83-1.92,4.61,4.61,0,0,1-1.21-.62c-.88.14-1.76.3-2.64.46-.28,1.26-.57,2.52-.93,3.76a3.55,3.55,0,0,1-5.84,1.72c-.7-.57-1.43-1.08-2.16-1.6a7.32,7.32,0,0,0-.26,1,5.75,5.75,0,0,1-.11,3.88,3.52,3.52,0,0,1-6.91-.69c0-.18,0-.36-.05-.55a7.58,7.58,0,0,1-.91-.79,6.42,6.42,0,0,1-5.93,1.28,23.36,23.36,0,0,1-3.71-1.31l-.46-.19c-2.74,2.83-6.33,4.41-10.46,1.63a13.92,13.92,0,0,1-1.89-1.64,31.67,31.67,0,0,0-6.37.45c-.56,1.86.31,4.62-.18,6.65-.8,3.34-5.85,3.62-6.76.19-.72-2.7-2-3.56-3.94-3.83l-.39.11a26.34,26.34,0,0,1-1.59,4.65,3.53,3.53,0,0,1-5.51.84c-1-1-1.88-2-2.8-3l-1.2.28c-6.23,1.35-12.16,3.81-18.42,5-2.5.49-5,.8-7.53,1.06-7.74,7.51-18.71,9.08-29.85,9.17-.16.54-.34,1.08-.56,1.62-.83,2-4.1,2.4-5.51.84-.32-.37-.64-.74-.94-1.11A3.66,3.66,0,0,1,83.23,85c-.44-.17-.88-.36-1.31-.55.45,3.76-4.5,5.72-6.26,2.91a7.75,7.75,0,0,1-5.93.77c-.73.16-1.46.31-2.2.44a9,9,0,0,1-2.63,2.3,7.12,7.12,0,0,1-6.71-.17A9.91,9.91,0,0,1,53.8,96.3a5.32,5.32,0,0,1-3.82.64,11.59,11.59,0,0,1-1.83-.76.9.9,0,0,1-.17.17c-2,1.76-4.79,4-7.62,2.8a5.85,5.85,0,0,1-1.87-1.44l-2,.82c-.58.51-1.18,1-1.78,1.49a3.35,3.35,0,0,1-.5,1.26c-2.73,4.29-5.7,4.65-9.7,5.38a8,8,0,0,1-2.65,5.18c-1.16,1.08-2.6,1.84-3.79,2.9a8.13,8.13,0,0,0-1.94,2c-.05.13-.1.24-.14.33a.37.37,0,0,1,.39-.12,3.54,3.54,0,0,1,1.72,5.84,14.9,14.9,0,0,1-8,4.84c-.13.38-.26.76-.4,1.14a25.77,25.77,0,0,1-4,7.63l.48.1c2.48.64,3.71,4,1.72,5.84a21.18,21.18,0,0,0-2.7,2.81c1.41,2.39,1.06,5.31.09,8.34a3.57,3.57,0,0,1-.81,1.4.61.61,0,0,1,0,.06,3.61,3.61,0,0,1,3-.56c1.67.65,1.9,3,2,3.91A7,7,0,0,1,8.83,162a11.48,11.48,0,0,1,3.08,5.22c.28,1.09,1.78,3.56.08,4.95a7.8,7.8,0,0,0-2.16,3.34,4.66,4.66,0,0,1,2.55,2.35c1,2.3.39,6.18-.39,9.22a5.5,5.5,0,0,1,2.49,1.37c1.12,1.31,1.64,3.65.09,4.95a47.09,47.09,0,0,1-4.06,3,40.48,40.48,0,0,0,4.34.68c2.42.2,4.73,2.7,3.18,5.17-1.19,1.89-2,3.75-3.08,5.52,1.36,1.73,2.68,3.49,4.13,5.15,1.13,1.28,1.64,3.69.09,4.95-.87.71-1.87,1.37-2.72,2.15,4.12,9.32,2.71,21.25,11.16,28,1.51,1.21,1.28,3.66.09,5-4,4.33,0,13.05,1.27,17.87,1.5,5.62,1.81,11.44,3.56,17q.38,1.2.84,2.46a30.06,30.06,0,0,1,6.16,6.37,3.44,3.44,0,0,1,.07,3.48,25.9,25.9,0,0,0-1.76,3.54,18.44,18.44,0,0,1-.29,10.17c4.29,2.65,7.28,7.32,9.89,11.47,3.37,5.36,6.24,11,9.38,16.48,3,5.24,7,10,10.5,14.86a43,43,0,0,0,6.78,7.45c3.27-1,6.55-1.21,9.22,0,.05-.28.09-.56.13-.85.3-2.83,4.07-3.31,5.84-1.72,2.76,2.48,4.34,5.74,6.11,8.92a59.2,59.2,0,0,1,8.87-1.35c.06-.67.11-1.34.14-2,.1-1.76,1.4-3.7,3.4-3.6a14.76,14.76,0,0,1,8.5,2.71c.5-3.18-.27-6.73-.63-9.75-.53-4.33,5.44-4.37,6.85-1.09,1.08,2.48,1.59,5.11,2.48,7.65,1.06,3,2.19,3.78,5.42,3.47a3.17,3.17,0,0,1,.82,0,17.33,17.33,0,0,1,9.55-10.94c2.2-1,5.38,0,5.3,2.89l0,1,.76.12a56.79,56.79,0,0,1,9.93-.83c4.73-.11,17,1.52,18.56-4.7a3.71,3.71,0,0,1,3.17-2.69c-.34-3.43,4.55-5.38,6.47-2.15.42.71.82,1.42,1.21,2.14,2.29,2.19,8.18,2.62,10.53,2.91a70.34,70.34,0,0,0,11.15.47c.74-.27,1.49-.55,2.25-.85,5.35-2.11,10.51-3.09,16.05-2.12l.37-12.92c0-1.72,1.43-3.75,3.39-3.6a20.48,20.48,0,0,1,13,5.68c2.11-.45,4.29-.77,6.43-1.27a49.18,49.18,0,0,1,6.72-2.66l.65-.44a3.38,3.38,0,0,1,2.52-.45c1.66-.42,3.34-.76,5-1a10,10,0,0,1,0-1.89c.29-3.64,3.36-4.75,6.54-5a11.1,11.1,0,0,1,.8-2.26,3.54,3.54,0,0,1,4.75-1.39,8.54,8.54,0,0,1,3.54,3.19,12.92,12.92,0,0,1,5.64-.19,27.7,27.7,0,0,1,5.31,2.18,3.13,3.13,0,0,1,3.7,1.54,13.45,13.45,0,0,0,1.55.37,3,3,0,0,1,1.94,1.05,20.94,20.94,0,0,1,9.38-7.46l-.06-.17c-.63-2.66,2.36-5.93,5-4.06a17.86,17.86,0,0,1,2.75,2.62c1.63-1.9,4.14-2.07,7.95-1.53a3.57,3.57,0,0,1,4.4,1.59l.17-.09a2.89,2.89,0,0,1,3.37-.12,16.6,16.6,0,0,1,6.58-.56,4.68,4.68,0,0,1,3-1.53,6.12,6.12,0,0,1,1.66,0c-.12-1-.25-2.06-.41-3.09-.45-3,3.05-4,5.18-3.18a20,20,0,0,0,3.57,1.36,17.43,17.43,0,0,0,2.72-.05c1.8.14,3.43.75,5.17,1h.39c.85-2.63,4.91-2.87,6.29-.52v0a3.39,3.39,0,0,1,2.89-.62l2.78.18a3.57,3.57,0,0,1,4,2l.1,0c2.65-2,5.46-3.71,7.94-5.88a3.65,3.65,0,0,1,4.2-.64c2.82,1.37,7.51-.89,10.14-1.89,1.41-.53,2.79-1.12,4.17-1.73a3.06,3.06,0,0,1,3.25-3,33.79,33.79,0,0,0,3.66-.13l.62-.28a50.91,50.91,0,0,1,6.71-2.38,10.48,10.48,0,0,0,3.23-5,3.49,3.49,0,0,1,2.42-2.56,11.36,11.36,0,0,1,11.12,3.94l.45.51c2-.24,3.91-.47,5.84-.72,2.49-.32,5-.59,7.56-.86,1-2.3,2.44-5.41,3.91-7,1.79-1.91,4.45-1.73,6.94-1.62.59,0,1.17.07,1.75.13.05-.26.1-.51.13-.78.38-4.45,7.38-4.69,7-.21a16.4,16.4,0,0,1-.34,2.22,63.8,63.8,0,0,0,9.88,1.8c3.45-1.26,6.85-2.71,10.33-3.9,3.53-4.22,6.55-8.91,6.44-14.64a3.52,3.52,0,0,1,6.49-1.91c2.32,3.74,9.45,7.33,14.2,5.89a18.51,18.51,0,0,0,3.08-4.69c2.16-4.47,4.19-9,8.42-11.94a20.16,20.16,0,0,1,4.83-2.4,13.31,13.31,0,0,1,4.76-4.88,25.93,25.93,0,0,1,6.45-2.39,32.52,32.52,0,0,1-2.64-6c-.87-2.69,1.68-4.76,4.16-4.4,2.89.42,6.68,1,8.73-1.59a10.47,10.47,0,0,0,1.8-4.79,11.27,11.27,0,0,1-1.74-2.5,10.15,10.15,0,0,1-9-1A3.54,3.54,0,0,1,541.68,225.15Z"/><path class="cls-2" d="M173.45,275.13c.59,0,1.62-.19,1.91-.8s-.24-.88-.79-.88-1.62.19-1.91.8.23.88.79.88Z"/><g class="cls-3"><path class="cls-4" d="M24,138.7,18,136.75l-.2-.86,4.59-4.42.24,1-3.67,3.61,4.88,1.55Z"/><path class="cls-4" d="M34.38,137.9l-1.11.26-1.12-4.76A2.57,2.57,0,0,0,31.5,132a1.18,1.18,0,0,0-1.1-.22,3.29,3.29,0,0,0-1.89,1.79L29.76,139l-1.11.26L26.3,129.18l1.11-.26.87,3.72a3.61,3.61,0,0,1,2.23-1.86c1.39-.32,2.29.36,2.68,2Z"/><path class="cls-4" d="M43.79,135.71,38.25,137l-.2-.85c1-1.89,1.71-3.15,2-3.78a8.63,8.63,0,0,0,.63-1.92,4.38,4.38,0,0,0,0-1.84,1.75,1.75,0,0,0-.82-1.2,2,2,0,0,0-1.54-.15,6.22,6.22,0,0,0-1.8.87l-.4-1a5.94,5.94,0,0,1,2.15-1,3.15,3.15,0,0,1,2.35.26,2.68,2.68,0,0,1,1.3,1.83,4.21,4.21,0,0,1,0,1.9,8.78,8.78,0,0,1-.68,2c-.32.65-1,1.83-1.9,3.55l4.24-1Z"/><path class="cls-4" d="M52.59,128.65,48,133.1l-.25-1,3.69-3.55-4.89-1.61-.24-1,6.08,1.93Z"/><path class="cls-4" d="M57.26,125.73a2.82,2.82,0,0,1,.81-1.06,3,3,0,0,1,1.26-.63,2.38,2.38,0,0,1,2.26.59A5,5,0,0,1,63,127.22a5.22,5.22,0,0,1-.1,3,2.49,2.49,0,0,1-1.8,1.62,2.76,2.76,0,0,1-2.54-.74l.93,4-1.11.26L55.93,125l1.11-.26Zm.26,1.11.73,3.09a3.22,3.22,0,0,0,1.09.85,1.84,1.84,0,0,0,1.2.16,1.7,1.7,0,0,0,1.24-1.18,4,4,0,0,0,0-2.21,4,4,0,0,0-1-2,1.61,1.61,0,0,0-1.6-.48A2.41,2.41,0,0,0,57.52,126.84Z"/><path class="cls-4" d="M68.4,121.92a3.15,3.15,0,0,1,2.69.5,5,5,0,0,1,1.32,5.66,3.38,3.38,0,0,1-4.88,1.14A4.33,4.33,0,0,1,66,126.59a4.27,4.27,0,0,1,.24-3A3.14,3.14,0,0,1,68.4,121.92Zm1.6,6.84a1.91,1.91,0,0,0,1.4-1.23,3.73,3.73,0,0,0,.1-2.21,3.66,3.66,0,0,0-1.08-2,1.89,1.89,0,0,0-1.79-.45,1.92,1.92,0,0,0-1.42,1.19,4.28,4.28,0,0,0,1,4.2A1.88,1.88,0,0,0,70,128.76Z"/><path class="cls-4" d="M81.16,119.34l-.2,1.18a3.45,3.45,0,0,0-1.35,0,1.87,1.87,0,0,0-.89.51,3.14,3.14,0,0,0-.68,1,2.65,2.65,0,0,0-.26.68l1.12,4.8-1.1.26-1.74-7.43,1.11-.26.35,1.51a2.73,2.73,0,0,1,1.91-2.23A3.89,3.89,0,0,1,81.16,119.34Z"/><path class="cls-4" d="M92.4,124a5.41,5.41,0,0,1-2.09,1,1.86,1.86,0,0,1-2.48-1.63l-1.06-4.55-1.43.34-.22-1,1.42-.33-.47-2,1.08-.26.48,2,2.52-.59.23,1-2.53.59,1,4.25a1.64,1.64,0,0,0,.54,1,1,1,0,0,0,.9.19,4.53,4.53,0,0,0,1.71-.83Z"/><path class="cls-4" d="M99.82,112.11l-.08,1a5.5,5.5,0,0,0-1.47.11,1,1,0,0,0-.75.53,2.83,2.83,0,0,0,.1,1.42l0,.13,2.49-.58.23,1-2.5.59,1.52,6.47-1.12.26-1.51-6.47-1.87.43-.22-1,1.86-.44,0-.25a3.17,3.17,0,0,1,0-2.1,2.13,2.13,0,0,1,1.54-1A5.92,5.92,0,0,1,99.82,112.11Z"/><path class="cls-4" d="M107.08,112.88a3.11,3.11,0,0,1,2.69.5,4.37,4.37,0,0,1,1.57,2.6,4.43,4.43,0,0,1-.24,3,3.41,3.41,0,0,1-4.89,1.15,4.37,4.37,0,0,1-1.56-2.63,4.32,4.32,0,0,1,.24-3A3.11,3.11,0,0,1,107.08,112.88Zm1.6,6.83a1.9,1.9,0,0,0,1.4-1.23,3.65,3.65,0,0,0,.1-2.21,3.76,3.76,0,0,0-1.07-2,1.91,1.91,0,0,0-1.8-.45A1.89,1.89,0,0,0,105.9,115a3.71,3.71,0,0,0-.08,2.26,3.64,3.64,0,0,0,1.07,1.95A1.87,1.87,0,0,0,108.68,119.71Z"/><path class="cls-4" d="M120.87,117.68l-3,.71-2.12-9.1-1.94.45-.23-1,3-.71,2.13,9.1,1.93-.45Z"/><path class="cls-4" d="M129.23,115.73l-1.11.26-1.51-6.47-2.19.51-.23-1,3.3-.78Zm-2.94-10.12a.76.76,0,0,1,.59.1.79.79,0,0,1,.35.49.78.78,0,0,1-.09.6.74.74,0,0,1-1.06.23.8.8,0,0,1-.35-.48.77.77,0,0,1,.1-.59A.75.75,0,0,1,126.29,105.61Z"/><path class="cls-4" d="M136.1,106.1a3.09,3.09,0,0,1,2.69.5,4.35,4.35,0,0,1,1.56,2.6,4.44,4.44,0,0,1-.24,3,3.4,3.4,0,0,1-4.88,1.15,4.4,4.4,0,0,1-1.57-2.63,4.35,4.35,0,0,1,.25-3A3.06,3.06,0,0,1,136.1,106.1Zm1.59,6.83a1.9,1.9,0,0,0,1.4-1.23,3.65,3.65,0,0,0,.1-2.21,3.72,3.72,0,0,0-1.07-2,1.91,1.91,0,0,0-1.8-.45,1.89,1.89,0,0,0-1.41,1.19,3.71,3.71,0,0,0-.08,2.26,3.79,3.79,0,0,0,1.07,1.95A1.87,1.87,0,0,0,137.69,112.93Z"/><path class="cls-4" d="M149.76,109.31l-6.08-2-.2-.85,4.59-4.42.24,1-3.67,3.62,4.88,1.54Z"/><path class="cls-4" d="M157.39,98.33l-1.93,11.47-1,.24,1.9-11.46Z"/><path class="cls-4" d="M169.77,106.25l-1.11.26-1.12-4.77a2.57,2.57,0,0,0-.65-1.36,1.15,1.15,0,0,0-1.1-.21A3.27,3.27,0,0,0,163.9,102l1.25,5.38-1.11.26-2.35-10.07,1.11-.26.87,3.73a3.52,3.52,0,0,1,2.23-1.86c1.39-.33,2.29.35,2.68,2Z"/><path class="cls-4" d="M179.18,104.05l-5.54,1.29-.2-.85c1-1.89,1.7-3.15,2-3.78a8.72,8.72,0,0,0,.63-1.91,4.54,4.54,0,0,0,0-1.84,1.8,1.8,0,0,0-.82-1.21,2.08,2.08,0,0,0-1.54-.15,6,6,0,0,0-1.8.88l-.4-1a5.84,5.84,0,0,1,2.15-1,3.15,3.15,0,0,1,2.35.25,2.7,2.7,0,0,1,1.3,1.83,4.21,4.21,0,0,1,0,1.9,8.86,8.86,0,0,1-.68,2c-.32.65-.95,1.83-1.9,3.54l4.24-1Z"/><path class="cls-4" d="M188,97l-4.58,4.45-.25-1,3.69-3.55-4.89-1.61-.24-1,6.07,1.93Z"/><path class="cls-4" d="M27.78,152.21l-6.09-2-.2-.85,4.6-4.42.24,1-3.67,3.61,4.87,1.55Z"/><path class="cls-4" d="M38.11,151.41l-1.11.26-1.11-4.77a2.65,2.65,0,0,0-.66-1.36,1.15,1.15,0,0,0-1.1-.21,3.27,3.27,0,0,0-1.89,1.78l1.26,5.38-1.11.26L30,142.69l1.12-.26.87,3.72a3.52,3.52,0,0,1,2.23-1.86c1.39-.33,2.28.35,2.68,2Z"/><path class="cls-4" d="M47.52,149.21,42,150.5l-.2-.85c1-1.89,1.7-3.15,2-3.78a7.78,7.78,0,0,0,.63-1.91,4.22,4.22,0,0,0,0-1.84,1.79,1.79,0,0,0-.81-1.21,2.1,2.1,0,0,0-1.55-.15,5.9,5.9,0,0,0-1.79.88l-.4-1a5.8,5.8,0,0,1,2.14-1,3.15,3.15,0,0,1,2.35.25,2.7,2.7,0,0,1,1.3,1.84,4.3,4.3,0,0,1,0,1.89,9.44,9.44,0,0,1-.69,2c-.31.65-.95,1.83-1.89,3.54l4.23-1Z"/><path class="cls-4" d="M56.32,142.16l-4.59,4.45-.24-1.05L55.17,142l-4.89-1.61-.24-1,6.08,1.92Z"/><path class="cls-4" d="M61,139.24a2.85,2.85,0,0,1,.81-1.07,3.13,3.13,0,0,1,1.25-.62,2.4,2.4,0,0,1,2.27.59,4.85,4.85,0,0,1,1.37,2.58,5.13,5.13,0,0,1-.1,3,2.42,2.42,0,0,1-1.8,1.62,2.55,2.55,0,0,1-1.37,0,2.68,2.68,0,0,1-1.17-.7l.94,4-1.11.26-2.43-10.37,1.11-.26Zm.26,1.1.72,3.09a3.2,3.2,0,0,0,1.09.85,1.82,1.82,0,0,0,1.21.16,1.65,1.65,0,0,0,1.23-1.17,4,4,0,0,0,0-2.22,4.11,4.11,0,0,0-1-2,1.64,1.64,0,0,0-1.61-.48A2.41,2.41,0,0,0,61.26,140.34Z"/><path class="cls-4" d="M72.14,135.43a3.1,3.1,0,0,1,2.68.5,4.27,4.27,0,0,1,1.57,2.6,4.43,4.43,0,0,1-.24,3.05,3.4,3.4,0,0,1-4.88,1.15,4.37,4.37,0,0,1-1.57-2.63,4.32,4.32,0,0,1,.25-3A3.07,3.07,0,0,1,72.14,135.43Zm1.59,6.83a1.9,1.9,0,0,0,1.4-1.23,3.65,3.65,0,0,0,.1-2.21,3.76,3.76,0,0,0-1.07-2,1.91,1.91,0,0,0-1.8-.45A1.89,1.89,0,0,0,71,137.58a4.23,4.23,0,0,0,1,4.21A1.87,1.87,0,0,0,73.73,142.26Z"/><path class="cls-4" d="M84.89,132.84l-.2,1.18a3.2,3.2,0,0,0-1.34,0,1.84,1.84,0,0,0-.9.5,3.14,3.14,0,0,0-.68,1,3.2,3.2,0,0,0-.26.68L82.64,141l-1.11.26-1.74-7.43,1.11-.26.35,1.5a2.69,2.69,0,0,1,1.92-2.22A4,4,0,0,1,84.89,132.84Z"/><path class="cls-4" d="M96.13,137.49a5.4,5.4,0,0,1-2.08,1,1.87,1.87,0,0,1-2.49-1.64l-1.06-4.54-1.42.33-.23-1,1.43-.34-.48-2,1.09-.25.47,2,2.53-.59.22,1-2.52.59,1,4.25a1.73,1.73,0,0,0,.55,1,1,1,0,0,0,.9.18,4.45,4.45,0,0,0,1.71-.83Z"/><path class="cls-4" d="M103.55,125.61l-.08,1a5.6,5.6,0,0,0-1.47.1.93.93,0,0,0-.74.53,2.79,2.79,0,0,0,.09,1.42l0,.14,2.5-.59.22,1-2.49.58,1.51,6.47-1.11.26L100.49,130l-1.86.44-.23-1,1.87-.44-.06-.25a3.22,3.22,0,0,1,0-2.1,2.16,2.16,0,0,1,1.54-1A6.29,6.29,0,0,1,103.55,125.61Z"/><path class="cls-4" d="M110.82,126.38a3.12,3.12,0,0,1,2.69.5,5,5,0,0,1,1.32,5.66,3.13,3.13,0,0,1-2.19,1.65,3.09,3.09,0,0,1-2.69-.51,4.38,4.38,0,0,1-1.57-2.63,4.32,4.32,0,0,1,.25-3A3.14,3.14,0,0,1,110.82,126.38Zm1.6,6.84a1.88,1.88,0,0,0,1.39-1.23,4.18,4.18,0,0,0-1-4.19,1.9,1.9,0,0,0-1.8-.45,1.87,1.87,0,0,0-1.41,1.19,3.75,3.75,0,0,0-.08,2.25,3.71,3.71,0,0,0,1.07,2A1.88,1.88,0,0,0,112.42,133.22Z"/><path class="cls-4" d="M124.61,131.19l-3,.71-2.13-9.1-1.94.45-.22-1,3-.72,2.13,9.1,1.92-.45Z"/><path class="cls-4" d="M133,129.23l-1.12.26L130.34,123l-2.19.51-.22-1,3.3-.77ZM130,119.12a.77.77,0,0,1,.93.58.78.78,0,0,1-.09.6.75.75,0,0,1-.48.35.8.8,0,0,1-.92-.6.74.74,0,0,1,.09-.58A.71.71,0,0,1,130,119.12Z"/><path class="cls-4" d="M139.83,119.6a3.12,3.12,0,0,1,2.69.5,5,5,0,0,1,1.32,5.66A3.41,3.41,0,0,1,139,126.9a4.38,4.38,0,0,1-1.57-2.63,4.32,4.32,0,0,1,.25-3A3.14,3.14,0,0,1,139.83,119.6Zm1.6,6.83a1.86,1.86,0,0,0,1.39-1.23,4.1,4.1,0,0,0-1-4.18,2,2,0,0,0-3.21.74,4.28,4.28,0,0,0,1,4.2A1.9,1.9,0,0,0,141.43,126.43Z"/><path class="cls-4" d="M152.76,116.77l-1.08,8.09-1,.23-4.54-6.77,1.21-.29,3.48,5.42.73-6.4Z"/><path class="cls-4" d="M162.43,114.5l-1.08,8.09-1,.24-4.54-6.78,1.21-.28,3.49,5.42.72-6.4Z"/><path class="cls-4" d="M172.84,118.29l-6.09-2-.2-.86,4.6-4.42.24,1-3.67,3.61,4.87,1.54Z"/><path class="cls-4" d="M180.47,107.31l-1.93,11.47-1,.24,1.91-11.46Z"/><path class="cls-4" d="M192.84,115.23l-1.11.26-1.11-4.76a2.68,2.68,0,0,0-.66-1.37,1.17,1.17,0,0,0-1.1-.21,3.27,3.27,0,0,0-1.89,1.78l1.26,5.38-1.11.26-2.36-10.06,1.12-.26.87,3.72a3.59,3.59,0,0,1,2.22-1.86c1.4-.33,2.29.35,2.68,2Z"/><path class="cls-4" d="M202.25,113l-5.53,1.29-.2-.84c1-1.9,1.7-3.16,2-3.79a7.78,7.78,0,0,0,.63-1.91,4.38,4.38,0,0,0,0-1.84,1.86,1.86,0,0,0-.82-1.21,2.1,2.1,0,0,0-1.55-.15,5.9,5.9,0,0,0-1.79.88l-.4-1a5.8,5.8,0,0,1,2.14-1,3.15,3.15,0,0,1,2.35.25,2.7,2.7,0,0,1,1.3,1.84,4.3,4.3,0,0,1,0,1.89,9.44,9.44,0,0,1-.69,2c-.31.65-.95,1.83-1.89,3.54l4.23-1Z"/><path class="cls-4" d="M211.05,106l-4.59,4.45-.24-1.05,3.68-3.55L205,104.22l-.24-1,6.08,1.92Z"/><path class="cls-4" d="M31.51,165.71l-6.08-2-.2-.86,4.59-4.42.24,1-3.67,3.61,4.88,1.54Z"/><path class="cls-4" d="M41.85,164.91l-1.11.26-1.12-4.76a2.53,2.53,0,0,0-.65-1.36,1.18,1.18,0,0,0-1.1-.22A3.3,3.3,0,0,0,36,160.61L37.23,166l-1.11.26-2.35-10.06,1.11-.26.87,3.72A3.61,3.61,0,0,1,38,157.79c1.39-.32,2.29.36,2.68,2Z"/><path class="cls-4" d="M51.26,162.71,45.72,164l-.2-.85c1-1.89,1.7-3.15,2-3.78a8.63,8.63,0,0,0,.63-1.92,4.55,4.55,0,0,0,0-1.84,1.83,1.83,0,0,0-.82-1.21,2.08,2.08,0,0,0-1.54-.15,6.3,6.3,0,0,0-1.8.88l-.4-1a5.86,5.86,0,0,1,2.15-1,3.2,3.2,0,0,1,2.35.25,2.7,2.7,0,0,1,1.3,1.84,4.21,4.21,0,0,1,0,1.9,8.78,8.78,0,0,1-.68,2c-.32.65-1,1.83-1.9,3.54l4.24-1Z"/><path class="cls-4" d="M60.05,155.66l-4.58,4.45-.25-1.05,3.69-3.54L54,153.91l-.24-1,6.07,1.93Z"/><path class="cls-4" d="M64.73,152.74a2.82,2.82,0,0,1,.81-1.06,3,3,0,0,1,1.26-.63,2.38,2.38,0,0,1,2.26.59,5,5,0,0,1,1.38,2.59,5.22,5.22,0,0,1-.1,3,2.49,2.49,0,0,1-1.8,1.62,2.7,2.7,0,0,1-1.38,0,2.59,2.59,0,0,1-1.16-.69l.93,4-1.11.26L63.4,152l1.11-.26Zm.26,1.11.72,3.08a3.11,3.11,0,0,0,1.1.85A1.85,1.85,0,0,0,68,158a1.67,1.67,0,0,0,1.23-1.18,3.91,3.91,0,0,0,.05-2.21,4,4,0,0,0-1-2,1.59,1.59,0,0,0-1.6-.48A2.41,2.41,0,0,0,65,153.85Z"/><path class="cls-4" d="M75.87,148.93a3.12,3.12,0,0,1,2.69.5,5,5,0,0,1,1.32,5.66A3.41,3.41,0,0,1,75,156.23a4.38,4.38,0,0,1-1.57-2.63,4.32,4.32,0,0,1,.25-3A3.14,3.14,0,0,1,75.87,148.93Zm1.6,6.84a1.88,1.88,0,0,0,1.39-1.23,4.16,4.16,0,0,0-1-4.19,2,2,0,0,0-3.21.74,4.28,4.28,0,0,0,1,4.2A1.9,1.9,0,0,0,77.47,155.77Z"/><path class="cls-4" d="M88.62,146.35l-.19,1.17a3.43,3.43,0,0,0-1.35,0,2,2,0,0,0-.9.51,3,3,0,0,0-.67,1,2.51,2.51,0,0,0-.26.68l1.12,4.8-1.1.26-1.74-7.43,1.1-.26.36,1.51a2.71,2.71,0,0,1,1.91-2.23A3.84,3.84,0,0,1,88.62,146.35Z"/><path class="cls-4" d="M99.86,151a5.34,5.34,0,0,1-2.08,1,1.86,1.86,0,0,1-2.48-1.64l-1.06-4.54-1.43.34-.22-1,1.42-.33-.47-2,1.08-.26.48,2,2.52-.6.23,1-2.53.59,1,4.25a1.7,1.7,0,0,0,.55,1,1,1,0,0,0,.9.19,4.53,4.53,0,0,0,1.71-.83Z"/><path class="cls-4" d="M107.29,139.12l-.08,1a5.61,5.61,0,0,0-1.48.11,1,1,0,0,0-.74.53,2.79,2.79,0,0,0,.09,1.42l0,.13,2.49-.58.23,1-2.5.59,1.51,6.46-1.11.26-1.51-6.46-1.87.43-.22-1,1.86-.44,0-.25a3.1,3.1,0,0,1,0-2.1,2.1,2.1,0,0,1,1.54-1A5.89,5.89,0,0,1,107.29,139.12Z"/><path class="cls-4" d="M114.55,139.89a3.11,3.11,0,0,1,2.69.5,5,5,0,0,1,1.32,5.65,3.09,3.09,0,0,1-2.18,1.65,3.13,3.13,0,0,1-2.7-.5,5,5,0,0,1-1.32-5.66A3.11,3.11,0,0,1,114.55,139.89Zm1.6,6.83a1.9,1.9,0,0,0,1.4-1.23,4.18,4.18,0,0,0-1-4.19,2,2,0,0,0-3.22.74,3.8,3.8,0,0,0-.07,2.26,3.7,3.7,0,0,0,1.06,1.95A1.9,1.9,0,0,0,116.15,146.72Z"/><path class="cls-4" d="M128.34,144.69l-3,.71-2.12-9.1-1.94.45-.23-1,3-.71,2.13,9.1,1.93-.45Z"/><path class="cls-4" d="M136.7,142.73l-1.11.27-1.51-6.47-2.19.51-.23-1,3.3-.78Zm-2.94-10.11a.76.76,0,0,1,.59.1.79.79,0,0,1,.35.49.78.78,0,0,1-.09.6.73.73,0,0,1-.49.34.7.7,0,0,1-.57-.11.77.77,0,0,1-.25-1.07A.73.73,0,0,1,133.76,132.62Z"/><path class="cls-4" d="M143.56,133.1a3.15,3.15,0,0,1,2.69.5,4.34,4.34,0,0,1,1.57,2.61,4.44,4.44,0,0,1-.24,3,3.13,3.13,0,0,1-2.19,1.65,3.08,3.08,0,0,1-2.69-.51,4.34,4.34,0,0,1-1.57-2.63,4.27,4.27,0,0,1,.25-3A3.1,3.1,0,0,1,143.56,133.1Zm1.6,6.84a1.9,1.9,0,0,0,1.4-1.23,3.65,3.65,0,0,0,.1-2.21,3.72,3.72,0,0,0-1.07-2,1.91,1.91,0,0,0-1.8-.45,1.89,1.89,0,0,0-1.41,1.19,3.68,3.68,0,0,0-.08,2.25,3.78,3.78,0,0,0,1.07,2A1.87,1.87,0,0,0,145.16,139.94Z"/><path class="cls-4" d="M157.23,136.32l-6.08-2-.2-.85,4.59-4.42.24,1-3.67,3.61,4.88,1.55Z"/><path class="cls-4" d="M164.86,125.33l-1.93,11.47-1.05.25,1.91-11.47Z"/><path class="cls-4" d="M177.24,133.26l-1.12.26L175,128.75a2.57,2.57,0,0,0-.65-1.36,1.15,1.15,0,0,0-1.1-.21,3.27,3.27,0,0,0-1.89,1.78l1.25,5.38-1.11.26-2.35-10.07,1.11-.26.87,3.73a3.52,3.52,0,0,1,2.23-1.86c1.39-.33,2.28.35,2.68,2Z"/><path class="cls-4" d="M186.64,131.06l-5.53,1.29-.2-.85c1-1.89,1.7-3.15,2-3.78a8.11,8.11,0,0,0,.62-1.92,4.33,4.33,0,0,0,0-1.83,1.78,1.78,0,0,0-.82-1.21,2,2,0,0,0-1.54-.15,5.93,5.93,0,0,0-1.8.88l-.4-1a5.84,5.84,0,0,1,2.15-1,3.15,3.15,0,0,1,2.35.25,2.71,2.71,0,0,1,1.3,1.83,4.35,4.35,0,0,1,0,1.9,8.42,8.42,0,0,1-.69,2q-.47,1-1.89,3.54l4.24-1Z"/><path class="cls-4" d="M195.44,124l-4.58,4.45-.25-1.05,3.69-3.55-4.89-1.61-.24-1,6.07,1.93Z"/><path class="cls-4" d="M35.25,179.22l-6.09-2-.2-.85,4.6-4.42.24,1-3.67,3.61L35,178.17Z"/><path class="cls-4" d="M45.58,178.42l-1.11.26-1.11-4.77a2.65,2.65,0,0,0-.66-1.36,1.15,1.15,0,0,0-1.1-.21,3.27,3.27,0,0,0-1.89,1.78L41,179.5l-1.11.26L37.5,169.69l1.12-.26.87,3.73a3.53,3.53,0,0,1,2.22-1.86c1.4-.33,2.29.35,2.68,2Z"/><path class="cls-4" d="M55,176.22l-5.53,1.29-.2-.85c1-1.89,1.7-3.15,2-3.78a7.78,7.78,0,0,0,.63-1.91,4.22,4.22,0,0,0,0-1.84,1.77,1.77,0,0,0-.82-1.21,2.07,2.07,0,0,0-1.54-.15,5.9,5.9,0,0,0-1.79.88l-.4-1a5.8,5.8,0,0,1,2.14-1,3.15,3.15,0,0,1,2.35.25,2.7,2.7,0,0,1,1.3,1.83,4.35,4.35,0,0,1,0,1.9,9.44,9.44,0,0,1-.69,2c-.31.65-.95,1.83-1.9,3.54l4.24-1Z"/><path class="cls-4" d="M63.79,169.17l-4.59,4.45L59,172.57,62.64,169l-4.89-1.61-.24-1,6.08,1.93Z"/><path class="cls-4" d="M68.47,166.24a2.82,2.82,0,0,1,.81-1.06,3.13,3.13,0,0,1,1.25-.62,2.38,2.38,0,0,1,2.27.59,4.85,4.85,0,0,1,1.37,2.58,5.13,5.13,0,0,1-.1,3,2.42,2.42,0,0,1-1.8,1.62,2.65,2.65,0,0,1-1.37,0,2.68,2.68,0,0,1-1.17-.7l.94,4-1.11.26-2.43-10.37,1.11-.26Zm.26,1.11.72,3.09a3.2,3.2,0,0,0,1.09.85,1.87,1.87,0,0,0,1.21.16A1.65,1.65,0,0,0,73,170.28a4,4,0,0,0,0-2.22,4.07,4.07,0,0,0-1-2,1.64,1.64,0,0,0-1.61-.48A2.41,2.41,0,0,0,68.73,167.35Z"/><path class="cls-4" d="M79.6,162.44a3.08,3.08,0,0,1,2.69.5,4.32,4.32,0,0,1,1.57,2.6,4.43,4.43,0,0,1-.24,3.05,3.4,3.4,0,0,1-4.88,1.15,5,5,0,0,1-1.32-5.67A3.09,3.09,0,0,1,79.6,162.44Zm1.6,6.83A1.9,1.9,0,0,0,82.6,168a3.65,3.65,0,0,0,.1-2.21,3.72,3.72,0,0,0-1.07-2,1.91,1.91,0,0,0-1.8-.45,1.89,1.89,0,0,0-1.41,1.19,3.71,3.71,0,0,0-.08,2.26,3.79,3.79,0,0,0,1.07,2A1.87,1.87,0,0,0,81.2,169.27Z"/><path class="cls-4" d="M92.36,159.85l-.2,1.18a3.4,3.4,0,0,0-1.34,0,2,2,0,0,0-.9.51,3.14,3.14,0,0,0-.68,1,3.2,3.2,0,0,0-.26.68L90.11,168l-1.11.26-1.74-7.44,1.11-.25.35,1.5a2.69,2.69,0,0,1,1.92-2.22A4,4,0,0,1,92.36,159.85Z"/><path class="cls-4" d="M103.6,164.5a5.4,5.4,0,0,1-2.08,1A1.87,1.87,0,0,1,99,163.89L98,159.35l-1.42.33-.23-1,1.43-.34-.48-2,1.08-.25.48,2,2.53-.59.22,1-2.52.59,1,4.25a1.7,1.7,0,0,0,.55,1,1,1,0,0,0,.9.19,4.41,4.41,0,0,0,1.7-.83Z"/><path class="cls-4" d="M111,152.62l-.08,1a5.2,5.2,0,0,0-1.47.1,1,1,0,0,0-.75.53,3,3,0,0,0,.1,1.42l0,.14,2.5-.59.22,1-2.49.58,1.51,6.47-1.11.26L108,157l-1.86.44-.23-1,1.87-.43-.06-.25a3.26,3.26,0,0,1,0-2.11,2.18,2.18,0,0,1,1.54-1A6.29,6.29,0,0,1,111,152.62Z"/><path class="cls-4" d="M118.29,153.39a3.12,3.12,0,0,1,2.69.5,4.3,4.3,0,0,1,1.56,2.61,4.38,4.38,0,0,1-.24,3.05,3.09,3.09,0,0,1-2.19,1.64,3.06,3.06,0,0,1-2.69-.5,4.38,4.38,0,0,1-1.57-2.63,4.32,4.32,0,0,1,.25-3A3.12,3.12,0,0,1,118.29,153.39Zm1.6,6.84a1.88,1.88,0,0,0,1.39-1.23,3.69,3.69,0,0,0,.1-2.22,3.72,3.72,0,0,0-1.07-2,2,2,0,0,0-3.21.74,3.75,3.75,0,0,0-.08,2.25,3.71,3.71,0,0,0,1.07,1.95A1.9,1.9,0,0,0,119.89,160.23Z"/><path class="cls-4" d="M132.08,158.19l-3,.71-2.13-9.1-1.94.46-.22-1,3-.72,2.13,9.1,1.92-.45Z"/><path class="cls-4" d="M140.43,156.24l-1.11.26L137.81,150l-2.19.51-.22-1,3.3-.77Zm-2.93-10.11a.77.77,0,0,1,.59.09.82.82,0,0,1,.25,1.09.75.75,0,0,1-.48.35.73.73,0,0,1-.57-.11.77.77,0,0,1-.36-.49.83.83,0,0,1,.1-.59A.73.73,0,0,1,137.5,146.13Z"/><path class="cls-4" d="M147.3,146.61a3.12,3.12,0,0,1,2.69.5,5,5,0,0,1,1.32,5.65,3.09,3.09,0,0,1-2.19,1.65,3.12,3.12,0,0,1-2.69-.5,4.41,4.41,0,0,1-1.57-2.63,4.32,4.32,0,0,1,.25-3A3.11,3.11,0,0,1,147.3,146.61Zm1.6,6.83a1.88,1.88,0,0,0,1.39-1.23,4.18,4.18,0,0,0-1-4.19,2,2,0,0,0-3.21.74,4.29,4.29,0,0,0,1,4.21A1.9,1.9,0,0,0,148.9,153.44Z"/><path class="cls-4" d="M161,149.82l-6.09-1.95-.2-.86,4.59-4.42.24,1-3.66,3.61,4.87,1.54Z"/><path class="cls-4" d="M168.6,138.84l-1.93,11.47-1,.24,1.91-11.46Z"/><path class="cls-4" d="M181,146.76l-1.11.26-1.11-4.76a2.6,2.6,0,0,0-.66-1.36,1.18,1.18,0,0,0-1.1-.22,3.27,3.27,0,0,0-1.89,1.78l1.26,5.38-1.12.26L172.89,138l1.12-.26.87,3.72a3.59,3.59,0,0,1,2.22-1.86c1.4-.33,2.29.35,2.68,2Z"/><path class="cls-4" d="M190.38,144.56l-5.54,1.3-.19-.85c1-1.9,1.7-3.16,2-3.79a8.22,8.22,0,0,0,.63-1.91,4.37,4.37,0,0,0,0-1.84,1.79,1.79,0,0,0-.82-1.21,2.07,2.07,0,0,0-1.54-.15,6.14,6.14,0,0,0-1.79.88l-.4-1a5.8,5.8,0,0,1,2.14-1,3.15,3.15,0,0,1,2.35.25,2.7,2.7,0,0,1,1.3,1.84,4.35,4.35,0,0,1,0,1.9,9.36,9.36,0,0,1-.69,2c-.32.65-1,1.83-1.9,3.54l4.24-1Z"/><path class="cls-4" d="M199.18,137.51,194.59,142l-.24-1.05,3.68-3.55-4.89-1.61-.24-1,6.08,1.92Z"/><path class="cls-4" d="M39,192.72l-6.08-1.95-.2-.86,4.59-4.42.24,1-3.67,3.61,4.88,1.54Z"/><path class="cls-4" d="M49.32,191.92l-1.12.26-1.11-4.76a2.53,2.53,0,0,0-.65-1.36,1.18,1.18,0,0,0-1.1-.22,3.3,3.3,0,0,0-1.89,1.78L44.7,193l-1.11.26L41.24,183.2l1.11-.26.87,3.72a3.58,3.58,0,0,1,2.23-1.86c1.39-.32,2.28.35,2.68,2Z"/><path class="cls-4" d="M58.72,189.72,53.19,191l-.2-.85c1-1.89,1.7-3.16,2-3.79a8,8,0,0,0,.62-1.91,4.38,4.38,0,0,0,0-1.84,1.83,1.83,0,0,0-.82-1.21,2.08,2.08,0,0,0-1.54-.15,6.18,6.18,0,0,0-1.8.88l-.4-1a5.84,5.84,0,0,1,2.15-1,3.15,3.15,0,0,1,2.35.25,2.73,2.73,0,0,1,1.3,1.84,4.35,4.35,0,0,1,0,1.9,8.34,8.34,0,0,1-.69,2q-.47,1-1.89,3.54l4.24-1Z"/><path class="cls-4" d="M67.52,182.67l-4.58,4.45-.25-1.05,3.69-3.54-4.89-1.61-.24-1,6.07,1.93Z"/><path class="cls-4" d="M72.2,179.75a2.74,2.74,0,0,1,.81-1.06,3,3,0,0,1,1.26-.63,2.38,2.38,0,0,1,2.26.59,5,5,0,0,1,1.38,2.59,5.09,5.09,0,0,1-.11,3A2.42,2.42,0,0,1,76,185.88a2.59,2.59,0,0,1-1.38,0,2.69,2.69,0,0,1-1.16-.69l.93,4-1.11.26-2.43-10.37,1.12-.26Zm.26,1.1.72,3.09a3,3,0,0,0,1.1.85,1.78,1.78,0,0,0,1.2.16,1.64,1.64,0,0,0,1.23-1.17,3.91,3.91,0,0,0,.05-2.21,4,4,0,0,0-1-2,1.61,1.61,0,0,0-1.6-.49A2.44,2.44,0,0,0,72.46,180.85Z"/><path class="cls-4" d="M83.34,175.94a3.12,3.12,0,0,1,2.69.5,5,5,0,0,1,1.32,5.66,3.41,3.41,0,0,1-4.88,1.14,4.38,4.38,0,0,1-1.57-2.63,4.32,4.32,0,0,1,.25-3A3.14,3.14,0,0,1,83.34,175.94Zm1.6,6.83a1.84,1.84,0,0,0,1.39-1.23,4.15,4.15,0,0,0-1-4.18,2,2,0,0,0-3.21.74,3.68,3.68,0,0,0-.07,2.25,3.63,3.63,0,0,0,1.06,2A1.87,1.87,0,0,0,84.94,182.77Z"/><path class="cls-4" d="M96.09,173.36l-.2,1.17a3.38,3.38,0,0,0-1.34,0,1.87,1.87,0,0,0-.9.51,3.26,3.26,0,0,0-.68,1,3,3,0,0,0-.25.68l1.12,4.81-1.11.26L91,174.34l1.1-.26.35,1.51a2.72,2.72,0,0,1,1.92-2.23A3.84,3.84,0,0,1,96.09,173.36Z"/><path class="cls-4" d="M107.33,178a5.34,5.34,0,0,1-2.08,1,1.86,1.86,0,0,1-2.48-1.64l-1.06-4.54-1.43.33-.23-1,1.43-.33-.47-2,1.08-.26.47,2,2.53-.59.22,1-2.52.59,1,4.25a1.7,1.7,0,0,0,.55,1,1,1,0,0,0,.9.18,4.36,4.36,0,0,0,1.71-.82Z"/><path class="cls-4" d="M114.76,166.13l-.08,1a5.22,5.22,0,0,0-1.48.11.93.93,0,0,0-.74.53,2.79,2.79,0,0,0,.09,1.42l0,.13,2.49-.58.23,1-2.5.58,1.51,6.47-1.11.26-1.51-6.47-1.87.44-.23-1,1.87-.44-.06-.25a3.23,3.23,0,0,1,0-2.1,2.14,2.14,0,0,1,1.55-1A5.89,5.89,0,0,1,114.76,166.13Z"/><path class="cls-4" d="M122,166.9a3.09,3.09,0,0,1,2.69.5,5,5,0,0,1,1.32,5.65,3.09,3.09,0,0,1-2.18,1.65,3.13,3.13,0,0,1-2.7-.5,4.39,4.39,0,0,1-1.56-2.63,4.3,4.3,0,0,1,.24-3A3.13,3.13,0,0,1,122,166.9Zm1.6,6.83a1.91,1.91,0,0,0,1.4-1.23,4.18,4.18,0,0,0-1-4.19,2,2,0,0,0-3.22.74,3.72,3.72,0,0,0-.07,2.26,3.78,3.78,0,0,0,1.06,1.95A1.9,1.9,0,0,0,123.62,173.73Z"/><path class="cls-4" d="M135.81,171.7l-3,.71-2.13-9.1-1.94.45-.22-1,3.05-.71,2.13,9.1,1.93-.45Z"/><path class="cls-4" d="M144.17,169.74l-1.11.26-1.52-6.46-2.19.51-.22-1,3.3-.77Zm-2.94-10.11a.72.72,0,0,1,.59.1.77.77,0,0,1,.35.49.79.79,0,0,1-.09.6.75.75,0,0,1-.49.34.7.7,0,0,1-.57-.11.76.76,0,0,1-.35-.48.8.8,0,0,1,.56-.94Z"/><path class="cls-4" d="M151,160.11a3.11,3.11,0,0,1,2.69.5,4.39,4.39,0,0,1,1.57,2.61,4.44,4.44,0,0,1-.24,3.05,3.39,3.39,0,0,1-4.89,1.14,4.37,4.37,0,0,1-1.56-2.63,4.32,4.32,0,0,1,.24-3A3.14,3.14,0,0,1,151,160.11Zm1.6,6.84a1.9,1.9,0,0,0,1.4-1.23,3.68,3.68,0,0,0,.1-2.22,3.72,3.72,0,0,0-1.07-2,1.91,1.91,0,0,0-1.8-.45,1.89,1.89,0,0,0-1.41,1.19,4.21,4.21,0,0,0,1,4.2A1.85,1.85,0,0,0,152.63,167Z"/><path class="cls-4" d="M164.7,163.33l-6.08-2-.2-.85L163,156.1l.24,1-3.67,3.61,4.87,1.55Z"/><path class="cls-4" d="M172.33,152.34l-1.93,11.47-1.05.25,1.91-11.47Z"/><path class="cls-4" d="M184.71,160.27l-1.12.26-1.11-4.77a2.57,2.57,0,0,0-.65-1.36,1.15,1.15,0,0,0-1.1-.21,3.31,3.31,0,0,0-1.9,1.78l1.26,5.38-1.11.26-2.35-10.07,1.11-.26.87,3.72a3.53,3.53,0,0,1,2.23-1.85c1.39-.33,2.28.35,2.68,2Z"/><path class="cls-4" d="M194.11,158.07l-5.53,1.29-.2-.85c1-1.89,1.7-3.15,2-3.78a8.11,8.11,0,0,0,.62-1.92,4.33,4.33,0,0,0,0-1.83,1.78,1.78,0,0,0-.82-1.21,2,2,0,0,0-1.55-.15,5.9,5.9,0,0,0-1.79.88l-.4-1a6,6,0,0,1,2.15-1,3.16,3.16,0,0,1,2.35.26,2.67,2.67,0,0,1,1.29,1.83,4.2,4.2,0,0,1,0,1.9,8.19,8.19,0,0,1-.69,2c-.31.66-.94,1.84-1.89,3.55l4.23-1Z"/><path class="cls-4" d="M202.91,151l-4.58,4.45-.25-1,3.68-3.55-4.88-1.61-.24-1,6.07,1.93Z"/></g><g class="cls-5"><path class="cls-4" d="M279.73,230.9l-6.08-2-.2-.86,4.59-4.42.24,1-3.67,3.61,4.88,1.55Z"/><path class="cls-4" d="M290.07,230.1l-1.11.26-1.12-4.77a2.57,2.57,0,0,0-.65-1.36,1.15,1.15,0,0,0-1.1-.21,3.23,3.23,0,0,0-1.89,1.78l1.26,5.37-1.12.27L282,221.37l1.11-.26.87,3.72A3.61,3.61,0,0,1,286.2,223c1.39-.32,2.29.36,2.68,2Z"/><path class="cls-4" d="M299.48,227.9l-5.54,1.29-.2-.85c1-1.89,1.71-3.15,2-3.78a8.63,8.63,0,0,0,.63-1.92,4.38,4.38,0,0,0,0-1.84,1.75,1.75,0,0,0-.82-1.2,2,2,0,0,0-1.54-.15,6,6,0,0,0-1.8.88l-.4-1a6.11,6.11,0,0,1,2.15-1,3.15,3.15,0,0,1,2.35.26,2.68,2.68,0,0,1,1.3,1.83,4.21,4.21,0,0,1,0,1.9,8.86,8.86,0,0,1-.68,2c-.32.65-.95,1.83-1.9,3.54l4.24-1Z"/><path class="cls-4" d="M308.28,220.84l-4.59,4.45-.25-1,3.69-3.55-4.89-1.61-.24-1,6.08,1.93Z"/><path class="cls-4" d="M313,217.92a2.69,2.69,0,0,1,.8-1.06,3,3,0,0,1,1.26-.62,2.37,2.37,0,0,1,2.26.58,5,5,0,0,1,1.38,2.59,5.13,5.13,0,0,1-.1,3,2.45,2.45,0,0,1-1.8,1.62,2.69,2.69,0,0,1-2.54-.74l.93,4-1.11.26-2.42-10.37,1.11-.26Zm.25,1.11.73,3.09A3.1,3.1,0,0,0,315,223a1.84,1.84,0,0,0,1.2.16,1.68,1.68,0,0,0,1.24-1.18,4,4,0,0,0,0-2.21,4,4,0,0,0-1-2,1.63,1.63,0,0,0-1.6-.48A2.42,2.42,0,0,0,313.21,219Z"/><path class="cls-4" d="M324.09,214.11a3.15,3.15,0,0,1,2.69.5,5,5,0,0,1,1.32,5.66,3.09,3.09,0,0,1-2.18,1.65,3.13,3.13,0,0,1-2.7-.5,4.38,4.38,0,0,1-1.56-2.64,4.27,4.27,0,0,1,.24-3A3.14,3.14,0,0,1,324.09,214.11Zm1.6,6.84a1.91,1.91,0,0,0,1.4-1.23,3.73,3.73,0,0,0,.1-2.21,3.66,3.66,0,0,0-1.08-2,1.89,1.89,0,0,0-1.79-.45,1.92,1.92,0,0,0-1.42,1.19,4.29,4.29,0,0,0,1,4.21A1.9,1.9,0,0,0,325.69,221Z"/><path class="cls-4" d="M336.85,211.53l-.2,1.18a3.45,3.45,0,0,0-1.35,0,1.92,1.92,0,0,0-.89.51,3.14,3.14,0,0,0-.68,1,3.2,3.2,0,0,0-.26.68l1.12,4.81-1.1.25-1.74-7.43,1.11-.26.35,1.51a2.7,2.7,0,0,1,1.91-2.22A3.74,3.74,0,0,1,336.85,211.53Z"/><path class="cls-4" d="M348.09,216.18a5.59,5.59,0,0,1-2.09,1,1.86,1.86,0,0,1-2.48-1.64L342.46,211l-1.43.34-.22-1,1.42-.33-.47-2,1.08-.25.48,2,2.52-.59.23,1-2.53.59,1,4.25a1.64,1.64,0,0,0,.54,1,1,1,0,0,0,.9.19,4.39,4.39,0,0,0,1.71-.83Z"/><path class="cls-4" d="M355.51,204.3l-.08,1a5.14,5.14,0,0,0-1.47.1,1,1,0,0,0-.75.53,2.83,2.83,0,0,0,.1,1.42l0,.13,2.49-.58.23,1-2.5.59,1.52,6.47-1.12.26-1.51-6.47-1.87.43-.22-1,1.86-.43-.05-.25a3.19,3.19,0,0,1,0-2.11,2.16,2.16,0,0,1,1.54-1A5.92,5.92,0,0,1,355.51,204.3Z"/><path class="cls-4" d="M362.77,205.07a3.11,3.11,0,0,1,2.69.5,4.31,4.31,0,0,1,1.57,2.61,4.44,4.44,0,0,1-.24,3,3.14,3.14,0,0,1-2.19,1.64,3.1,3.1,0,0,1-2.7-.5,4.37,4.37,0,0,1-1.56-2.63,4.32,4.32,0,0,1,.24-3A3.14,3.14,0,0,1,362.77,205.07Zm1.6,6.83a1.88,1.88,0,0,0,1.4-1.23,3.65,3.65,0,0,0,.1-2.21,3.8,3.8,0,0,0-1.07-2A1.91,1.91,0,0,0,363,206a1.88,1.88,0,0,0-1.41,1.2,4.21,4.21,0,0,0,1,4.2A1.87,1.87,0,0,0,364.37,211.9Z"/><path class="cls-4" d="M376.56,209.87l-3,.71-2.12-9.1-1.94.46-.23-1,3-.71,2.13,9.1,1.93-.45Z"/><path class="cls-4" d="M384.92,207.92l-1.11.26-1.51-6.47-2.19.51-.23-1,3.3-.77ZM382,197.8a.79.79,0,0,1,.94.59.78.78,0,0,1-.09.6.75.75,0,0,1-1.06.24.82.82,0,0,1-.35-.49.78.78,0,0,1,.1-.59A.75.75,0,0,1,382,197.8Z"/><path class="cls-4" d="M391.79,198.29a3.09,3.09,0,0,1,2.69.5,4.31,4.31,0,0,1,1.56,2.6,4.43,4.43,0,0,1-.24,3.05,3.4,3.4,0,0,1-4.88,1.15,4.44,4.44,0,0,1-1.57-2.63,4.35,4.35,0,0,1,.25-3A3.09,3.09,0,0,1,391.79,198.29Zm1.59,6.83a1.9,1.9,0,0,0,1.4-1.23,3.65,3.65,0,0,0,.1-2.21,3.72,3.72,0,0,0-1.07-2,2,2,0,0,0-3.21.74,3.71,3.71,0,0,0-.08,2.26,3.79,3.79,0,0,0,1.07,2A1.87,1.87,0,0,0,393.38,205.12Z"/><path class="cls-4" d="M405.45,201.5l-6.08-1.95-.2-.86,4.59-4.42.24,1-3.67,3.61,4.88,1.54Z"/><path class="cls-4" d="M413.08,190.52,411.15,202l-1,.24,1.9-11.46Z"/><path class="cls-4" d="M425.46,198.44l-1.11.26-1.12-4.76a2.61,2.61,0,0,0-.65-1.37,1.18,1.18,0,0,0-1.1-.21,3.27,3.27,0,0,0-1.89,1.78l1.25,5.38-1.11.26-2.35-10.06,1.11-.26.87,3.72a3.61,3.61,0,0,1,2.23-1.86c1.39-.33,2.29.35,2.68,2Z"/><path class="cls-4" d="M434.87,196.24l-5.54,1.29-.2-.84c1-1.9,1.7-3.16,2-3.79a8.72,8.72,0,0,0,.63-1.91,4.37,4.37,0,0,0,0-1.84,1.77,1.77,0,0,0-.82-1.21,2.08,2.08,0,0,0-1.54-.15,6,6,0,0,0-1.8.88l-.4-1a5.92,5.92,0,0,1,2.15-1,3.15,3.15,0,0,1,2.35.25,2.7,2.7,0,0,1,1.3,1.84,4.16,4.16,0,0,1,0,1.89,8.86,8.86,0,0,1-.68,2c-.32.65-1,1.83-1.9,3.54l4.24-1Z"/><path class="cls-4" d="M443.66,189.19l-4.58,4.45-.25-1,3.69-3.55-4.89-1.61-.24-1,6.07,1.92Z"/><path class="cls-4" d="M283.47,244.4l-6.08-2-.21-.85,4.6-4.42.24,1-3.67,3.62,4.87,1.54Z"/><path class="cls-4" d="M293.8,243.6l-1.11.26-1.11-4.76a2.61,2.61,0,0,0-.66-1.37,1.17,1.17,0,0,0-1.1-.21,3.27,3.27,0,0,0-1.89,1.78l1.26,5.38-1.11.26-2.36-10.06,1.12-.26.87,3.72a3.58,3.58,0,0,1,2.23-1.86c1.39-.33,2.28.35,2.68,2Z"/><path class="cls-4" d="M303.21,241.4l-5.53,1.29-.2-.84c1-1.9,1.7-3.16,2-3.79a7.78,7.78,0,0,0,.63-1.91,4.38,4.38,0,0,0,0-1.84,1.86,1.86,0,0,0-.82-1.21,2.1,2.1,0,0,0-1.55-.15,5.9,5.9,0,0,0-1.79.88l-.4-1a5.8,5.8,0,0,1,2.14-1,3.15,3.15,0,0,1,2.35.25,2.7,2.7,0,0,1,1.3,1.84,4.3,4.3,0,0,1,0,1.89,9.44,9.44,0,0,1-.69,2c-.31.65-.95,1.83-1.89,3.54l4.23-1Z"/><path class="cls-4" d="M312,234.35l-4.59,4.45-.24-1.05,3.68-3.55L306,232.59l-.24-1,6.08,1.92Z"/><path class="cls-4" d="M316.69,231.43a2.74,2.74,0,0,1,.81-1.06,3,3,0,0,1,1.25-.63,2.4,2.4,0,0,1,2.27.59,4.85,4.85,0,0,1,1.37,2.58,5,5,0,0,1-.1,3,2.42,2.42,0,0,1-1.8,1.62,2.55,2.55,0,0,1-1.37,0,2.76,2.76,0,0,1-1.17-.69l.94,4-1.11.26-2.43-10.37,1.11-.26Zm.26,1.1.72,3.09a3.2,3.2,0,0,0,1.09.85,1.82,1.82,0,0,0,1.21.16,1.65,1.65,0,0,0,1.23-1.17,4,4,0,0,0,0-2.22,4.11,4.11,0,0,0-1-2,1.64,1.64,0,0,0-1.61-.48A2.43,2.43,0,0,0,317,232.53Z"/><path class="cls-4" d="M327.83,227.62a3.1,3.1,0,0,1,2.68.5,4.27,4.27,0,0,1,1.57,2.6,4.46,4.46,0,0,1-.24,3.06,3.14,3.14,0,0,1-2.19,1.64,3.11,3.11,0,0,1-2.69-.5,4.38,4.38,0,0,1-1.57-2.63,4.32,4.32,0,0,1,.25-3A3.07,3.07,0,0,1,327.83,227.62Zm1.59,6.83a1.9,1.9,0,0,0,1.4-1.23,3.65,3.65,0,0,0,.1-2.21,3.76,3.76,0,0,0-1.07-2,1.91,1.91,0,0,0-1.8-.45,1.89,1.89,0,0,0-1.41,1.19,4.23,4.23,0,0,0,1,4.21A1.87,1.87,0,0,0,329.42,234.45Z"/><path class="cls-4" d="M340.58,225l-.2,1.17a3.2,3.2,0,0,0-1.34,0,1.84,1.84,0,0,0-.9.5,3.26,3.26,0,0,0-.68,1,3.2,3.2,0,0,0-.26.68l1.13,4.81-1.11.26L335.48,226l1.11-.26.35,1.5a2.69,2.69,0,0,1,1.92-2.22A3.84,3.84,0,0,1,340.58,225Z"/><path class="cls-4" d="M351.82,229.68a5.4,5.4,0,0,1-2.08,1,1.86,1.86,0,0,1-2.48-1.64l-1.07-4.54-1.42.33-.23-1,1.43-.33-.48-2,1.09-.25.47,2,2.53-.59.22,1-2.52.6,1,4.25a1.73,1.73,0,0,0,.55,1,1,1,0,0,0,.9.18,4.45,4.45,0,0,0,1.71-.83Z"/><path class="cls-4" d="M359.24,217.81l-.08,1a5.6,5.6,0,0,0-1.47.1.94.94,0,0,0-.74.54,2.75,2.75,0,0,0,.09,1.41l0,.14,2.5-.58.22,1-2.49.58,1.51,6.47-1.11.26-1.52-6.47-1.86.44-.23-1,1.87-.44-.06-.25a3.22,3.22,0,0,1,0-2.1,2.16,2.16,0,0,1,1.54-1A6,6,0,0,1,359.24,217.81Z"/><path class="cls-4" d="M366.51,218.57a3.15,3.15,0,0,1,2.69.5,5,5,0,0,1,1.32,5.66,3.4,3.4,0,0,1-4.88,1.15,4.44,4.44,0,0,1-1.57-2.64,4.32,4.32,0,0,1,.25-3A3.14,3.14,0,0,1,366.51,218.57Zm1.6,6.84a1.88,1.88,0,0,0,1.39-1.23,4.18,4.18,0,0,0-1-4.19,2,2,0,0,0-3.21.74,4.3,4.3,0,0,0,1,4.21A1.9,1.9,0,0,0,368.11,225.41Z"/><path class="cls-4" d="M380.3,223.38l-3,.71-2.13-9.1-1.94.45-.22-1,3-.72,2.13,9.1,1.92-.45Z"/><path class="cls-4" d="M388.66,221.42l-1.12.26L386,215.21l-2.19.52-.22-1,3.3-.77Zm-2.94-10.11a.77.77,0,0,1,.93.58.7.7,0,0,1-.09.6.72.72,0,0,1-.48.35.69.69,0,0,1-.57-.11.73.73,0,0,1-.35-.49.71.71,0,0,1,.1-.58A.67.67,0,0,1,385.72,211.31Z"/><path class="cls-4" d="M395.52,211.79a3.12,3.12,0,0,1,2.69.5,5,5,0,0,1,1.32,5.66,3.41,3.41,0,0,1-4.88,1.14,4.38,4.38,0,0,1-1.57-2.63,4.32,4.32,0,0,1,.25-3A3.14,3.14,0,0,1,395.52,211.79Zm1.6,6.83a1.84,1.84,0,0,0,1.39-1.23,3.72,3.72,0,0,0,.11-2.21,3.67,3.67,0,0,0-1.08-2,1.87,1.87,0,0,0-1.79-.46,1.93,1.93,0,0,0-1.42,1.2,4.28,4.28,0,0,0,1,4.2A1.87,1.87,0,0,0,397.12,218.62Z"/><path class="cls-4" d="M409.19,215l-6.09-2-.2-.86,4.6-4.42.24,1-3.67,3.61,4.87,1.55Z"/><path class="cls-4" d="M416.82,204l-1.93,11.47-1.05.25,1.91-11.47Z"/><path class="cls-4" d="M429.19,211.94l-1.11.26L427,207.44a2.6,2.6,0,0,0-.66-1.36,1.17,1.17,0,0,0-1.1-.22,3.29,3.29,0,0,0-1.89,1.79l1.26,5.37-1.11.26-2.36-10.06,1.11-.26.88,3.72a3.59,3.59,0,0,1,2.22-1.86c1.4-.32,2.29.36,2.68,2Z"/><path class="cls-4" d="M438.6,209.74l-5.54,1.3-.19-.85c1-1.89,1.7-3.15,2-3.78a7.71,7.71,0,0,0,.63-1.92,4.22,4.22,0,0,0,0-1.84,1.75,1.75,0,0,0-.82-1.2,2,2,0,0,0-1.54-.16,6.14,6.14,0,0,0-1.79.88l-.4-1a5.82,5.82,0,0,1,2.14-1,3.2,3.2,0,0,1,2.35.25,2.7,2.7,0,0,1,1.3,1.84,4.35,4.35,0,0,1,0,1.9,9.36,9.36,0,0,1-.69,2c-.31.65-.95,1.83-1.9,3.54l4.24-1Z"/><path class="cls-4" d="M447.4,202.69l-4.59,4.45-.24-1,3.68-3.54-4.89-1.61-.24-1,6.08,1.93Z"/><path class="cls-4" d="M287.2,257.9,281.12,256l-.2-.86,4.59-4.42.24,1-3.67,3.61,4.88,1.55Z"/><path class="cls-4" d="M297.54,257.1l-1.11.26-1.12-4.76a2.57,2.57,0,0,0-.65-1.36,1.15,1.15,0,0,0-1.1-.21,3.23,3.23,0,0,0-1.89,1.78l1.25,5.37-1.11.26-2.35-10.06,1.11-.26.87,3.72a3.61,3.61,0,0,1,2.23-1.86c1.39-.32,2.29.36,2.68,2Z"/><path class="cls-4" d="M307,254.91l-5.54,1.29-.2-.85c1-1.89,1.7-3.15,2-3.78a8.63,8.63,0,0,0,.63-1.92,4.38,4.38,0,0,0,0-1.84,1.75,1.75,0,0,0-.82-1.2,2,2,0,0,0-1.54-.15,6.22,6.22,0,0,0-1.8.87l-.4-1a5.86,5.86,0,0,1,2.15-1,3.15,3.15,0,0,1,2.35.26,2.68,2.68,0,0,1,1.3,1.83,4.21,4.21,0,0,1,0,1.9,8.78,8.78,0,0,1-.68,2c-.32.65-.95,1.83-1.9,3.55l4.24-1Z"/><path class="cls-4" d="M315.74,247.85l-4.58,4.45-.25-1.05,3.69-3.54-4.89-1.61-.24-1,6.07,1.93Z"/><path class="cls-4" d="M320.42,244.93a2.82,2.82,0,0,1,.81-1.06,3,3,0,0,1,1.26-.63,2.4,2.4,0,0,1,2.26.59,5,5,0,0,1,1.38,2.59,5.22,5.22,0,0,1-.1,3,2.47,2.47,0,0,1-1.8,1.62,2.7,2.7,0,0,1-1.38,0,2.59,2.59,0,0,1-1.16-.69l.93,4-1.11.26-2.42-10.37,1.11-.26Zm.26,1.11.72,3.09a3.36,3.36,0,0,0,1.1.85,1.84,1.84,0,0,0,1.2.16,1.65,1.65,0,0,0,1.23-1.18,3.91,3.91,0,0,0,.05-2.21,4,4,0,0,0-1-2,1.63,1.63,0,0,0-1.6-.48A2.41,2.41,0,0,0,320.68,246Z"/><path class="cls-4" d="M331.56,241.12a3.12,3.12,0,0,1,2.69.5,5,5,0,0,1,1.32,5.66,3.38,3.38,0,0,1-4.88,1.14,4.38,4.38,0,0,1-1.57-2.63,4.32,4.32,0,0,1,.25-3A3.14,3.14,0,0,1,331.56,241.12Zm1.6,6.84a1.88,1.88,0,0,0,1.39-1.23,4.18,4.18,0,0,0-1-4.19,1.89,1.89,0,0,0-1.79-.45,1.92,1.92,0,0,0-1.42,1.19,4.28,4.28,0,0,0,1,4.2A1.88,1.88,0,0,0,333.16,248Z"/><path class="cls-4" d="M344.31,238.54l-.19,1.18a3.45,3.45,0,0,0-1.35,0,2,2,0,0,0-.9.51,3.12,3.12,0,0,0-.67,1,2.51,2.51,0,0,0-.26.68l1.12,4.8L341,247l-1.74-7.43,1.1-.26.36,1.51a2.73,2.73,0,0,1,1.91-2.23A3.84,3.84,0,0,1,344.31,238.54Z"/><path class="cls-4" d="M355.55,243.19a5.31,5.31,0,0,1-2.08,1,1.85,1.85,0,0,1-2.48-1.63L349.93,238l-1.43.34-.22-1,1.42-.33-.47-2,1.08-.26.48,2,2.52-.59.23,1-2.53.59,1,4.25a1.64,1.64,0,0,0,.54,1,1,1,0,0,0,.9.19,4.53,4.53,0,0,0,1.71-.83Z"/><path class="cls-4" d="M363,231.31l-.08,1a5.5,5.5,0,0,0-1.47.11,1,1,0,0,0-.75.53,2.79,2.79,0,0,0,.09,1.42l0,.13,2.49-.58.23,1-2.5.59,1.51,6.47-1.11.26-1.51-6.47-1.87.43-.22-1,1.86-.44-.05-.25a3.1,3.1,0,0,1,0-2.1,2.13,2.13,0,0,1,1.54-1A5.89,5.89,0,0,1,363,231.31Z"/><path class="cls-4" d="M370.24,232.08a3.11,3.11,0,0,1,2.69.5,4.37,4.37,0,0,1,1.57,2.6,4.43,4.43,0,0,1-.24,3,3.41,3.41,0,0,1-4.89,1.15,5,5,0,0,1-1.32-5.66A3.11,3.11,0,0,1,370.24,232.08Zm1.6,6.83a1.9,1.9,0,0,0,1.4-1.23,4.18,4.18,0,0,0-1-4.19,2,2,0,0,0-3.22.74,3.8,3.8,0,0,0-.07,2.26,3.64,3.64,0,0,0,1.07,1.95A1.87,1.87,0,0,0,371.84,238.91Z"/><path class="cls-4" d="M384,236.88l-3,.71-2.12-9.1-1.94.45-.23-1,3.05-.71,2.13,9.1,1.93-.45Z"/><path class="cls-4" d="M392.39,234.93l-1.11.26-1.51-6.47-2.19.51-.23-1,3.3-.78Zm-2.94-10.12a.76.76,0,0,1,.59.1.79.79,0,0,1,.35.49.78.78,0,0,1-.09.6.74.74,0,0,1-1.06.23.77.77,0,0,1-.25-1.07A.73.73,0,0,1,389.45,224.81Z"/><path class="cls-4" d="M399.26,225.3a3.07,3.07,0,0,1,2.68.5,4.27,4.27,0,0,1,1.57,2.6,4.43,4.43,0,0,1-.24,3,3.4,3.4,0,0,1-4.88,1.15,4.44,4.44,0,0,1-1.57-2.64,4.33,4.33,0,0,1,.25-3A3.06,3.06,0,0,1,399.26,225.3Zm1.59,6.83a1.9,1.9,0,0,0,1.4-1.23,3.65,3.65,0,0,0,.1-2.21,3.72,3.72,0,0,0-1.07-2,1.91,1.91,0,0,0-1.8-.45,1.89,1.89,0,0,0-1.41,1.19,3.71,3.71,0,0,0-.08,2.26,3.79,3.79,0,0,0,1.07,1.95A1.87,1.87,0,0,0,400.85,232.13Z"/><path class="cls-4" d="M412.92,228.51l-6.08-2-.2-.85,4.59-4.42.24,1-3.67,3.62,4.88,1.54Z"/><path class="cls-4" d="M420.55,217.53,418.62,229l-1.05.24,1.91-11.46Z"/><path class="cls-4" d="M432.93,225.45l-1.12.26-1.11-4.77a2.57,2.57,0,0,0-.65-1.36,1.15,1.15,0,0,0-1.1-.21,3.27,3.27,0,0,0-1.89,1.78l1.25,5.38-1.11.26-2.35-10.07,1.11-.26.87,3.73a3.52,3.52,0,0,1,2.23-1.86c1.39-.33,2.29.35,2.68,2Z"/><path class="cls-4" d="M442.33,223.25l-5.53,1.29-.2-.85c1-1.89,1.7-3.15,2-3.78a8.19,8.19,0,0,0,.62-1.91,4.22,4.22,0,0,0,0-1.84,1.8,1.8,0,0,0-.82-1.21,2.08,2.08,0,0,0-1.54-.15,6,6,0,0,0-1.8.88l-.4-1a5.84,5.84,0,0,1,2.15-1,3.15,3.15,0,0,1,2.35.25,2.73,2.73,0,0,1,1.3,1.84,4.16,4.16,0,0,1,0,1.89,8.42,8.42,0,0,1-.69,2q-.47,1-1.89,3.54l4.24-1Z"/><path class="cls-4" d="M451.13,216.2l-4.58,4.45-.25-1.05,3.69-3.55-4.89-1.61-.24-1,6.07,1.93Z"/><path class="cls-4" d="M290.94,271.41l-6.09-2-.2-.85,4.6-4.42.24,1-3.67,3.61,4.87,1.55Z"/><path class="cls-4" d="M301.27,270.61l-1.11.26-1.11-4.76a2.64,2.64,0,0,0-.66-1.37,1.13,1.13,0,0,0-1.09-.21,3.25,3.25,0,0,0-1.9,1.78l1.26,5.38-1.11.26-2.36-10.06,1.12-.26.87,3.72a3.56,3.56,0,0,1,2.22-1.86c1.4-.33,2.29.35,2.68,2Z"/><path class="cls-4" d="M310.68,268.41l-5.53,1.29-.2-.84c1-1.9,1.7-3.16,2-3.79a7.78,7.78,0,0,0,.63-1.91,4.22,4.22,0,0,0,0-1.84,1.77,1.77,0,0,0-.82-1.21,2.07,2.07,0,0,0-1.54-.15,5.9,5.9,0,0,0-1.79.88l-.4-1a5.8,5.8,0,0,1,2.14-1,3.15,3.15,0,0,1,2.35.25,2.7,2.7,0,0,1,1.3,1.84,4.3,4.3,0,0,1,0,1.89,9.44,9.44,0,0,1-.69,2c-.31.65-1,1.83-1.89,3.54l4.23-1Z"/><path class="cls-4" d="M319.48,261.36l-4.59,4.45-.24-1.05,3.68-3.55-4.89-1.61-.24-1,6.08,1.92Z"/><path class="cls-4" d="M324.16,258.44a2.85,2.85,0,0,1,.81-1.07,3.13,3.13,0,0,1,1.25-.62,2.4,2.4,0,0,1,2.27.59,4.85,4.85,0,0,1,1.37,2.58,5.05,5.05,0,0,1-.1,3,2.42,2.42,0,0,1-1.8,1.62,2.55,2.55,0,0,1-1.37,0,2.68,2.68,0,0,1-1.17-.7l.94,4-1.11.26-2.43-10.37,1.11-.26Zm.26,1.1.72,3.09a3.2,3.2,0,0,0,1.09.85,1.81,1.81,0,0,0,1.21.16,1.65,1.65,0,0,0,1.23-1.17,4,4,0,0,0,0-2.22,4.11,4.11,0,0,0-1-2,1.64,1.64,0,0,0-1.61-.48A2.41,2.41,0,0,0,324.42,259.54Z"/><path class="cls-4" d="M335.3,254.63a3.1,3.1,0,0,1,2.68.5,4.27,4.27,0,0,1,1.57,2.6,4.43,4.43,0,0,1-.24,3,3.4,3.4,0,0,1-4.88,1.15,4.41,4.41,0,0,1-1.57-2.63,4.32,4.32,0,0,1,.25-3A3.07,3.07,0,0,1,335.3,254.63Zm1.59,6.83a1.9,1.9,0,0,0,1.4-1.23,3.65,3.65,0,0,0,.1-2.21,3.76,3.76,0,0,0-1.07-2,1.91,1.91,0,0,0-1.8-.45,1.89,1.89,0,0,0-1.41,1.19,4.23,4.23,0,0,0,1,4.21A1.87,1.87,0,0,0,336.89,261.46Z"/><path class="cls-4" d="M348.05,252l-.2,1.18a3.2,3.2,0,0,0-1.34,0,1.84,1.84,0,0,0-.9.5,3.14,3.14,0,0,0-.68,1,3.2,3.2,0,0,0-.26.68l1.13,4.81-1.11.26L343,253l1.11-.26.35,1.5a2.69,2.69,0,0,1,1.92-2.22A4,4,0,0,1,348.05,252Z"/><path class="cls-4" d="M359.29,256.69a5.4,5.4,0,0,1-2.08,1,1.87,1.87,0,0,1-2.49-1.64l-1.06-4.54-1.42.33-.23-1,1.43-.34-.48-2,1.09-.25.47,2,2.53-.59.22,1-2.52.59,1,4.25a1.73,1.73,0,0,0,.55,1,1,1,0,0,0,.9.18,4.41,4.41,0,0,0,1.7-.83Z"/><path class="cls-4" d="M366.71,244.82l-.08,1a5.6,5.6,0,0,0-1.47.1.93.93,0,0,0-.74.53,2.79,2.79,0,0,0,.09,1.42l0,.14,2.5-.59.22,1-2.49.58,1.51,6.47-1.11.26-1.52-6.47-1.86.44-.23-1,1.87-.43-.06-.25a3.22,3.22,0,0,1,0-2.1,2.16,2.16,0,0,1,1.54-1A6,6,0,0,1,366.71,244.82Z"/><path class="cls-4" d="M374,245.58a3.12,3.12,0,0,1,2.69.5,5,5,0,0,1,1.32,5.66,3.13,3.13,0,0,1-2.19,1.65,3.09,3.09,0,0,1-2.69-.51,4.38,4.38,0,0,1-1.57-2.63,4.32,4.32,0,0,1,.25-3A3.14,3.14,0,0,1,374,245.58Zm1.6,6.84a1.88,1.88,0,0,0,1.39-1.23,3.68,3.68,0,0,0,.1-2.22,3.72,3.72,0,0,0-1.07-2,2,2,0,0,0-3.21.74,3.68,3.68,0,0,0-.07,2.25,3.63,3.63,0,0,0,1.06,1.95A1.9,1.9,0,0,0,375.58,252.42Z"/><path class="cls-4" d="M387.77,250.39l-3,.71L382.6,242l-1.94.45-.22-1,3.05-.72,2.13,9.1,1.92-.45Z"/><path class="cls-4" d="M396.13,248.43l-1.12.26-1.51-6.47-2.19.51-.22-1,3.3-.77Zm-2.94-10.11a.77.77,0,0,1,.93.58.78.78,0,0,1-.09.6.75.75,0,0,1-.48.35.69.69,0,0,1-.57-.11.73.73,0,0,1-.35-.49.74.74,0,0,1,.09-.58A.71.71,0,0,1,393.19,238.32Z"/><path class="cls-4" d="M403,238.8a3.12,3.12,0,0,1,2.69.5,4.31,4.31,0,0,1,1.56,2.6A4.35,4.35,0,0,1,407,245a3.41,3.41,0,0,1-4.88,1.14,4.38,4.38,0,0,1-1.57-2.63,4.32,4.32,0,0,1,.25-3A3.14,3.14,0,0,1,403,238.8Zm1.6,6.83A1.86,1.86,0,0,0,406,244.4a3.65,3.65,0,0,0,.1-2.21,3.73,3.73,0,0,0-1.07-2,2,2,0,0,0-3.21.75,4.28,4.28,0,0,0,1,4.2A1.9,1.9,0,0,0,404.59,245.63Z"/><path class="cls-4" d="M416.66,242l-6.09-1.95-.2-.86,4.59-4.42.24,1-3.66,3.61,4.87,1.54Z"/><path class="cls-4" d="M424.29,231l-1.93,11.47-1.05.25,1.91-11.47Z"/><path class="cls-4" d="M436.66,239l-1.11.26-1.11-4.76a2.6,2.6,0,0,0-.66-1.36,1.17,1.17,0,0,0-1.1-.22,3.3,3.3,0,0,0-1.89,1.78l1.26,5.38-1.12.26-2.35-10.06,1.12-.26.87,3.72a3.59,3.59,0,0,1,2.22-1.86c1.4-.32,2.29.35,2.68,2Z"/><path class="cls-4" d="M446.07,236.75l-5.54,1.3-.19-.85c1-1.89,1.7-3.15,2-3.79a7.64,7.64,0,0,0,.63-1.91,4.22,4.22,0,0,0,0-1.84,1.79,1.79,0,0,0-.82-1.21,2.07,2.07,0,0,0-1.54-.15,6.14,6.14,0,0,0-1.79.88l-.4-1a5.8,5.8,0,0,1,2.14-1,3.15,3.15,0,0,1,2.35.25,2.7,2.7,0,0,1,1.3,1.84,4.35,4.35,0,0,1,0,1.9,9.36,9.36,0,0,1-.69,2c-.32.65-.95,1.83-1.9,3.54l4.24-1Z"/><path class="cls-4" d="M454.87,229.7l-4.59,4.45L450,233.1l3.68-3.54L448.83,228l-.24-1,6.08,1.93Z"/><path class="cls-4" d="M294.67,284.91l-6.08-2-.2-.86,4.59-4.42.24,1-3.67,3.61,4.88,1.54Z"/><path class="cls-4" d="M305,284.11l-1.12.26-1.11-4.76a2.53,2.53,0,0,0-.65-1.36A1.18,1.18,0,0,0,301,278a3.29,3.29,0,0,0-1.89,1.79l1.25,5.37-1.11.26-2.35-10.06,1.11-.26.87,3.72a3.58,3.58,0,0,1,2.23-1.86c1.39-.32,2.29.36,2.68,2Z"/><path class="cls-4" d="M314.41,281.91l-5.53,1.3-.2-.85c1-1.89,1.7-3.15,2-3.78a8.11,8.11,0,0,0,.62-1.92,4.22,4.22,0,0,0,0-1.84,1.83,1.83,0,0,0-.82-1.21,2.08,2.08,0,0,0-1.54-.15,6.3,6.3,0,0,0-1.8.88l-.4-1a5.86,5.86,0,0,1,2.15-1,3.2,3.2,0,0,1,2.35.25,2.73,2.73,0,0,1,1.3,1.84,4.21,4.21,0,0,1,0,1.9,8.34,8.34,0,0,1-.69,2q-.46,1-1.89,3.54l4.24-1Z"/><path class="cls-4" d="M323.21,274.86l-4.58,4.45-.25-1.05,3.69-3.54-4.89-1.61-.24-1L323,274Z"/><path class="cls-4" d="M327.89,271.94a2.82,2.82,0,0,1,.81-1.06,3,3,0,0,1,1.26-.63,2.38,2.38,0,0,1,2.26.59,5,5,0,0,1,1.38,2.59,5.22,5.22,0,0,1-.1,3,2.49,2.49,0,0,1-1.8,1.62,2.7,2.7,0,0,1-1.38-.05,2.59,2.59,0,0,1-1.16-.69l.93,4-1.11.26-2.43-10.37,1.12-.26Zm.26,1.11.72,3.08a3.11,3.11,0,0,0,1.1.85,1.85,1.85,0,0,0,1.2.17A1.67,1.67,0,0,0,332.4,276a3.91,3.91,0,0,0,.05-2.21,4,4,0,0,0-1-2,1.61,1.61,0,0,0-1.6-.48A2.41,2.41,0,0,0,328.15,273.05Z"/><path class="cls-4" d="M339,268.13a3.12,3.12,0,0,1,2.69.5,5,5,0,0,1,1.32,5.66,3.39,3.39,0,0,1-4.88,1.14,4.38,4.38,0,0,1-1.57-2.63,4.32,4.32,0,0,1,.25-3A3.14,3.14,0,0,1,339,268.13Zm1.6,6.84a1.88,1.88,0,0,0,1.39-1.23,4.16,4.16,0,0,0-1-4.19,1.9,1.9,0,0,0-1.8-.45,1.87,1.87,0,0,0-1.41,1.19,3.68,3.68,0,0,0-.07,2.25,3.63,3.63,0,0,0,1.06,1.95A1.9,1.9,0,0,0,340.63,275Z"/><path class="cls-4" d="M351.78,265.55l-.19,1.17a3.43,3.43,0,0,0-1.35,0,2,2,0,0,0-.9.51,3.07,3.07,0,0,0-.67,1,2.64,2.64,0,0,0-.26.69l1.12,4.8-1.1.26-1.74-7.43,1.1-.26.35,1.51a2.74,2.74,0,0,1,1.92-2.23A3.84,3.84,0,0,1,351.78,265.55Z"/><path class="cls-4" d="M363,270.19a5.34,5.34,0,0,1-2.08,1,1.86,1.86,0,0,1-2.48-1.64L357.4,265l-1.43.34-.22-1,1.42-.33-.47-2,1.08-.26.48,2,2.52-.6.23,1-2.53.59,1,4.25a1.7,1.7,0,0,0,.55,1,1,1,0,0,0,.9.19,4.53,4.53,0,0,0,1.71-.83Z"/><path class="cls-4" d="M370.45,258.32l-.08,1a5.61,5.61,0,0,0-1.48.11.93.93,0,0,0-.74.53,2.79,2.79,0,0,0,.09,1.42l0,.13,2.49-.58.23,1-2.5.59,1.51,6.46-1.11.26-1.51-6.46-1.87.43-.23-1,1.87-.44-.06-.25a3.23,3.23,0,0,1,0-2.1,2.14,2.14,0,0,1,1.55-1A5.89,5.89,0,0,1,370.45,258.32Z"/><path class="cls-4" d="M377.71,259.09a3.12,3.12,0,0,1,2.69.5,5,5,0,0,1,1.32,5.65,3.09,3.09,0,0,1-2.18,1.65,3.13,3.13,0,0,1-2.7-.5,4.36,4.36,0,0,1-1.56-2.63,4.3,4.3,0,0,1,.24-3A3.13,3.13,0,0,1,377.71,259.09Zm1.6,6.83a1.91,1.91,0,0,0,1.4-1.23,4.18,4.18,0,0,0-1-4.19,2,2,0,0,0-3.22.74,3.8,3.8,0,0,0-.07,2.26,3.7,3.7,0,0,0,1.06,1.95A1.9,1.9,0,0,0,379.31,265.92Z"/><path class="cls-4" d="M391.5,263.89l-3,.71-2.12-9.1-1.95.45-.22-1,3.05-.71,2.13,9.1,1.93-.45Z"/><path class="cls-4" d="M399.86,261.94l-1.11.26-1.52-6.47-2.18.51-.23-1,3.3-.78Zm-2.94-10.12a.76.76,0,0,1,.59.1.79.79,0,0,1,.35.49.78.78,0,0,1-.09.6.73.73,0,0,1-.49.34.7.7,0,0,1-.57-.11.77.77,0,0,1-.25-1.07A.73.73,0,0,1,396.92,251.82Z"/><path class="cls-4" d="M406.72,252.3a3.15,3.15,0,0,1,2.69.5,4.34,4.34,0,0,1,1.57,2.61,4.44,4.44,0,0,1-.24,3,3.39,3.39,0,0,1-4.89,1.14,4.37,4.37,0,0,1-1.56-2.63,4.32,4.32,0,0,1,.24-3A3.14,3.14,0,0,1,406.72,252.3Zm1.6,6.84a1.9,1.9,0,0,0,1.4-1.23,3.65,3.65,0,0,0,.1-2.21,3.72,3.72,0,0,0-1.07-2,1.91,1.91,0,0,0-1.8-.45,1.89,1.89,0,0,0-1.41,1.19,4.24,4.24,0,0,0,1,4.21A1.87,1.87,0,0,0,408.32,259.14Z"/><path class="cls-4" d="M420.39,255.52l-6.08-2-.2-.85,4.59-4.42.24,1-3.67,3.61,4.87,1.55Z"/><path class="cls-4" d="M428,244.53,426.09,256l-1,.25L427,244.78Z"/><path class="cls-4" d="M440.4,252.46l-1.12.26L438.17,248a2.57,2.57,0,0,0-.65-1.36,1.15,1.15,0,0,0-1.1-.21,3.31,3.31,0,0,0-1.9,1.78l1.26,5.38-1.11.26-2.35-10.07,1.11-.26.87,3.73a3.52,3.52,0,0,1,2.23-1.86c1.39-.33,2.28.35,2.68,2Z"/><path class="cls-4" d="M449.8,250.26l-5.53,1.29-.2-.85c1-1.89,1.7-3.15,2-3.78a8.11,8.11,0,0,0,.62-1.92,4.33,4.33,0,0,0,0-1.83,1.8,1.8,0,0,0-.82-1.21,2,2,0,0,0-1.55-.15,6,6,0,0,0-1.79.88l-.4-1a5.84,5.84,0,0,1,2.15-1,3.15,3.15,0,0,1,2.35.25,2.67,2.67,0,0,1,1.29,1.83,4.2,4.2,0,0,1,0,1.9,8.42,8.42,0,0,1-.69,2q-.47,1-1.89,3.54l4.23-1Z"/><path class="cls-4" d="M458.6,243.21,454,247.66l-.25-1,3.68-3.55-4.88-1.61-.24-1,6.07,1.93Z"/></g><g class="cls-6"><path class="cls-4" d="M133.51,174.33a2.54,2.54,0,0,1,1.56,0,1.33,1.33,0,0,1,.72,1,1.42,1.42,0,0,1-.17,1.27,2.93,2.93,0,0,1-1.59.73l-10.23,2.39a1.49,1.49,0,0,1-1.18-.13,1.61,1.61,0,0,1-.64-1,1.53,1.53,0,0,1,.11-1.18,1.64,1.64,0,0,1,1.06-.62l2.7-.63-4.41-18.85-1.46.34a5.07,5.07,0,0,1-2.37.22,1.44,1.44,0,0,1-.73-1.08,1.61,1.61,0,0,1,.12-1.21,1.5,1.5,0,0,1,1-.64l9.68-2.26c3.39-.8,6.12-.74,8.18.16a7.9,7.9,0,0,1,2.73,11.56q-2.16,2.56-7.29,3.76l-3.66.85,1.49,6.38Zm-8.78-17.83,2.27,9.71,3.91-.91a8.44,8.44,0,0,0,4.63-2.37,5,5,0,0,0-1.71-7.27,8.38,8.38,0,0,0-5.19-.07Z"/><path class="cls-4" d="M174.46,157.69a9.82,9.82,0,0,1-1.34,8,12.78,12.78,0,0,1-15.84,3.7,10.56,10.56,0,0,1-3.42-14.63,12.8,12.8,0,0,1,15.83-3.69A9.74,9.74,0,0,1,174.46,157.69Zm-9.3,9.79a7.39,7.39,0,0,0,4.81-3.27,7.78,7.78,0,0,0-2.44-10.4A8,8,0,0,0,157,156.27a7.84,7.84,0,0,0,2.43,10.42A7.38,7.38,0,0,0,165.16,167.48Z"/><path class="cls-4" d="M195.39,159.86l6.94-1.62a1.82,1.82,0,0,1,1.29.06,1.46,1.46,0,0,1,.64,1,1.62,1.62,0,0,1-.09,1.27,2.19,2.19,0,0,1-1.27.64l-13.68,3.2a1.93,1.93,0,0,1-1.33-.09,1.49,1.49,0,0,1-.68-1,1.35,1.35,0,0,1,.18-1.19,2.06,2.06,0,0,1,1.24-.67l3.64-.85-3.14-13.43-1.42.33a6,6,0,0,1-2.61.27,1.34,1.34,0,0,1-.78-1,1.43,1.43,0,0,1,.16-1.19,1.88,1.88,0,0,1,1.16-.66l4.77-1.11a1.45,1.45,0,0,1,.91,0,.77.77,0,0,1,.44.57l.83,3.56a15.1,15.1,0,0,1,3.28-4.68,9.59,9.59,0,0,1,4.36-2.3,5.56,5.56,0,0,1,3.18.05,2.3,2.3,0,0,1,1.61,1.66,2,2,0,0,1-.26,1.5,1.8,1.8,0,0,1-1.13.9,4.45,4.45,0,0,1-1.77-.26,4.34,4.34,0,0,0-2.18-.16,6.56,6.56,0,0,0-3.17,2,20.38,20.38,0,0,0-3.15,4.62Z"/><path class="cls-4" d="M232,135.26a2.59,2.59,0,0,1,1.58,0,1.36,1.36,0,0,1,.73,1,1.38,1.38,0,0,1-.18,1.2,2.07,2.07,0,0,1-1.23.67l-8.48,2,1.64,7q.8,3.44,1.94,4.31a3.81,3.81,0,0,0,3.3.38,12.52,12.52,0,0,0,4.3-2.18,13.84,13.84,0,0,1,3-1.87,1.39,1.39,0,0,1,1.09.18,1.49,1.49,0,0,1,.65.93,1.75,1.75,0,0,1-.23,1.33,5.42,5.42,0,0,1-1.52,1.4,26.25,26.25,0,0,1-3.41,2,13.93,13.93,0,0,1-3,1.1,9.93,9.93,0,0,1-4.29.18,5.38,5.38,0,0,1-3-1.75,5.6,5.6,0,0,1-1-1.6,18.71,18.71,0,0,1-.9-3.06l-.15-.64-1.64-7-3.55.83a2,2,0,0,1-1.36,0,1.42,1.42,0,0,1-.66-1,1.29,1.29,0,0,1,.27-1.3,5.51,5.51,0,0,1,2.25-.86l2.36-.55-1-4.29-.26-1.11a2,2,0,0,1,.08-1.42,1.61,1.61,0,0,1,1.1-.71,1.47,1.47,0,0,1,1.4.23,5.11,5.11,0,0,1,.91,2.3l1,4.25Z"/><path class="cls-4" d="M268.66,142.69a2,2,0,0,1,1.4.07,1.39,1.39,0,0,1,.7,1,1.45,1.45,0,0,1-.16,1.23,1.89,1.89,0,0,1-1.16.67l-13.68,3.2a2,2,0,0,1-1.39-.08,1.68,1.68,0,0,1-.55-2.23,1.89,1.89,0,0,1,1.16-.67l3.56-.83-3-12.78-3.43.8a2.05,2.05,0,0,1-1.43-.08,1.69,1.69,0,0,1-.56-2.26,2,2,0,0,1,1.19-.67l3.31-.77-.33-1.43c-.6-2.52-.3-4.52.87-6s3.36-2.59,6.56-3.34a8.85,8.85,0,0,1,3.59-.28,1.75,1.75,0,0,1,1.5,1.37,1.42,1.42,0,0,1-.23,1.18,1.87,1.87,0,0,1-1.14.7,14.93,14.93,0,0,1-1.87.18,14.31,14.31,0,0,0-2.51.32,4.87,4.87,0,0,0-3.16,1.79,4.59,4.59,0,0,0-.26,3.53l.28,1.19,7.41-1.73a2.05,2.05,0,0,1,1.39.07,1.43,1.43,0,0,1,.72,1,1.46,1.46,0,0,1-.2,1.22,1.87,1.87,0,0,1-1.16.71l-7.24,1.69,3,12.78Z"/><path class="cls-4" d="M304,127.4a9.8,9.8,0,0,1-1.34,8,12.8,12.8,0,0,1-15.84,3.71,10.56,10.56,0,0,1-3.42-14.64,12.79,12.79,0,0,1,15.83-3.69A9.82,9.82,0,0,1,304,127.4Zm-9.3,9.78a7.39,7.39,0,0,0,4.81-3.27,7.16,7.16,0,0,0,.85-5.67,7.25,7.25,0,0,0-3.29-4.73A8,8,0,0,0,286.57,126a7.28,7.28,0,0,0-.84,5.7,7.19,7.19,0,0,0,3.27,4.72A7.38,7.38,0,0,0,294.74,137.18Z"/><path class="cls-4" d="M320.61,108l-3.56.83a6,6,0,0,1-2.62.27,1.33,1.33,0,0,1-.79-1.06,1.45,1.45,0,0,1,.17-1.23,1.86,1.86,0,0,1,1.15-.67l6.91-1.61a1.52,1.52,0,0,1,.93,0,.75.75,0,0,1,.46.56l5.51,23.57,6.57-1.53a1.67,1.67,0,0,1,1.24.07,1.49,1.49,0,0,1,.63,1,1.66,1.66,0,0,1-.08,1.27,2.16,2.16,0,0,1-1.27.64l-15.43,3.61a1.91,1.91,0,0,1-1.34-.09,1.48,1.48,0,0,1-.69-1,1.39,1.39,0,0,1,.18-1.19,2.12,2.12,0,0,1,1.24-.66l5.79-1.36Z"/><path class="cls-4" d="M361.36,121.06l6.71-1.58a1.84,1.84,0,0,1,1.28.07,1.42,1.42,0,0,1,.65,1,1.59,1.59,0,0,1-.09,1.26,2.08,2.08,0,0,1-1.27.64l-16.22,3.8a1.84,1.84,0,0,1-1.34-.09,1.44,1.44,0,0,1-.68-1,1.33,1.33,0,0,1,.18-1.19,2.07,2.07,0,0,1,1.24-.66l6.38-1.5-3.14-13.43-4.1,1a2,2,0,0,1-1.4-.08,1.39,1.39,0,0,1-.71-1,1.43,1.43,0,0,1,.16-1.19,1.89,1.89,0,0,1,1.17-.66l6.13-1.43a1.59,1.59,0,0,1,.95,0,.77.77,0,0,1,.47.55Zm-9.11-21.51a6.11,6.11,0,0,1-.26-2.94c.18-.45.72-.78,1.61-1a2.32,2.32,0,0,1,1.83.09,4.21,4.21,0,0,1,1,2.23,4.05,4.05,0,0,1,.14,2.32q-.28.52-1.65.84a2.72,2.72,0,0,1-1.84,0A2.43,2.43,0,0,1,352.25,99.55Z"/><path class="cls-4" d="M401.22,104.67a9.82,9.82,0,0,1-1.34,8,12.77,12.77,0,0,1-15.84,3.7,10.58,10.58,0,0,1-3.42-14.63,12.8,12.8,0,0,1,15.83-3.69A9.74,9.74,0,0,1,401.22,104.67Zm-9.29,9.79a7.37,7.37,0,0,0,4.8-3.27,7.78,7.78,0,0,0-2.44-10.4,8,8,0,0,0-10.53,2.46,7.83,7.83,0,0,0,2.42,10.41A7.36,7.36,0,0,0,391.93,114.46Z"/></g><g class="cls-7"><path class="cls-4" d="M131.48,174.81a2.55,2.55,0,0,1,1.56,0,1.33,1.33,0,0,1,.72,1,1.44,1.44,0,0,1-.17,1.28,3,3,0,0,1-1.59.72l-10.23,2.4a1.49,1.49,0,0,1-1.18-.14,1.61,1.61,0,0,1-.64-1,1.49,1.49,0,0,1,.11-1.17,1.6,1.6,0,0,1,1.06-.62l2.7-.63-4.41-18.85-1.46.34a4.88,4.88,0,0,1-2.37.21,1.42,1.42,0,0,1-.73-1.08A1.59,1.59,0,0,1,115,156a1.46,1.46,0,0,1,1-.64l9.68-2.27q5.08-1.19,8.18.16a7.9,7.9,0,0,1,2.73,11.57q-2.16,2.55-7.29,3.75l-3.66.86,1.49,6.38ZM122.7,157l2.27,9.71,3.91-.92a8.44,8.44,0,0,0,4.63-2.36,4.38,4.38,0,0,0,.78-4,4.34,4.34,0,0,0-2.49-3.24,8.53,8.53,0,0,0-5.19-.07Z"/><path class="cls-4" d="M172.43,158.17a9.83,9.83,0,0,1-1.34,8,12.8,12.8,0,0,1-15.84,3.7,10.59,10.59,0,0,1-3.42-14.64,12.8,12.8,0,0,1,15.83-3.69A9.79,9.79,0,0,1,172.43,158.17Zm-9.3,9.78a7.39,7.39,0,0,0,4.81-3.27,7.16,7.16,0,0,0,.85-5.67,7.24,7.24,0,0,0-3.29-4.73A8,8,0,0,0,155,156.75a7.82,7.82,0,0,0,2.43,10.41A7.34,7.34,0,0,0,163.13,168Z"/><path class="cls-4" d="M193.36,160.34l6.94-1.63a1.87,1.87,0,0,1,1.29.07,1.44,1.44,0,0,1,.64,1,1.61,1.61,0,0,1-.09,1.27,2.08,2.08,0,0,1-1.27.64l-13.69,3.2a1.8,1.8,0,0,1-1.32-.09,1.47,1.47,0,0,1-.68-1,1.39,1.39,0,0,1,.17-1.19,2.18,2.18,0,0,1,1.25-.66l3.64-.85-3.14-13.44-1.42.34a6.3,6.3,0,0,1-2.61.27,1.36,1.36,0,0,1-.78-1.06,1.43,1.43,0,0,1,.16-1.19,1.88,1.88,0,0,1,1.16-.65l4.77-1.12a1.53,1.53,0,0,1,.91,0,.8.8,0,0,1,.44.57l.83,3.56a14.93,14.93,0,0,1,3.28-4.67,9.49,9.49,0,0,1,4.36-2.3,5.57,5.57,0,0,1,3.18,0,2.31,2.31,0,0,1,1.61,1.67,2,2,0,0,1-.26,1.5,1.78,1.78,0,0,1-1.13.89,4.1,4.1,0,0,1-1.77-.26,4.37,4.37,0,0,0-2.19-.16,6.6,6.6,0,0,0-3.16,2,20.29,20.29,0,0,0-3.15,4.61Z"/><path class="cls-4" d="M230,135.74a2.61,2.61,0,0,1,1.58,0,1.38,1.38,0,0,1,.73,1,1.41,1.41,0,0,1-.18,1.2,2.08,2.08,0,0,1-1.24.68l-8.47,2,1.64,7q.79,3.42,1.94,4.31a3.81,3.81,0,0,0,3.3.37,12.47,12.47,0,0,0,4.3-2.17,14.07,14.07,0,0,1,3-1.88,1.36,1.36,0,0,1,1.09.19,1.47,1.47,0,0,1,.65.93,1.72,1.72,0,0,1-.23,1.32,5.42,5.42,0,0,1-1.52,1.4,26.42,26.42,0,0,1-3.41,2.06,14.48,14.48,0,0,1-3,1.1,9.8,9.8,0,0,1-4.3.17,5.59,5.59,0,0,1-4-3.35A18.84,18.84,0,0,1,221,149l-.16-.65-1.63-7-3.56.84a2,2,0,0,1-1.35-.05,1.45,1.45,0,0,1-.66-1,1.27,1.27,0,0,1,.27-1.3,5.54,5.54,0,0,1,2.25-.85l2.36-.56-1-4.28-.26-1.11a2,2,0,0,1,.08-1.42,1.55,1.55,0,0,1,1.1-.71,1.47,1.47,0,0,1,1.4.22,5.29,5.29,0,0,1,.91,2.3l1,4.25Z"/><path class="cls-4" d="M266.63,143.16a2.05,2.05,0,0,1,1.39.07,1.39,1.39,0,0,1,.71,1,1.43,1.43,0,0,1-.16,1.23,1.89,1.89,0,0,1-1.16.67l-13.68,3.2a2.05,2.05,0,0,1-1.39-.07,1.68,1.68,0,0,1-.55-2.23,1.89,1.89,0,0,1,1.16-.67l3.56-.83-3-12.78-3.43.8a2.11,2.11,0,0,1-1.43-.09,1.43,1.43,0,0,1-.73-1,1.45,1.45,0,0,1,.17-1.23,2,2,0,0,1,1.19-.68l3.31-.77-.34-1.42c-.58-2.53-.3-4.52.88-6s3.36-2.58,6.56-3.33a8.88,8.88,0,0,1,3.59-.29,1.76,1.76,0,0,1,1.5,1.37,1.4,1.4,0,0,1-.23,1.18,1.88,1.88,0,0,1-1.14.71,15.78,15.78,0,0,1-1.87.17,15.33,15.33,0,0,0-2.51.32,4.91,4.91,0,0,0-3.16,1.79,4.56,4.56,0,0,0-.26,3.54l.28,1.19,7.41-1.73a2,2,0,0,1,1.39.07,1.43,1.43,0,0,1,.72,1,1.48,1.48,0,0,1-.2,1.23,1.86,1.86,0,0,1-1.16.7L256.82,132l3,12.78Z"/><path class="cls-4" d="M302,127.87a9.83,9.83,0,0,1-1.34,8,12.78,12.78,0,0,1-15.84,3.7A10.56,10.56,0,0,1,281.41,125a12.76,12.76,0,0,1,15.83-3.69A9.8,9.8,0,0,1,302,127.87Zm-9.3,9.79a7.44,7.44,0,0,0,4.81-3.28,7.15,7.15,0,0,0,.85-5.67,7.28,7.28,0,0,0-3.29-4.73,7.41,7.41,0,0,0-5.76-.82,7.33,7.33,0,0,0-4.78,3.29,7.26,7.26,0,0,0-.84,5.69,7.17,7.17,0,0,0,3.27,4.72A7.38,7.38,0,0,0,292.71,137.66Z"/><path class="cls-4" d="M318.58,108.46l-3.56.84a6.34,6.34,0,0,1-2.62.27,1.35,1.35,0,0,1-.79-1.07,1.48,1.48,0,0,1,.17-1.23,1.85,1.85,0,0,1,1.15-.66l6.91-1.62a1.44,1.44,0,0,1,.93,0,.76.76,0,0,1,.46.55l5.51,23.58,6.57-1.54a1.67,1.67,0,0,1,1.24.08,1.49,1.49,0,0,1,.63,1,1.64,1.64,0,0,1-.08,1.26,2,2,0,0,1-1.27.64l-15.43,3.61a1.91,1.91,0,0,1-1.34-.08,1.5,1.5,0,0,1-.69-1,1.38,1.38,0,0,1,.18-1.19,2.13,2.13,0,0,1,1.24-.67l5.79-1.35Z"/><path class="cls-4" d="M359.33,121.53,366,120a1.79,1.79,0,0,1,1.28.06,1.44,1.44,0,0,1,.65,1,1.61,1.61,0,0,1-.09,1.27,2.17,2.17,0,0,1-1.28.64l-16.21,3.79a1.9,1.9,0,0,1-1.34-.08,1.46,1.46,0,0,1-.68-1,1.33,1.33,0,0,1,.18-1.19,2.18,2.18,0,0,1,1.24-.66l6.38-1.49L353,108.84l-4.1,1a2.08,2.08,0,0,1-1.4-.08,1.41,1.41,0,0,1-.71-1,1.43,1.43,0,0,1,.16-1.19,2,2,0,0,1,1.17-.65l6.13-1.44a1.51,1.51,0,0,1,1,0,.75.75,0,0,1,.47.55ZM350.22,100a6.12,6.12,0,0,1-.26-2.94c.18-.46.72-.79,1.61-1a2.27,2.27,0,0,1,1.83.1,6.9,6.9,0,0,1,1.1,4.55c-.19.35-.74.62-1.65.84a2.78,2.78,0,0,1-1.84,0A2.43,2.43,0,0,1,350.22,100Z"/><path class="cls-4" d="M399.19,105.15a9.8,9.8,0,0,1-1.34,8A12.79,12.79,0,0,1,382,116.89a10.59,10.59,0,0,1-3.42-14.64,12.8,12.8,0,0,1,15.83-3.69A9.76,9.76,0,0,1,399.19,105.15Zm-9.29,9.78a7.37,7.37,0,0,0,4.8-3.27,7.16,7.16,0,0,0,.85-5.67,7.24,7.24,0,0,0-3.29-4.73,7.34,7.34,0,0,0-5.75-.82,7.56,7.56,0,0,0-2.36,13.7A7.35,7.35,0,0,0,389.9,114.93Z"/></g><g class="cls-8"><path class="cls-4" d="M191.72,206.53l-.39.16-.24.08a1.57,1.57,0,0,1-1.14-.12,1.29,1.29,0,0,1-.64-.88,1.26,1.26,0,0,1,.15-1,2.25,2.25,0,0,1,.9-.81l5.82-3.12a2.67,2.67,0,0,1,.42-.2,3.36,3.36,0,0,1,.45-.14.73.73,0,0,1,.71.22,1.85,1.85,0,0,1,.46.94l5.3,22.64,3.34-.79a5.86,5.86,0,0,1,2.44-.25,1.28,1.28,0,0,1,.77,1,1.49,1.49,0,0,1-.16,1.22,1.91,1.91,0,0,1-1.16.68l-12.51,2.92a1.93,1.93,0,0,1-1.35-.08,1.49,1.49,0,0,1-.68-1,1.28,1.28,0,0,1,.23-1.26,5.82,5.82,0,0,1,2.3-.86l3.47-.81-4.78-20.44Z"/><path class="cls-4" d="M257.28,213.29l-.87-3.73a2.07,2.07,0,0,1,0-1.4,1.47,1.47,0,0,1,1-.65c.57-.14,1.11.15,1.63.85a5.7,5.7,0,0,0,.86.92,6.11,6.11,0,0,0,3,1.21,10.68,10.68,0,0,0,3.95-.21,6.36,6.36,0,0,0,3.34-1.73,2.79,2.79,0,0,0,.79-2.68,2.31,2.31,0,0,0-1.57-1.86,8,8,0,0,0-3.84.24l-1.15.27q-4.28,1-6.85,0a5,5,0,0,1-3.25-3.78,5.06,5.06,0,0,1,1.18-4.8,10.93,10.93,0,0,1,5.79-3,12.94,12.94,0,0,1,3.39-.31c1.18,0,1.8.05,1.86,0a2.38,2.38,0,0,0,.78-.62,2.4,2.4,0,0,1,1.18-.7,1.22,1.22,0,0,1,1.18.27,3,3,0,0,1,.71,1.49l.58,2.45a3.1,3.1,0,0,1,0,1.68,1.26,1.26,0,0,1-1,.74,2.54,2.54,0,0,1-1.79-.71c-.55-.38-1-.67-1.33-.86a7.21,7.21,0,0,0-2.71-.92,9.16,9.16,0,0,0-3.05.24,5.43,5.43,0,0,0-3,1.61,2.69,2.69,0,0,0-.69,2.49,2,2,0,0,0,1.68,1.59,16.58,16.58,0,0,0,5.46-.59q4.38-.91,6.72,0a5.08,5.08,0,0,1,3,3.89,5.51,5.51,0,0,1-1.16,5,9.89,9.89,0,0,1-5.58,3.09,17.91,17.91,0,0,1-2.71.4c-1,.08-2.3.12-3.86.12a10.49,10.49,0,0,1-1.08,1,2.24,2.24,0,0,1-.83.44,1.35,1.35,0,0,1-1.24-.25A2.51,2.51,0,0,1,257.28,213.29Z"/><path class="cls-4" d="M290,198a6.56,6.56,0,0,0,3.13,4.19,7.63,7.63,0,0,0,5.5.45,13.38,13.38,0,0,0,5-2.55,15,15,0,0,1,3.18-2.13,1.49,1.49,0,0,1,1.14.15,1.35,1.35,0,0,1,.65.89,1.63,1.63,0,0,1-.18,1.21,4.61,4.61,0,0,1-1.17,1.31,21.94,21.94,0,0,1-4,2.56,18.9,18.9,0,0,1-4.3,1.58,10.86,10.86,0,0,1-8.28-1,9.91,9.91,0,0,1-4.57-6.62,10.09,10.09,0,0,1,1.29-8.2,11.32,11.32,0,0,1,7.23-4.71,10.67,10.67,0,0,1,7.95,1,8.76,8.76,0,0,1,4.43,5.81,2,2,0,0,1-.13,1.68,5.18,5.18,0,0,1-2.57,1l-.32.08Zm-.54-2.77,13.62-3.18a6.26,6.26,0,0,0-3-3.52,6.6,6.6,0,0,0-4.7-.51,7.71,7.71,0,0,0-4.34,2.56A7.14,7.14,0,0,0,289.5,195.23Z"/><path class="cls-4" d="M336.58,184a10.21,10.21,0,0,0-1.46-3.86,2,2,0,0,0-2.07-.61,2.89,2.89,0,0,0-2.13,1.92,6.66,6.66,0,0,0-.05,3.89l2,8.7.37-.08a3.34,3.34,0,0,1,1.76-.1,1.37,1.37,0,0,1,.69,1,1.63,1.63,0,0,1-.09,1.22,1.51,1.51,0,0,1-1,.63l-2.66.62a1.51,1.51,0,0,1-1.32-.13,3.38,3.38,0,0,1-.74-1.73l-.14-.6-2.07-8.83-.38-1.63a4,4,0,0,0-1.29-2.32,2.43,2.43,0,0,0-2.16-.45,3,3,0,0,0-1.59,1,4.59,4.59,0,0,0-1,1.95L324,196.16l.77-.18a3.27,3.27,0,0,1,1.76-.08,1.35,1.35,0,0,1,.7,1,1.63,1.63,0,0,1-.08,1.27,2.16,2.16,0,0,1-1.28.64l-5.55,1.29a1.76,1.76,0,0,1-1.29-.08,1.54,1.54,0,0,1-.65-1.05,1.25,1.25,0,0,1,.22-1.25,4.11,4.11,0,0,1,1.83-.75l.42-.1-3.14-13.43-.38.09a4.26,4.26,0,0,1-2.06.13,1.31,1.31,0,0,1-.8-1,1.43,1.43,0,0,1,.16-1.19,1.89,1.89,0,0,1,1.17-.66l3.2-.75a1.36,1.36,0,0,1,1,0,1.83,1.83,0,0,1,.5.95,6,6,0,0,1,1.52-1.79,5.64,5.64,0,0,1,2.12-1,4.43,4.43,0,0,1,2.57.06,3.85,3.85,0,0,1,1.87,1.6,5.93,5.93,0,0,1,1.58-2.41,5.53,5.53,0,0,1,2.49-1.24,4.63,4.63,0,0,1,4.35.83q1.66,1.47,2.58,5.4l2.22,9.48.33-.08a3.31,3.31,0,0,1,1.79-.09,1.33,1.33,0,0,1,.7,1,1.58,1.58,0,0,1-.11,1.22,1.51,1.51,0,0,1-1,.63l-2.53.6a1.49,1.49,0,0,1-1.35-.22,2.58,2.58,0,0,1-.77-1.49Z"/><path class="cls-4" d="M359,187.47a3.55,3.55,0,0,1,.51-2.95,4.92,4.92,0,0,1,5.95-1.41,3.88,3.88,0,0,1,1.25,5.4,4.41,4.41,0,0,1-2.74,1.72,4.33,4.33,0,0,1-3.21-.33A3.58,3.58,0,0,1,359,187.47Z"/></g><g class="cls-9"><path class="cls-10" d="M271.83,264.11l1-10a1.7,1.7,0,0,1,.39-.9,2,2,0,0,1,1-.47l2.41-.57a1,1,0,0,1,.78.09,1.08,1.08,0,0,1,.42.69.92.92,0,0,1-.13.84,2.09,2.09,0,0,1-1.06.48l-.24,0L280,267.67l.34-.08a2.72,2.72,0,0,1,1.34-.09.94.94,0,0,1,.51.73,1.14,1.14,0,0,1-.08.85,1.08,1.08,0,0,1-.71.45l-4.14,1a2.12,2.12,0,0,1-1.22,0,1,1,0,0,1-.5-.76.88.88,0,0,1,.18-.88,3.19,3.19,0,0,1,1.37-.55l.63-.15-3.27-12.6-.94,9.16a1.82,1.82,0,0,1-.35,1,1.66,1.66,0,0,1-.91.46,1.58,1.58,0,0,1-1,0,1.72,1.72,0,0,1-.73-.72l-5-7.79,2.7,12.74,1-.23a2.36,2.36,0,0,1,1.28-.05.89.89,0,0,1,.53.7,1,1,0,0,1-.11.9,2.24,2.24,0,0,1-1.13.51l-4.12,1a1.1,1.1,0,0,1-.84-.08,1.13,1.13,0,0,1-.44-.74.91.91,0,0,1,.13-.88,2.78,2.78,0,0,1,1.24-.51l.32-.08-2.71-13.51-.23.06a2.27,2.27,0,0,1-1.17.05.9.9,0,0,1-.49-.71,1,1,0,0,1,.07-.8,1,1,0,0,1,.66-.43l2.42-.56a1.91,1.91,0,0,1,1.09,0,1.54,1.54,0,0,1,.74.64Z"/><path class="cls-10" d="M294.66,258.77l1-10a1.56,1.56,0,0,1,.38-.9,1.91,1.91,0,0,1,1-.48l2.42-.57a1,1,0,0,1,.77.09,1.14,1.14,0,0,1,.42.69.9.9,0,0,1-.12.85,2.18,2.18,0,0,1-1.07.47l-.23.06,3.55,13.31.34-.08a2.53,2.53,0,0,1,1.33-.08.9.9,0,0,1,.51.72,1.13,1.13,0,0,1-.08.85,1,1,0,0,1-.7.46l-4.14,1a2,2,0,0,1-1.22,0,1,1,0,0,1-.51-.75.85.85,0,0,1,.19-.88,3.11,3.11,0,0,1,1.36-.56l.63-.14-3.27-12.61-.94,9.16a1.79,1.79,0,0,1-.34,1,1.69,1.69,0,0,1-.92.46,1.58,1.58,0,0,1-1,0,1.72,1.72,0,0,1-.73-.72l-4.94-7.78,2.7,12.73,1-.23a2.47,2.47,0,0,1,1.28,0,.93.93,0,0,1,.54.7,1,1,0,0,1-.12.9,2,2,0,0,1-1.12.51l-4.13,1a1.06,1.06,0,0,1-.84-.09,1.11,1.11,0,0,1-.44-.73.9.9,0,0,1,.14-.88,2.55,2.55,0,0,1,1.23-.52l.32-.07-2.71-13.51-.23.05a2.16,2.16,0,0,1-1.17,0,.92.92,0,0,1-.49-.7,1.08,1.08,0,0,1,.07-.81,1,1,0,0,1,.67-.42l2.41-.57a2,2,0,0,1,1.1,0,1.49,1.49,0,0,1,.73.63Z"/><path class="cls-10" d="M315.62,261.52l-2.33.54-.66.16a1.21,1.21,0,0,1-.88-.07,1.11,1.11,0,0,1-.46-.74,1,1,0,0,1,.13-.87,2.43,2.43,0,0,1,1.15-.5l.27-.06-3.11-13.28-.23.05a2.27,2.27,0,0,1-1.28.05,1,1,0,0,1-.52-.74,1.12,1.12,0,0,1,.08-.87,1.25,1.25,0,0,1,.79-.46l.64-.15,2.32-.54,3.26-.76a7.79,7.79,0,0,1,6.41,1,9.28,9.28,0,0,1,3.67,5.87,10.67,10.67,0,0,1,.23,3.79,9.19,9.19,0,0,1-1.13,3.38,6.84,6.84,0,0,1-2.3,2.3,14,14,0,0,1-4,1.47c-.19.05-.53.12-1,.21Zm-.48-2.08c.32,0,.63-.09.95-.15l.91-.19q3.63-.86,4.93-2.86c.88-1.35,1-3.18.5-5.51s-1.51-3.91-2.89-4.71-3.32-.92-5.8-.33c-.46.1-.81.19-1.05.26a5.13,5.13,0,0,0-.66.21Z"/></g></svg>
