<?xml version="1.0" encoding="utf-8"?>
<!-- Generator: Adobe Illustrator 24.3.0, SVG Export Plug-In . SVG Version: 6.00 Build 0)  -->
<svg version="1.1" id="Layer_1" xmlns="http://www.w3.org/2000/svg" xmlns:xlink="http://www.w3.org/1999/xlink" x="0px" y="0px"
	 viewBox="0 0 1253 719" style="enable-background:new 0 0 1253 719;" xml:space="preserve">
<style type="text/css">
	.st0{fill:#AFAB9D;}
</style>
<image style="overflow:visible;enable-background:new    ;" width="1897" height="2528" id="Background" xlink:href="4DE47D6C76B5FB35.png"  transform="matrix(0.2601 0 0 0.2601 -819.3167 61.3735)">
</image>
<path class="st0" d="M-822.3,52.6C-836,56.3-845,67-849.3,80c-1.3,3.9-1.5,8.1-2.4,12.1c-2.2,10.1-3.9,19.7-1.2,29.9
	c2,7.2,6,13.8,11.5,18.9c3.9,3.6,8.5,6.4,12.7,9.5l-6.1-4.7c1.4,1.1,2.6,2.3,3.7,3.6l-4.7-6.1c1,1.4,1.9,2.9,2.7,4.5l-3-7.2
	c0.5,1.2,0.9,2.5,1.1,3.8l-1.1-8c0.2,1.4,0.2,2.8,0,4.1l1.1-8c-0.3,1.6-0.7,3.2-1.3,4.7l3-7.2c-1.1,2.5-2.5,4.8-4.2,6.9l4.7-6.1
	c-5.3,6.8-11.9,13-15.6,20.9c-5,10.2-7.5,21.4-7.5,32.7c0,12.2,4.8,24,13.4,32.7c2.4,2.5,4.9,4.8,7.6,7c4.6,3.7,9.5,6.6,14.2,10.1
	l-6.1-4.7c3.6,2.9,7,6.1,10.9,8.6c1.5,1,3.1,1.9,4.6,3l-6.1-4.7c0.4,0.3,0.8,0.7,1.1,1.1l-4.7-6.1l0.4,0.6l-3-7.2
	c0.2,0.5,0.4,1,0.5,1.6l-1.1-8c0.1,3,0,6.1-0.5,9.1l1.1-8c-0.7,4.8-2,9.4-3.9,13.9l3-7.2c-1.5,3.4-3.3,6.7-5.5,9.7l4.7-6.1
	c-4.9,6-10.1,11.8-15.6,17.3c-6.3,6.5-13.4,11.3-17.8,19.7c-4.1,7.8-5.4,15.7-5.4,24.4c0,7.1,1,14.8,4.8,21
	c2.5,4.1,5.7,7.8,9.4,10.9c3.1,2.7,6.5,5.2,10.1,7.2c1.9,1,3.6,2,5.4,3.2l-6.1-4.7c1.9,1.6,3.7,3.4,5.2,5.3l-4.7-6.1
	c1.9,2.5,3.5,5.2,4.8,8.1l-3-7.2c1.5,3.8,2.5,7.7,3,11.8l-1.1-8c0.4,3.7,0.5,7.3,0,11l1.1-8c-0.3,1.9-0.8,3.8-1.5,5.7l3-7.2
	c-1.6,3.5-3.6,6.8-6,9.8l4.7-6.1c-4.7,6.1-10.2,11.9-13.7,18.8c-4.8,9.7-7,18.8-7.8,29.6c-0.2,2.7-0.2,5.4,0.2,8.1
	c0.8,7.3,1.8,14.4,6,20.7c2.7,4.3,6.1,8.1,9.9,11.5c2.2,1.7,4.3,3.7,6.1,5.8l-4.7-6.1c0.5,0.7,1,1.5,1.4,2.3l-3-7.2
	c0.3,0.8,0.5,1.6,0.6,2.5l-1.1-8c0.3,3.7,0.1,7.4,0.1,11.1c0,3.9,0.5,8,0.1,11.9l1.1-8c-0.1,0.6-0.3,1.2-0.5,1.8l3-7.2
	c-0.6,1.3-1.6,2.5-2.3,3.7c-3.3,5.5-4.2,11.6-4.7,17.9l1.1-8l-0.2,0.7l3-7.2l-0.5,0.8l4.7-6.1c-4.4,5.4-8.3,10.5-11.1,16.8
	c-4,9-6.2,16-7,26c-0.6,8.7,1.1,18,5.6,25.6c3.3,5.6,8,9.2,12,14.1l-4.7-6.1c0.8,1.1,1.5,2.2,2,3.4l-3-7.2c0.5,1.4,0.9,2.9,1.2,4.3
	l-1.1-8c0.1,1.4,0.1,2.8,0,4.2l1.1-8c-0.4,2.5-1.1,4.9-2.1,7.2l3-7.2c-5.2,11.8-15,22.5-17.5,35.4c-1.5,7.3-1.9,13.6,0,20.9
	c1.9,7,5.4,13.3,10.4,18.6c3.5,3.8,7.6,7,12.3,9.4c2.6,1.2,5.1,2.5,7.6,4l-6.1-4.7c0.8,0.6,1.5,1.3,2.2,2.1l-4.7-6.1
	c0.6,0.8,1,1.6,1.4,2.5l-3-7.2c0.6,1.4,0.9,2.9,1.2,4.4l-1.1-8c0.3,3.4,0.1,6.8,0.3,10.2c0.3,3.8,0.3,7.7,0,11.5l1.1-8
	c-0.2,1.1-0.5,2.1-0.9,3.1l3-7.2c-0.6,1.2-1.3,2.4-2.2,3.5l4.7-6.1c-8.1,10.3-16.8,19.6-20.8,32.3c-3.2,10.1-2.1,22.5,3.3,31.7
	c4.7,8,11.3,12.6,18.6,17.9l-6.1-4.7c2.4,1.9,4.5,4,6.4,6.3l-4.7-6.1c0.8,1.1,1.4,2.2,2,3.4l-3-7.2c0.6,1.6,1.1,3.3,1.3,5l-1.1-8
	c0.3,2.1,0.3,4.2,0.1,6.3l1.1-8c-0.2,1.4-0.6,2.7-1.1,4l3-7.2c-0.3,0.6-0.6,1.2-1,1.8l4.7-6.1c-0.9,1.1-1.8,2-2.9,2.9l6.1-4.7
	c-6.2,4.7-11.8,8.7-15.3,16c-2.3,4.8-3.8,10-4.6,15.3c-1.3,7.7-2.9,15.2-4.5,22.8c-2.3,10.8-3.2,21.5-1.3,32.3
	c1.2,6.9,5.2,13.3,10,18.3c4.3,4.5,8.2,5.3,12.8,8.5l-6.1-4.7c2.3,1.9,4.4,3.9,6.3,6.2l-4.7-6.1c0.3,0.3,0.5,0.7,0.6,1.1l-3-7.2
	l0.1,0.5l-1.1-8c0.1,0.3,0.1,0.7,0,1l1.1-8c-0.1,0.4-0.2,0.7-0.4,1.1l3-7.2c-2.7,5.8-6.1,11.3-7.8,17.5c-4.2,15,2.7,31.5,16,39.4
	c9.3,5.4,20.3,7,30.8,4.5c9.5-2.4,16.1-8.2,23.6-14.2l-6.1,4.7c3.4-2.6,7.2-4.7,11.1-6.4l-7.2,3c2.5-1.1,5.2-1.8,7.9-2.2l-8,1.1
	c1.2-0.1,2.5-0.2,3.7-0.1l-8-1.1c0.9,0.1,1.8,0.3,2.7,0.6l-7.2-3c0.8,0.4,1.6,0.8,2.4,1.3l-6.1-4.7c2.1,1.9,4.2,3.8,6.1,5.9
	c2.4,2.3,5.2,4.1,7.3,6.7l-4.6-6.1c4.5,6.1,8.4,11.8,15.3,15.5c9,4.7,19.4,5.8,29.2,3.1c10.8-2.9,18.8-10,27.3-16.8l-6.1,4.7
	c2.8-2.2,5.9-4,9.2-5.4l-7.2,3c3.3-1.4,6.8-2.4,10.3-3l-8,1.1c2.4-0.3,4.9-0.4,7.3-0.2l-8-1.1c4.4,0.6,8.5,2.2,12.7,3.6
	c6.5,2.1,13.2,3.4,20,3.9c4.2,0.4,8.3,0.5,12.5,0.3c6.3-0.5,9.9-1.2,15.2-3.4c3.2-1.3,5.6-3.2,8.7-4.7l-7.2,3
	c7-2.6,14.4-4.4,21.9-5.3l-8,1.1c2.3-0.3,4.7-0.3,7-0.1l-8-1.1c2,0.3,4,0.8,5.9,1.6l-7.2-3c1.7,0.8,3.3,1.7,4.8,2.9l-6.1-4.7
	c4.4,3.5,8.6,7.5,13.4,10.4c7.1,4.2,14.7,6,22.9,6.5c5.7,0.3,11.5-0.5,16.9-2.4c5.8-2.1,10.7-5.1,16.2-7.6l-7.2,3
	c3.8-1.6,7.7-2.6,11.8-3.2l-8,1.1c7.4-1,14.9-1.2,22.3-0.6l-8-1.1c1.1,0.2,2.3,0.5,3.4,0.9l-7.2-3c2.1,1.2,4.2,2.6,6.1,4.1
	c3.9,2.6,8.3,4.5,12.8,5.7c2.5,0.7,5.1,1.2,7.7,1.5c4.4,0.7,8.8,1.7,13.3,1.3c8.7-0.6,17-3.2,24.5-7.6c3.5-2.1,6.9-4.5,10.6-6.2
	l-7.2,3c2.1-0.8,4.3-1.4,6.5-1.8l-8,1.1c1.5-0.2,3-0.2,4.5-0.1l-8-1.1c1.2,0.2,2.3,0.5,3.4,1l-7.2-3c1.2,0.6,2.3,1.3,3.4,2.1
	l-6.1-4.7c0.9,0.8,1.8,1.6,2.6,2.6l-4.7-6.1c1.7,2.2,3,4.6,4.6,6.9c4.3,6.2,8.8,11.4,15.4,15.2c8.6,5,19.6,6.7,29.3,6.3
	c12.7-0.5,23.5-4.5,33.1-12.8c6.1-5.3,9.5-12.7,14.4-19l-4.7,6.1c1.7-2.2,3.6-4.1,5.8-5.8l-6.1,4.7c1.5-1.1,3-2,4.7-2.7l-7.2,3
	c1.4-0.5,2.9-0.9,4.5-1.2l-8,1.1c1.6-0.2,3.2-0.2,4.8,0l-8-1.1c0.8,0.2,1.7,0.4,2.5,0.7l-7.2-3c3,1.4,5.7,3.1,8.2,5.1l-6.1-4.7
	c3.9,3.1,7.7,6.3,11.6,9.2c4.2,3.2,9,5.2,14,7s10.8,2.4,16,2.8c5.1,0.3,10.3-0.4,15.2-1.8c9-2.7,17.2-7.8,23.8-14.6
	c3.7-3.8,6.7-8.4,10.9-11.8l-6.1,4.8c1.3-0.9,2.8-1.7,4.3-2.4l-7.2,3c2.1-0.9,4.4-1.5,6.7-1.9l-8,1.1c1-0.1,2-0.1,3-0.1l-8-1.1
	c1.2,0.2,2.4,0.5,3.6,1l-7.2-3c3.9,1.9,7.2,4.9,10.9,7.1c2.8,1.7,5.7,3.4,8.7,4.8c14.9,7.2,31.9,11.3,47.2,2
	c18.3-11.2,21.6-34.1,16.2-53.3c-1.8-6.9-4.8-13.5-8.8-19.4c-4.4-6.1-9.3-11.3-14-17l4.7,6.1c-1.2-1.5-2.2-3.2-3-4.9l3,7.2
	c-0.4-1-0.7-2.1-1-3.1l1.1,8c-0.1-0.9-0.1-1.8-0.1-2.7l-1.1,8c0.1-0.8,0.3-1.6,0.6-2.3l-3,7.2c0.6-1.2,1.3-2.4,2.1-3.5l-4.7,6.1
	c3.7-4.7,8.2-8.9,11.1-14.1c4.7-8.3,6.3-17.3,7.1-26.7c0.8-9.2-1.8-18.7-6-26.7c-2.5-4.8-6.3-8.7-8.7-13.6l3,7.2
	c-0.4-0.9-0.6-1.8-0.8-2.8l1.1,8c0-0.8,0-1.6,0.1-2.4l-1.1,8c1.1-5.1,1.8-10.2,2.2-15.4c0.2-3.3,0.1-6.6,0.5-10l-1.1,8
	c0.3-1.9,0.8-3.8,1.5-5.6l-3,7.2c1.8-4,4.6-7.4,7-11.1c4.7-7.1,7.3-15.4,7.4-23.9c0.3-16.4-11-27.8-17.5-41.7l3,7.2
	c-0.2-0.4-0.3-0.9-0.4-1.4l1.1,8c-0.1-0.5,0-1,0-1.5l-1.1,8c0.1-0.6,0.3-1.2,0.6-1.8l-3,7.2c2.5-5.2,6.7-9.2,9.5-14.2
	c5.2-9.4,7.6-18.9,8.5-29.5c1.4-17.2-7.1-31.3-13.9-46.2l3,7.2c-0.6-1.4-1-2.9-1.2-4.5l1.1,8c-0.2-3.1,0.2-6.1,0.1-9.2
	s-0.3-6.1-0.6-9.2c-0.5-6.3-0.9-12.5-0.1-18.8l-1.1,8c0.4-3,1.1-6,2.2-8.8l-3,7.2c1.9-4.5,4.9-8.2,6.9-12.7
	c4.1-9.4,6.6-17.7,6.9-28.1c0.3-9-1.7-18.4-6.6-26c-3.6-5.8-8.5-9.8-12.6-15.1l4.7,6.1c-1.8-2.6-3.3-5.4-4.6-8.3l3,7.2
	c-0.9-2-1.5-4-1.9-6.1l1.1,8c-0.1-0.8-0.1-1.5-0.1-2.3l-1.1,8c0-0.5,0.2-1,0.4-1.5l-3,7.2c1-2,2.4-3.7,3.3-5.6
	c2.2-4.3,3.7-8.9,5.4-13.4l-3,7.2c3-7,7-13.5,9.2-20.9c2.6-9.1,2.8-19.5-0.4-28.5c-2-5.8-4.4-11.4-7.3-16.8c-1.9-3.5-3.9-7-5.5-10.7
	l3,7.2c-1-2.3-1.7-4.7-2.2-7.1l1.1,8c-0.2-1.2-0.2-2.4-0.1-3.7l-1.1,8c0.1-0.7,0.3-1.3,0.5-2l-3,7.2c0.4-1,1-1.9,1.6-2.7l-4.7,6.1
	c1-1.1,2.1-2.2,3.3-3.1l-6.1,4.7c8-6.1,15.9-11,21.1-20c6.4-11.1,6.1-23.3,4.2-35.4c-0.9-4.9-2.1-9.8-3.7-14.6
	c-2-6.7-5.5-12.7-6.6-19.6l1.1,8c-0.4-2.7-0.4-5.4,0-8.1l-1.1,8c0.8-4.6,2.5-8.9,3.9-13.3c1.7-5.3,3-10.8,4.3-16.2
	c2.1-8.8,4.3-17.9,1.8-27c-2.4-8.8-6.6-13.6-12.1-20.6l4.7,6.1c-1.2-1.7-2.3-3.5-3.1-5.5l3,7.2c-2.1-5.1-3.8-10.3-4.9-15.7l1.1,8
	c-0.3-1.9-0.3-3.9-0.1-5.9l-1.1,8c0.5-3.1,1.4-6.1,2.6-9l-3,7.2c2.4-5.6,5.3-10.8,7.8-16.3c4.6-10.2,7.6-18.9,8.7-30.2
	c0.5-5.1-0.3-10.3-1.2-15.3c-1-4.9-2.8-9.6-5.3-13.9c-3.6-6.5-9.2-11.6-13.8-17.4l4.7,6.1c-1.2-1.6-2.3-3.3-3.1-5.1l3,7.2
	c-0.4-1-0.7-2.1-0.9-3.2l1.1,8c-0.5-4.3,0.2-7-1.2-12.1c-2.5-8.9-8.7-15.4-16.4-20.1c-4.1-2.9-8.4-4-13-4.9
	c-4.8-0.9-9.7-2.1-14.6-1.8c-10.8,0.5-20.5,4-29.8,9.3c-4.9,2.8-9.2,6.4-14.4,8.8l7.2-3c-1.6,0.7-3.2,1.2-4.9,1.5l8-1.1
	c-1.3,0.2-2.6,0.2-3.9,0l8,1.1c-0.9-0.2-1.8-0.4-2.7-0.8l7.1,3c-1.9-0.9-3.8-2-5.5-3.1c-3.8-2.3-7.8-4.2-12-5.7
	c-6.7-2.5-13.8-3.9-21-4.2c-15.5-0.8-27.5,8.4-41,14.2l7.2-3c-2.7,1.2-5.5,2.2-8.5,2.7l8-1.1h-1.2l8,1.1c-0.9-0.2-1.9-0.4-2.8-0.8
	l7.2,3c-1.7-0.8-3.2-1.8-4.6-2.9l6.1,4.7c-4.8-3.9-9.2-7.9-14.2-11.7c-4.7-3.5-10.5-5.8-16-7.6c-4-1.3-8.2-2-12.4-1.9
	c-7.3,0.2-12.5,2-19,5c-5.6,2.5-10.2,6.4-15,10.3l6.1-4.7c-0.7,0.5-1.4,0.9-2.1,1.3l7.2-3c-0.8,0.3-1.7,0.5-2.6,0.6l8-1.1
	c-3.5,0.3-6.8-0.3-10.3-0.4c-6.2-0.2-12.4,1.6-18.5,2.6l8-1.1c-1.8,0.2-3.6,0.2-5.4,0l8,1.1c-2-0.4-4-1-5.9-1.7l7.2,3
	c-6.5-2.8-12.6-6.3-19.4-8.8c-8.5-3.1-18.9-3-27.4-0.4c-11.5,3.5-20.2,11.2-31.1,15.8l7.2-3c-0.7,0.3-1.5,0.5-2.3,0.7l8-1.1
	c-1.1,0.1-2.2,0.1-3.4,0l8,1.1c-2.6-0.5-5.2-1.3-7.6-2.4l7.2,3c-5.6-2.4-10.6-5.8-16-8.7c-4.3-2.3-8.7-4.2-13.3-5.7
	c-4.9-1.6-10.1-2-15.2-2.6l8,1.1c-5.2-0.8-10.4-2.3-15.7-2c-7.9,0.4-15.5,2.8-22.1,7c-4.4,2.7-8.5,6-12.2,9.7
	c-1.8,2.1-3.8,4.1-5.8,6l6.1-4.7c-1.2,0.9-2.5,1.7-3.9,2.3l7.2-3c-1.5,0.6-3,1-4.6,1.2l8-1.1c-1.9,0.2-3.9,0.2-5.8,0l8,1.1
	c-2.7-0.5-5.4-1.3-8-2.3l7.2,3c-3.2-1.6-6.2-3.5-9-5.7l6,4.7c-5.8-4.5-11.3-9.4-18-12.5c-6.5-3.2-13.5-5.1-20.6-5.6
	c-4.8-0.3-9.6,0.1-14.3,1.1c-13,2.5-23,11.4-34.8,16.4l7.2-3c-3.5,1.4-7,2.5-10.7,3.1l8-1.1c-1.2,0.2-2.4,0.2-3.6,0.1l8,1.1
	c-1.3-0.2-2.5-0.5-3.7-1l7.2,3c-1.7-0.8-3.3-1.8-4.7-3l6.1,4.7c-4.5-3.7-9-7.6-14-10.5c-5.2-2.9-10.6-5.3-16.3-7.1
	c-7.1-2.4-14.5-4-22-4.8c-5.5-0.7-11.7-2.1-17.2-1.9c-7.8,0.3-13.9,2.2-20.8,5.7c-4.9,2.4-8.8,6.4-13.7,8.7l7.2-3
	c-1.2,0.5-2.5,0.9-3.9,1.1l8-1.1c-1.2,0.2-2.3,0.2-3.5,0.1l8,1.1c-0.9-0.2-1.7-0.4-2.5-0.8l7.2,3c-4.2-2.1-8.2-4.5-12.8-5.8
	c-6.8-1.9-14.1-1.8-20.9,0.1c-8.9,2.6-15.9,8.3-21,15.9c-4.1,6.1-5.4,12.7-5.9,19.9c-0.5,7.4,3.7,16.1,8.8,21.2s13.7,9.1,21.2,8.8
	c7.8-0.3,15.8-2.9,21.2-8.8c5.4-5.8,8.5-13.3,8.8-21.2l0.1-0.9l-1.1,8c0.1-0.6,0.2-1.1,0.4-1.7l-3,7.2c0.3-0.8,0.8-1.5,1.3-2.2
	l-4.7,6.1c0.4-0.4,0.8-0.8,1.2-1.2l-6.1,4.6c0.5-0.3,0.9-0.6,1.5-0.8l-7.2,3c0.5-0.2,1.1-0.4,1.7-0.5l-8,1.1c0.9-0.1,1.9-0.1,2.8,0
	l-8-1.1c0.6,0.1,1.2,0.3,1.7,0.5l-7.2-3c1.5,0.7,2.9,1.5,4.4,2.3c6.2,3.2,11.1,4.8,18.1,5.1c8.2,0.3,15.3-2,22.5-5.4
	c5.3-2.5,9.4-6.8,14.8-9.1l-7.2,3c1.2-0.5,2.5-0.8,3.8-1l-8,1.1c3.3-0.3,6.7,0.4,10,0.8l-8-1.1c8.6,1.2,17.1,2.8,25.1,6l-7.2-3
	c3.8,1.5,7.3,3.6,10.5,6l-6.1-4.7c7.3,5.9,13.9,11.6,23.3,14.2c9,2.4,18.2,1.4,27.1-1.2c6.9-2.1,13.6-5,19.8-8.6
	c4.6-2.6,9-5.6,13.8-7.7l-7.2,3c2.3-1,4.8-1.6,7.3-2l-8,1.1c1.8-0.2,3.5-0.1,5.3,0.1l-8-1.1c1.9,0.3,3.7,0.8,5.5,1.5l-7.2-3
	c3.4,1.6,6.5,3.5,9.4,5.8l-6.1-4.7c5.6,4.4,11.1,9.3,17.6,12.4c8.8,4.1,18.5,7.3,28.4,6.5c11.8-1,22.2-4.8,31-12.9
	c3.2-2.9,5.7-6.3,9.1-9l-6.1,4.7c1.7-1.3,3.5-2.4,5.4-3.3l-7.2,3c1.2-0.5,2.5-0.9,3.8-1.1l-8,1.1c0.9-0.1,1.9-0.1,2.8,0l-8-1.1
	c4.7,0.8,9.3,1.5,14,2.1l-8-1.1c3,0.4,5.9,1.2,8.7,2.4l-7.2-3c5.3,2.3,10,5.7,15.1,8.3c8.8,4.4,18.8,8.8,28.9,8.6
	c9.6-0.2,17.6-4,25.8-8.5c4.9-2.7,9.5-6,14.7-8.3l-7.2,3c1.9-0.8,3.9-1.3,6-1.6l-8,1.1c1.4-0.1,2.7-0.1,4.1,0.1l-8-1.1
	c2,0.4,3.9,1,5.8,1.8l-7.2-3c6.9,3.1,13.5,7.1,20.9,9.2c4.8,1.4,9.8,2,14.7,1.7c5.5-0.3,10.6-1.7,16-2.6l-7.7,1.1
	c4.5-0.6,8.9,0.5,13.4,0.2c6.5-0.4,13.2-1.5,18.9-5.1c3.7-2.3,7-5.3,10.4-8l-6.1,4.7c1.9-1.3,3.9-2.4,6-3.2l-7.2,3
	c1-0.4,1.9-0.6,3-0.8l-8,1.1c0.6-0.1,1.2-0.1,1.8,0l-8-1.1c2.1,0.3,4.1,0.9,6,1.7l-7.2-3c2.3,0.9,4.4,2.2,6.4,3.7l-6.1-4.7
	c4.9,3.9,9.4,8.1,14.5,11.9c3.5,2.4,7.4,4.3,11.4,5.6c6.4,2.3,13.2,2,19.8,0.8c11.3-2,21.1-9,31.4-13.6l-7.2,3
	c2.2-1,4.6-1.7,6.9-2.1l-8,1.1c1.9-0.2,3.8-0.1,5.7,0.1l-8-1.1c3.9,0.6,7.7,1.7,11.4,3.2l-7.2-3c4.5,2.2,8.5,5,13.1,6.9
	c9,3.8,19.6,4.8,29.1,1.6c6.2-2.1,12.1-5,17.5-8.7c3.9-2.7,8-5.1,12.4-7l-7.2,3c2.1-0.9,4.3-1.5,6.6-1.9l-8,1.1
	c1.5-0.2,3.1-0.2,4.6-0.1l-8-1.1c3.3,0.3,6.5,1,9.6,2.1l-7.2-3c0.5,0.3,1,0.6,1.4,0.9l-6.1-4.7c0.4,0.3,0.7,0.6,1,0.9l-4.7-6.1
	l0.2,0.4l-3-7.2l0.1,0.4l-1.1-8c0,8.9,1.7,17.5,6.6,25.1c3.8,5.9,8.8,10.8,13.1,16.3l-4.7-6.1c1.2,1.6,2.3,3.3,3.1,5.2l-3-7.2
	c0.7,1.9,1.2,3.9,1.4,5.9l-1.1-8c0.2,2.4,0.2,4.9-0.1,7.3l1.1-8c-0.7,4.1-1.9,8.2-3.6,12l3-7.2c-6.2,14.4-14.8,27.5-15.5,43.7
	c-0.3,8.1,2,15.6,4.4,23.2c1.4,4.5,3.2,9,5.3,13.3c2.2,4.6,5.5,8.3,8.6,12.2l-4.7-6.1c1,1.2,1.8,2.5,2.6,3.9l-3-7.2
	c0.2,0.6,0.4,1.2,0.5,1.8l-1.1-8c0.1,1,0.1,2,0,3l1.1-8c-1.4,8-3.3,15.9-5.8,23.6c-2.7,8.7-5.8,17.3-5.4,26.7c0.1,6,1.1,12,2.9,17.7
	c1.2,3.5,2.8,6.9,4.1,10.4c2.2,5.9,3.8,12.1,4.7,18.3l-1.1-8c0.3,2.2,0.3,4.3,0.2,6.5l1.1-8c-0.2,1.4-0.5,2.8-1.1,4.1l3-7.2
	c-0.4,0.8-0.8,1.5-1.3,2.2l4.7-6.1c-1.2,1.4-2.5,2.7-4,3.9l6.1-4.7c-7.5,5.7-14.8,10.4-20,18.6c-6.1,9.6-6.8,21.1-4.3,31.9
	c2.4,10.5,8.8,19,12.9,28.7l-3-7.2c1.4,3,2.4,6.1,3,9.3l-1.1-8c0.1,1.5,0.1,2.9,0,4.4l1.1-8c-0.4,2.3-1,4.6-1.9,6.9l3-7.2
	c-1.2,2.8-2.7,5.5-4,8.3c-2.2,4.7-4,9.6-5.9,14.5l3-7.2c-0.9,1.7-1.8,3.4-2.9,5c-3.4,5.5-5.2,11.9-5.3,18.4
	c-0.1,8.8,2.6,15.8,6.1,23.6c2.4,5.2,5.5,10,9.3,14.4c2.2,2.8,4.9,5.2,7.2,7.9l-4.7-6.1c0.9,1.1,1.6,2.4,2.2,3.7l-3-7.2
	c0.4,1.2,0.7,2.4,0.8,3.6l-1.1-8c0.3,2.8,0.2,5.6-0.2,8.4l1.1-8c-0.5,3.2-1.3,6.3-2.5,9.3l3-7.2c-1.5,3.1-3.2,6.2-5.1,9.1
	c-2.9,4.9-5,10.1-6.3,15.6c-2,9.1-2.6,18.4-1.9,27.6c0.5,6.7,0.7,13.3,0.6,20c0,13.1,7.1,23.7,12.2,35.2l-3-7.2
	c1.3,2.9,2.2,6,2.8,9.1l-1.1-8c0.4,3.2,0.4,6.5,0,9.7l1.1-8c-0.5,3.2-1.4,6.3-2.6,9.3l3-7.2c-1.9,4.3-4.7,7.8-7.5,11.6
	c-6,8.3-9.1,18.1-7.7,28.3c1.7,13,10.9,22.5,16.2,34l-3-7.2c0.5,1.1,0.8,2.3,1,3.5l-1.1-8c0.1,1.1,0.1,2.1,0,3.2l1.1-8
	c-0.2,1-0.5,2-0.8,3l3-7.2c-2.2,5.1-6.3,9.2-8.8,14.1c-4,7.9-5.5,14.2-6.3,23.1c-0.4,3.9-0.2,7.8-0.7,11.7l1.1-8
	c-0.7,4.4-1.9,8.8-2,13.2c-0.2,7.1,1.8,13.3,4.9,19.5c2.5,5,6.5,9.1,8.9,14.1l-3-7.2c0.7,1.7,1.2,3.4,1.5,5.2l-1.1-8
	c0.3,2.5,0.3,5.1,0,7.6l1.1-8c-0.4,2.9-1.1,5.7-2.1,8.4l3-7.2c-0.6,1.3-1.3,2.5-2.2,3.6l4.7-6.1c-3.4,4.3-7.1,8.1-10.2,12.7
	c-4.2,6.2-6.8,14.9-6.3,22.4c0.7,9.8,4.3,19.1,10.4,26.7c3.3,4.2,7,8.1,10.3,12.2l-4.7-6.1c2.1,2.6,3.8,5.4,5.2,8.5l-3-7.2
	c1.5,3.6,2.5,7.4,3.1,11.2l-1.1-8c0.3,2.3,0.3,4.5,0,6.8l1.1-8c-0.2,1.2-0.5,2.4-1,3.5l3-7.2c-0.4,0.7-0.8,1.5-1.3,2.1l4.6-5.8
	c-0.4,0.5-0.9,1-1.4,1.4l6.1-4.7c-0.3,0.2-0.7,0.5-1.1,0.6l7.2-3c-0.8,0.3-1.6,0.6-2.5,0.7l8-1.1c-1.2,0.1-2.3,0.1-3.5,0l8,1.1
	c-2.6-0.4-5.1-1.2-7.6-2.3l7.2,3c-4.5-2-8.9-4.4-13-7.1c-2.7-1.8-5.1-3.9-8-5.5c-6.8-3.6-14.8-6.2-22.6-5.5
	c-13.2,1.2-25.9,6-35.1,15.9c-3.9,4.2-7.3,9-11.9,12.5l6.1-4.7c-1.5,1.1-3.1,2-4.8,2.8l7.2-3c-1.3,0.5-2.7,0.9-4,1.1l8-1.1
	c-2.3,0.3-4.6,0.3-6.9,0l8,1.1c-2.3-0.3-4.6-1-6.8-1.8l7.2,3c-2.1-1-4.1-2.2-6-3.6l6.1,4.7c-5.7-4.6-11.2-9.9-17.8-13.4
	c-10.9-5.8-23.2-7.7-35.2-4.2c-9.1,2.7-17.2,7.8-23.6,14.7c-5.1,5.6-8.5,12-13.1,18l4.7-6.1c-1.1,1.3-2.3,2.6-3.7,3.6l6.1-4.7
	c-1.2,0.8-2.5,1.5-3.9,2l7.2-3c-1.4,0.5-2.9,0.9-4.3,1.1l8-1.1c-3.5,0.4-6.9,0.4-10.4-0.1l8,1.1c-2-0.3-4-0.7-5.9-1.4l7.2,3
	c-1-0.4-1.9-1-2.7-1.6l6.1,4.7c-0.9-0.8-1.7-1.6-2.4-2.6l4.7,6.1c-4-5.5-7.1-11.7-12.4-16.3c-8.6-7.4-19.4-12.8-31.1-12
	c-9.2,0.5-18.1,3.1-26.2,7.6c-3.8,2.2-7.4,4.8-11.4,6.7l7.2-3c-1.6,0.7-3.3,1.2-5,1.5l8-1.1c-1.6,0.2-3.1,0.2-4.7,0l8,1.1
	c-4-0.4-8-1.3-11.8-2.7l7.2,3c-2-1.2-4-2.6-5.9-4c-4-2.7-8.6-4.6-13.3-5.5c-7.8-1.5-15.7-1.2-23.6-0.9c-7.1,0.1-14.1,1.1-21,2.8
	c-7.3,2-13.8,5.9-20.7,9l7.2-3c-2,0.8-4,1.4-6.2,1.7l8-1.1c-1.4,0.1-2.9,0.1-4.3,0l8,1.1c-1.8-0.2-3.6-0.7-5.4-1.4l7.2,3
	c-1.5-0.8-3-1.7-4.3-2.7l6.1,4.7c-3.7-2.9-7.1-5.9-10.9-8.7c-4-2.7-8.3-4.8-12.9-6.3c-7.8-2.7-15.9-2.7-23.9-1.6
	c-6,0.9-12,2.1-17.8,3.6c-2.7,0.6-5.4,1.4-8,2.3c-4.3,1.7-8.5,3.8-12.4,6.2l7.2-3c-0.9,0.3-1.8,0.6-2.7,0.7l8-1.1
	c-5.3,0.5-10.6,0.4-15.8-0.4l8,1.1c-5.5-0.9-10.7-3-16-4.7c-10-3.1-19.4-3.1-29.6-1.3c-7.5,1.4-14.7,4.1-21.3,7.9
	c-6,3.3-11.1,8-16.5,12.3l6.1-4.7c-2.3,1.8-4.8,3.3-7.4,4.5l7.2-3c-1.1,0.4-2.3,0.7-3.5,0.9l8-1.1c-0.9,0.1-1.7,0.1-2.6,0l8,1.1
	c-0.6-0.1-1.2-0.2-1.7-0.4l7.2,3c-0.5-0.2-1-0.5-1.4-0.8l6.1,4.7c-0.4-0.3-0.8-0.7-1.1-1.2l4.7,6.1c-2.8-3.8-5.3-7.9-8.9-11
	c-2.1-1.9-4.4-3.7-6.4-5.8c-8.7-9-18.7-14.8-31.5-15.4c-10.3-0.5-19.9,3.1-28.9,7.4c-7,3.4-12.8,8.6-18.9,13.3l6.1-4.7
	c-1.1,0.8-2.3,1.6-3.6,2.2l7.2-3c-1,0.5-2.2,0.8-3.3,1l8-1.1c-1,0.1-1.9,0-2.9-0.1l8,1.1c-1-0.2-1.9-0.4-2.9-0.8l7.2,3
	c-0.6-0.3-1.3-0.7-1.8-1.1l6.1,4.7c-0.4-0.3-0.7-0.6-0.9-1l4.7,6.1c-0.3-0.4-0.5-0.8-0.6-1.2l3,7.2l-0.2-0.7l1.1,8
	c-0.1-0.5-0.1-1-0.1-1.5l-1.1,8c0.2-1.2,0.6-2.3,1.1-3.4l-3,7.2c1.2-2.6,2.6-5.2,3.9-7.8c2.7-5.6,4.3-10.4,4.5-16.7
	c0.2-5.5-1.8-11.9-4.5-16.7c-2.8-4.5-6.2-8.5-10.2-11.9c-2.8-2.6-5.8-4.9-9.2-6.8c-1.5-0.7-3-1.5-4.5-2.3l6.1,4.7
	c-0.5-0.3-0.9-0.8-1.2-1.2l4.7,6.1c-0.3-0.5-0.6-1-0.8-1.5l3,7.2c-0.3-0.9-0.5-1.7-0.7-2.6l1.1,8c-0.3-4-0.1-8,0.5-12l-1.1,8
	c0.9-6.1,2.8-11.9,3.8-18c1-5.7,1.4-11.8,3-17.4l-3,7.2c0.2-0.7,0.5-1.3,0.9-1.8l-4.7,6.1c0.8-1,1.8-1.9,2.8-2.7l-6.1,4.7
	c3.4-2.6,7-4.9,9.8-8.1c4.4-4.8,7.6-10.7,9.4-17c2.2-8.8,2.2-18.1-0.2-26.9c-2.2-8.3-7-15.7-12.9-21.7c-4.4-4.5-9.8-7.9-14.8-11.7
	l6.1,4.7c-0.7-0.6-1.4-1.2-2-1.9l4.7,6.1c-0.5-0.7-1-1.5-1.4-2.3l3,7.2c-0.3-0.8-0.5-1.7-0.7-2.5l1.1,8c-0.1-0.9-0.1-1.7,0-2.6
	l-1.1,8c0.2-1.5,0.6-2.9,1.1-4.3l-3,7.2c1.5-3.2,3.3-6.2,5.5-9l-4.7,6.1c4.7-6,10.6-11.6,14-18.4c3.4-6.9,5.2-14.5,5.3-22.1
	c0.1-3.5-0.3-7-0.4-10.4c-0.2-10-0.8-20.3-6.6-28.8c-4-6.2-9.5-11.3-16-14.9c-2.9-1.5-5.9-2.6-8.5-4.6l6.1,4.7
	c-1.2-1-2.3-2.1-3.2-3.3l4.7,6.1c-0.6-0.9-1-1.8-1.5-2.7l3,7.2c-0.3-0.9-0.5-1.8-0.7-2.7l1.1,8c-0.1-0.9-0.1-1.8,0-2.7l-1.1,8
	c0.3-1.9,0.8-3.7,1.5-5.4l-3,7.2c2.1-4.7,5-8.9,7.4-13.4c3.8-6.8,7.6-13.5,9.9-21c3.8-12.1,2.1-24.6-3.3-35.8
	c-3.1-6.4-8.5-10.8-13-16l4.7,6.1c-0.7-0.9-1.3-1.9-1.8-3l3,7.2c-0.3-0.9-0.5-1.9-0.7-2.9l1.1,8c-0.2-2.8-0.2-5.7,0.2-8.5l-1.1,8
	c0.5-2.5,1.2-5,2.2-7.4l-3,7.2c1.4-3.3,3-6.5,5-9.5l-4.7,6.1c2.4-3,5.3-5.9,7.1-9.2c3.2-5.6,3.9-11.1,4.5-17.5l-1.1,8l0.2-0.7
	l-3,7.2c5-8.1,7.6-15.9,7.1-25.6c-0.2-5.4,0.1-10.9,0-16.3c-0.2-11-3.8-19.9-10.9-28.1c-3.1-3.7-7.3-6.3-10.5-10l4.7,6.1
	c-0.8-1-1.4-2-1.9-3.2l3,7.2c-0.4-1.2-0.6-2.3-0.8-3.5l1.1,8c-0.4-3.4-0.4-6.8,0.1-10.2l-1.1,8c0.5-3.6,1.4-7.2,2.7-10.6l-3,7.2
	c1.6-3.5,3.7-6.8,6.1-9.8l-4.7,5.9c5.1-6.5,10.9-12.8,14.3-20.4c3.4-7.2,5.3-15,5.8-22.9c0.4-5.8-0.6-11.7-1.4-17.4
	c-0.5-3.5-1.3-6.9-2.5-10.2c-1.9-5.1-4-10.5-7.2-15c-3.2-4.5-6.6-9.2-10.9-12.7c-3.1-2.7-6.4-5-9.9-7.1c-1.7-0.9-3.4-1.9-5-3
	l6.1,4.7c-1.6-1.2-3.1-2.5-4.4-4l4.7,6.1c-0.3-0.4-0.6-0.9-0.9-1.4l3,7.2c-0.2-0.6-0.4-1.1-0.5-1.7l1.1,8c-0.3-3.1-0.3-6.3,0-9.4
	l-1.1,8c0.2-1.1,0.5-2.2,1-3.3l-3,7.2c0.6-1.1,1.2-2.2,2-3.2l-4.7,6.1c2.5-2.8,5.2-5.5,8.2-7.9c2.9-2.6,5.3-5.5,8-8.3
	c7.2-7.7,15-15.3,19.7-24.9c5.4-10.8,8.6-22.5,9.4-34.6c0.6-8.2-0.4-15.7-4.3-23.1c-3.9-7.4-10.7-11-17.1-15.6l6.1,4.8
	c-3.8-3.1-7.5-6.2-11.5-9.1c-2.2-1.6-4.6-2.8-6.7-4.4l6.1,4.7c-3.7-2.8-7-6-9.9-9.5l4.7,6.1c-0.6-0.9-1.2-1.8-1.6-2.8l3,7.2
	c-0.5-1.2-0.8-2.5-1-3.8l1.1,8c-0.3-3.5-0.1-7,0.4-10.4l-1.1,8c0.4-2.9,1.2-5.7,2.2-8.4l-3,7.2c1.2-2.7,2.7-5.3,4.5-7.7l-4.7,6
	c4.3-5.5,9-10.6,13-16.4c5.3-7.7,8.3-16.8,8.6-26.2c0.1-9.4-2.7-18.7-8.1-26.4c-4.5-6.5-8.1-9.7-14.5-14.4c-1.9-1.4-3.9-2.7-5.8-4.2
	l6.1,4.7c-1.1-0.9-2.1-1.9-3-3l4.7,6.1c-0.5-0.8-1-1.6-1.3-2.5l3,7.2c-0.3-0.9-0.5-1.7-0.6-2.6l1.1,8c-0.2-1.5-0.2-3.1,0-4.6l-1.1,8
	c0.5-3.7,1.6-7.3,2.1-10.9c0.4-3.3,1.1-6.6,2.2-9.8l-3,7.1c0.4-0.9,0.8-1.7,1.3-2.4l-4.7,6.1c0.5-0.7,1.2-1.3,1.8-1.9l-6.1,4.7
	c0.4-0.3,0.8-0.5,1.2-0.7l-7.2,3c0.4-0.2,0.9-0.3,1.3-0.4c7.5-2.2,13.9-7.1,18-13.8c3.8-6.4,5.4-15.9,3-23.1
	C-790.4,58.1-806.1,48.3-822.3,52.6z"/>
<image style="overflow:visible;" width="2506" height="1438" xlink:href="../../../../Users/Julieeggertsen1/Desktop/Skærmbillede 2020-12-29 kl. 15.14.37.png"  transform="matrix(0.5 0 0 0.5 0 0)">
</image>
</svg>
