<?xml version="1.0" encoding="utf-8"?>
<!-- Generator: Adobe Illustrator 24.3.0, SVG Export Plug-In . SVG Version: 6.00 Build 0)  -->
<svg version="1.1" id="Layer_1" xmlns="http://www.w3.org/2000/svg" xmlns:xlink="http://www.w3.org/1999/xlink" x="0px" y="0px"
	 viewBox="0 0 16 16" style="enable-background:new 0 0 16 16;" xml:space="preserve">
<style type="text/css">
	.st0{fill:#3E3739;}
	.st1{fill:#515559;}
	.st2{fill:none;stroke:#FFFFFF;stroke-width:2;stroke-miterlimit:10;}
	.st3{fill:none;stroke:#FFFFFF;stroke-width:1.9999;stroke-miterlimit:9.9995;}
	.st4{fill:none;stroke:#FFFFFF;stroke-miterlimit:10;}
	.st5{fill:none;stroke:#136020;stroke-miterlimit:10;}
	.st6{fill:none;stroke:#F5F1AB;stroke-miterlimit:10;}
	.st7{fill:none;stroke:#FBCEB5;stroke-miterlimit:10;}
	.st8{fill:none;stroke:#F8F3B5;stroke-miterlimit:10;}
	.st9{fill:none;stroke:#BCE1E1;stroke-miterlimit:10;}
	.st10{opacity:0.4;}
	.st11{fill:none;stroke:#DED2E9;stroke-miterlimit:10;}
	.st12{fill:none;stroke:#FEE1BF;stroke-miterlimit:10;}
	.st13{fill:none;stroke:#F4A8CA;stroke-miterlimit:10;}
	.st14{fill:none;stroke:#B6C0E3;stroke-miterlimit:10;}
	.st15{fill:none;stroke:#F7B6AA;stroke-miterlimit:10;}
	.st16{fill:none;stroke:#9EA4D3;stroke-miterlimit:10;}
</style>
<path class="st0" d="M-429.9,643.8h-309.6c-23.9,0-43.2-19.4-43.2-43.2V410.4c0-23.9,19.4-43.2,43.2-43.2h309.6
	c23.9,0,43.2,19.4,43.2,43.2v190.3C-386.6,624.5-406,643.8-429.9,643.8z"/>
<path class="st1" d="M21.6,544.3H-288c-23.9,0-43.2-19.4-43.2-43.2V310.9c0-23.9,19.4-43.2,43.2-43.2H21.6
	c23.9,0,43.2,19.4,43.2,43.2v190.3C64.8,525,45.5,544.3,21.6,544.3z"/>
<image style="overflow:visible;enable-background:new    ;" width="1242" height="1242" xlink:href="96ADEE551AE1B8AA.png"  transform="matrix(0.3223 0 0 0.3223 -1831.9958 -1873.2466)">
</image>
<image style="overflow:visible;enable-background:new    ;" width="991" height="994" xlink:href="96ADEE551AE1B8AE.png"  transform="matrix(0.4035 0 0 0.4035 -1831.7931 -1437.7858)">
</image>
<image style="overflow:visible;enable-background:new    ;" width="1058" height="1058" xlink:href="96ADEE551AE1B8A9.png"  transform="matrix(0.3785 0 0 0.3785 -1832.132 -1001.7922)">
</image>
<image style="overflow:visible;enable-background:new    ;" width="919" height="917" xlink:href="96ADEE551AE1B8AB.png"  transform="matrix(0.5439 0 0 0.5439 -1881.7699 -565.6555)">
</image>
<image style="overflow:visible;enable-background:new    ;" width="1197" height="1197" xlink:href="96ADEE551AE1B8A8.png"  transform="matrix(0.3344 0 0 0.3344 -1814.3959 -19.8815)">
</image>
<image style="overflow:visible;enable-background:new    ;" width="1025" height="1027" xlink:href="96ADEE551AE1B8B6.png"  transform="matrix(0.39 0 0 0.39 -1295.5999 -501.5794)">
</image>
<image style="overflow:visible;enable-background:new    ;" width="618" height="620" xlink:href="96ADEE551AE1B8B9.png"  transform="matrix(0.6468 0 0 0.6468 -784.532 -516.8055)">
</image>
<image style="overflow:visible;enable-background:new    ;" width="836" height="836" xlink:href="96ADEE551AE1B8BA.png"  transform="matrix(0.4662 0 0 0.4662 -1290.5774 -14.5951)">
</image>
<g>
	<path class="st2" d="M-473,151.1c-0.7-0.8-1.4-1.4-2-2.3c-0.5-0.8-0.9-1.8-1.2-2.7c-1.1-3.4-2.3-6.9-2.7-10.5
		c-0.4-3.6-0.1-7.4,1.6-10.6c2.1-4.1,6.2-6.8,10.3-8.8c5.2-2.5,11.3-4.2,16.9-2.7c6.9,1.9,11.8,8.2,14.4,14.9c0.5,1.3,1,2.6,1.1,4
		c0.3,2.8-0.6,5.7-1.9,8.2c-2.7,5.4-6.9,10.1-8,16c-0.2,1.3-0.3,2.6-0.6,3.8c-0.3,1.1-0.7,2.1-1.3,3c-0.2,0.4-0.5,0.7-0.9,0.9
		c-0.7,0.4-1.5,0.3-2.2,0.2c-3.3-0.5-6.6-0.6-9.8-0.4c-2.1,0.1-5.3,1.3-7.2-0.2c-1.5-1.2-1.8-3.6-2.4-5.3
		C-469.9,155.9-471.1,153.2-473,151.1z"/>
	<path class="st2" d="M-449.2,173.1h-14.4c-1.2,0-2.2-1-2.2-2.2l0,0c0-1.2,1-2.2,2.2-2.2h14.5c1.2,0,2.2,1,2.2,2.2l0,0
		C-447,172.1-447.9,173.1-449.2,173.1z"/>
	<path class="st2" d="M-451.3,179.1h-9.8c-1.2,0-2.2-1-2.2-2.2l0,0c0-1.2,1-2.2,2.2-2.2h9.8c1.2,0,2.2,1,2.2,2.2l0,0
		C-449.1,178.1-450.1,179.1-451.3,179.1z"/>
	<path class="st2" d="M-453.7,185.4h-5.9c-1.2,0-2.1-0.9-2.1-2.1l0,0c0-1.2,0.9-2.1,2.1-2.1h5.9c1.2,0,2.1,0.9,2.1,2.1l0,0
		C-451.6,184.6-452.5,185.4-453.7,185.4z"/>
	<line class="st2" x1="-492.6" y1="145.4" x2="-484.8" y2="143.1"/>
	<line class="st2" x1="-491.4" y1="122.6" x2="-483.7" y2="125.8"/>
	<line class="st2" x1="-477.4" y1="105.6" x2="-472.6" y2="112.9"/>
	<line class="st2" x1="-456.3" y1="99.6" x2="-456.3" y2="108.1"/>
	<line class="st2" x1="-435" y1="105.6" x2="-439.7" y2="112.9"/>
	<line class="st2" x1="-421.8" y1="123.6" x2="-429.5" y2="125.8"/>
	<line class="st2" x1="-420.1" y1="145.4" x2="-428.4" y2="143.1"/>
</g>
<g>
	<rect x="-355.5" y="-25.4" class="st2" width="131" height="90.2"/>
	<rect x="-348.2" y="-20.6" class="st2" width="39.2" height="6.8"/>
	<rect x="-339.8" y="50.4" class="st2" width="39.2" height="6.8"/>
	<rect x="-278.5" y="50.4" class="st2" width="39.2" height="6.8"/>
	<rect x="-271.3" y="-20.6" class="st2" width="39.2" height="6.8"/>
	<rect x="-285.8" y="0.8" class="st2" width="53.8" height="44"/>
	<rect x="-347.1" y="0.8" class="st2" width="53.8" height="44"/>
	<rect x="-294.4" y="-20.6" class="st2" width="9.8" height="7.7"/>
</g>
<g>
	<rect x="-516.1" y="225.2" class="st2" width="119.4" height="81.1"/>
	<rect x="-488.7" y="239.1" class="st2" width="64.5" height="53.2"/>
	<polyline class="st2" points="-499.3,255.4 -507.8,264.2 -499.3,270.6 	"/>
	<polyline class="st2" points="-414.6,255.4 -406,264.2 -414.6,270.6 	"/>

		<ellipse transform="matrix(6.652059e-02 -0.9978 0.9978 6.652059e-02 -694.2736 -232.3949)" class="st3" cx="-471.3" cy="254.9" rx="8.2" ry="8.2"/>
	<polyline class="st2" points="-463.1,290.2 -459,274.2 -454,282.2 -447.3,263 -444.2,276.6 -440.6,273.4 -434.5,291.5 	"/>
</g>
<path class="st2" d="M-619.1,31.3"/>
<polyline class="st2" points="-591.9,10 -591.9,-17.1 -689.6,-17.1 -689.6,37.2 -619.1,37.2 "/>
<path class="st2" d="M-618.4,45.7h-73.4c-2.5,0-4.5-2-4.5-4.5v-59.6c0-2.5,2-4.5,4.5-4.5h103.4c2.5,0,4.5,2,4.5,4.5v29.2"/>
<path class="st2" d="M-586.2,61.8h-29c-1.7,0-3.1-1.4-3.1-3.1V13c0-1.7,1.4-3.1,3.1-3.1h29c1.7,0,3.1,1.4,3.1,3.1v45.7
	C-583.1,60.3-584.5,61.8-586.2,61.8z"/>
<rect x="-681.2" y="-9.5" class="st2" width="80.5" height="14.3"/>
<rect x="-681.2" y="14.5" class="st2" width="16.9" height="16.9"/>
<rect x="-657" y="14.3" class="st2" width="16.9" height="16.9"/>
<polyline class="st2" points="-618.3,31.2 -631.6,31.2 -631.6,14.3 -618.3,14.3 "/>
<rect x="-614.2" y="13.8" class="st4" width="26.9" height="44"/>
<rect x="-611.3" y="17.8" class="st4" width="20.5" height="10.8"/>
<rect x="-611.3" y="32.9" class="st4" width="20.5" height="4.2"/>
<rect x="-610.9" y="40.9" class="st4" width="20.5" height="4.2"/>
<rect x="-611.3" y="48.9" class="st4" width="20.5" height="4.2"/>
<polygon class="st2" points="-646.7,45.7 -649.6,54.8 -636,54.8 -638.6,45.7 "/>
<g>
	<rect x="-691.5" y="122.6" class="st2" width="83.9" height="21.9"/>
	<rect x="-691.5" y="150.4" class="st2" width="41.9" height="47.9"/>
	<rect x="-643.7" y="150.4" class="st2" width="36" height="9.4"/>
	<rect x="-643.7" y="169.6" class="st2" width="36" height="9.4"/>
	<path class="st2" d="M-619.4,194.9c0.9-1,1.8-1.9,2.7-2.8c0.1-0.1,0.1-0.1,0.1-0.1c0.1-0.1,0.2-0.2,0.3-0.3
		c0.8-0.9,1.6-1.7,2.4-2.5h-29.7v9.4h21.2C-621.5,197.2-620.5,196.1-619.4,194.9z"/>
	<path class="st2" d="M-606.5,183.6c-1.7,0.6-3,2.1-3.5,3.8c-0.9,2.9,0.4,6,0.2,9.1c-0.3,3.7-3.1,7-6.7,7.8
		c3.9,0.6,8.1-1.4,10.2-4.7c0.8-1.3,1.4-2.8,2.7-3.5c1.2-0.7,2.6-0.5,3.9-0.9c0.9-0.3,1.8-0.9,2.3-1.8c1.1-1.6,1-3.9,0.1-5.6
		C-598.8,184.9-603.4,182.4-606.5,183.6z"/>
	<path class="st2" d="M-600.7,174.6c-1,1.2-1.7,2.8-1.7,4.5c0,3.8,3.1,6.9,6.9,6.9c3,0,5.6-1.9,6.5-4.6
		C-593,179.4-596.8,176.9-600.7,174.6z"/>
	<polyline class="st2" points="-600.7,174.6 -580.6,141.2 -578,140.1 -571.7,143.2 -571.7,146.6 -589,181.4 	"/>
</g>
<g>
	<polyline class="st2" points="-179.5,2.5 -76.8,2.5 -76.8,62.7 -191.3,62.7 -191.3,2.5 	"/>
	<line class="st2" x1="-168.7" y1="15.7" x2="-76.8" y2="15.7"/>
	<polygon class="st2" points="-191.3,-3 -191.3,15.7 -166.8,15.7 -191.3,-8.5 	"/>
	<polyline class="st2" points="-188.3,-5.6 -76.8,-33 -76.8,-21.4 -175.5,2.5 	"/>
	<circle class="st2" cx="-184.7" cy="6.5" r="2.1"/>
	<line class="st2" x1="-176.5" y1="-8.5" x2="-169.6" y2="1"/>
	<line class="st2" x1="-163.9" y1="-11.6" x2="-156.9" y2="-2"/>
	<line class="st2" x1="-150.2" y1="-15" x2="-144.1" y2="-5.2"/>
	<line class="st2" x1="-136" y1="-18.5" x2="-130.1" y2="-8.5"/>
	<line class="st2" x1="-122.8" y1="-21.8" x2="-117.4" y2="-11.6"/>
	<line class="st2" x1="-110.1" y1="-24.9" x2="-105" y2="-15"/>
	<line class="st2" x1="-96" y1="-28.4" x2="-91.2" y2="-18"/>
	<line class="st2" x1="-160.4" y1="3.5" x2="-160.4" y2="14.8"/>
	<line class="st2" x1="-146.5" y1="2.5" x2="-146.5" y2="15.7"/>
	<line class="st2" x1="-132.6" y1="2.5" x2="-132.6" y2="14.8"/>
	<line class="st2" x1="-119.3" y1="3.5" x2="-119.3" y2="14.8"/>
	<line class="st2" x1="-106" y1="3.5" x2="-106" y2="14.8"/>
	<line class="st2" x1="-92.1" y1="2.5" x2="-92.1" y2="14.8"/>
</g>
<g>
	<g>
		<path class="st2" d="M-326.5,120.2c-3.6,0.5-7,2-10.3,3.6c-0.9,0.4-1.9,0.9-2.6,1.6c-0.7,0.7-1.1,1.6-1.5,2.4
			c-6.1,13.4-10.3,27.7-12.6,42.3c-1.1,6.8-1.6,14.3,2.2,20c1.7,2.7,4.6,4.8,7.8,4.8c4.1-0.1,7.2-3.5,9.9-6.6
			c4-4.4,8.5-8.5,14.1-10.6c5.3-2,11.1-2,16.8-2c8.7,0,17.3,0.1,26,0.1c3.1,0,6.3,0,9.2,0.9c4.6,1.4,8.3,4.9,11.7,8.2
			c2.2,2.1,4.4,4.3,6.7,6.4c1.2,1.1,2.3,2.2,3.8,2.9c3.8,1.7,8.5-0.7,10.7-4.2c2.2-3.6,2.5-8,2.3-12.2c-0.5-16.8-6.4-32.9-12.1-48.6
			c-0.4-1.1-0.8-2.2-1.5-3c-0.8-1-2-1.5-3.2-2c-3.3-1.5-6.7-2.7-10.2-3.8c-2.6-0.8-5.4-1.4-8-0.7c-5.1,1.3-7.7,6.9-12,10.1
			c-4.7,3.5-11.1,3.5-17,3.5c-3,0-6.8,0-9.5-1.6c-2.1-1.2-3-3.7-4.7-5.4C-314.5,121.9-320.6,119.4-326.5,120.2z"/>
		<path class="st2" d="M-336.9,122.4c0.2-1.9,2.4-2.7,4.2-3.3c3.3-1,6.6-1.9,9.9-2.9c2.3-0.7,4.7-1.4,7-0.9c1.5,0.3,2.8,1.1,4.3,1.6
			c2.5,0.9,5.1,1,7.8,1.1c6.9,0.2,13.7,0.2,20.6,0c2.1-0.1,4.1-0.2,6.1-0.8c1.6-0.5,3-1.3,4.6-1.7c2.8-0.7,5.7,0,8.5,0.6
			c2.7,0.6,5.4,1.3,8.2,1.9c1.4,0.3,2.7,0.7,3.9,1.4c1.1,0.8,2,2.1,1.8,3.5"/>
		<path class="st2" d="M-313.3,122.9c1-1.5,2.1-2.9,3.1-4.4"/>
		<path class="st2" d="M-274.9,123.9c-1.1-1.7-2-3.4-2.9-5.2"/>
		<circle class="st2" cx="-326.1" cy="139.1" r="9.5"/>
		<circle class="st2" cx="-261" cy="138.1" r="9.5"/>
		<circle class="st2" cx="-282.7" cy="163.1" r="8.1"/>
		<circle class="st4" cx="-282.7" cy="163.1" r="5"/>
	</g>
	<rect x="-307.6" y="156.4" class="st2" width="3.5" height="13.4"/>
	<rect x="-312.5" y="161.5" class="st2" width="13.4" height="3.5"/>
</g>
<g>
	<rect x="-181.1" y="104.9" class="st5" width="90.3" height="102.4"/>
	<rect x="-172.6" y="115.8" class="st5" width="6.8" height="6.8"/>
	<rect x="-172.6" y="130.9" class="st5" width="6.8" height="6.8"/>
	<rect x="-172.6" y="144.4" class="st5" width="6.8" height="6.8"/>
	<rect x="-172.6" y="158.1" class="st5" width="6.8" height="6.8"/>
	<rect x="-172.6" y="172.1" class="st5" width="6.8" height="6.8"/>
	<rect x="-172.6" y="186.1" class="st5" width="6.8" height="6.8"/>
	<rect x="-153.8" y="115.8" class="st5" width="54" height="6.8"/>
	<rect x="-153.8" y="130.9" class="st5" width="54" height="6.8"/>
	<rect x="-153.8" y="144.4" class="st5" width="54" height="6.8"/>
	<rect x="-153.8" y="157.1" class="st5" width="54" height="6.8"/>
	<rect x="-153.8" y="172.1" class="st5" width="54" height="6.8"/>
	<rect x="-153.8" y="185.4" class="st5" width="54" height="6.8"/>
</g>
<path class="st6" d="M-381.7-90.5c8.1,7,10.6,19.6,5.9,29.2c-1.6,3.3-4,6.2-5.2,9.6c-1.1,3-1.3,6.2-1.4,9.4
	c-0.1,3.8,0.2,8.1,2.8,10.9c2.3,2.5,5.9,3.3,9.3,3.9c7,1.3,14.1,2.6,21.3,2.2c4.3-0.2,8.5-0.9,12.7-1.7c1.6-0.3,3.2-0.6,4.6-1.3
	c1.4-0.8,2.6-2,3.6-3.3c3.9-5.3,5.2-12.5,3-18.7c-2.2-6.2-7.9-11.1-14.4-12.1c-0.6-0.1-1.2-0.2-1.7-0.6c-0.5-0.4-0.6-1.1-0.7-1.7
	c-0.7-5.3-1.1-10.8-1-16.2c0-3,0.3-6.4,2.6-8.5c-2.2,5.2-5.5,10.1-5.3,15.7c0.2,3.9,2.1,7.6,4.8,10.4c2.7,2.8,6.1,4.9,9.5,6.8
	c-3.7-4-8.3-7.2-11.1-11.8c-3.6-6.1-3.3-14.3,0.7-20.1c-0.8,4.1-1.6,8.2-1.3,12.4c0.4,5.5,2.9,10.7,6.9,14.5c2.1,2,4.6,3.7,6.5,5.9
	c3.3,3.9,4.3,9.2,4.3,14.2c0,4.4-1.1,9.1-4.3,12.1c-3.5,3.2-8.7,3.6-13.4,3.5c-10.9-0.3-21.8-2.2-32-6c-2.3-0.8-4.6-1.9-6-3.9
	c-1.1-1.7-1.3-3.9-1.4-5.9c-0.3-5.5-0.6-11.4,2.4-16c1.7-2.7,4.4-4.8,5.6-7.7c0.7-1.7,0.9-3.7,0.8-5.5c-0.1-7.8-3-15.6-8.1-21.5
	c4.8,5.3,10,11.3,9.7,18.5c-0.4,8.9-9.1,15.2-11.4,23.8c-1,3.7-0.8,7.6-0.4,11.4c0.1,1.1,0.3,2.3,0.9,3.2c0.8,1.2,2.1,1.8,3.4,2.3
	c3.3,1.3,6.7,2.4,10.2,3.2c-4.9-2.1-8.9-6.4-10.7-11.4c-1.8-5-1.5-10.8,0.8-15.6c1.9-3.9,5.1-7.2,6.2-11.4c1-4-0.1-8.3-1.7-12.1
	c-1.6-3.8-3.7-7.4-4.9-11.4c7.8,4.1,16,8.3,24.9,8.7c6.4,0.3,13.6-2,16.7-7.7c-5,6.2-12.2,11.9-20.1,10.9c-3.8-0.5-7.2-2.4-10.5-4.3
	c-3.5-2-7-4-10.5-6.1c3.3,2.3,6.7,4.6,10.4,6.2c10.8,4.6,24.3,1.9,32.6-6.4c-3.4,1.9-6,5.1-7.4,8.7c-1,2.7-1.3,5.8-0.3,8.6
	c1.2,3.1,3.8,5.3,6.2,7.5c4.9,4.6,9.2,10.4,9.4,17.1c0.8-2.2,0.8-4.8-0.2-7c0.2,4.6,4.5,8.4,4,13c-0.2,1.9-1.2,3.6-2.1,5.2
	c-1.6,2.7-3.3,5.5-5.7,7.6s-5.7,3.4-8.8,2.7"/>
<path class="st7" d="M-371.2-68.4c4.3,2.4,9,3.9,13.9,4.4c2.9,0.3,6,0.3,8.7-1c2.1-1,3.8-2.8,5.4-4.5c-1.4,1.6-3.1,3-5,4
	c-3.9,2.1-8.6,2.7-13,2c-4.4-0.7-8.5-2.6-12.2-5.2c3.7,1.1,7.4,2.2,11.1,3.3c1.9,0.6,3.9,1.2,5.9,1.2c4.1,0,7.8-2.4,10.7-5.3
	c-2.1,2-5,3-7.9,3.7c-4.6,1.1-9.3,1.5-13.9,1.4c-2-0.1-4.2-0.4-5.5-1.9c1.8-0.1,3.5,0.5,5.2,1c7.1,2,14.9,3.1,21.8,0.5
	c0.8-0.3,1.7-0.9,1.6-1.7"/>
<path class="st8" d="M-358.1-54.2c-3.7,0.4-7.5,0.8-11.2,0.4c-3.7-0.4-7.3-1.5-10.6-3.2c5.1,2.4,10.2,4.7,15.8,5.6
	c10.6,1.6,21-2.7,30.8-6.8c-10.2,2.3-20.6,3.3-31,4.3c-3.7,0.4-8.2,0.4-10.2-2.7c2.8,0.9,5.7,1.7,8.6,2.4c3.4,0.8,6.8,1.6,10.2,1.6
	c2.8,0,5.6-0.6,8.4-1.2c3.7-0.8,7.4-1.5,11-2.3c1.9-0.4,3.9-0.8,5.3-2.1c-13.3,1.1-26.6,2.1-39.8,3.2c-2.4,0.2-5.3,0-6.3-2.1
	c4,1.8,8.2,3.3,12.4,4.5c3.2,0.9,6.6,1.6,9.9,1.4c6.8-0.3,13-4,18.8-7.5c0.8,0.6,0.8,1.8,0.2,2.6c-0.6,0.8-1.5,1.2-2.4,1.5
	c-6.4,2.5-13.3,3.5-20.2,3.6c-6.9,0.2-14.8-1-18.7-6.7c5.2,2.1,10.4,4,15.8,5.7c3.4,1,6.8,2,10.3,1.9c5.2-0.1,10-2.5,14.6-4.9
	c0.9-0.5,4.2-2.1,2.6-3.4c-0.8-0.6-7,1.5-8.1,1.7C-347.3-55.8-352.7-55-358.1-54.2z"/>
<path class="st9" d="M-382.6-44.5c2.5,1.1,4.6,2.9,6.9,4.4c7.5,4.8,17,5.2,25.9,5.2c4.3,0,8.7-0.1,12.9-1.1c4.2-1,8.3-2.9,11.1-6.2
	c-17.8,7.8-39,7.1-56.3-1.7c9,4.9,18.5,9.3,28.7,10.1c10.2,0.8,21.2-2.5,27.4-10.7c-1.3,3.1-4.5,5-7.7,6.3
	c-13,5.3-27.9,3.5-41.2-0.8c-2.9-0.9-5.9-2.1-7.5-4.6c8,5,17.8,6.1,27.3,6.7c7.6,0.4,18,1,24.6-3.6c-2.7-1.3-8.3,1.5-11.2,2
	c-4.6,0.8-9.3,1.1-13.9,1C-365.1-37.8-374.3-40.2-382.6-44.5z"/>
<g class="st10">
	<path class="st8" d="M-468.2,12.5C-469,5.1-474-1.6-480.7-4.7c-7.2-3.3-15.8-2.5-22.9-6.1c-3.8-2-6.9-5.1-9.8-8.2
		c3.3,6.5,10.3,11,17.6,11.3c3.5,0.1,7.1-0.6,10.4,0.4c3,0.9,5.4,3.1,7.6,5.2c4.4,4.2,9,9.1,9.5,15.2c-2.1-4.3-4.1-8.7-7.1-12.5
		s-7-6.9-11.7-7.9c-4.3-0.9-8.9,0.1-13.1-1.1c-6.8-1.8-11.1-8.5-13.5-15.1c0.8,2.1,1.7,4.1,2.5,6.2c0-1.1-0.1-2.3-0.1-3.4
		c-0.2,1.5,0,3.1,0.7,4.4c0.4-0.8,0.5-1.8,0.3-2.7c-0.1,1.5,0,3,0.2,4.5c0.4-1.2,0.7-2.3,1.1-3.5c-0.3,1.8,0,3.7,0.8,5.4
		c0.3-1.3,0.6-2.5,0.8-3.8c-0.3,1.4,0,2.9,0.7,4.1c-2.6,0.2-5.1,0-7.6-0.7c2-1.1,4.3-1.6,6.5-1.6c-2,0.6-4.2,0.3-6-0.6
		c1.2-0.1,2.3-0.2,3.5-0.3c-1.4,0.4-3-0.2-3.6-1.5c0.7,0,1.4,0,2.1,0c-1.7-0.8-3.2-1.9-4.5-3.3c1.4-0.1,2.8,0.1,4.1,0.6
		c-0.9-0.5-1.7-1.3-2.3-2.2c0.5,0.4,1,0.7,1.4,1.1c-1.4-0.7-2.8-1.5-4.2-2.2c1.5,0.3,2.8,1.2,3.8,2.4c-0.6-1.5-1.7-2.8-3-3.8
		c-0.1,1.9,0.5,3.8,1.6,5.4c-0.4-1.9-1.7-3.7-3.4-4.6c2.3,1.4,4.2,3.3,5.6,5.7c-1.2,0.3-2.5-0.2-3.3-1.1c1.6,0.6,3.2,1.5,4.6,2.5
		c-0.7,0.4-1.2,1-1.6,1.7c1.1,0.3,2.1,0.6,3.2,0.9c-0.5,0.7-1.1,1.2-1.9,1.5c1.5,0.5,3.1-0.6,3.8-2c0.6-1.4,0.5-3.1,0.4-4.6
		c-0.3,2.3-0.9,4.5-2,6.5c0-1.9,0-3.7,0.1-5.6c-0.3,1.2-0.9,2.3-1.7,3.3c-0.6-1.8-1-3.6-1.3-5.4c0.1,0.7-0.1,1.4-0.5,2
		c-0.5-1-0.9-2.1-1.4-3.1c-2.2-0.2-4.3-1.7-5.1-3.9c1.4,1.3,2.8,2.6,4.2,3.9c-0.5-0.7-1.1-1.4-1.6-2c0.7,1.5,1.3,3,1.7,4.6
		c-1.5-0.3-2.6-1.7-2.7-3.2c0.8,0,1.5,0.1,2.3,0.1c-0.7,1.3,0.1,3.1,1.5,3.4c-0.6,0.1-1.2,0.2-1.9,0.4c1.6,0.7,3.2,1.4,4.9,2.2
		c-0.4,0.6-1,1.1-1.7,1.3c0.5,1.6,3.1,1.6,3.9,0.2c0.9-1.4,0.2-3.4-1.1-4.3c-0.3,1.2-0.6,2.3-1,3.5c-0.4-1.7-0.8-3.5-1.1-5.2
		c-0.2,0.6-0.4,1.1-0.6,1.7c-1.2-1-2.1-2.5-2.5-4c-0.8,0.5-0.6,1.8,0,2.5c0.6,0.7,1.6,1,2.4,1.5c2.5,1.4,4.1,4.3,4,7.1
		c1.6-0.6,3.2,0.8,4.6,1.8c2.7,1.7,6,2,9.2,2.1"/>
	<path class="st8" d="M-465,18c3.4-3.7,4.2-9.8,2.2-15.6c-2.2-6.2-7.3-11.6-9.2-17.8c-1-3.4-1.1-6.7-1.1-10
		c-1.6,5-0.2,11.5,3.7,16.5c1.8,2.4,4.1,4.4,5.4,7.1c1.1,2.3,1.3,4.9,1.4,7.3c0.2,4.7,0.1,9.8-2.8,12.8c1.1-3.2,2.3-6.5,2.6-10.1
		c0.3-3.6-0.2-7.6-2.3-11.1c-1.9-3.2-4.9-5.9-6.6-9.2c-2.7-5.3-1.6-11,0.5-15.4c-0.6,1.4-1.2,2.8-1.9,4.3c0.6-0.5,1.2-1,1.7-1.5
		c-0.9,0.5-1.6,1.3-1.9,2.4c0.6-0.1,1.2-0.4,1.6-0.9c-0.9,0.6-1.6,1.3-2.2,2.1c0.8-0.3,1.6-0.5,2.4-0.8c-1.1,0.6-1.9,1.6-2.4,2.8
		c0.8-0.3,1.6-0.7,2.4-1c-0.9,0.4-1.5,1.2-1.8,2.2c-1.5-1.6-2.8-3.4-3.8-5.4c1.6,0.9,3.2,2.1,4.4,3.6c-1.4-1.1-2.4-2.6-2.9-4.2
		c0.7,0.7,1.4,1.5,2.1,2.2c-1-0.7-1.5-2.1-1.2-3c0.4,0.5,0.8,0.9,1.2,1.4c-0.5-1.5-0.8-2.9-0.7-4.4c0.8,0.9,1.5,1.9,2,3
		c-0.2-0.8-0.3-1.7-0.1-2.4c0.1,0.5,0.2,0.9,0.2,1.4c-0.4-1.2-0.8-2.5-1.1-3.7c0.6,1.1,0.9,2.4,0.8,3.5c0.4-1.1,0.6-2.3,0.3-3.6
		c-1,0.8-1.7,2-1.9,3.3c0.8-1.1,1-2.7,0.5-4.2c0.5,2.1,0.6,4.2,0.1,6.1c-0.8-0.7-1.3-1.7-1.2-2.6c0.6,1.4,1,2.8,1.2,4.1
		c-0.6-0.3-1.2-0.4-1.7-0.4c0.4,0.8,0.9,1.7,1.3,2.5c-0.6,0-1.3-0.2-1.8-0.6c0.5,1.2,2,1.8,3.1,1.6c1.1-0.2,1.9-1,2.6-1.7
		c-1.3,0.8-2.8,1.3-4.5,1.5c1-0.8,2-1.6,2.9-2.3c-0.8,0.3-1.7,0.4-2.6,0.3c0.6-1.2,1.3-2.2,2.1-3.2c-0.3,0.3-0.8,0.5-1.3,0.5
		c0.3-0.8,0.6-1.5,0.9-2.3c-1.1-1.6-1.4-3.6-0.7-5c0.1,1.5,0.2,3,0.3,4.4c0.1-0.6,0.1-1.3,0.2-1.9c-0.4,1.1-0.9,2.1-1.4,3.1
		c-0.6-1.1-0.5-2.5,0.2-3.2c0.4,0.5,0.8,1,1.2,1.5c-1.1,0.1-1.6,1.4-1,2.5c-0.4-0.4-0.8-0.7-1.2-1.1c0.5,1.4,1,2.8,1.5,4.1
		c-0.5,0-1.1-0.2-1.6-0.6c-0.5,1,0.8,2.7,2,2.7c1.2,0,1.8-1.3,1.7-2.6c-0.8,0.3-1.6,0.6-2.3,0.9c0.7-1,1.4-2,2.1-3
		c-0.4,0.1-0.8,0.2-1.2,0.3c-0.1-1.3,0.1-2.5,0.7-3.4c-0.7-0.3-1.3,0.4-1.3,1.1s0.3,1.5,0.5,2.2c0.6,2.3,0,4.6-1.5,5.7
		c1.2,0.8,1.3,2.5,1.6,3.8c0.5,2.5,2.3,4.8,3.9,7"/>
	<path class="st11" d="M-457.7,17c0.8-7.4,5.8-14.1,12.5-17.2c7.2-3.3,15.8-2.5,22.9-6.1c3.8-2,6.9-5.1,9.8-8.2
		c-3.3,6.5-10.3,11-17.6,11.3c-3.5,0.1-7.1-0.6-10.4,0.4c-3,0.9-5.4,3.1-7.6,5.2c-4.4,4.2-9,9.1-9.5,15.2c2.1-4.3,4.1-8.7,7.1-12.5
		s7-6.9,11.7-7.9c4.3-0.9,8.9,0.1,13.1-1.1c6.8-1.8,11.1-8.5,13.5-15.1c-0.8,2.1-1.7,4.1-2.5,6.2c0-1.1,0.1-2.3,0.1-3.4
		c0.2,1.5,0,3.1-0.7,4.4c-0.4-0.8-0.5-1.8-0.3-2.7c0.1,1.5,0,3-0.2,4.5c-0.4-1.2-0.7-2.3-1.1-3.5c0.3,1.8,0,3.7-0.8,5.4
		c-0.3-1.3-0.6-2.5-0.8-3.8c0.3,1.4,0,2.9-0.7,4.1c2.6,0.2,5.1,0,7.6-0.7c-2-1.1-4.3-1.6-6.5-1.6c2,0.6,4.2,0.3,6-0.6
		c-1.2-0.1-2.3-0.2-3.5-0.3c1.4,0.4,3-0.2,3.6-1.5c-0.7,0-1.4,0-2.1,0c1.7-0.8,3.2-1.9,4.5-3.3c-1.4-0.1-2.8,0.1-4.1,0.6
		c0.9-0.5,1.7-1.3,2.3-2.2c-0.5,0.4-1,0.7-1.4,1.1c1.4-0.7,2.8-1.5,4.2-2.2c-1.5,0.3-2.8,1.2-3.8,2.4c0.6-1.5,1.7-2.8,3-3.8
		c0.1,1.9-0.5,3.8-1.6,5.4c0.4-1.9,1.7-3.7,3.4-4.6c-2.3,1.4-4.2,3.3-5.6,5.7c1.2,0.3,2.5-0.2,3.3-1.1c-1.6,0.6-3.2,1.5-4.6,2.5
		c0.7,0.4,1.2,1,1.6,1.7c-1.1,0.3-2.1,0.6-3.2,0.9c0.5,0.7,1.1,1.2,1.9,1.5c-1.5,0.5-3.1-0.6-3.8-2s-0.5-3.1-0.4-4.6
		c0.3,2.3,0.9,4.5,2,6.5c0-1.9,0-3.7-0.1-5.6c0.3,1.2,0.9,2.3,1.7,3.3c0.6-1.8,1-3.6,1.3-5.4c-0.1,0.7,0.1,1.4,0.5,2
		c0.5-1,0.9-2.1,1.4-3.1c2.2-0.2,4.3-1.7,5.1-3.9c-1.4,1.3-2.8,2.6-4.2,3.9c0.5-0.7,1.1-1.4,1.6-2c-0.7,1.5-1.3,3-1.7,4.6
		c1.5-0.3,2.6-1.7,2.7-3.2c-0.8,0-1.5,0.1-2.3,0.1c0.7,1.3-0.1,3.1-1.5,3.4c0.6,0.1,1.2,0.2,1.9,0.4c-1.6,0.7-3.2,1.4-4.9,2.2
		c0.4,0.6,1,1.1,1.7,1.3c-0.5,1.6-3.1,1.6-3.9,0.2c-0.9-1.4-0.2-3.4,1.1-4.3c0.3,1.2,0.6,2.3,1,3.5c0.4-1.7,0.8-3.5,1.1-5.2
		c0.2,0.6,0.4,1.1,0.6,1.7c1.2-1,2.1-2.5,2.5-4c0.8,0.5,0.6,1.8,0,2.5c-0.6,0.7-1.6,1-2.4,1.5c-2.5,1.4-4.1,4.3-4,7.1
		c-1.6-0.6-3.2,0.8-4.6,1.8c-2.7,1.7-6,2-9.2,2.1"/>
	<path class="st12" d="M-462.4,17.2c-3-6.8-2.1-15.1,2.2-21.2c4.6-6.5,12.4-10.1,16.7-16.8c2.3-3.6,3.4-7.9,4.4-12.1
		c0.4,7.3-3.3,14.7-9.5,18.6c-2.9,1.9-6.4,3-8.8,5.6c-2.1,2.3-3.1,5.3-4,8.3c-1.7,5.9-3.2,12.4-0.5,17.9c-0.4-4.8-0.8-9.6-0.1-14.4
		c0.7-4.8,2.6-9.5,6.2-12.7c3.3-2.9,7.7-4.4,10.8-7.5c4.9-5,5.3-12.9,4.1-19.8c0.3,2.2,0.6,4.4,0.9,6.6c-0.5-1-1.1-2-1.6-3
		c1,1.2,1.5,2.7,1.6,4.2c-0.8-0.5-1.4-1.3-1.7-2.2c0.9,1.2,1.6,2.6,2.1,4c-0.9-0.8-1.8-1.6-2.7-2.5c1.1,1.4,1.9,3.2,2,5.1
		c-0.9-0.9-1.7-1.9-2.6-2.8c1,1.1,1.5,2.5,1.5,3.9c2.3-1.1,4.4-2.6,6.2-4.4c-2.3,0.1-4.5,0.7-6.4,1.9c2-0.5,3.8-1.8,4.8-3.6
		c-1.1,0.5-2.1,1-3.2,1.5c1.4-0.1,2.4-1.5,2.4-2.9c-0.6,0.4-1.2,0.7-1.8,1.1c1.1-1.5,1.8-3.3,2.2-5.1c-1.3,0.6-2.4,1.5-3.3,2.6
		c0.5-0.9,0.8-2,0.9-3c-0.2,0.5-0.5,1.1-0.7,1.6c0.8-1.3,1.7-2.7,2.5-4c-1.1,1-1.9,2.4-2.1,3.9c-0.2-1.6,0-3.3,0.7-4.8
		c1,1.6,1.5,3.6,1.3,5.4c-0.7-1.9-0.4-4,0.7-5.7c-1.3,2.3-2,5-2,7.7c1.2-0.4,2.1-1.4,2.3-2.6c-1.1,1.4-2,2.9-2.7,4.5
		c0.8,0,1.5,0.3,2.2,0.7c-0.8,0.8-1.6,1.6-2.3,2.4c0.7,0.4,1.6,0.5,2.4,0.3c-1,1.2-3,1-4.3,0.1c-1.3-0.9-2-2.4-2.7-3.8
		c1.4,1.8,3.1,3.4,5,4.6c-0.9-1.6-1.9-3.2-2.8-4.8c0.8,0.9,1.9,1.6,3.1,2c-0.4-1.7-0.9-3.4-1.6-5.2c0.3,0.6,0.8,1.2,1.4,1.4
		c-0.1-1.1-0.2-2.3-0.4-3.4c1.8-1.3,2.8-3.7,2.4-5.9c-0.6,1.8-1.1,3.6-1.7,5.5c0.1-0.9,0.2-1.7,0.4-2.6c0.1,1.6,0.4,3.2,0.8,4.8
		c1.1-1,1.4-2.8,0.7-4.1c-0.6,0.4-1.3,0.8-1.9,1.2c1.3,0.7,1.5,2.7,0.4,3.7c0.6-0.2,1.2-0.4,1.8-0.6c-1,1.4-2.1,2.9-3.1,4.3
		c0.6,0.4,1.4,0.5,2.1,0.3c0.3,1.6-1.9,2.9-3.3,2.1c-1.4-0.8-1.9-2.8-1.2-4.3c0.9,0.8,1.7,1.7,2.6,2.5c-0.6-1.7-1.1-3.4-1.7-5.1
		c0.4,0.4,0.9,0.8,1.3,1.1c0.5-1.5,0.6-3.2,0.2-4.7c0.9,0.1,1.4,1.3,1.2,2.2c-0.2,0.9-0.8,1.7-1.3,2.5c-1.5,2.5-1.4,5.8,0.1,8.2
		c-1.7,0.3-2.3,2.3-3.1,3.8c-1.4,2.9-4.2,4.7-6.9,6.5"/>
	<path class="st8" d="M-449.2,15c-2.4-5.7-1.1-12.9,3.1-18.3c4.6-5.8,12-9.4,16.3-15.4c2.3-3.2,3.5-7,4.7-10.6
		c0,6.2-3.9,12.8-9.8,16.5c-2.8,1.8-6.1,3-8.4,5.3c-2.1,2.1-3.2,4.8-4.1,7.4c-1.9,5.1-3.6,10.8-1.5,15.4c-0.1-4.1-0.2-8.2,0.7-12.4
		s2.9-8.3,6.4-11.3c3.2-2.7,7.4-4.2,10.4-7.1c4.8-4.6,5.6-11.4,4.9-17.3c0.2,1.9,0.3,3.7,0.5,5.6c-0.4-0.8-0.9-1.7-1.3-2.5
		c0.8,1,1.3,2.2,1.3,3.5c-0.7-0.4-1.2-1-1.4-1.8c0.7,1,1.3,2.2,1.7,3.4c-0.8-0.7-1.6-1.3-2.4-2c1,1.2,1.5,2.7,1.6,4.3
		c-0.8-0.8-1.5-1.5-2.3-2.3c0.8,0.9,1.3,2.1,1.1,3.3c2.2-1.1,4.2-2.5,6-4.2c-2.1,0.2-4.2,0.9-6,2c1.9-0.5,3.6-1.7,4.7-3.3
		c-1,0.5-2,1-3,1.5c1.3-0.3,2.4-1.6,2.4-2.8c-0.6,0.3-1.2,0.7-1.8,1c1.1-1.4,1.9-2.9,2.3-4.5c-1.2,0.6-2.3,1.4-3.2,2.4
		c0.5-0.8,0.9-1.7,1-2.6c-0.3,0.5-0.5,1-0.8,1.5c0.8-1.2,1.7-2.4,2.5-3.6c-1.1,0.9-1.8,2.2-2.1,3.5c-0.1-1.4,0.2-2.8,0.9-4.1
		c0.8,1.3,1.2,3,0.9,4.6c-0.5-1.6-0.2-3.4,0.9-4.9c-1.3,2.1-2.1,4.4-2.2,6.7c1.1-0.4,2-1.3,2.3-2.3c-1.1,1.2-2,2.6-2.8,4
		c0.7,0,1.4,0.2,2,0.5c-0.8,0.7-1.5,1.4-2.3,2.2c0.7,0.3,1.4,0.3,2.2,0.1c-1,1.1-2.8,1.1-4,0.3c-1.2-0.8-1.7-2-2.3-3.1
		c1.2,1.5,2.6,2.8,4.4,3.7c-0.8-1.3-1.6-2.6-2.4-4c0.7,0.7,1.7,1.3,2.7,1.5c-0.2-1.6-0.6-3.1-1.2-4.5c0.2,0.5,0.7,1,1.2,1.2
		c-0.1-1-0.1-1.9-0.2-2.9c1.8-1.2,2.8-3.3,2.6-5.2c-0.6,1.6-1.2,3.2-1.8,4.8c0.2-0.7,0.3-1.5,0.5-2.2c0,1.4,0.2,2.8,0.5,4.1
		c1.1-0.9,1.5-2.5,0.9-3.6c-0.6,0.4-1.2,0.8-1.8,1.2c1.1,0.6,1.2,2.3,0.2,3.2c0.6-0.2,1.1-0.4,1.7-0.6c-1,1.3-2.1,2.6-3.1,3.9
		c0.6,0.3,1.3,0.3,1.9,0.1c0.2,1.4-1.9,2.6-3.2,2c-1.3-0.6-1.6-2.3-0.9-3.6c0.7,0.7,1.5,1.4,2.2,2c-0.4-1.4-0.8-2.9-1.2-4.3
		c0.4,0.3,0.8,0.6,1.2,0.9c0.6-1.3,0.7-2.8,0.4-4.1c0.9,0,1.3,1,1,1.8c-0.3,0.8-0.9,1.5-1.4,2.2c-1.5,2.2-1.6,5-0.4,7.1
		c-1.6,0.3-2.3,2.1-3.1,3.5c-1.5,2.5-4.2,4.3-6.7,5.9"/>
	<path class="st13" d="M-476.8,13.7c-1.2-6-6.2-11.4-12.8-13.5c-7-2.3-15.2-1.1-22.1-3.7c-3.7-1.4-6.8-3.8-9.8-6.2
		c3.5,5.2,10.4,8.5,17.3,8.3c3.3-0.1,6.7-0.9,9.9-0.3c2.9,0.6,5.3,2.2,7.5,3.8c4.4,3.2,9,7,9.8,12c-2.2-3.5-4.4-7-7.4-9.9
		c-3-2.9-7.1-5.3-11.6-5.8c-4.2-0.5-8.5,0.6-12.6-0.1c-6.5-1.1-11-6.4-13.6-11.7c0.9,1.6,1.8,3.3,2.7,4.9c-0.1-0.9-0.2-1.9-0.3-2.8
		c-0.1,1.3,0.2,2.6,0.9,3.6c0.3-0.7,0.4-1.5,0.2-2.3c0,1.3,0.1,2.5,0.5,3.7c0.3-1,0.6-2,0.9-2.9c-0.2,1.5,0.2,3.1,1,4.4
		c0.2-1.1,0.4-2.1,0.6-3.2c-0.2,1.2,0.1,2.4,0.9,3.4c-2.4,0.3-4.9,0.3-7.3-0.1c1.8-1,4-1.6,6.1-1.7c-1.8,0.6-3.9,0.5-5.7-0.2
		c1.1-0.2,2.2-0.3,3.3-0.5c-1.3,0.4-2.8,0-3.6-1c0.7,0,1.4-0.1,2-0.1c-1.7-0.5-3.2-1.4-4.4-2.4c1.3-0.2,2.7-0.1,4,0.2
		c-0.9-0.4-1.7-1-2.3-1.7c0.5,0.3,1,0.5,1.4,0.8c-1.4-0.5-2.7-1-4.1-1.6c1.4,0.2,2.8,0.8,3.7,1.7c-0.7-1.2-1.7-2.2-3-2.9
		c0,1.6,0.7,3.1,1.8,4.4c-0.5-1.6-1.8-2.9-3.5-3.6c2.3,1,4.2,2.5,5.6,4.3c-1.1,0.3-2.4,0-3.2-0.7c1.6,0.4,3.1,1,4.5,1.8
		c-0.6,0.4-1.1,0.9-1.4,1.5c1,0.2,2.1,0.3,3.1,0.5c-0.4,0.6-1,1.1-1.8,1.3c1.4,0.3,2.9-0.7,3.5-1.9c0.5-1.2,0.3-2.6,0.1-3.9
		c-0.1,1.9-0.7,3.8-1.6,5.5c-0.1-1.5-0.2-3.1-0.2-4.6c-0.2,1-0.7,2-1.4,2.8c-0.7-1.4-1.2-2.9-1.5-4.4c0.1,0.6,0,1.2-0.4,1.7
		c-0.5-0.8-1-1.7-1.5-2.5c-2.1,0-4.2-1.2-5-2.9c1.4,1,2.8,2,4.2,3c-0.5-0.5-1.1-1.1-1.6-1.6c0.8,1.2,1.4,2.4,1.9,3.7
		c-1.4-0.2-2.6-1.3-2.8-2.5c0.7,0,1.4,0,2.2,0c-0.6,1.1,0.3,2.6,1.6,2.8c-0.6,0.1-1.2,0.3-1.7,0.4c1.6,0.5,3.2,1,4.7,1.5
		c-0.3,0.5-0.9,1-1.5,1.2c0.6,1.3,3,1.1,3.8-0.1s0-2.8-1.3-3.5c-0.2,1-0.5,2-0.7,2.9c-0.5-1.4-0.9-2.8-1.4-4.3
		c-0.2,0.5-0.3,0.9-0.5,1.4c-1.2-0.8-2.1-1.9-2.6-3.2c-0.7,0.5-0.5,1.5,0.2,2.1c0.6,0.5,1.6,0.8,2.4,1.1c2.5,1,4.2,3.3,4.2,5.7
		c1.5-0.6,3.1,0.5,4.5,1.2c2.6,1.3,5.8,1.3,8.9,1.2"/>
</g>
<g class="st10">
	<path class="st8" d="M-467.2,20.2c-0.8,7.4-5.8,14.1-12.5,17.2c-7.2,3.3-15.8,2.5-22.9,6.1c-3.8,2-6.9,5.1-9.8,8.2
		c3.3-6.5,10.3-11,17.6-11.3c3.5-0.1,7.1,0.6,10.4-0.4c3-0.9,5.4-3.1,7.6-5.2c4.4-4.2,9-9.1,9.5-15.2c-2.1,4.3-4.1,8.7-7.1,12.5
		s-7,6.9-11.7,7.9c-4.3,0.9-8.9-0.1-13.1,1.1c-6.8,1.8-11.1,8.5-13.5,15.1c0.8-2.1,1.7-4.1,2.5-6.2c0,1.1-0.1,2.3-0.1,3.4
		c-0.2-1.5,0-3.1,0.7-4.4c0.4,0.8,0.5,1.8,0.3,2.7c-0.1-1.5,0-3,0.2-4.5c0.4,1.2,0.7,2.3,1.1,3.5c-0.3-1.8,0-3.7,0.8-5.4
		c0.3,1.3,0.6,2.5,0.8,3.8c-0.3-1.4,0-2.9,0.7-4.1c-2.6-0.2-5.1,0-7.6,0.7c2,1.1,4.3,1.6,6.5,1.6c-2-0.6-4.2-0.3-6,0.6
		c1.2,0.1,2.3,0.2,3.5,0.3c-1.4-0.4-3,0.2-3.6,1.5c0.7,0,1.4,0,2.1,0c-1.7,0.8-3.2,1.9-4.5,3.3c1.4,0.1,2.8-0.1,4.1-0.6
		c-0.9,0.5-1.7,1.3-2.3,2.2c0.5-0.4,1-0.7,1.4-1.1c-1.4,0.7-2.8,1.5-4.2,2.2c1.5-0.3,2.8-1.2,3.8-2.4c-0.6,1.5-1.7,2.8-3,3.8
		c-0.1-1.9,0.5-3.8,1.6-5.4c-0.4,1.9-1.7,3.7-3.4,4.6c2.3-1.4,4.2-3.3,5.6-5.7c-1.2-0.3-2.5,0.2-3.3,1.1c1.6-0.6,3.2-1.5,4.6-2.5
		c-0.7-0.4-1.2-1-1.6-1.7c1.1-0.3,2.1-0.6,3.2-0.9c-0.5-0.7-1.1-1.2-1.9-1.5c1.5-0.5,3.1,0.6,3.8,2c0.6,1.4,0.5,3.1,0.4,4.6
		c-0.3-2.3-0.9-4.5-2-6.5c0,1.9,0,3.7,0.1,5.6c-0.3-1.2-0.9-2.3-1.7-3.3c-0.6,1.8-1,3.6-1.3,5.4c0.1-0.7-0.1-1.4-0.5-2
		c-0.5,1-0.9,2.1-1.4,3.1c-2.2,0.2-4.3,1.7-5.1,3.9c1.4-1.3,2.8-2.6,4.2-3.9c-0.5,0.7-1.1,1.4-1.6,2c0.7-1.5,1.3-3,1.7-4.6
		c-1.5,0.3-2.6,1.7-2.7,3.2c0.8,0,1.5-0.1,2.3-0.1c-0.7-1.3,0.1-3.1,1.5-3.4c-0.6-0.1-1.2-0.2-1.9-0.4c1.6-0.7,3.2-1.4,4.9-2.2
		c-0.4-0.6-1-1.1-1.7-1.3c0.5-1.6,3.1-1.6,3.9-0.2c0.9,1.4,0.2,3.4-1.1,4.3c-0.3-1.2-0.6-2.3-1-3.5c-0.4,1.7-0.8,3.5-1.1,5.2
		c-0.2-0.6-0.4-1.1-0.6-1.7c-1.2,1-2.1,2.5-2.5,4c-0.8-0.5-0.6-1.8,0-2.5c0.6-0.7,1.6-1,2.4-1.5c2.5-1.4,4.1-4.3,4-7.1
		c1.6,0.6,3.2-0.8,4.6-1.8c2.7-1.7,6-2,9.2-2.1"/>
	<path class="st8" d="M-464,15c3.4,3.7,4.2,9.8,2.2,15.6c-2.2,6.2-7.3,11.6-9.2,17.8c-1,3.4-1.1,6.7-1.1,10
		c-1.6-5-0.2-11.5,3.7-16.5c1.8-2.4,4.1-4.4,5.4-7.1c1.1-2.3,1.3-4.9,1.4-7.3c0.2-4.7,0.1-9.8-2.8-12.8c1.1,3.2,2.3,6.5,2.6,10.1
		c0.3,3.6-0.2,7.6-2.3,11.1c-1.9,3.2-4.9,5.9-6.6,9.2c-2.7,5.3-1.6,11,0.5,15.4c-0.6-1.4-1.2-2.8-1.9-4.3c0.6,0.5,1.2,1,1.7,1.5
		c-0.9-0.5-1.6-1.3-1.9-2.4c0.6,0.1,1.2,0.4,1.6,0.9c-0.9-0.6-1.6-1.3-2.2-2.1c0.8,0.3,1.6,0.5,2.4,0.8c-1.1-0.6-1.9-1.6-2.4-2.8
		c0.8,0.3,1.6,0.7,2.4,1c-0.9-0.4-1.5-1.2-1.8-2.2c-1.5,1.6-2.8,3.4-3.8,5.4c1.6-0.9,3.2-2.1,4.4-3.6c-1.4,1.1-2.4,2.6-2.9,4.2
		c0.7-0.7,1.4-1.5,2.1-2.2c-1,0.7-1.5,2.1-1.2,3c0.4-0.5,0.8-0.9,1.2-1.4c-0.5,1.5-0.8,2.9-0.7,4.4c0.8-0.9,1.5-1.9,2-3
		c-0.2,0.8-0.3,1.7-0.1,2.4c0.1-0.5,0.2-0.9,0.2-1.4c-0.4,1.2-0.8,2.5-1.1,3.7c0.6-1.1,0.9-2.4,0.8-3.5c0.4,1.1,0.6,2.3,0.3,3.6
		c-1-0.8-1.7-2-1.9-3.3c0.8,1.1,1,2.7,0.5,4.2c0.5-2.1,0.6-4.2,0.1-6.1c-0.8,0.7-1.3,1.7-1.2,2.6c0.6-1.4,1-2.8,1.2-4.1
		c-0.6,0.3-1.2,0.4-1.7,0.3c0.4-0.8,0.9-1.7,1.3-2.5c-0.6,0-1.3,0.2-1.8,0.6c0.5-1.2,2-1.8,3.1-1.6c1.1,0.2,1.9,1,2.6,1.7
		c-1.3-0.8-2.8-1.3-4.5-1.5c1,0.8,2,1.6,2.9,2.3c-0.8-0.3-1.7-0.4-2.6-0.3c0.6,1.2,1.3,2.2,2.1,3.2c-0.3-0.3-0.8-0.5-1.3-0.5
		c0.3,0.8,0.6,1.5,0.9,2.3c-1.1,1.6-1.4,3.6-0.7,5c0.1-1.5,0.2-3,0.3-4.4c0.1,0.6,0.1,1.3,0.2,1.9c-0.4-1.1-0.9-2.1-1.4-3.1
		c-0.6,1.1-0.5,2.5,0.2,3.2c0.4-0.5,0.8-1,1.2-1.5c-1.1-0.1-1.6-1.4-1-2.5c-0.4,0.4-0.8,0.7-1.2,1.1c0.5-1.4,1-2.8,1.5-4.1
		c-0.5,0-1.1,0.2-1.6,0.6c-0.5-1,0.8-2.7,2-2.7c1.2,0,1.8,1.3,1.7,2.6c-0.8-0.3-1.6-0.6-2.3-0.9c0.7,1,1.4,2,2.1,3
		c-0.4-0.1-0.8-0.2-1.2-0.3c-0.1,1.3,0.1,2.5,0.7,3.4c-0.7,0.3-1.3-0.4-1.3-1.1s0.3-1.5,0.5-2.2c0.6-2.3,0-4.6-1.5-5.7
		c1.2-0.8,1.3-2.5,1.6-3.8c0.5-2.5,2.3-4.8,3.9-7"/>
	<path class="st11" d="M-456.7,15.8c0.8,7.4,5.8,14.1,12.5,17.2c7.2,3.3,15.8,2.5,22.9,6.1c3.8,2,6.9,5.1,9.8,8.2
		c-3.3-6.5-10.3-11-17.6-11.3c-3.5-0.1-7.1,0.6-10.4-0.4c-3-0.9-5.4-3.1-7.6-5.2c-4.4-4.2-9-9.1-9.5-15.2c2.1,4.3,4.1,8.7,7.1,12.5
		s7,6.9,11.7,7.9c4.3,0.9,8.9-0.1,13.1,1.1c6.8,1.8,11.1,8.5,13.5,15.1c-0.8-2.1-1.7-4.1-2.5-6.2c0,1.1,0.1,2.3,0.1,3.4
		c0.2-1.5,0-3.1-0.7-4.4c-0.4,0.8-0.5,1.8-0.3,2.7c0.1-1.5,0-3-0.2-4.5c-0.4,1.2-0.7,2.3-1.1,3.5c0.3-1.8,0-3.7-0.8-5.4
		c-0.3,1.3-0.6,2.5-0.8,3.8c0.3-1.4,0-2.9-0.7-4.1c2.6-0.2,5.1,0,7.6,0.7c-2,1.1-4.3,1.6-6.5,1.6c2-0.6,4.2-0.3,6,0.6
		c-1.2,0.1-2.3,0.2-3.5,0.3c1.4-0.4,3,0.2,3.6,1.5c-0.7,0-1.4,0-2.1,0c1.7,0.8,3.2,1.9,4.5,3.3c-1.4,0.1-2.8-0.1-4.1-0.6
		c0.9,0.5,1.7,1.3,2.3,2.2c-0.5-0.4-1-0.7-1.4-1.1c1.4,0.7,2.8,1.5,4.2,2.2c-1.5-0.3-2.8-1.2-3.8-2.4c0.6,1.5,1.7,2.8,3,3.8
		c0.1-1.9-0.5-3.8-1.6-5.4c0.4,1.9,1.7,3.7,3.4,4.6c-2.3-1.4-4.2-3.3-5.6-5.7c1.2-0.3,2.5,0.2,3.3,1.1c-1.6-0.6-3.2-1.5-4.6-2.5
		c0.7-0.4,1.2-1,1.6-1.7c-1.1-0.3-2.1-0.6-3.2-0.9c0.5-0.7,1.1-1.2,1.9-1.5c-1.5-0.5-3.1,0.6-3.8,2c-0.6,1.4-0.5,3.1-0.4,4.6
		c0.3-2.3,0.9-4.5,2-6.5c0,1.9,0,3.7-0.1,5.6c0.3-1.2,0.9-2.3,1.7-3.3c0.6,1.8,1,3.6,1.3,5.4c-0.1-0.7,0.1-1.4,0.5-2
		c0.5,1,0.9,2.1,1.4,3.1c2.2,0.2,4.3,1.7,5.1,3.9c-1.4-1.3-2.8-2.6-4.2-3.9c0.5,0.7,1.1,1.4,1.6,2c-0.7-1.5-1.3-3-1.7-4.6
		c1.5,0.3,2.6,1.7,2.7,3.2c-0.8,0-1.5-0.1-2.3-0.1c0.7-1.3-0.1-3.1-1.5-3.4c0.6-0.1,1.2-0.2,1.9-0.4c-1.6-0.7-3.2-1.4-4.9-2.2
		c0.4-0.6,1-1.1,1.7-1.3c-0.5-1.6-3.1-1.6-3.9-0.2c-0.9,1.4-0.2,3.4,1.1,4.3c0.3-1.2,0.6-2.3,1-3.5c0.4,1.7,0.8,3.5,1.1,5.2
		c0.2-0.6,0.4-1.1,0.6-1.7c1.2,1,2.1,2.5,2.5,4c0.8-0.5,0.6-1.8,0-2.5c-0.6-0.7-1.6-1-2.4-1.5c-2.5-1.4-4.1-4.3-4-7.1
		c-1.6,0.6-3.2-0.8-4.6-1.8c-2.7-1.7-6-2-9.2-2.1"/>
	<path class="st12" d="M-461.4,15.7c-3,6.8-2.1,15.1,2.2,21.2c4.6,6.5,12.4,10.1,16.7,16.8c2.3,3.6,3.4,7.9,4.4,12.1
		c0.4-7.3-3.3-14.7-9.5-18.6c-2.9-1.9-6.4-3-8.8-5.6c-2.1-2.3-3.1-5.3-4-8.3c-1.7-5.9-3.2-12.4-0.5-17.9c-0.4,4.8-0.8,9.6-0.1,14.4
		c0.7,4.8,2.6,9.5,6.2,12.7c3.3,2.9,7.7,4.4,10.8,7.5c4.9,5,5.3,12.9,4.1,19.8c0.3-2.2,0.6-4.4,0.9-6.6c-0.5,1-1.1,2-1.6,3
		c1-1.2,1.5-2.7,1.6-4.2c-0.8,0.5-1.4,1.3-1.7,2.2c0.9-1.2,1.6-2.6,2.1-4c-0.9,0.8-1.8,1.6-2.7,2.5c1.1-1.4,1.9-3.2,2-5.1
		c-0.9,0.9-1.7,1.9-2.6,2.8c1-1.1,1.5-2.5,1.5-3.9c2.3,1.1,4.4,2.6,6.2,4.4c-2.3-0.1-4.5-0.7-6.4-1.9c2,0.5,3.8,1.8,4.8,3.6
		c-1.1-0.5-2.1-1-3.2-1.5c1.4,0.3,2.5,1.7,2.4,3.1c-0.6-0.4-1.2-0.7-1.8-1.1c1.1,1.5,1.8,3.3,2.2,5.1c-1.3-0.6-2.4-1.5-3.3-2.6
		c0.5,0.9,0.8,2,0.9,3c-0.2-0.5-0.5-1.1-0.7-1.6c0.8,1.3,1.7,2.7,2.5,4c-1.1-1-1.9-2.4-2.1-3.9c-0.2,1.6,0,3.3,0.7,4.8
		c1-1.6,1.5-3.6,1.3-5.4c-0.7,1.9-0.4,4,0.7,5.7c-1.3-2.3-2-5-2-7.7c1.2,0.4,2.1,1.4,2.3,2.6c-1.1-1.4-2-2.9-2.7-4.5
		c0.8,0,1.5-0.3,2.2-0.7c-0.8-0.8-1.6-1.6-2.3-2.4c0.7-0.4,1.6-0.5,2.4-0.3c-1-1.2-3-1-4.3-0.1c-1.3,0.9-2,2.4-2.7,3.8
		c1.4-1.8,3.1-3.4,5-4.6c-0.9,1.6-1.9,3.2-2.8,4.8c0.8-0.9,1.9-1.6,3.1-2c-0.4,1.8-0.9,3.6-1.6,5.3c0.3-0.6,0.8-1.2,1.4-1.4
		c-0.1,1.1-0.2,2.3-0.4,3.4c1.8,1.3,2.8,3.7,2.4,5.9c-0.6-1.8-1.1-3.6-1.7-5.5c0.1,0.9,0.2,1.7,0.4,2.6c0.1-1.6,0.4-3.2,0.8-4.8
		c1.1,1,1.4,2.8,0.7,4.1c-0.6-0.4-1.3-0.8-1.9-1.2c1.3-0.7,1.5-2.7,0.4-3.7c0.6,0.2,1.2,0.4,1.8,0.6c-1-1.4-2.1-2.9-3.1-4.3
		c0.6-0.4,1.4-0.5,2.1-0.3c0.3-1.6-1.9-2.9-3.3-2.1s-1.9,2.8-1.2,4.3c0.9-0.8,1.7-1.7,2.6-2.5c-0.6,1.7-1.1,3.4-1.7,5.1
		c0.4-0.4,0.9-0.8,1.3-1.1c0.5,1.5,0.6,3.2,0.2,4.7c0.9-0.1,1.4-1.3,1.2-2.2c-0.2-0.9-0.8-1.7-1.3-2.5c-1.5-2.5-1.4-5.8,0.1-8.2
		c-1.7-0.3-2.3-2.3-3.1-3.8c-1.4-2.9-4.2-4.7-6.9-6.5"/>
	<path class="st8" d="M-448.2,18c-2.4,5.7-1.1,12.9,3.1,18.3c4.6,5.8,12,9.4,16.3,15.4c2.3,3.2,3.5,7,4.7,10.6
		c0-6.2-3.9-12.8-9.8-16.5c-2.8-1.8-6.1-3-8.4-5.3c-2.1-2.1-3.2-4.8-4.1-7.4c-1.9-5.1-3.6-10.8-1.5-15.4c-0.1,4.1-0.2,8.2,0.7,12.4
		s2.9,8.3,6.4,11.3c3.2,2.7,7.4,4.2,10.4,7.1c4.8,4.6,5.6,11.4,4.9,17.3c0.2-1.9,0.3-3.7,0.5-5.6c-0.4,0.8-0.9,1.7-1.3,2.5
		c0.8-1,1.3-2.2,1.3-3.5c-0.7,0.4-1.2,1-1.4,1.8c0.7-1,1.3-2.2,1.7-3.4c-0.8,0.7-1.6,1.3-2.4,2c1-1.2,1.5-2.7,1.6-4.3
		c-0.8,0.8-1.5,1.5-2.3,2.3c0.8-0.9,1.3-2.1,1.1-3.3c2.2,1.1,4.2,2.5,6,4.2c-2.1-0.2-4.2-0.9-6-2c1.9,0.5,3.6,1.7,4.7,3.3
		c-1-0.5-2-1-3-1.5c1.3,0.3,2.4,1.6,2.4,2.8c-0.6-0.3-1.2-0.7-1.8-1c1.1,1.4,1.9,2.9,2.3,4.5c-1.2-0.6-2.3-1.4-3.2-2.4
		c0.5,0.8,0.9,1.7,1,2.6c-0.3-0.5-0.5-1-0.8-1.5c0.8,1.2,1.7,2.4,2.5,3.6c-1.1-0.9-1.8-2.2-2.1-3.5c-0.1,1.4,0.2,2.8,0.9,4.1
		c0.8-1.3,1.2-3,0.9-4.6c-0.5,1.6-0.2,3.4,0.9,4.9c-1.3-2.1-2.1-4.4-2.2-6.7c1.1,0.4,2,1.3,2.3,2.3c-1.1-1.2-2-2.6-2.8-4
		c0.7,0,1.4-0.2,2-0.5c-0.8-0.7-1.5-1.4-2.3-2.2c0.7-0.3,1.4-0.3,2.2-0.1c-1-1.1-2.8-1.1-4-0.3c-1.1,0.7-1.7,2-2.3,3.1
		c1.2-1.5,2.6-2.8,4.4-3.7c-0.8,1.3-1.6,2.6-2.4,4c0.7-0.7,1.7-1.3,2.7-1.5c-0.2,1.6-0.6,3.1-1.2,4.5c0.2-0.5,0.7-1,1.2-1.2
		c-0.1,1-0.1,1.9-0.2,2.9c1.8,1.2,2.8,3.3,2.6,5.2c-0.6-1.6-1.2-3.2-1.8-4.8c0.2,0.7,0.3,1.5,0.5,2.2c0-1.4,0.2-2.8,0.5-4.1
		c1.1,0.9,1.5,2.5,0.9,3.6c-0.6-0.4-1.2-0.8-1.8-1.2c1.1-0.6,1.2-2.3,0.2-3.2c0.6,0.2,1.1,0.4,1.7,0.6c-1-1.3-2.1-2.6-3.1-3.9
		c0.6-0.3,1.3-0.3,1.9-0.1c0.2-1.4-1.9-2.6-3.2-2c-1.3,0.6-1.6,2.3-0.9,3.6c0.7-0.7,1.5-1.4,2.2-2c-0.4,1.4-0.8,2.9-1.2,4.3
		c0.4-0.3,0.8-0.6,1.2-0.9c0.6,1.3,0.7,2.8,0.4,4.1c0.9,0,1.3-1,1-1.8c-0.3-0.8-0.9-1.5-1.4-2.2c-1.5-2.2-1.6-5-0.4-7.1
		c-1.6-0.3-2.3-2.1-3.1-3.5c-1.5-2.5-4.2-4.3-6.7-5.9"/>
	<path class="st13" d="M-475.9,19.2c-1.2,6-6.2,11.4-12.8,13.5c-7,2.3-15.2,1.1-22.1,3.7c-3.7,1.5-6.8,3.9-9.8,6.3
		c3.5-5.2,10.4-8.5,17.3-8.3c3.3,0.1,6.7,0.9,9.9,0.3c2.9-0.6,5.3-2.2,7.5-3.8c4.4-3.2,9-7,9.8-12c-2.2,3.5-4.4,7-7.4,9.9
		s-7.1,5.3-11.6,5.8c-4.2,0.5-8.5-0.6-12.6,0.1c-6.5,1.1-11,6.4-13.6,11.7c0.9-1.6,1.8-3.3,2.7-4.9c-0.1,0.9-0.2,1.9-0.3,2.8
		c-0.1-1.3,0.2-2.6,0.9-3.6c0.3,0.7,0.4,1.5,0.2,2.3c0-1.3,0.1-2.5,0.5-3.7c0.3,1,0.6,2,0.9,2.9c-0.2-1.5,0.2-3.1,1-4.4
		c0.2,1.1,0.4,2.1,0.6,3.2c-0.2-1.2,0.1-2.4,0.9-3.4c-2.4-0.3-4.9-0.3-7.3,0.1c1.8,1,4,1.6,6.1,1.7c-1.8-0.6-3.9-0.5-5.7,0.2
		c1.1,0.2,2.2,0.3,3.3,0.5c-1.3-0.4-2.8,0-3.6,1c0.7,0,1.4,0.1,2,0.1c-1.7,0.5-3.2,1.4-4.4,2.4c1.3,0.2,2.7,0.1,4-0.2
		c-0.9,0.4-1.7,1-2.3,1.7c0.5-0.3,1-0.5,1.4-0.8c-1.4,0.5-2.7,1-4.1,1.6c1.4-0.2,2.8-0.8,3.7-1.7c-0.7,1.2-1.7,2.2-3,2.9
		c0-1.6,0.7-3.1,1.8-4.4c-0.5,1.6-1.8,2.9-3.5,3.6c2.3-1,4.2-2.5,5.6-4.3c-1.1-0.3-2.4,0-3.2,0.7c1.6-0.4,3.1-1,4.5-1.8
		c-0.6-0.4-1.1-0.9-1.4-1.5c1-0.2,2.1-0.3,3.1-0.5c-0.4-0.6-1-1.1-1.8-1.3c1.4-0.3,2.9,0.7,3.5,1.9c0.5,1.2,0.3,2.6,0.1,3.9
		c-0.1-1.9-0.7-3.8-1.6-5.5c-0.1,1.5-0.2,3.1-0.2,4.6c-0.2-1-0.7-2-1.4-2.8c-0.7,1.4-1.2,2.9-1.5,4.4c0.1-0.6,0-1.2-0.4-1.7
		c-0.5,0.8-1,1.7-1.5,2.5c-2.1,0-4.2,1.2-5,2.9c1.4-1,2.8-2,4.2-3c-0.5,0.5-1.1,1.1-1.6,1.6c0.8-1.2,1.4-2.4,1.9-3.7
		c-1.4,0.2-2.6,1.3-2.8,2.5c0.7,0,1.4,0,2.2,0c-0.6-1.1,0.3-2.6,1.6-2.8c-0.6-0.1-1.2-0.3-1.7-0.4c1.6-0.5,3.2-1,4.7-1.5
		c-0.3-0.5-0.9-1-1.5-1.2c0.6-1.3,3-1.1,3.8,0.1s0,2.8-1.3,3.5c-0.2-1-0.5-2-0.7-2.9c-0.5,1.4-0.9,2.8-1.4,4.3
		c-0.2-0.5-0.3-0.9-0.5-1.4c-1.2,0.8-2.1,1.9-2.6,3.2c-0.7-0.5-0.5-1.5,0.2-2.1c0.7-0.6,1.6-0.8,2.4-1.1c2.5-1,4.2-3.3,4.2-5.7
		c1.5,0.6,3.1-0.5,4.5-1.2c2.6-1.3,5.8-1.3,8.9-1.2"/>
	<path class="st14" d="M-465.6,19.2c-0.9,5-1.8,10-3.9,14.6c-2.7,5.9-7.4,10.7-11.9,15.4c-0.1,0.3,0.5,0.1,0.3-0.2s-0.5-0.2-0.8-0.1
		c-1.7,0.4-3.3-0.7-4.9-1.2c-2.9-1-6.2-0.3-8.5,1.7c-0.4-0.2-0.8-0.4-1.2-0.6c-0.1,0-0.2,0.1-0.3,0.1c-0.4,0.4,0.6,0.9,0.7,0.4
		c-0.3,0.4-0.6,0.7-0.9,1.1c-0.3-0.2-0.1-0.8,0.2-0.9c0.4-0.1,0.7,0.4,0.5,0.7c0.1-0.4,0.1-0.8,0.2-1.3c0.2,0.4,0.5,0.7,0.7,1.1
		c0.1-0.4,0-0.9-0.3-1.3c-0.9-0.1-1.8-0.1-2.7-0.2c0.7,0.6,1.8,0.9,2.7,0.6c-0.1-0.7-1-1.1-1.5-0.7"/>
	<path class="st8" d="M-481.8,49.8c-0.6,2-1,4.1-1.3,6.2c-0.2-0.1,0.1-0.4,0.2-0.2c0.1,0.2,0.1,0.4-0.1,0.5s-0.4,0.1-0.5-0.1
		c0.2-0.2,0.5-0.2,0.7,0c-0.5,0.1-0.9,0.1-1.4,0.2c0.1-0.3,0.3-0.4,0.6-0.4c0.1,0.3,0.1,0.6-0.1,0.9c0.1-0.2,0.2-0.3,0.4-0.3
		c0,0.2,0,0.5,0,0.7c0-0.4,0.1-0.8,0.2-1.1c0.2,0.3,0.5,0.6,0.8,0.7c0-0.4-0.2-0.7-0.6-0.8c0.1,0.4,0.4,0.7,0.8,0.9
		c-0.4-0.2-0.8-0.4-1.2-0.6c0,0.3,0,0.5-0.1,0.8c0.1-0.2,0.1-0.4,0.1-0.6s-0.2-0.4-0.4-0.4c-0.1,0-0.2,0.1-0.2,0.1
		c-0.3,0.2-0.6,0.4-0.9,0.6c0.5,0.1,1.1-0.2,1.4-0.6c-0.4,0-0.9,0-1.3,0c0.5,0.1,1-0.1,1.3-0.4"/>
	<path class="st15" d="M-475.9,42.4c-2.1,0-4.1,0-6.2,0c-0.8,0-1.7,0-2.3,0.4c0.3,0.1,0.6,0.1,0.9,0.1c0,0.1,0,0.3,0,0.4
		c-0.5,0.1-1-0.5-0.7-1c-0.2,0.2,0,0.5,0.1,0.7s-0.2,0.6-0.3,0.4c-0.2-0.5-0.2-1-0.1-1.5c0.2-0.3,0.7,0,0.7,0.3s-0.4,0.6-0.7,0.6
		c-0.4,0-0.8-0.3-0.6-0.7c0.3-0.1,0.6-0.1,0.8,0c0.2,0.1,0.3,0.6,0,0.7"/>
	<path class="st8" d="M-471.2,38.2c-0.1,1.5-0.1,2.9-0.2,4.4c0,0.8-0.2,1.7-1,1.9c-0.1-0.2-0.1-0.5,0-0.8c0.3,0.1,0.3,0.7,0,0.8
		c-0.3,0.1-0.7-0.3-0.5-0.6c0.1,0,0.2,0,0.3,0c0,0.2,0.1,0.3,0.1,0.5c-0.1,0-0.3,0-0.4-0.1"/>
	<path class="st8" d="M-478.7,45.9c-0.3,1.6,0.8,3.3,0.4,4.9c-0.5-0.2-0.8-0.9-0.5-1.3c0.1,0.2,0.3,0.4,0.3,0.7s-0.1,0.5-0.3,0.5
		c0.2-0.4,0.8-0.4,1.1-0.2c-0.3,0.4-1,0.5-1.4,0.3c0.3-0.6,1-1,1.7-0.9c0.2,0.7-0.7,1.3-1.3,1"/>
	<path class="st8" d="M-482.4,50.1c-2.8-0.4-5.9,1.4-6.9,4c0,0.1-0.1,0.3-0.2,0.3s-0.3-0.2-0.1-0.2c0.3,0,0.5,0.3,0.4,0.6
		c-0.4,0.1-0.7-0.5-0.4-0.8c0.1,0.1,0.2,0.3,0.1,0.5c-0.4,0-0.8,0-1.1,0c0-0.3,0-0.6,0-0.9c0.9-0.2,1.8,0.8,1.5,1.7
		c-0.5,0.1-0.8-0.5-1-1c0.2,0.1,0.5,0.2,0.7,0.4"/>
	<path class="st8" d="M-470.7,36.1c-1.8,0.3-3,2.2-4.8,2.5c0.2,0.1,0.3,0.3,0.2,0.5c-0.1,0.2-0.4,0.3-0.6,0.1
		c-0.1-0.3-0.3-0.6-0.2-0.8c0.1-0.3,0.4-0.5,0.7-0.4c0,0.4-0.3,0.8-0.7,0.8c-0.4,0-0.7-0.3-0.8-0.7c0.2-0.2,0.7-0.2,0.9,0.1"/>
	<path class="st8" d="M-471.1,37.2c0,0.7,0,1.5,0,2.2"/>
	<path class="st8" d="M-468.1,29.8c0.1,0.5,0,1,0,1.5s0.1,1.1,0.6,1.3c0.3,0.1,0.5,0.1,0.8,0.2c0.5,0.1,0.8,0.6,0.9,1
		c0,0.5-0.3,1-0.7,1.2c0-0.3,0-0.6,0.2-0.8c0.1,0,0.2,0,0.4,0c0,0.2,0,0.4,0,0.6c-0.2,0-0.4,0-0.5-0.2s0.2-0.4,0.3-0.2
		c0.2,0.3,0.2,0.7-0.1,0.9c-0.3,0.2-0.8,0.1-0.9-0.3c-0.1-0.4,0.6-0.6,0.7-0.3c0.2,0.7-0.4,1.5-1.1,1.6"/>
	<path class="st8" d="M-476.2,42.6c0.3-0.2,0.7-0.4,1-0.5"/>
	<path class="st8" d="M-482.5,49.6c0.5-0.1,1.1-0.3,1.4-0.8"/>
	<path class="st16" d="M-458.6,17.2c-0.4,3.7,0,7.5,1.2,11c0.6,1.7,1.8,3.3,2.3,5c0.5,1.5-0.5,3.5-1.4,4.9c0.8,0.2,1.5,0.7,1.9,1.3
		c-0.3,0.2-0.9-0.1-0.9-0.5c0.3,0.3,0.5,0.8,0.3,1.2c-0.4-0.1-0.7-0.6-0.4-1c0.3-0.1,0.6,0.1,0.6,0.4"/>
	<path class="st8" d="M-454.5,34.3c0,0.4,0.3,0.8,0.5,1.2c1.2,1.5,2.7,2.8,3.6,4.4c0.6,1,1,2.2,2,2.9c0.1-0.1,0.2-0.3,0.1-0.5
		c0.3,0,0.5,0.3,0.6,0.6c0.1,0.3,0,0.6-0.1,0.9c-0.4,0.1-0.9,0-1-0.3c-0.1-0.3,0.2-0.7,0.5-0.7c0.3,0,0.7,0.1,1,0.3
		c0.3,0.1,0.6,0.4,0.4,0.7c-0.1,0-0.3,0-0.4,0"/>
	<path class="st8" d="M-453.9,33.2c1.3,0.1,2.6,0.4,3.8,0.8c0.5,0.2,1.1,0.4,1.5,0.9s0.3,1.2-0.2,1.5c-0.1-0.1-0.1-0.3-0.1-0.5
		c0.3,0.3,0.4,0.7,0.2,1.1c-0.3,0.2-0.8-0.2-0.6-0.6c0.5,0,1,0.4,1.3,0.9c-0.1-0.2-0.3-0.4-0.4-0.6"/>
	<path class="st8" d="M-456.8,28.2c0.6,0.1,1.1,0.3,1.7,0.4c0.5,0.1,0.9,0.2,1.3,0.5c0.4,0.3,0.6,0.8,0.4,1.2
		c-0.3,0.1-0.6-0.1-0.7-0.4c0.2-0.3,0.8,0,0.7,0.3c-0.2,0-0.3-0.3-0.1-0.4"/>
	<path class="st8" d="M-457.5,29.8c-0.5,0.7-0.9,1.5-1.2,2.3c-0.1,0.2-0.1,0.4-0.1,0.6s0.1,0.4,0.2,0.5c0.3,0.5,0.6,1,0.8,1.5
		c-0.2-0.3-0.4-0.7-0.4-1.1c0.2,0.3,0.5,0.5,0.5,0.9c0,0.3-0.3,0.7-0.6,0.6"/>
	<path class="st8" d="M-453.1,33.2c-0.8,0-1.6,0-2.4,0"/>
	<path class="st8" d="M-457.4,28.8c0,0.5-0.3,1-0.7,1.4"/>
</g>
<g class="st10">
	<path class="st8" d="M-436.2,13.2c5.5-0.6,10.5-4.3,12.8-9.4c2.4-5.4,1.8-11.8,4.5-17.1c1.5-2.8,3.8-5.1,6.1-7.4
		c-4.9,2.5-8.2,7.7-8.4,13.1c-0.1,2.6,0.5,5.3-0.3,7.7c-0.7,2.2-2.3,4-3.9,5.7c-3.1,3.3-6.8,6.7-11.3,7.1c3.2-1.5,6.5-3.1,9.3-5.3
		c2.8-2.2,5.1-5.3,5.8-8.8c0.7-3.2-0.1-6.6,0.8-9.8c1.3-5.1,6.3-8.3,11.2-10.1c-1.5,0.6-3.1,1.2-4.6,1.9c0.9,0,1.7-0.1,2.6-0.1
		c-1.1-0.2-2.3,0-3.3,0.6c0.6,0.3,1.3,0.4,2,0.3c-1.1-0.1-2.3,0-3.4,0.2c0.9,0.3,1.7,0.5,2.6,0.8c-1.4-0.2-2.8,0-4,0.6
		c0.9,0.2,1.9,0.4,2.8,0.6c-1-0.2-2.2,0-3.1,0.5c-0.2-1.9,0-3.8,0.5-5.7c0.8,1.5,1.2,3.2,1.2,4.9c-0.4-1.5-0.3-3.1,0.5-4.4
		c0.1,0.9,0.2,1.7,0.2,2.6c-0.3-1,0.2-2.2,1.1-2.7c0,0.5,0,1.1,0,1.6c0.6-1.3,1.4-2.4,2.4-3.3c0.1,1-0.1,2.1-0.4,3.1
		c0.4-0.7,0.9-1.3,1.6-1.7c-0.3,0.4-0.5,0.7-0.8,1.1c0.5-1,1.1-2.1,1.6-3.1c-0.2,1.1-0.9,2.1-1.8,2.8c1.1-0.5,2.1-1.2,2.8-2.2
		c-1.4,0-2.8,0.4-4,1.2c1.4-0.3,2.7-1.2,3.4-2.6c-1,1.7-2.5,3.2-4.2,4.2c-0.2-0.9,0.1-1.9,0.8-2.5c-0.5,1.2-1.1,2.4-1.9,3.4
		c-0.3-0.5-0.8-0.9-1.3-1.2c-0.2,0.8-0.4,1.6-0.6,2.4c-0.5-0.3-0.9-0.9-1.1-1.4c-0.4,1.1,0.5,2.3,1.5,2.8s2.3,0.4,3.5,0.3
		c-1.7-0.2-3.4-0.7-4.9-1.5c1.4,0,2.8,0,4.2,0c-0.9-0.2-1.7-0.6-2.4-1.2c1.3-0.5,2.7-0.8,4-1c-0.5,0.1-1-0.1-1.5-0.4
		c0.8-0.3,1.6-0.7,2.3-1c0.1-1.7,1.3-3.2,2.9-3.8c-1,1-1.9,2.1-2.9,3.1c0.5-0.4,1-0.8,1.5-1.2c-1.1,0.5-2.2,1-3.4,1.3
		c0.3-1.1,1.3-2,2.4-2c0,0.6-0.1,1.1-0.1,1.7c-0.9-0.5-2.3,0.1-2.6,1.1c-0.1-0.5-0.2-0.9-0.3-1.4c-0.5,1.2-1.1,2.4-1.6,3.6
		c-0.5-0.3-0.8-0.7-1-1.3c-1.2,0.4-1.2,2.3-0.1,2.9c1,0.6,2.5,0.1,3.2-0.8c-0.9-0.2-1.7-0.5-2.6-0.7c1.3-0.3,2.6-0.6,3.9-0.9
		c-0.4-0.1-0.8-0.3-1.2-0.4c0.8-0.9,1.8-1.6,3-1.9c-0.4-0.6-1.4-0.5-1.9,0s-0.8,1.2-1.1,1.8c-1,1.9-3.2,3.1-5.3,3
		c0.5,1.2-0.6,2.4-1.3,3.4c-1.3,2-1.4,4.5-1.6,6.9"/>
	<path class="st8" d="M-440.1,15.5c2.8,2.5,7.4,3.1,11.7,1.6c4.6-1.7,8.6-5.5,13.2-6.9c2.5-0.8,5-0.8,7.5-0.8
		c-3.7-1.2-8.6-0.1-12.3,2.8c-1.8,1.4-3.3,3.1-5.2,4.1c-1.7,0.9-3.6,1-5.4,1.1c-3.5,0.2-7.3,0.1-9.5-2.1c2.4,0.8,4.8,1.7,7.5,1.9
		c2.7,0.2,5.7-0.2,8.3-1.7c2.4-1.4,4.4-3.6,6.8-4.9c3.9-2,8.2-1.2,11.5,0.3c-1.1-0.5-2.1-0.9-3.2-1.4c0.4,0.4,0.8,0.9,1.1,1.3
		c-0.4-0.7-1-1.2-1.8-1.4c0.1,0.5,0.3,0.9,0.7,1.2c-0.4-0.6-1-1.2-1.6-1.7c0.2,0.6,0.4,1.2,0.6,1.8c-0.5-0.8-1.2-1.4-2.1-1.8
		c0.3,0.6,0.5,1.2,0.8,1.8c-0.3-0.7-0.9-1.1-1.7-1.3c1.2-1.1,2.5-2.1,4-2.8c-0.6,1.2-1.6,2.4-2.7,3.3c0.8-1,1.9-1.8,3.1-2.2
		c-0.5,0.5-1.1,1-1.6,1.5c0.5-0.7,1.5-1.1,2.3-0.9c-0.4,0.3-0.7,0.6-1.1,0.9c1.1-0.4,2.2-0.6,3.2-0.6c-0.7,0.6-1.4,1.1-2.2,1.5
		c0.6-0.2,1.2-0.2,1.8-0.1c-0.4,0.1-0.7,0.1-1.1,0.2c0.9-0.3,1.8-0.6,2.8-0.9c-0.8,0.5-1.8,0.7-2.6,0.6c0.8,0.3,1.7,0.4,2.7,0.2
		c-0.6-0.8-1.5-1.3-2.5-1.4c0.8,0.6,2,0.7,3.1,0.4c-1.6,0.4-3.1,0.4-4.5,0.1c0.5-0.6,1.3-0.9,2-0.9c-1,0.4-2,0.7-3.1,0.9
		c0.2-0.4,0.3-0.9,0.2-1.3c-0.6,0.3-1.2,0.6-1.9,1c0-0.5,0.2-0.9,0.5-1.4c-0.9,0.4-1.3,1.5-1.2,2.3c0.1,0.8,0.7,1.4,1.3,2
		c-0.6-1-1-2.1-1.1-3.3c0.6,0.7,1.2,1.5,1.8,2.2c-0.3-0.6-0.3-1.3-0.2-1.9c0.9,0.4,1.7,1,2.4,1.6c-0.3-0.2-0.4-0.6-0.4-1
		c0.6,0.2,1.1,0.4,1.7,0.6c1.2-0.8,2.7-1.1,3.7-0.6c-1.1,0.1-2.2,0.1-3.3,0.2c0.5,0,1,0.1,1.4,0.1c-0.8-0.3-1.6-0.6-2.3-1.1
		c0.8-0.5,1.8-0.4,2.4,0.1c-0.4,0.3-0.8,0.6-1.2,0.9c0-0.8-1-1.2-1.8-0.7c0.3-0.3,0.5-0.6,0.8-0.9c-1,0.4-2.1,0.8-3.1,1.1
		c0-0.4,0.1-0.8,0.4-1.2c-0.8-0.4-2,0.6-2,1.5s1,1.4,1.9,1.2c-0.2-0.6-0.4-1.2-0.6-1.7c0.7,0.5,1.5,1,2.2,1.6
		c-0.1-0.3-0.2-0.6-0.2-0.9c0.9-0.1,1.8,0.1,2.5,0.5c0.2-0.5-0.3-1-0.8-1s-1.1,0.2-1.7,0.4c-1.7,0.5-3.4,0-4.3-1.1
		c-0.6,0.9-1.8,1-2.8,1.2c-1.9,0.4-3.6,1.7-5.2,2.9"/>
	<path class="st11" d="M-439.4,21c5.5,0.6,10.6,4.3,12.9,9.3c2.5,5.4,1.9,11.8,4.6,17c1.5,2.8,3.8,5.1,6.2,7.3
		c-4.9-2.4-8.2-7.6-8.5-13.1c-0.1-2.6,0.4-5.3-0.3-7.7c-0.7-2.2-2.3-4-3.9-5.7c-3.2-3.3-6.8-6.7-11.4-7c3.2,1.5,6.5,3.1,9.3,5.3
		c2.8,2.2,5.1,5.2,5.9,8.7c0.7,3.2,0,6.6,0.8,9.8c1.4,5,6.4,8.2,11.3,10c-1.5-0.6-3.1-1.2-4.6-1.8c0.9,0,1.7,0,2.6,0.1
		c-1.1,0.2-2.3,0-3.3-0.5c0.6-0.3,1.3-0.4,2-0.3c-1.1,0.1-2.3,0-3.4-0.2c0.9-0.3,1.7-0.6,2.6-0.8c-1.4,0.2-2.8,0-4-0.6
		c0.9-0.2,1.9-0.4,2.8-0.6c-1,0.2-2.2,0-3.1-0.5c-0.1,1.9,0,3.8,0.6,5.7c0.8-1.5,1.2-3.2,1.2-4.9c-0.4,1.5-0.2,3.1,0.5,4.4
		c0.1-0.9,0.1-1.7,0.2-2.6c-0.3,1,0.2,2.2,1.1,2.7c0-0.5,0-1.1,0-1.6c0.6,1.3,1.4,2.4,2.4,3.3c0.1-1-0.1-2.1-0.4-3.1
		c0.4,0.7,1,1.3,1.6,1.7c-0.3-0.4-0.5-0.7-0.8-1.1c0.5,1,1.1,2.1,1.6,3.1c-0.2-1.1-0.9-2.1-1.8-2.8c1.1,0.5,2.1,1.2,2.8,2.2
		c-1.4,0-2.8-0.4-4-1.2c1.4,0.3,2.7,1.2,3.4,2.5c-1-1.7-2.5-3.2-4.2-4.1c-0.2,0.9,0.1,1.9,0.8,2.5c-0.5-1.2-1.1-2.4-1.9-3.4
		c-0.3,0.5-0.8,0.9-1.3,1.2c-0.2-0.8-0.4-1.6-0.7-2.4c-0.5,0.3-0.9,0.9-1.1,1.4c-0.4-1.1,0.4-2.3,1.5-2.8c1.1-0.5,2.3-0.4,3.5-0.3
		c-1.7,0.2-3.3,0.7-4.9,1.5c1.4,0,2.8,0,4.2-0.1c-0.9,0.2-1.7,0.6-2.4,1.3c1.3,0.4,2.7,0.8,4,1c-0.5-0.1-1,0.1-1.5,0.4
		c0.8,0.3,1.6,0.7,2.3,1c0.1,1.7,1.3,3.2,2.9,3.8c-1-1-1.9-2.1-2.9-3.1c0.5,0.4,1,0.8,1.5,1.2c-1.1-0.5-2.2-1-3.4-1.3
		c0.3,1.1,1.3,1.9,2.4,2c0-0.6-0.1-1.1-0.1-1.7c-0.9,0.5-2.3-0.1-2.6-1.1c-0.1,0.5-0.2,0.9-0.3,1.4c-0.5-1.2-1.1-2.4-1.6-3.6
		c-0.5,0.3-0.8,0.7-1,1.3c-1.2-0.4-1.2-2.3-0.1-2.9c1-0.6,2.5-0.2,3.2,0.8c-0.9,0.2-1.7,0.5-2.6,0.7c1.3,0.3,2.6,0.6,3.9,0.8
		c-0.4,0.1-0.8,0.3-1.2,0.4c0.8,0.9,1.8,1.6,3,1.9c-0.4,0.6-1.4,0.5-1.9,0s-0.8-1.2-1.1-1.8c-1-1.9-3.2-3.1-5.3-3
		c0.5-1.2-0.6-2.4-1.3-3.4c-1.3-2-1.5-4.5-1.6-6.9"/>
	<path class="st12" d="M-439.6,17.5c5.1-2.2,11.3-1.6,15.8,1.6c4.8,3.4,7.6,9.3,12.6,12.4c2.7,1.7,5.9,2.5,9,3.2
		c-5.4,0.3-10.9-2.5-13.9-7c-1.4-2.2-2.3-4.8-4.2-6.5c-1.7-1.6-4-2.3-6.2-2.9c-4.4-1.3-9.3-2.3-13.4-0.3c3.6-0.3,7.2-0.6,10.7-0.1
		s7.1,1.9,9.5,4.6c2.2,2.4,3.3,5.7,5.6,8c3.7,3.7,9.6,3.9,14.8,3c-1.6,0.2-3.3,0.5-4.9,0.7c0.7-0.4,1.5-0.8,2.2-1.2
		c-0.9,0.7-2,1.1-3.1,1.2c0.4-0.6,1-1,1.6-1.2c-0.9,0.7-1.9,1.2-3,1.6c0.6-0.7,1.2-1.3,1.8-2c-1.1,0.9-2.4,1.4-3.8,1.5
		c0.7-0.7,1.4-1.3,2.1-2c-0.8,0.7-1.9,1.1-2.9,1.1c0.8,1.7,2,3.3,3.3,4.6c-0.1-1.7-0.6-3.4-1.4-4.8c0.4,1.5,1.3,2.8,2.7,3.6
		c-0.4-0.8-0.8-1.6-1.1-2.4c0.2,1,1.3,1.8,2.3,1.8c-0.3-0.5-0.5-0.9-0.8-1.4c1.1,0.8,2.4,1.4,3.8,1.7c-0.5-0.9-1.1-1.8-1.9-2.5
		c0.7,0.4,1.5,0.6,2.2,0.6c-0.4-0.2-0.8-0.4-1.2-0.5c1,0.6,2,1.2,3,1.9c-0.8-0.8-1.8-1.4-2.9-1.5c1.2-0.2,2.4,0,3.5,0.5
		c-1.2,0.8-2.6,1.1-4.1,1c1.4-0.5,3-0.3,4.2,0.5c-1.7-1-3.7-1.5-5.7-1.4c0.3,0.9,1,1.5,1.9,1.7c-1-0.8-2.2-1.5-3.4-2
		c0,0.6-0.2,1.2-0.5,1.6c-0.6-0.6-1.2-1.2-1.8-1.7c-0.3,0.6-0.3,1.2-0.2,1.8c-0.9-0.8-0.8-2.2-0.1-3.2c0.7-0.9,1.8-1.5,2.8-2
		c-1.4,1-2.5,2.3-3.4,3.7c1.2-0.7,2.4-1.4,3.6-2.1c-0.7,0.6-1.2,1.4-1.5,2.3c1.4-0.3,2.7-0.7,4-1.2c-0.5,0.2-0.9,0.6-1.1,1.1
		c0.8-0.1,1.7-0.2,2.5-0.3c1,1.4,2.7,2.1,4.4,1.8c-1.4-0.4-2.7-0.8-4.1-1.2c0.6,0.1,1.3,0.2,1.9,0.3c-1.2,0.1-2.4,0.3-3.6,0.6
		c0.8,0.8,2.1,1,3.1,0.5c-0.3-0.5-0.6-0.9-0.9-1.4c-0.5,0.9-2,1.1-2.8,0.3c0.2,0.4,0.3,0.9,0.5,1.3c-1.1-0.8-2.1-1.5-3.2-2.3
		c-0.3,0.5-0.4,1.1-0.2,1.6c-1.2,0.3-2.2-1.4-1.6-2.5s2.1-1.4,3.2-0.9c-0.6,0.6-1.3,1.3-1.9,1.9c1.3-0.4,2.5-0.8,3.8-1.2
		c-0.3,0.3-0.6,0.7-0.8,1c1.1,0.4,2.4,0.4,3.5,0.1c-0.1,0.7-0.9,1.1-1.6,0.9c-0.7-0.1-1.3-0.6-1.9-1c-1.8-1.1-4.3-1.1-6.1,0.1
		c-0.2-1.3-1.7-1.7-2.9-2.3c-2.1-1.1-3.5-3.1-4.8-5.1"/>
	<path class="st8" d="M-437.9,27.2c4.2-1.8,9.6-0.9,13.7,2.3c4.3,3.4,7,8.9,11.5,12.1c2.4,1.7,5.2,2.6,7.9,3.5
		c-4.7,0-9.6-2.9-12.3-7.3c-1.3-2.1-2.2-4.5-3.9-6.2c-1.5-1.5-3.6-2.3-5.5-3.1c-3.8-1.4-8.1-2.7-11.5-1.1c3.1-0.1,6.1-0.2,9.2,0.5
		s6.2,2.2,8.4,4.8c2,2.4,3.2,5.5,5.3,7.7c3.4,3.6,8.5,4.2,12.9,3.6c-1.4,0.1-2.8,0.3-4.2,0.4c0.6-0.3,1.2-0.7,1.9-1
		c-0.7,0.6-1.7,0.9-2.6,0.9c0.3-0.5,0.8-0.9,1.3-1.1c-0.8,0.6-1.6,1-2.5,1.3c0.5-0.6,1-1.2,1.5-1.8c-0.9,0.7-2,1.2-3.2,1.2
		c0.6-0.6,1.1-1.1,1.7-1.7c-0.6,0.6-1.5,0.9-2.5,0.9c0.8,1.6,1.9,3.1,3.1,4.5c-0.1-1.6-0.7-3.1-1.5-4.5c0.4,1.4,1.3,2.7,2.5,3.5
		c-0.4-0.8-0.7-1.5-1.1-2.3c0.3,1,1.2,1.8,2.1,1.8c-0.3-0.4-0.5-0.9-0.8-1.3c1,0.8,2.2,1.4,3.4,1.7c-0.4-0.9-1.1-1.7-1.8-2.4
		c0.6,0.4,1.3,0.6,2,0.7c-0.4-0.2-0.7-0.4-1.1-0.6c0.9,0.6,1.8,1.3,2.7,1.9c-0.7-0.8-1.6-1.4-2.6-1.6c1-0.1,2.1,0.1,3.1,0.7
		c-1,0.6-2.2,0.9-3.4,0.7c1.2-0.4,2.6-0.1,3.7,0.7c-1.6-1-3.3-1.6-5-1.6c0.3,0.8,1,1.5,1.8,1.7c-0.9-0.8-1.9-1.5-3-2
		c0,0.5-0.1,1.1-0.4,1.5c-0.5-0.6-1.1-1.1-1.6-1.7c-0.2,0.5-0.2,1.1-0.1,1.6c-0.8-0.7-0.8-2.1-0.3-2.9s1.5-1.3,2.3-1.7
		c-1.1,0.9-2.1,2-2.8,3.3c1-0.6,2-1.2,3-1.8c-0.5,0.5-0.9,1.3-1.1,2c1.2-0.2,2.3-0.5,3.4-0.9c-0.4,0.2-0.7,0.5-0.9,0.9
		c0.7,0,1.4-0.1,2.2-0.1c0.9,1.3,2.5,2.1,3.9,1.9c-1.2-0.5-2.4-0.9-3.6-1.4c0.6,0.1,1.1,0.2,1.7,0.3c-1,0-2.1,0.1-3,0.4
		c0.7,0.8,1.9,1.1,2.7,0.7c-0.3-0.5-0.6-0.9-0.9-1.4c-0.4,0.8-1.7,0.9-2.4,0.1c0.2,0.4,0.3,0.8,0.5,1.2c-1-0.8-1.9-1.5-2.9-2.3
		c-0.2,0.4-0.2,1-0.1,1.4c-1,0.2-1.9-1.4-1.5-2.4c0.4-1,1.7-1.2,2.7-0.7c-0.5,0.6-1,1.1-1.5,1.7c1.1-0.3,2.1-0.6,3.2-0.9
		c-0.2,0.3-0.5,0.6-0.7,0.9c1,0.4,2.1,0.5,3,0.3c0,0.6-0.7,0.9-1.4,0.8c-0.6-0.2-1.1-0.6-1.7-1c-1.6-1.1-3.8-1.2-5.3-0.3
		c-0.2-1.2-1.6-1.7-2.6-2.3c-1.9-1.1-3.2-3.1-4.4-5"/>
	<path class="st13" d="M-436.9,6.7c4.5-0.9,8.5-4.7,10-9.6c1.7-5.2,0.8-11.3,2.7-16.5c1-2.8,2.8-5.1,4.6-7.3
		c-3.9,2.6-6.3,7.7-6.1,12.9c0.1,2.5,0.7,5,0.2,7.4c-0.4,2.1-1.6,3.9-2.8,5.6c-2.4,3.3-5.2,6.7-8.9,7.3c2.6-1.6,5.2-3.3,7.4-5.6
		s3.9-5.3,4.3-8.7c0.3-3.1-0.5-6.3,0.1-9.4c0.8-4.9,4.7-8.2,8.7-10.2c-1.2,0.7-2.5,1.3-3.7,2c0.7-0.1,1.4-0.1,2.1-0.2
		c-0.9-0.1-1.9,0.1-2.7,0.7c0.5,0.2,1.1,0.3,1.7,0.1c-0.9,0-1.9,0.1-2.8,0.4c0.7,0.2,1.5,0.4,2.2,0.6c-1.1-0.1-2.3,0.2-3.3,0.8
		c0.8,0.1,1.6,0.3,2.4,0.4c-0.9-0.2-1.8,0.1-2.5,0.7c-0.2-1.8-0.2-3.7,0.1-5.4c0.8,1.4,1.2,3,1.3,4.6c-0.5-1.4-0.4-2.9,0.1-4.3
		c0.1,0.8,0.2,1.7,0.3,2.5c-0.3-0.9,0-2.1,0.7-2.6c0,0.5,0.1,1,0.1,1.5c0.4-1.2,1-2.4,1.8-3.3c0.1,1,0.1,2-0.2,3
		c0.3-0.7,0.7-1.3,1.2-1.7c-0.2,0.4-0.4,0.7-0.6,1.1c0.4-1,0.8-2,1.2-3.1c-0.1,1.1-0.6,2.1-1.3,2.8c0.9-0.5,1.7-1.3,2.2-2.3
		c-1.2,0-2.3,0.5-3.2,1.3c1.2-0.3,2.2-1.3,2.7-2.6c-0.7,1.7-1.9,3.1-3.2,4.2c-0.2-0.8,0-1.8,0.5-2.4c-0.3,1.2-0.8,2.3-1.3,3.4
		c-0.3-0.4-0.7-0.8-1.1-1c-0.1,0.8-0.3,1.5-0.4,2.3c-0.4-0.3-0.8-0.8-1-1.3c-0.2,1.1,0.5,2.2,1.4,2.6s1.9,0.2,2.9,0.1
		c-1.4-0.1-2.8-0.5-4.1-1.2c1.1-0.1,2.3-0.1,3.4-0.2c-0.8-0.1-1.5-0.5-2.1-1.1c1.1-0.5,2.2-0.9,3.3-1.1c-0.4,0.1-0.9,0-1.2-0.3
		c0.6-0.4,1.2-0.7,1.9-1.1c0-1.6,0.9-3.1,2.1-3.8c-0.7,1-1.5,2.1-2.2,3.1c0.4-0.4,0.8-0.8,1.2-1.2c-0.9,0.6-1.8,1-2.7,1.4
		c0.1-1.1,0.9-1.9,1.9-2.1c0,0.5,0,1.1,0,1.6c-0.8-0.5-1.9,0.2-2.1,1.2c-0.1-0.4-0.2-0.9-0.3-1.3c-0.4,1.2-0.7,2.4-1.1,3.5
		c-0.4-0.2-0.7-0.6-0.9-1.1c-0.9,0.4-0.8,2.2,0.1,2.8c0.9,0.6,2.1,0,2.6-1c-0.7-0.2-1.5-0.4-2.2-0.5c1.1-0.3,2.1-0.7,3.2-1
		c-0.3-0.1-0.7-0.2-1-0.3c0.6-0.9,1.4-1.6,2.3-2c-0.4-0.5-1.1-0.4-1.6,0.1c-0.4,0.5-0.6,1.2-0.8,1.8c-0.7,1.8-2.4,3.1-4.2,3.2
		c0.5,1.1-0.4,2.3-0.9,3.4c-1,2-0.9,4.4-0.9,6.6"/>
	<path class="st14" d="M-436.9,14.2c3.7-0.7,7.5-1.4,10.9-3c4.4-2.1,7.9-5.5,11.4-8.9c0.2-0.1,0.1,0.4-0.1,0.2
		c-0.2-0.1-0.1-0.4-0.1-0.6c0.3-1.2-0.5-2.4-0.9-3.6c-0.7-2.1-0.2-4.7,1.3-6.3c-0.1-0.3-0.3-0.6-0.4-0.9c0-0.1,0.1-0.1,0.1-0.2
		c0.3-0.3,0.7,0.4,0.3,0.5c0.3-0.2,0.5-0.5,0.8-0.7c-0.2-0.2-0.6-0.1-0.6,0.2s0.3,0.5,0.5,0.4c-0.3,0.1-0.6,0.1-0.9,0.2
		c0.3,0.2,0.6,0.3,0.8,0.5c-0.3,0-0.7,0-0.9-0.2c0-0.7-0.1-1.3-0.1-2c0.5,0.5,0.6,1.3,0.4,2c-0.5-0.1-0.8-0.7-0.5-1.1"/>
	<path class="st8" d="M-414.3,2.2c1.5-0.4,3.1-0.8,4.6-1c-0.1-0.1-0.3,0.1-0.2,0.2c0.1,0.1,0.3,0.1,0.4-0.1s0.1-0.3-0.1-0.4
		c-0.1,0.1-0.1,0.4,0,0.5c0-0.3,0.1-0.7,0.1-1c-0.2,0-0.3,0.3-0.3,0.5c0.2,0.1,0.4,0,0.6-0.1c-0.1,0-0.2,0.1-0.3,0.3
		c0.2,0,0.4,0,0.5,0c-0.3,0-0.6,0.1-0.8,0.2c0.3,0.1,0.5,0.3,0.6,0.6c-0.3,0-0.5-0.2-0.6-0.4c0.3,0.1,0.5,0.3,0.7,0.6
		c-0.2-0.3-0.3-0.6-0.5-0.9c0.2,0,0.4,0,0.6,0c-0.1,0-0.3,0.1-0.4,0.1c-0.1,0-0.3-0.2-0.3-0.3s0-0.1,0.1-0.2
		c0.2-0.2,0.3-0.5,0.5-0.7c0,0.4-0.1,0.8-0.5,1c0-0.3,0-0.7,0-1c0.1,0.3-0.1,0.7-0.3,1"/>
	<path class="st15" d="M-419.7,6.5c0-1.5,0-3.1,0-4.6c0-0.6,0-1.2,0.3-1.7c0.1,0.2,0.1,0.4,0.1,0.7c0.1,0,0.2,0,0.3,0
		c0.1-0.4-0.4-0.7-0.7-0.5c0.1-0.1,0.4,0,0.6,0.1c0.2,0.1,0.5-0.1,0.3-0.3c-0.3-0.1-0.7-0.1-1.1-0.1c-0.2,0.2,0,0.5,0.3,0.5
		c0.2,0,0.4-0.3,0.4-0.5c0-0.3-0.3-0.6-0.5-0.5c0,0.2-0.1,0.4,0,0.6s0.4,0.2,0.5,0"/>
	<path class="st8" d="M-422.8,10c1.1,0,2.2-0.1,3.3-0.1c0.6,0,1.3-0.2,1.4-0.7c-0.2-0.1-0.4-0.1-0.6,0c0.1,0.2,0.5,0.2,0.6,0
		c0.1-0.3-0.2-0.5-0.5-0.4c0,0.1,0,0.2,0,0.2c0.1,0,0.2,0.1,0.4,0.1c0-0.1,0-0.2-0.1-0.3"/>
	<path class="st8" d="M-417.1,4.5c1.2-0.2,2.5,0.6,3.7,0.3c-0.1-0.4-0.7-0.6-1-0.3c0.2,0.1,0.3,0.2,0.5,0.2c0.2,0,0.4-0.1,0.4-0.3
		c-0.3,0.2-0.3,0.6-0.1,0.8c0.3-0.3,0.4-0.7,0.2-1.1c-0.4,0.2-0.7,0.8-0.7,1.3c0.5,0.1,1-0.5,0.7-0.9"/>
	<path class="st8" d="M-414,1.8c-0.3-2.1,1-4.4,3-5.1c0.1,0,0.2-0.1,0.2-0.2c0-0.1-0.1-0.2-0.2-0.1c0,0.2,0.2,0.4,0.4,0.3
		c0-0.3-0.4-0.5-0.6-0.3c0.1,0.1,0.3,0.1,0.4,0.1c0-0.3,0-0.6,0-0.8c-0.2,0-0.4,0-0.7,0c-0.1,0.7,0.6,1.3,1.3,1.1
		c0-0.4-0.4-0.6-0.7-0.7c0.1,0.2,0.2,0.4,0.3,0.5"/>
	<path class="st8" d="M-424.4,10.5c0.2-1.3,1.6-2.3,1.9-3.6c0.1,0.2,0.3,0.2,0.4,0.2c0.1-0.1,0.2-0.3,0.1-0.4
		c-0.2-0.1-0.4-0.2-0.6-0.1c-0.2,0-0.4,0.3-0.3,0.5c0.3,0,0.6-0.2,0.6-0.5s-0.2-0.6-0.5-0.6c-0.2,0.2-0.1,0.5,0.1,0.7"/>
	<path class="st8" d="M-423.6,10.2c0.5,0,1.1,0,1.6,0"/>
	<path class="st8" d="M-429,12.3c0.4,0.1,0.7,0,1.1,0c0.4,0,0.8,0.1,0.9,0.4c0.1,0.2,0.1,0.4,0.1,0.6c0.1,0.3,0.4,0.6,0.8,0.6
		s0.7-0.2,0.9-0.5c-0.2,0-0.4,0-0.6,0.1c0,0.1,0,0.2,0,0.3c0.2,0,0.3,0,0.5,0c0-0.1,0-0.3-0.1-0.4c-0.1-0.1-0.3,0.2-0.2,0.2
		c0.2,0.2,0.5,0.1,0.7-0.1c0.2-0.2,0.1-0.6-0.2-0.7c-0.3,0-0.5,0.4-0.2,0.5c0.5,0.1,1.1-0.3,1.2-0.8"/>
	<path class="st8" d="M-419.6,6.3c-0.2,0.2-0.3,0.5-0.4,0.8"/>
	<path class="st8" d="M-414.3,1.7c0,0.4-0.2,0.8-0.6,1.1"/>
	<path class="st16" d="M-438.4,19.5c2.7-0.3,5.6,0,8.2,0.8c1.3,0.4,2.5,1.4,3.7,1.7c1.2,0.3,2.6-0.4,3.6-1c0.1,0.6,0.5,1.1,1,1.4
		c0.2-0.2-0.1-0.7-0.4-0.6c0.2,0.3,0.6,0.3,0.9,0.2c-0.1-0.3-0.5-0.5-0.7-0.3c0,0.2,0.1,0.4,0.3,0.5"/>
	<path class="st8" d="M-425.6,22.5c0.3,0,0.6,0.2,0.9,0.4c1.1,0.9,2.1,2,3.3,2.7c0.8,0.4,1.7,0.7,2.2,1.4c-0.1,0.1-0.2,0.1-0.4,0.1
		c0,0.2,0.2,0.4,0.4,0.4c0.2,0,0.4,0,0.7-0.1c0-0.3,0-0.7-0.2-0.8c-0.2-0.1-0.5,0.1-0.5,0.4c0,0.3,0.1,0.5,0.2,0.7s0.3,0.4,0.5,0.3
		c0-0.1,0-0.2,0-0.3"/>
	<path class="st8" d="M-426.5,23c0.1,1,0.3,1.9,0.6,2.9c0.1,0.4,0.3,0.8,0.6,1.1c0.3,0.3,0.9,0.2,1.1-0.1c-0.1-0.1-0.3-0.1-0.4-0.1
		c0.2,0.2,0.5,0.3,0.8,0.2c0.2-0.2-0.2-0.6-0.4-0.5c0,0.4,0.3,0.8,0.6,0.9c-0.1-0.1-0.3-0.2-0.4-0.3"/>
	<path class="st8" d="M-430.2,20.8c0.1,0.4,0.2,0.8,0.3,1.3c0.1,0.3,0.2,0.7,0.4,1s0.6,0.4,0.9,0.3c0.1-0.2-0.1-0.5-0.3-0.5
		c-0.2,0.2,0,0.6,0.3,0.5c0-0.1-0.2-0.2-0.3-0.1"/>
	<path class="st8" d="M-429,20.3c0.5-0.4,1.1-0.7,1.7-0.9c0.1-0.1,0.3-0.1,0.5-0.1c0.1,0,0.3,0.1,0.4,0.2c0.4,0.2,0.7,0.4,1.1,0.6
		c-0.3-0.2-0.6-0.3-0.9-0.3c0.2,0.2,0.4,0.3,0.7,0.4c0.3,0,0.5-0.2,0.4-0.5"/>
	<path class="st8" d="M-426.5,23.7c0-0.6,0-1.2,0-1.8"/>
	<path class="st8" d="M-429.7,20.5c0.4,0,0.8-0.2,1-0.5"/>
</g>
<g class="st10">
	<path class="st8" d="M-485.6,12c-5.5-0.6-10.5-4.3-12.8-9.4c-2.4-5.4-1.8-11.8-4.5-17.1c-1.5-2.8-3.8-5.1-6.1-7.4
		c4.9,2.5,8.2,7.7,8.4,13.1c0.1,2.6-0.5,5.3,0.3,7.7c0.7,2.2,2.3,4,3.9,5.7c3.1,3.3,6.8,6.7,11.3,7.1c-3.2-1.5-6.5-3.1-9.3-5.3
		c-2.8-2.2-5.1-5.3-5.8-8.8c-0.7-3.2,0.1-6.6-0.8-9.8c-1.3-5.1-6.3-8.3-11.2-10.1c1.5,0.6,3.1,1.2,4.6,1.9c-0.9,0-1.7-0.1-2.6-0.1
		c1.1-0.2,2.3,0,3.3,0.6c-0.6,0.3-1.3,0.4-2,0.3c1.1-0.1,2.3,0,3.4,0.2c-0.9,0.3-1.7,0.5-2.6,0.8c1.4-0.2,2.8,0,4,0.6
		c-0.9,0.2-1.9,0.4-2.8,0.6c1-0.2,2.2,0,3.1,0.5c0.2-1.9,0-3.8-0.5-5.7c-0.8,1.5-1.2,3.2-1.2,4.9c0.4-1.5,0.3-3.1-0.5-4.4
		c-0.1,0.9-0.2,1.7-0.2,2.6c0.3-1-0.2-2.2-1.1-2.7c0,0.5,0,1.1,0,1.6c-0.6-1.3-1.4-2.4-2.4-3.3c-0.1,1,0.1,2.1,0.4,3.1
		c-0.4-0.7-0.9-1.3-1.6-1.7c0.3,0.4,0.5,0.7,0.8,1.1c-0.5-1-1.1-2.1-1.6-3.1c0.2,1.1,0.9,2.1,1.8,2.8c-1.1-0.5-2.1-1.2-2.8-2.2
		c1.4,0,2.8,0.4,4,1.2c-1.4-0.3-2.7-1.2-3.4-2.6c1,1.7,2.5,3.2,4.2,4.2c0.2-0.9-0.1-1.9-0.8-2.5c0.5,1.2,1.1,2.4,1.9,3.4
		c0.3-0.5,0.8-0.9,1.3-1.2c0.2,0.8,0.4,1.6,0.6,2.4c0.5-0.3,0.9-0.9,1.1-1.4c0.4,1.1-0.5,2.3-1.5,2.8c-1.1,0.5-2.3,0.4-3.5,0.3
		c1.7-0.2,3.4-0.7,4.9-1.5c-1.4,0-2.8,0-4.2,0c0.9-0.2,1.7-0.6,2.4-1.2c-1.3-0.5-2.7-0.8-4-1c0.5,0.1,1-0.1,1.5-0.4
		c-0.8-0.3-1.6-0.7-2.3-1c-0.1-1.7-1.3-3.2-2.9-3.8c1,1,1.9,2.1,2.9,3.1c-0.5-0.4-1-0.8-1.5-1.2c1.1,0.5,2.2,1,3.4,1.3
		c-0.3-1.1-1.3-2-2.4-2c0,0.6,0.1,1.1,0.1,1.7c0.9-0.5,2.3,0.1,2.6,1.1c0.1-0.5,0.2-0.9,0.3-1.4c0.5,1.2,1.1,2.4,1.6,3.6
		c0.5-0.3,0.8-0.7,1-1.3c1.2,0.4,1.2,2.3,0.1,2.9c-1,0.6-2.5,0.1-3.2-0.8c0.9-0.2,1.7-0.5,2.6-0.7c-1.3-0.3-2.6-0.6-3.9-0.9
		c0.4-0.1,0.8-0.3,1.2-0.4c-0.8-0.9-1.8-1.6-3-1.9c0.4-0.6,1.4-0.5,1.9,0s0.8,1.2,1.1,1.8c1,1.9,3.2,3.1,5.3,3
		c-0.5,1.2,0.6,2.4,1.3,3.4c1.3,2,1.4,4.5,1.6,6.9"/>
	<path class="st8" d="M-481.6,14.3c-2.8,2.5-7.4,3.1-11.7,1.6c-4.6-1.7-8.6-5.5-13.2-6.9c-2.5-0.8-5-0.8-7.5-0.8
		c3.7-1.2,8.6-0.1,12.3,2.8c1.8,1.4,3.3,3.1,5.2,4.1c1.7,0.9,3.6,1,5.4,1.1c3.5,0.2,7.3,0.1,9.5-2.1c-2.4,0.8-4.8,1.7-7.5,1.9
		c-2.7,0.2-5.7-0.2-8.3-1.7c-2.4-1.4-4.4-3.6-6.8-4.9c-3.9-2-8.2-1.2-11.5,0.3c1.1-0.5,2.1-0.9,3.2-1.4c-0.4,0.4-0.8,0.9-1.1,1.3
		c0.4-0.7,1-1.2,1.8-1.4c-0.1,0.5-0.3,0.9-0.7,1.2c0.4-0.6,1-1.2,1.6-1.7c-0.2,0.6-0.4,1.2-0.6,1.8c0.5-0.8,1.2-1.4,2.1-1.8
		c-0.3,0.6-0.5,1.2-0.8,1.8c0.3-0.7,0.9-1.1,1.7-1.3c-1.2-1.1-2.5-2.1-4-2.8c0.6,1.2,1.6,2.4,2.7,3.3c-0.8-1-1.9-1.8-3.1-2.2
		c0.5,0.5,1.1,1,1.6,1.5c-0.5-0.7-1.5-1.1-2.3-0.9c0.4,0.3,0.7,0.6,1.1,0.9c-1.1-0.4-2.2-0.6-3.2-0.6c0.7,0.6,1.4,1.1,2.2,1.5
		c-0.6-0.2-1.2-0.2-1.8-0.1c0.4,0.1,0.7,0.1,1.1,0.2c-0.9-0.3-1.8-0.6-2.8-0.9c0.8,0.5,1.8,0.7,2.6,0.6c-0.8,0.3-1.7,0.4-2.7,0.2
		c0.6-0.8,1.5-1.3,2.5-1.4c-0.8,0.6-2,0.7-3.1,0.4c1.6,0.4,3.1,0.4,4.5,0.1c-0.5-0.6-1.3-0.9-2-0.9c1,0.4,2,0.7,3.1,0.9
		c-0.2-0.4-0.3-0.9-0.2-1.3c0.6,0.3,1.2,0.6,1.9,1c0-0.5-0.2-0.9-0.5-1.4c0.9,0.4,1.3,1.5,1.2,2.3c-0.1,0.8-0.7,1.4-1.3,2
		c0.6-1,1-2.1,1.1-3.3c-0.6,0.7-1.2,1.5-1.8,2.2c0.3-0.6,0.3-1.3,0.2-1.9c-0.9,0.4-1.7,1-2.4,1.6c0.3-0.2,0.4-0.6,0.4-1
		c-0.6,0.2-1.1,0.4-1.7,0.6c-1.2-0.8-2.7-1.1-3.7-0.6c1.1,0.1,2.2,0.1,3.3,0.2c-0.5,0-1,0.1-1.4,0.1c0.8-0.3,1.6-0.6,2.3-1.1
		c-0.8-0.5-1.8-0.4-2.4,0.1c0.4,0.3,0.8,0.6,1.2,0.9c0-0.8,1-1.2,1.8-0.7c-0.3-0.3-0.5-0.6-0.8-0.9c1,0.4,2.1,0.8,3.1,1.1
		c0-0.4-0.1-0.8-0.4-1.2c0.8-0.4,2,0.6,2,1.5s-1,1.4-1.9,1.2c0.2-0.6,0.4-1.2,0.6-1.7c-0.7,0.5-1.5,1-2.2,1.6
		c0.1-0.3,0.2-0.6,0.2-0.9c-0.9-0.1-1.8,0.1-2.5,0.5c-0.2-0.5,0.3-1,0.8-1s1.1,0.2,1.7,0.4c1.7,0.5,3.4,0,4.3-1.1
		c0.6,0.9,1.8,1,2.8,1.2c1.9,0.4,3.6,1.7,5.2,2.9"/>
	<path class="st11" d="M-482.3,19.8c-5.5,0.6-10.6,4.3-12.9,9.3c-2.5,5.4-1.9,11.8-4.6,17c-1.5,2.8-3.8,5.1-6.2,7.3
		c4.9-2.4,8.2-7.6,8.5-13.1c0.1-2.6-0.4-5.3,0.3-7.7c0.7-2.2,2.3-4,3.9-5.7c3.2-3.3,6.8-6.7,11.4-7c-3.2,1.5-6.5,3.1-9.3,5.3
		c-2.8,2.2-5.1,5.2-5.9,8.7c-0.7,3.2,0,6.6-0.8,9.8c-1.4,5-6.4,8.2-11.3,10c1.5-0.6,3.1-1.2,4.6-1.8c-0.9,0-1.7,0-2.6,0.1
		c1.1,0.2,2.3,0,3.3-0.5c-0.6-0.3-1.3-0.4-2-0.3c1.1,0.1,2.3,0,3.4-0.2c-0.9-0.3-1.7-0.6-2.6-0.8c1.4,0.2,2.8,0,4-0.6
		c-0.9-0.2-1.9-0.4-2.8-0.6c1,0.2,2.2,0,3.1-0.5c0.1,1.9,0,3.8-0.6,5.7c-0.8-1.5-1.2-3.2-1.2-4.9c0.4,1.5,0.2,3.1-0.5,4.4
		c-0.1-0.9-0.1-1.7-0.2-2.6c0.3,1-0.2,2.2-1.1,2.7c0-0.5,0-1.1,0-1.6c-0.6,1.3-1.4,2.4-2.4,3.3c-0.1-1,0.1-2.1,0.4-3.1
		c-0.4,0.7-1,1.3-1.6,1.7c0.3-0.4,0.5-0.7,0.8-1.1c-0.5,1-1.1,2.1-1.6,3.1c0.2-1.1,0.9-2.1,1.8-2.8c-1.1,0.5-2.1,1.2-2.8,2.2
		c1.4,0,2.8-0.4,4-1.2c-1.4,0.3-2.7,1.2-3.4,2.5c1-1.7,2.5-3.2,4.2-4.1c0.2,0.9-0.1,1.9-0.8,2.5c0.5-1.2,1.1-2.4,1.9-3.4
		c0.3,0.5,0.8,0.9,1.3,1.2c0.2-0.8,0.4-1.6,0.7-2.4c0.5,0.3,0.9,0.9,1.1,1.4c0.4-1.1-0.4-2.3-1.5-2.8s-2.3-0.4-3.5-0.3
		c1.7,0.2,3.3,0.7,4.9,1.5c-1.4,0-2.8,0-4.2-0.1c0.9,0.2,1.7,0.6,2.4,1.3c-1.3,0.4-2.7,0.8-4,1c0.5-0.1,1,0.1,1.5,0.4
		c-0.8,0.3-1.6,0.7-2.3,1c-0.1,1.7-1.3,3.2-2.9,3.8c1-1,1.9-2.1,2.9-3.1c-0.5,0.4-1,0.8-1.5,1.2c1.1-0.5,2.2-1,3.4-1.3
		c-0.3,1.1-1.3,1.9-2.4,2c0-0.6,0.1-1.1,0.1-1.7c0.9,0.5,2.3-0.1,2.6-1.1c0.1,0.5,0.2,0.9,0.3,1.4c0.5-1.2,1.1-2.4,1.6-3.6
		c0.5,0.3,0.8,0.7,1,1.3c1.2-0.4,1.2-2.3,0.1-2.9c-1-0.6-2.5-0.2-3.2,0.8c0.9,0.2,1.7,0.5,2.6,0.7c-1.3,0.3-2.6,0.6-3.9,0.8
		c0.4,0.1,0.8,0.3,1.2,0.4c-0.8,0.9-1.8,1.6-3,1.9c0.4,0.6,1.4,0.5,1.9,0s0.8-1.2,1.1-1.8c1-1.9,3.2-3.1,5.3-3
		c-0.5-1.2,0.6-2.4,1.3-3.4c1.3-2,1.5-4.5,1.6-6.9"/>
	<path class="st12" d="M-482.2,16.2c-5.1-2.2-11.3-1.6-15.8,1.6c-4.8,3.4-7.6,9.3-12.6,12.4c-2.7,1.7-5.9,2.5-9,3.2
		c5.4,0.3,10.9-2.5,13.9-7c1.4-2.2,2.3-4.8,4.2-6.5c1.7-1.6,4-2.3,6.2-2.9c4.4-1.3,9.3-2.3,13.4-0.3c-3.6-0.3-7.2-0.6-10.7-0.1
		s-7.1,1.9-9.5,4.6c-2.2,2.4-3.3,5.7-5.6,8c-3.7,3.7-9.6,3.9-14.8,3c1.6,0.2,3.3,0.5,4.9,0.7c-0.7-0.4-1.5-0.8-2.2-1.2
		c0.9,0.7,2,1.1,3.1,1.2c-0.4-0.6-1-1-1.6-1.2c0.9,0.7,1.9,1.2,3,1.6c-0.6-0.7-1.2-1.3-1.8-2c1.1,0.9,2.4,1.4,3.8,1.5
		c-0.7-0.7-1.4-1.3-2.1-2c0.8,0.7,1.9,1.1,2.9,1.1c-0.8,1.7-2,3.3-3.3,4.6c0.1-1.7,0.6-3.4,1.4-4.8c-0.4,1.5-1.3,2.8-2.7,3.6
		c0.4-0.8,0.8-1.6,1.1-2.4c-0.2,1-1.3,1.8-2.3,1.8c0.3-0.5,0.5-0.9,0.8-1.4c-1.1,0.8-2.4,1.4-3.8,1.7c0.5-0.9,1.1-1.8,1.9-2.5
		c-0.7,0.4-1.5,0.6-2.2,0.6c0.4-0.2,0.8-0.4,1.2-0.5c-1,0.6-2,1.2-3,1.9c0.8-0.8,1.8-1.4,2.9-1.5c-1.2-0.2-2.4,0-3.5,0.5
		c1.2,0.8,2.6,1.1,4.1,1c-1.4-0.5-3-0.3-4.2,0.5c1.7-1,3.7-1.5,5.7-1.4c-0.3,0.9-1,1.5-1.9,1.7c1-0.8,2.2-1.5,3.4-2
		c0,0.6,0.2,1.2,0.5,1.6c0.6-0.6,1.2-1.2,1.8-1.7c0.3,0.6,0.3,1.2,0.2,1.8c0.9-0.8,0.8-2.2,0.1-3.2c-0.7-0.9-1.8-1.5-2.8-2
		c1.4,1,2.5,2.3,3.4,3.7c-1.2-0.7-2.4-1.4-3.6-2.1c0.7,0.6,1.2,1.4,1.5,2.3c-1.4-0.3-2.7-0.7-4-1.2c0.5,0.2,0.9,0.6,1.1,1.1
		c-0.8-0.1-1.7-0.2-2.5-0.3c-1,1.4-2.7,2.1-4.4,1.8c1.4-0.4,2.7-0.8,4.1-1.2c-0.6,0.1-1.3,0.2-1.9,0.3c1.2,0.1,2.4,0.3,3.6,0.6
		c-0.8,0.8-2.1,1-3.1,0.5c0.3-0.5,0.6-0.9,0.9-1.4c0.5,0.9,2,1.1,2.8,0.3c-0.2,0.4-0.3,0.9-0.5,1.3c1.1-0.8,2.1-1.5,3.2-2.3
		c0.3,0.5,0.4,1.1,0.2,1.6c1.2,0.3,2.2-1.4,1.6-2.5c-0.6-1.1-2.1-1.4-3.2-0.9c0.6,0.6,1.3,1.3,1.9,1.9c-1.3-0.4-2.5-0.8-3.8-1.2
		c0.3,0.3,0.6,0.7,0.8,1c-1.1,0.4-2.4,0.4-3.5,0.1c0.1,0.7,0.9,1.1,1.6,0.9c0.7-0.1,1.3-0.6,1.9-1c1.8-1.1,4.3-1.1,6.1,0.1
		c0.2-1.3,1.7-1.7,2.9-2.3c2.1-1.1,3.5-3.1,4.8-5.1"/>
	<path class="st8" d="M-483.9,26.2c-4.2-1.8-9.6-0.9-13.7,2.3c-4.3,3.4-7,8.9-11.5,12.1c-2.4,1.7-5.2,2.6-7.9,3.5
		c4.7,0,9.6-2.9,12.3-7.3c1.3-2.1,2.2-4.5,3.9-6.2c1.5-1.5,3.6-2.3,5.5-3.1c3.8-1.4,8.1-2.7,11.5-1.1c-3.1-0.1-6.1-0.2-9.2,0.5
		c-3.1,0.7-6.2,2.2-8.4,4.8c-2,2.4-3.2,5.5-5.3,7.7c-3.4,3.6-8.5,4.2-12.9,3.6c1.4,0.1,2.8,0.3,4.2,0.4c-0.6-0.3-1.2-0.7-1.9-1
		c0.7,0.6,1.7,0.9,2.6,0.9c-0.3-0.5-0.8-0.9-1.3-1.1c0.8,0.6,1.6,1,2.5,1.3c-0.5-0.6-1-1.2-1.5-1.8c0.9,0.7,2,1.2,3.2,1.2
		c-0.6-0.6-1.1-1.1-1.7-1.7c0.6,0.6,1.5,0.9,2.5,0.9c-0.8,1.6-1.9,3.1-3.1,4.5c0.1-1.6,0.7-3.1,1.5-4.5c-0.4,1.4-1.3,2.7-2.5,3.5
		c0.4-0.8,0.7-1.5,1.1-2.3c-0.3,1-1.2,1.8-2.1,1.8c0.3-0.4,0.5-0.9,0.8-1.3c-1,0.8-2.2,1.4-3.4,1.7c0.4-0.9,1.1-1.7,1.8-2.4
		c-0.6,0.4-1.3,0.6-2,0.7c0.4-0.2,0.7-0.4,1.1-0.6c-0.9,0.6-1.8,1.3-2.7,1.9c0.7-0.8,1.6-1.4,2.6-1.6c-1-0.1-2.1,0.1-3.1,0.7
		c1,0.6,2.2,0.9,3.4,0.7c-1.2-0.4-2.6-0.1-3.7,0.7c1.6-1,3.3-1.6,5-1.6c-0.3,0.8-1,1.5-1.8,1.7c0.9-0.8,1.9-1.5,3-2
		c0,0.5,0.1,1.1,0.4,1.5c0.5-0.6,1.1-1.1,1.6-1.7c0.2,0.5,0.2,1.1,0.1,1.6c0.8-0.7,0.8-2.1,0.3-2.9s-1.5-1.3-2.3-1.7
		c1.1,0.9,2.1,2,2.8,3.3c-1-0.6-2-1.2-3-1.8c0.5,0.5,0.9,1.3,1.1,2c-1.2-0.2-2.3-0.5-3.4-0.9c0.4,0.2,0.7,0.5,0.9,0.9
		c-0.7,0-1.4-0.1-2.2-0.1c-0.9,1.3-2.5,2.1-3.9,1.9c1.2-0.5,2.4-0.9,3.6-1.4c-0.6,0.1-1.1,0.2-1.7,0.3c1,0,2.1,0.1,3,0.4
		c-0.7,0.8-1.9,1.1-2.7,0.7c0.3-0.5,0.6-0.9,0.9-1.4c0.4,0.8,1.7,0.9,2.4,0.1c-0.2,0.4-0.3,0.8-0.5,1.2c1-0.8,1.9-1.5,2.9-2.3
		c0.2,0.4,0.2,1,0.1,1.4c1,0.2,1.9-1.4,1.5-2.4c-0.4-1-1.7-1.2-2.7-0.7c0.5,0.6,1,1.1,1.5,1.7c-1.1-0.3-2.1-0.6-3.2-0.9
		c0.2,0.3,0.5,0.6,0.7,0.9c-1,0.4-2.1,0.5-3,0.3c0,0.6,0.7,0.9,1.4,0.8c0.6-0.2,1.1-0.6,1.7-1c1.6-1.1,3.8-1.2,5.3-0.3
		c0.2-1.2,1.6-1.7,2.6-2.3c1.9-1.1,3.2-3.1,4.4-5"/>
	<path class="st13" d="M-484.8,5.5c-4.5-0.9-8.5-4.7-10-9.6c-1.8-5.3-0.9-11.4-2.8-16.5c-1-2.8-2.8-5.1-4.6-7.3
		c3.9,2.6,6.3,7.7,6.1,12.9c-0.1,2.5-0.7,5-0.2,7.4c0.4,2.1,1.6,3.9,2.8,5.6c2.4,3.3,5.2,6.7,8.9,7.3c-2.6-1.6-5.2-3.3-7.4-5.6
		s-3.9-5.3-4.3-8.7c-0.3-3.1,0.5-6.3-0.1-9.4c-0.8-4.9-4.7-8.2-8.7-10.2c1.2,0.7,2.5,1.3,3.7,2c-0.7-0.1-1.4-0.1-2.1-0.2
		c0.9-0.1,1.9,0.1,2.7,0.7c-0.5,0.2-1.1,0.3-1.7,0.1c0.9,0,1.9,0.1,2.8,0.4c-0.7,0.2-1.5,0.4-2.2,0.6c1.1-0.1,2.3,0.2,3.3,0.8
		c-0.8,0.1-1.6,0.3-2.4,0.4c0.9-0.2,1.8,0.1,2.5,0.7c0.2-1.8,0.2-3.7-0.1-5.4c-0.8,1.4-1.2,3-1.3,4.6c0.5-1.4,0.4-2.9-0.1-4.3
		c-0.1,0.8-0.2,1.7-0.3,2.5c0.3-0.9,0-2.1-0.7-2.6c0,0.5-0.1,1-0.1,1.5c-0.4-1.2-1-2.4-1.8-3.3c-0.1,1-0.1,2,0.2,3
		c-0.3-0.7-0.7-1.3-1.2-1.7c0.2,0.4,0.4,0.7,0.6,1.1c-0.4-1-0.8-2-1.2-3.1c0.1,1.1,0.6,2.1,1.3,2.8c-0.9-0.5-1.7-1.3-2.2-2.3
		c1.2,0,2.3,0.5,3.2,1.3c-1.2-0.3-2.2-1.3-2.7-2.6c0.7,1.7,1.9,3.1,3.2,4.2c0.2-0.8,0-1.8-0.5-2.4c0.6,1.3,1.1,2.4,1.6,3.5
		c0.3-0.4,0.7-0.8,1.1-1c0.1,0.8,0.3,1.5,0.4,2.3c0.4-0.3,0.8-0.8,1-1.3c0.2,1.1-0.5,2.2-1.4,2.6s-1.9,0.2-2.9,0.1
		c1.4-0.1,2.8-0.5,4.1-1.2c-1.1-0.1-2.3-0.1-3.4-0.2c0.8-0.1,1.5-0.5,2.1-1.1c-1.1-0.5-2.2-0.9-3.3-1.1c0.4,0.1,0.9,0,1.2-0.3
		c-0.6-0.4-1.2-0.7-1.9-1.1c0-1.6-0.9-3.1-2.1-3.8c0.7,1,1.5,2.1,2.2,3.1c-0.4-0.4-0.8-0.8-1.2-1.2c0.9,0.6,1.8,1,2.7,1.4
		c-0.1-1.1-0.9-1.9-1.9-2.1c0,0.5,0,1.1,0,1.6c0.9-0.4,2,0.3,2.2,1.3c0.1-0.4,0.2-0.9,0.3-1.3c0.4,1.2,0.7,2.4,1.1,3.5
		c0.4-0.2,0.7-0.6,0.9-1.1c0.9,0.4,0.8,2.2-0.1,2.8s-2.1,0-2.6-1c0.7-0.2,1.5-0.4,2.2-0.5c-1.1-0.3-2.1-0.7-3.2-1
		c0.3-0.1,0.7-0.2,1-0.3c-0.6-0.9-1.4-1.6-2.3-2c0.4-0.5,1.1-0.4,1.6,0.1c0.4,0.5,0.6,1.2,0.8,1.8c0.7,1.8,2.4,3.1,4.2,3.2
		c-0.5,1.1,0.4,2.3,0.9,3.4c1,2,0.9,4.4,0.9,6.6"/>
	<path class="st14" d="M-484.8,13.2c-3.7-0.7-7.5-1.4-10.9-3c-4.4-2.1-7.9-5.5-11.4-8.9c-0.2-0.1-0.1,0.4,0.1,0.2
		c0.2-0.1,0.1-0.4,0.1-0.6c-0.3-1.2,0.5-2.4,0.9-3.6c0.7-2.1,0.2-4.7-1.3-6.3c0.1-0.3,0.3-0.6,0.4-0.9c0-0.1-0.1-0.1-0.1-0.2
		c-0.3-0.3-0.7,0.4-0.3,0.5c-0.3-0.2-0.5-0.5-0.8-0.7c0.2-0.2,0.6-0.1,0.6,0.2s-0.3,0.5-0.5,0.4c0.3,0.1,0.6,0.1,0.9,0.2
		c-0.3,0.2-0.6,0.3-0.8,0.5c0.3,0,0.7,0,0.9-0.2c0-0.7,0.1-1.3,0.1-2c-0.5,0.5-0.6,1.3-0.4,2c0.5-0.1,0.8-0.7,0.5-1.1"/>
	<path class="st8" d="M-507.5,1c-1.5-0.4-3.1-0.8-4.6-1c0.1-0.1,0.3,0.1,0.2,0.2c-0.1,0.1-0.3,0.1-0.4-0.1c-0.1-0.1-0.1-0.3,0.1-0.4
		c0.1,0.1,0.1,0.4,0,0.5c0-0.3-0.1-0.7-0.1-1c0.2,0,0.3,0.3,0.3,0.5c-0.2,0.1-0.4,0-0.6-0.1c0.1,0,0.2,0.1,0.3,0.3
		c-0.2,0-0.4,0-0.5,0c0.3,0,0.6,0.1,0.8,0.2c-0.3,0.1-0.5,0.3-0.6,0.6c0.3,0,0.5-0.2,0.6-0.4c-0.3,0.1-0.5,0.3-0.7,0.6
		c0.2-0.3,0.3-0.6,0.5-0.9c-0.2,0-0.4,0-0.6,0c0.1,0,0.3,0.1,0.4,0.1c0.1,0,0.3-0.2,0.3-0.3s0-0.1-0.1-0.2c-0.2-0.2-0.3-0.5-0.5-0.7
		c0,0.4,0.1,0.8,0.5,1c0-0.3,0-0.7,0-1c-0.1,0.3,0.1,0.7,0.3,1"/>
	<path class="st15" d="M-502.1,5.5c0-1.5,0-3.1,0-4.6c0-0.6,0-1.2-0.3-1.7c-0.1,0.2-0.1,0.4-0.1,0.7c-0.1,0-0.2,0-0.3,0
		c-0.1-0.4,0.4-0.7,0.7-0.5c-0.1-0.1-0.4,0-0.6,0.1c-0.2,0.1-0.5-0.1-0.3-0.3c0.3-0.1,0.7-0.1,1.1-0.1c0.2,0.2,0,0.5-0.3,0.5
		c-0.2,0-0.4-0.3-0.4-0.5c0-0.3,0.3-0.6,0.5-0.5c0,0.2,0.1,0.4,0,0.6c-0.1,0.2-0.4,0.2-0.5,0"/>
	<path class="st8" d="M-499,9c-1.1,0-2.2-0.1-3.3-0.1c-0.6,0-1.3-0.2-1.4-0.7c0.2-0.1,0.4-0.1,0.6,0c-0.1,0.2-0.5,0.2-0.6,0
		c-0.1-0.3,0.2-0.5,0.5-0.4c0,0.1,0,0.2,0,0.2c-0.1,0-0.2,0.1-0.4,0.1c0-0.1,0-0.2,0.1-0.3"/>
	<path class="st8" d="M-504.7,3.3c-1.2-0.2-2.5,0.6-3.7,0.3c0.1-0.4,0.7-0.6,1-0.3c-0.2,0.1-0.3,0.2-0.5,0.2c-0.2,0-0.4-0.1-0.4-0.3
		c0.3,0.2,0.3,0.6,0.1,0.8c-0.3-0.3-0.4-0.7-0.2-1.1c0.4,0.2,0.7,0.8,0.7,1.3c-0.5,0.1-1-0.5-0.7-0.9"/>
	<path class="st8" d="M-507.8,0.5c0.3-2.1-1-4.4-3-5.1c-0.1,0-0.2-0.1-0.2-0.2s0.1-0.2,0.2-0.1c0,0.2-0.2,0.4-0.4,0.3
		c0-0.3,0.4-0.5,0.6-0.3c-0.1,0.1-0.3,0.1-0.4,0.1c0-0.3,0-0.6,0-0.8c0.2,0,0.4,0,0.7,0c0.1,0.7-0.6,1.3-1.3,1.1
		c0-0.4,0.4-0.6,0.7-0.7c-0.1,0.2-0.2,0.4-0.3,0.5"/>
	<path class="st8" d="M-497.3,9.3c-0.2-1.3-1.6-2.3-1.9-3.6c-0.1,0.2-0.3,0.2-0.4,0.2s-0.2-0.3-0.1-0.4c0.2-0.1,0.4-0.2,0.6-0.1
		c0.2,0,0.4,0.3,0.3,0.5c-0.3,0-0.6-0.2-0.6-0.5s0.2-0.6,0.5-0.6c0.2,0.2,0.1,0.5-0.1,0.7"/>
	<path class="st8" d="M-498.1,9c-0.5,0-1.1,0-1.6,0"/>
	<path class="st8" d="M-492.7,11.2c-0.4,0.1-0.7,0-1.1,0c-0.4,0-0.8,0.1-0.9,0.4c-0.1,0.2-0.1,0.4-0.1,0.6c-0.1,0.3-0.4,0.6-0.8,0.6
		s-0.7-0.2-0.9-0.5c0.2,0,0.4,0,0.6,0.1c0,0.1,0,0.2,0,0.3c-0.2,0-0.3,0-0.5,0c0-0.1,0-0.3,0.1-0.4c0.1-0.1,0.3,0.2,0.2,0.2
		c-0.2,0.2-0.5,0.1-0.7-0.1c-0.2-0.2-0.1-0.6,0.2-0.7c0.3,0,0.5,0.4,0.2,0.5c-0.5,0.1-1.1-0.3-1.2-0.8"/>
	<path class="st8" d="M-502.1,5.2c0.2,0.2,0.3,0.5,0.4,0.8"/>
	<path class="st8" d="M-507.4,0.5c0,0.4,0.2,0.8,0.6,1.1"/>
	<path class="st16" d="M-483.4,18.3c-2.7-0.3-5.6,0-8.2,0.8c-1.3,0.4-2.5,1.4-3.7,1.7c-1.2,0.3-2.6-0.4-3.6-1
		c-0.1,0.6-0.5,1.1-1,1.4c-0.2-0.2,0.1-0.7,0.4-0.6c-0.2,0.3-0.6,0.3-0.9,0.2c0.1-0.3,0.5-0.5,0.7-0.3c0,0.2-0.1,0.4-0.3,0.5"/>
	<path class="st8" d="M-496.1,21.3c-0.3,0-0.6,0.2-0.9,0.4c-1.1,0.9-2.1,2-3.3,2.7c-0.8,0.4-1.7,0.7-2.2,1.4
		c0.1,0.1,0.2,0.1,0.4,0.1c0,0.2-0.2,0.4-0.4,0.4s-0.4,0-0.7-0.1c0-0.3,0-0.7,0.2-0.8s0.5,0.1,0.5,0.4c0,0.3-0.1,0.5-0.2,0.7
		c-0.1,0.2-0.3,0.4-0.5,0.3c0-0.1,0-0.2,0-0.3"/>
	<path class="st8" d="M-495.3,21.8c-0.1,1-0.3,1.9-0.6,2.9c-0.1,0.4-0.3,0.8-0.6,1.1s-0.9,0.2-1.1-0.1c0.1-0.1,0.3-0.1,0.4-0.1
		c-0.2,0.2-0.5,0.3-0.8,0.2c-0.2-0.2,0.2-0.6,0.4-0.5c0,0.4-0.3,0.8-0.6,0.9c0.1-0.1,0.3-0.2,0.4-0.3"/>
	<path class="st8" d="M-491.5,19.8c-0.1,0.4-0.2,0.8-0.3,1.3c-0.1,0.3-0.2,0.7-0.4,1c-0.2,0.3-0.6,0.4-0.9,0.3
		c-0.1-0.2,0.1-0.5,0.3-0.5c0.2,0.2,0,0.6-0.3,0.5c0-0.1,0.2-0.2,0.3-0.1"/>
	<path class="st8" d="M-492.7,19.2c-0.5-0.4-1.1-0.7-1.7-0.9c-0.1-0.1-0.3-0.1-0.5-0.1c-0.1,0-0.3,0.1-0.4,0.2
		c-0.4,0.2-0.7,0.4-1.1,0.6c0.3-0.2,0.6-0.3,0.9-0.3c-0.2,0.2-0.4,0.3-0.7,0.4c-0.3,0-0.5-0.2-0.4-0.5"/>
	<path class="st8" d="M-495.2,22.5c0-0.6,0-1.2,0-1.8"/>
	<path class="st8" d="M-492,19.3c-0.4,0-0.8-0.2-1-0.5"/>
</g>
</svg>
