<svg id="Layer_1" data-name="Layer 1" xmlns="http://www.w3.org/2000/svg" width="1017.79" height="480.62" viewBox="0 0 1017.79 480.62"><defs><style>.cls-1{fill:#f39200;}</style></defs><path class="cls-1" d="M382.17,39.45C339.34,84.16,355.64,137,317.45,154.1c-16.83,7.54-34,3.54-40.2,1.66-26.61-8-43.08-35.24-56.73-63.84C188.11,24,21.28,2.47,1.8,94.68c-23.42,110.85,189,32.2,187,151.85-.59,35.54-100.15,4.23-134.38,50.24-9.54,12.81-14.78,31.05-10.41,47,1.78,6.5,8.91,26.4,49.1,42.26,81.44,32.12,129.57-19.1,212.48-2.94,100.41,19.57,139.1,116,189.34,94.42,17.11-7.35,30.06-26,33.1-43.15,6-33.69-36.91-48.61-47.47-119.72-4.75-32-11.5-58.44,25.52-70.38,20.48-6.62,49.6-4.2,63,12.06,20.78,25.1-15.26,59.23,4.72,92.16,15.44,25.46,54.17,33.37,79.5,32,12.43-.66,22.45-1.43,32.57-7.51,41.53-25,35.5-105.54,35.41-147.51-.13-59.88,25.36-111.33,93.47-83.19,55.93,23.1,45.21,97.45,118.73,102.17,58,3.71,99.56-57.19,78.89-112.23A89.08,89.08,0,0,0,988.1,97.06C950.92,63.89,891.64,63.46,851.85,81c-15.86,7-16,11.25-34.11,17.87-12.12,4.42-49.29,18-75.5,5.15C706.8,86.66,725.88,38,692.9,14.85c-32.69-22.93-62.2,17.33-139,6.16C506.57,14.12,497.65-4,459.42.82,414.48,6.55,384.44,37.08,382.17,39.45Z"/></svg>
