<svg id="Layer_1" data-name="Layer 1" xmlns="http://www.w3.org/2000/svg" width="464.71" height="352.38" viewBox="0 0 464.71 352.38"><defs><style>.cls-1{fill:none;stroke:#bf271a;stroke-miterlimit:10;stroke-width:3px;opacity:0.24;}</style></defs><path class="cls-1" d="M160.35,267.31c-2.59-17.09,7.87-33.16,17.83-47.29,6.48,12.39,13.16,26.1,10.22,39.78-2.38,11-10.59,19.72-18.46,27.81,10.88-21.66,40.59-31.37,62.15-20.31-15.73,18.25-42.78,25.8-65.69,18.35,20.94,5.86,44.07,13.42,54.36,32.58-21.49,6.66-47.06-8.93-51-31.1,2.94,9.34,5.66,19.27,3.43,28.81s-11.17,18.22-20.84,16.66a100.79,100.79,0,0,1,16.78-45.48c-7.3,8.52-16,16.31-26.62,19.89s-23.49,2.15-31.4-5.81a60.84,60.84,0,0,1,56-9.54c-10.13-4.28-20.21-9.35-27.87-17.24s-12.62-19.1-10.67-29.92c.25-1.38,21.47,13.6,23.13,15.33a64.76,64.76,0,0,1,15.06,25.28C164.4,280.19,161.28,273.46,160.35,267.31Z"/><path class="cls-1" d="M243,184.15c-2.58-17.1,7.87-33.16,17.83-47.29,6.48,12.39,13.16,26.1,10.22,39.77-2.38,11-10.59,19.73-18.46,27.81,10.88-21.66,40.59-31.36,62.16-20.3-15.74,18.24-42.79,25.8-65.7,18.34,20.94,5.87,44.07,13.43,54.37,32.58-21.5,6.67-47.07-8.93-51-31.09,2.94,9.34,5.66,19.27,3.43,28.8S244.71,251,235.05,249.43A100.74,100.74,0,0,1,251.82,204c-7.29,8.51-16,16.31-26.62,19.88S201.71,226,193.81,218a60.82,60.82,0,0,1,55.95-9.54c-10.13-4.28-20.21-9.35-27.87-17.25s-12.61-19.09-10.67-29.92c.25-1.38,21.47,13.61,23.13,15.33a64.76,64.76,0,0,1,15.06,25.28C247.06,197,243.94,190.29,243,184.15Z"/><path class="cls-1" d="M133.26,154.55c-2.59-17.1,7.87-33.16,17.83-47.29,6.48,12.39,13.16,26.1,10.22,39.77-2.38,11-10.59,19.73-18.46,27.82,10.87-21.66,40.59-31.37,62.15-20.31-15.73,18.25-42.78,25.8-65.69,18.34,20.94,5.87,44.07,13.43,54.36,32.58-21.5,6.67-47.06-8.92-51-31.09,2.93,9.34,5.66,19.27,3.43,28.81S135,221.4,125.29,219.84a100.79,100.79,0,0,1,16.78-45.48c-7.3,8.52-16,16.31-26.62,19.89S92,196.4,84.05,188.44a60.84,60.84,0,0,1,56-9.54c-10.14-4.28-20.21-9.35-27.87-17.24s-12.62-19.1-10.67-29.92c.25-1.39,21.47,13.6,23.13,15.33a64.73,64.73,0,0,1,15.06,25.27C137.31,167.43,134.19,160.7,133.26,154.55Z"/><path class="cls-1" d="M61.58,278.33C59,261.24,69.45,245.17,79.41,231c6.49,12.39,13.17,26.1,10.22,39.78-2.37,11-10.58,19.72-18.45,27.81,10.87-21.66,40.58-31.37,62.15-20.31-15.74,18.25-42.78,25.8-65.7,18.35,20.94,5.86,44.08,13.42,54.37,32.58-21.5,6.66-47.06-8.93-51-31.1,2.93,9.34,5.65,19.27,3.43,28.81s-11.17,18.22-20.84,16.66A100.79,100.79,0,0,1,70.4,298.14c-7.3,8.52-16,16.31-26.63,19.89s-23.48,2.15-31.39-5.81a60.84,60.84,0,0,1,56-9.54c-10.14-4.28-20.21-9.35-27.87-17.24s-12.62-19.1-10.67-29.92c.25-1.38,21.46,13.6,23.13,15.33A64.76,64.76,0,0,1,68,296.13C65.64,291.21,62.51,284.48,61.58,278.33Z"/><path class="cls-1" d="M206.28,56.91c-2.59-17.1,7.87-33.16,17.83-47.29,6.48,12.39,13.16,26.1,10.22,39.78-2.38,11-10.59,19.72-18.46,27.81C226.74,55.55,256.46,45.84,278,56.9c-15.73,18.25-42.78,25.8-65.69,18.34,20.94,5.87,44.07,13.43,54.36,32.59-21.5,6.66-47.06-8.93-51-31.1,2.93,9.34,5.66,19.27,3.43,28.81S208,123.76,198.31,122.2a100.79,100.79,0,0,1,16.78-45.48c-7.3,8.52-16,16.31-26.62,19.89S165,98.76,157.07,90.8a60.84,60.84,0,0,1,56-9.54C202.89,77,192.82,71.91,185.16,64s-12.62-19.1-10.67-29.92c.25-1.38,21.47,13.6,23.13,15.33A64.73,64.73,0,0,1,212.68,74.7C210.33,69.79,207.21,63.06,206.28,56.91Z"/><path class="cls-1" d="M320.53,102.75c-2.58-17.1,7.87-33.16,17.83-47.3,6.48,12.4,13.17,26.11,10.22,39.78C346.2,106.26,338,115,330.12,123c10.88-21.66,40.59-31.37,62.16-20.3-15.74,18.24-42.79,25.79-65.7,18.34C347.52,127,370.65,134.5,381,153.66c-21.5,6.67-47.07-8.93-51-31.1,2.94,9.35,5.66,19.28,3.43,28.81S322.23,169.6,312.57,168a100.64,100.64,0,0,1,16.78-45.47c-7.3,8.51-16,16.31-26.63,19.88s-23.49,2.15-31.39-5.8a60.85,60.85,0,0,1,55.95-9.55c-10.13-4.27-20.21-9.34-27.87-17.24s-12.61-19.1-10.66-29.92c.24-1.38,21.46,13.6,23.12,15.33a64.91,64.91,0,0,1,15.07,25.28C324.58,115.62,321.46,108.89,320.53,102.75Z"/><path class="cls-1" d="M303.49,278.33c-2.59-17.09,7.86-33.16,17.83-47.29,6.48,12.39,13.16,26.1,10.21,39.78-2.37,11-10.58,19.72-18.45,27.81C324,277,353.67,267.26,375.23,278.32c-15.74,18.25-42.78,25.8-65.69,18.35,20.93,5.86,44.07,13.42,54.36,32.58-21.5,6.66-47.06-8.93-51-31.1,2.93,9.34,5.66,19.27,3.43,28.81s-11.17,18.22-20.84,16.66a100.79,100.79,0,0,1,16.78-45.48c-7.3,8.52-16,16.31-26.63,19.89s-23.48,2.15-31.39-5.81a60.84,60.84,0,0,1,56-9.54c-10.14-4.28-20.21-9.35-27.87-17.24s-12.62-19.1-10.67-29.92c.25-1.38,21.46,13.6,23.13,15.33a64.76,64.76,0,0,1,15.06,25.28C307.54,291.21,304.41,284.48,303.49,278.33Z"/><path class="cls-1" d="M61.58,56.91C59,39.81,69.45,23.75,79.41,9.62,85.9,22,92.58,35.72,89.63,49.4c-2.37,11-10.58,19.72-18.45,27.81,10.87-21.66,40.58-31.37,62.15-20.31-15.74,18.25-42.78,25.8-65.7,18.34,20.94,5.87,44.08,13.43,54.37,32.59-21.5,6.66-47.06-8.93-51-31.1C74,86.07,76.68,96,74.46,105.54S63.29,123.76,53.62,122.2A100.79,100.79,0,0,1,70.4,76.72C63.1,85.24,54.4,93,43.77,96.61S20.29,98.76,12.38,90.8a60.84,60.84,0,0,1,56-9.54C58.2,77,48.13,71.91,40.47,64S27.85,44.92,29.8,34.1c.25-1.38,21.46,13.6,23.13,15.33A64.73,64.73,0,0,1,68,74.7C65.64,69.79,62.51,63.06,61.58,56.91Z"/><path class="cls-1" d="M34.19,161.9C32.4,150,39.66,138.86,46.58,129c4.51,8.62,9.15,18.14,7.11,27.65C52,164.34,46.33,170.38,40.86,176c7.56-15.05,28.21-21.8,43.19-14.11-10.93,12.68-29.73,17.93-45.65,12.75C53,178.72,69,184,76.18,197.28c-14.94,4.63-32.71-6.2-35.42-21.61,2,6.49,3.93,13.39,2.38,20s-7.76,12.67-14.48,11.58a70,70,0,0,1,11.66-31.6c-5.07,5.91-11.12,11.33-18.5,13.82S5.49,191,0,185.45a42.3,42.3,0,0,1,38.89-6.63c-7-3-14-6.5-19.37-12s-8.77-13.27-7.41-20.8c.17-1,14.91,9.46,16.07,10.66a45,45,0,0,1,10.46,17.56C37,170.85,34.84,166.17,34.19,161.9Z"/><path class="cls-1" d="M392.58,210.93c-2.58-17.09,7.87-33.16,17.83-47.29,6.48,12.39,13.17,26.1,10.22,39.78-2.37,11-10.59,19.72-18.46,27.81,10.88-21.66,40.59-31.37,62.16-20.31-15.74,18.25-42.78,25.8-65.7,18.35,20.94,5.86,44.07,13.42,54.37,32.58-21.5,6.66-47.07-8.93-51-31.1,2.94,9.34,5.66,19.27,3.44,28.81s-11.18,18.22-20.84,16.66a100.68,100.68,0,0,1,16.78-45.48c-7.3,8.52-16,16.31-26.63,19.89s-23.49,2.15-31.39-5.81a60.82,60.82,0,0,1,55.95-9.54c-10.13-4.28-20.2-9.35-27.86-17.24s-12.62-19.1-10.67-29.92c.24-1.38,21.46,13.6,23.13,15.33A64.73,64.73,0,0,1,399,228.72C396.63,223.81,393.51,217.08,392.58,210.93Z"/><path class="cls-1" d="M411.29,43.68c-1.9-12.53,5.76-24.29,13.06-34.65,4.75,9.08,9.65,19.13,7.49,29.14-1.74,8.09-7.76,14.46-13.52,20.38,8-15.87,29.74-23,45.54-14.87-11.53,13.37-31.35,18.9-48.14,13.44C431.06,61.42,448,67,455.56,81c-15.75,4.89-34.49-6.54-37.35-22.79,2.15,6.85,4.14,14.13,2.51,21.12s-8.19,13.35-15.27,12.2a73.87,73.87,0,0,1,12.3-33.32c-5.35,6.24-11.73,12-19.51,14.57s-17.21,1.58-23-4.25a44.59,44.59,0,0,1,41-7c-7.42-3.13-14.8-6.85-20.42-12.63S386.57,34.9,388,27c.18-1,15.72,10,16.94,11.24a47.39,47.39,0,0,1,11,18.52C414.26,53.12,412,48.19,411.29,43.68Z"/></svg>
