<svg id="Layer_1" data-name="Layer 1" xmlns="http://www.w3.org/2000/svg" width="161.96" height="113.07" viewBox="0 0 161.96 113.07"><defs><style>.cls-1{fill:none;stroke:#fff;stroke-miterlimit:10;stroke-width:2px;}</style></defs><path class="cls-1" d="M63.57,65.39a20.44,20.44,0,0,1-2-2.29,11.38,11.38,0,0,1-1.17-2.7,54.29,54.29,0,0,1-2.74-10.52,18.19,18.19,0,0,1,1.57-10.61c2.14-4.07,6.18-6.78,10.31-8.77,5.25-2.53,11.26-4.18,16.88-2.66,6.94,1.88,11.83,8.24,14.44,14.93a16.38,16.38,0,0,1,1.11,4A15.1,15.1,0,0,1,100.1,55c-2.67,5.37-6.94,10.1-8,16-.23,1.27-.31,2.57-.63,3.82a10.17,10.17,0,0,1-1.32,3,2.8,2.8,0,0,1-.87.94A3.42,3.42,0,0,1,87,79a48.34,48.34,0,0,0-9.84-.43c-2.14.12-5.33,1.26-7.23-.19-1.52-1.16-1.84-3.65-2.38-5.34A20.7,20.7,0,0,0,63.57,65.39Z"/><rect class="cls-1" x="70.79" y="82.97" width="18.84" height="4.36" rx="2.18"/><rect class="cls-1" x="73.23" y="89" width="14.23" height="4.39" rx="2.19"/><rect class="cls-1" x="74.91" y="95.53" width="10.1" height="4.23" rx="2.11"/><line class="cls-1" x1="43.96" y1="59.68" x2="51.81" y2="57.43"/><line class="cls-1" x1="45.22" y1="36.9" x2="52.93" y2="40.04"/><line class="cls-1" x1="59.16" y1="19.99" x2="64.01" y2="27.26"/><line class="cls-1" x1="80.25" y1="13.96" x2="80.25" y2="22.34"/><line class="cls-1" x1="101.6" y1="19.99" x2="96.91" y2="27.26"/><line class="cls-1" x1="114.78" y1="37.8" x2="107.07" y2="40.04"/><line class="cls-1" x1="116.53" y1="59.68" x2="108.19" y2="57.43"/></svg>
