<svg id="Layer_1" data-name="Layer 1" xmlns="http://www.w3.org/2000/svg" width="123.93" height="81.73" viewBox="0 0 123.93 81.73"><defs><style>.cls-1,.cls-2{fill:none;stroke:#fff;stroke-miterlimit:10;}.cls-1{stroke-width:2px;}</style></defs><path class="cls-1" d="M28.75,6.08c-3.62.49-7,2-10.33,3.58a8.29,8.29,0,0,0-2.6,1.61,8,8,0,0,0-1.45,2.41A166.15,166.15,0,0,0,1.77,56C.7,62.74.2,70.22,4,76c1.74,2.65,4.6,4.82,7.78,4.77,4.08-.06,7.16-3.53,9.89-6.57,4-4.41,8.51-8.54,14.07-10.65,5.29-2,11.09-2,16.75-2l26,.08a31.31,31.31,0,0,1,9.22.95c4.6,1.43,8.25,4.88,11.73,8.23l6.66,6.41a13.53,13.53,0,0,0,3.81,2.89c3.84,1.67,8.51-.67,10.71-4.23s2.46-8,2.34-12.16c-.52-16.77-6.36-32.86-12.15-48.61a9.19,9.19,0,0,0-1.54-3A8.8,8.8,0,0,0,106,10,82.51,82.51,0,0,0,95.81,6.25c-2.6-.78-5.37-1.43-8-.75-5.12,1.32-7.72,7-12,10.07C71.08,19,64.74,19.1,58.86,19c-3,0-6.81,0-9.48-1.65-2.07-1.24-3-3.71-4.66-5.43A19,19,0,0,0,28.75,6.08Z"/><path class="cls-1" d="M18.34,8.22c.24-1.86,2.37-2.75,4.17-3.28L32.4,2c2.3-.68,4.71-1.36,7.05-.86a31.71,31.71,0,0,1,4.28,1.64,25.14,25.14,0,0,0,7.78,1.13q10.31.35,20.61,0a23.63,23.63,0,0,0,6.1-.79c1.56-.48,3-1.28,4.6-1.66,2.78-.67,5.69,0,8.48.64L99.48,4a11.14,11.14,0,0,1,3.89,1.44A3.82,3.82,0,0,1,105.17,9"/><path class="cls-1" d="M41.94,8.78,45,4.4"/><path class="cls-1" d="M80.37,9.64A46.71,46.71,0,0,1,77.49,4.4"/><circle class="cls-1" cx="29.1" cy="24.87" r="9.45"/><circle class="cls-1" cx="94.21" cy="23.98" r="9.45"/><circle class="cls-1" cx="72.57" cy="48.98" r="8.07"/><circle class="cls-2" cx="72.57" cy="48.98" r="4.96"/><rect class="cls-1" x="47.68" y="42.3" width="3.53" height="13.37"/><rect class="cls-1" x="47.68" y="42.3" width="3.53" height="13.37" transform="translate(0.46 98.42) rotate(-90)"/></svg>
