<svg id="Layer_1" data-name="Layer 1" xmlns="http://www.w3.org/2000/svg" width="161.96" height="113.07" viewBox="0 0 161.96 113.07"><defs><style>.cls-1,.cls-2{fill:none;stroke:#fff;stroke-miterlimit:10;}.cls-1{stroke-width:2px;}</style></defs><polyline class="cls-1" points="131.91 47.22 131.91 20.07 34.17 20.07 34.17 74.36 104.64 74.36"/><path class="cls-1" d="M105.31,82.91H31.92a4.45,4.45,0,0,1-4.45-4.45V18.85a4.45,4.45,0,0,1,4.45-4.45H135.37a4.45,4.45,0,0,1,4.45,4.45V48"/><rect class="cls-1" x="105.47" y="47.21" width="35.16" height="51.77" rx="3.06"/><rect class="cls-1" x="42.52" y="27.66" width="80.53" height="14.29"/><rect class="cls-1" x="42.52" y="51.69" width="16.92" height="16.92"/><rect class="cls-1" x="66.73" y="51.59" width="16.92" height="16.92"/><polyline class="cls-1" points="105.47 68.51 92.19 68.51 92.19 51.59 105.47 51.59"/><rect class="cls-2" x="109.6" y="51.1" width="26.91" height="44.01"/><rect class="cls-2" x="112.51" y="55.15" width="20.45" height="10.8"/><rect class="cls-2" x="112.51" y="70.2" width="20.45" height="4.16"/><rect class="cls-2" x="112.82" y="78.2" width="20.45" height="4.16"/><rect class="cls-2" x="112.51" y="86.21" width="20.45" height="4.16"/><polygon class="cls-1" points="77.06 82.91 74.16 92.02 87.81 92.02 85.14 82.91 77.06 82.91"/></svg>
